M48
;DRILL file {KiCad (5.0.1)-4} date 26/02/2019 7:28:46 PM
;FORMAT={-:-/ absolute / inch / decimal}
FMAT,2
INCH,TZ
T1C0.0150
T2C0.0315
T3C0.0394
T4C0.0550
T5C0.0551
T6C0.1260
%
G90
G05
M72
T1
X4.7365Y-3.84
X4.7365Y-4.08
X4.77Y-3.3177
X4.7928Y-3.57
X4.8Y-4.24
X4.83Y-4.29
X4.9328Y-3.6
X4.972Y-3.9
X5.1591Y-3.8982
X5.27Y-3.42
X5.2928Y-3.64
X5.3Y-3.76
X5.372Y-3.196
X5.42Y-3.41
X5.435Y-3.671
X5.51Y-3.74
X5.72Y-4.409
X5.75Y-3.28
X5.75Y-3.74
X5.76Y-2.86
X5.827Y-4.878
X6.22Y-2.86
X6.227Y-3.509
X6.23Y-3.55
X6.232Y-3.611
X6.6165Y-3.215
X6.6165Y-3.25
X6.6165Y-4.005
X6.6165Y-4.04
X6.6165Y-4.75
X6.6165Y-4.785
X6.617Y-3.32
X6.617Y-4.11
X6.617Y-4.855
X6.618Y-3.285
X6.618Y-4.075
X6.618Y-4.82
X6.6245Y-2.43
X6.6245Y-2.465
X6.625Y-2.535
X6.626Y-2.5
X6.6545Y-3.215
X6.6545Y-4.005
X6.6545Y-4.75
X6.655Y-3.25
X6.655Y-3.285
X6.655Y-3.32
X6.655Y-4.04
X6.655Y-4.075
X6.655Y-4.11
X6.655Y-4.785
X6.655Y-4.82
X6.655Y-4.855
X6.6625Y-2.43
X6.663Y-2.465
X6.663Y-2.5
X6.663Y-2.535
X6.69Y-3.215
X6.69Y-3.25
X6.69Y-3.285
X6.69Y-3.32
X6.69Y-4.005
X6.69Y-4.04
X6.69Y-4.075
X6.69Y-4.11
X6.69Y-4.75
X6.69Y-4.785
X6.69Y-4.82
X6.69Y-4.855
X6.698Y-2.43
X6.698Y-2.465
X6.698Y-2.5
X6.698Y-2.535
X6.725Y-3.215
X6.725Y-3.25
X6.725Y-3.285
X6.725Y-3.32
X6.725Y-4.005
X6.725Y-4.04
X6.725Y-4.075
X6.725Y-4.11
X6.725Y-4.75
X6.725Y-4.785
X6.725Y-4.82
X6.725Y-4.855
X6.733Y-2.43
X6.733Y-2.465
X6.733Y-2.5
X6.733Y-2.535
X7.37Y-3.69
T2
X5.27Y-2.56
X5.3684Y-2.56
X7.25Y-3.51
X7.3484Y-3.51
T3
X4.4841Y-2.982
X4.4841Y-3.082
X4.4841Y-3.182
X4.4928Y-3.82
X4.4928Y-3.92
X4.4928Y-4.02
X4.4901Y-3.4107
X4.4901Y-3.5107
X4.4901Y-3.6107
X4.5901Y-3.4107
X4.5901Y-3.5107
X4.5901Y-3.6107
X4.6288Y-2.982
X4.6288Y-3.082
X4.6288Y-3.182
T4
X7.1Y-3.795
X7.53Y-3.795
T5
X7.951Y-3.3884
X7.951Y-3.5853
X7.951Y-3.7821
X7.951Y-3.979
T6
X8.Y-2.2
X4.6Y-5.
X4.6Y-2.3
X8.Y-5.1
T0
M30
