G04 #@! TF.GenerationSoftware,KiCad,Pcbnew,(5.0.1)-4*
G04 #@! TF.CreationDate,2019-02-26T19:28:48-05:00*
G04 #@! TF.ProjectId,Capstone,43617073746F6E652E6B696361645F70,v01*
G04 #@! TF.SameCoordinates,Original*
G04 #@! TF.FileFunction,Soldermask,Top*
G04 #@! TF.FilePolarity,Negative*
%FSLAX46Y46*%
G04 Gerber Fmt 4.6, Leading zero omitted, Abs format (unit mm)*
G04 Created by KiCad (PCBNEW (5.0.1)-4) date 26/02/2019 7:28:48 PM*
%MOMM*%
%LPD*%
G01*
G04 APERTURE LIST*
%ADD10C,0.100000*%
G04 APERTURE END LIST*
D10*
G36*
X203746409Y-126793017D02*
X204016963Y-126846833D01*
X204228092Y-126934285D01*
X204526675Y-127057962D01*
X204526676Y-127057963D01*
X204985406Y-127364476D01*
X205375524Y-127754594D01*
X205605409Y-128098642D01*
X205682038Y-128213325D01*
X205728989Y-128326675D01*
X205893167Y-128723037D01*
X205946983Y-128993591D01*
X206000800Y-129264144D01*
X206000800Y-129815856D01*
X205893167Y-130356962D01*
X205682038Y-130866675D01*
X205682037Y-130866676D01*
X205375524Y-131325406D01*
X204985406Y-131715524D01*
X204641358Y-131945409D01*
X204526675Y-132022038D01*
X204228092Y-132145715D01*
X204016963Y-132233167D01*
X203746409Y-132286983D01*
X203475856Y-132340800D01*
X202924144Y-132340800D01*
X202653591Y-132286983D01*
X202383037Y-132233167D01*
X202171908Y-132145715D01*
X201873325Y-132022038D01*
X201758642Y-131945409D01*
X201414594Y-131715524D01*
X201024476Y-131325406D01*
X200717963Y-130866676D01*
X200717962Y-130866675D01*
X200506833Y-130356962D01*
X200399200Y-129815856D01*
X200399200Y-129264144D01*
X200453017Y-128993591D01*
X200506833Y-128723037D01*
X200671011Y-128326675D01*
X200717962Y-128213325D01*
X200794591Y-128098641D01*
X201024476Y-127754594D01*
X201414594Y-127364476D01*
X201873324Y-127057963D01*
X201873325Y-127057962D01*
X202171908Y-126934285D01*
X202383037Y-126846833D01*
X202653591Y-126793017D01*
X202924144Y-126739200D01*
X203475856Y-126739200D01*
X203746409Y-126793017D01*
X203746409Y-126793017D01*
G37*
G36*
X117386409Y-124253017D02*
X117656963Y-124306833D01*
X117868092Y-124394285D01*
X118166675Y-124517962D01*
X118166676Y-124517963D01*
X118625406Y-124824476D01*
X119015524Y-125214594D01*
X119245409Y-125558641D01*
X119322038Y-125673325D01*
X119445715Y-125971908D01*
X119533167Y-126183037D01*
X119640800Y-126724145D01*
X119640800Y-127275855D01*
X119545574Y-127754591D01*
X119533167Y-127816962D01*
X119322038Y-128326675D01*
X119322037Y-128326676D01*
X119015524Y-128785406D01*
X118625406Y-129175524D01*
X118281359Y-129405409D01*
X118166675Y-129482038D01*
X117868092Y-129605715D01*
X117656963Y-129693167D01*
X117386409Y-129746984D01*
X117115856Y-129800800D01*
X116564144Y-129800800D01*
X116293591Y-129746984D01*
X116023037Y-129693167D01*
X115811908Y-129605715D01*
X115513325Y-129482038D01*
X115398641Y-129405409D01*
X115054594Y-129175524D01*
X114664476Y-128785406D01*
X114357963Y-128326676D01*
X114357962Y-128326675D01*
X114146833Y-127816962D01*
X114134427Y-127754591D01*
X114039200Y-127275855D01*
X114039200Y-126724145D01*
X114146833Y-126183037D01*
X114234285Y-125971908D01*
X114357962Y-125673325D01*
X114434591Y-125558641D01*
X114664476Y-125214594D01*
X115054594Y-124824476D01*
X115513324Y-124517963D01*
X115513325Y-124517962D01*
X115811908Y-124394285D01*
X116023037Y-124306833D01*
X116293591Y-124253017D01*
X116564144Y-124199200D01*
X117115856Y-124199200D01*
X117386409Y-124253017D01*
X117386409Y-124253017D01*
G37*
G36*
X166865800Y-124260800D02*
X165494200Y-124260800D01*
X165494200Y-123549200D01*
X166865800Y-123549200D01*
X166865800Y-124260800D01*
X166865800Y-124260800D01*
G37*
G36*
X172205800Y-120450800D02*
X171670800Y-120450800D01*
X171646414Y-120453202D01*
X171622965Y-120460315D01*
X171601354Y-120471866D01*
X171582412Y-120487412D01*
X171566866Y-120506354D01*
X171555315Y-120527965D01*
X171548202Y-120551414D01*
X171545800Y-120575800D01*
X171545800Y-120884200D01*
X171548202Y-120908586D01*
X171555315Y-120932035D01*
X171566866Y-120953646D01*
X171582412Y-120972588D01*
X171601354Y-120988134D01*
X171622965Y-120999685D01*
X171646414Y-121006798D01*
X171670800Y-121009200D01*
X172205800Y-121009200D01*
X172205800Y-121720800D01*
X171670800Y-121720800D01*
X171646414Y-121723202D01*
X171622965Y-121730315D01*
X171601354Y-121741866D01*
X171582412Y-121757412D01*
X171566866Y-121776354D01*
X171555315Y-121797965D01*
X171548202Y-121821414D01*
X171545800Y-121845800D01*
X171545800Y-122154200D01*
X171548202Y-122178586D01*
X171555315Y-122202035D01*
X171566866Y-122223646D01*
X171582412Y-122242588D01*
X171601354Y-122258134D01*
X171622965Y-122269685D01*
X171646414Y-122276798D01*
X171670800Y-122279200D01*
X172205800Y-122279200D01*
X172205800Y-122990800D01*
X171670800Y-122990800D01*
X171646414Y-122993202D01*
X171622965Y-123000315D01*
X171601354Y-123011866D01*
X171582412Y-123027412D01*
X171566866Y-123046354D01*
X171555315Y-123067965D01*
X171548202Y-123091414D01*
X171545800Y-123115800D01*
X171545800Y-123424200D01*
X171548202Y-123448586D01*
X171555315Y-123472035D01*
X171566866Y-123493646D01*
X171582412Y-123512588D01*
X171601354Y-123528134D01*
X171622965Y-123539685D01*
X171646414Y-123546798D01*
X171670800Y-123549200D01*
X172205800Y-123549200D01*
X172205800Y-124260800D01*
X171084200Y-124260800D01*
X171084200Y-124080800D01*
X171081798Y-124056414D01*
X171074685Y-124032965D01*
X171063134Y-124011354D01*
X171047588Y-123992412D01*
X171028646Y-123976866D01*
X171007035Y-123965315D01*
X170983586Y-123958202D01*
X170959200Y-123955800D01*
X167534200Y-123955800D01*
X167534200Y-120044200D01*
X170959200Y-120044200D01*
X170983586Y-120041798D01*
X171007035Y-120034685D01*
X171028646Y-120023134D01*
X171047588Y-120007588D01*
X171063134Y-119988646D01*
X171074685Y-119967035D01*
X171081798Y-119943586D01*
X171084200Y-119919200D01*
X171084200Y-119739200D01*
X172205800Y-119739200D01*
X172205800Y-120450800D01*
X172205800Y-120450800D01*
G37*
G36*
X166865800Y-122990800D02*
X165494200Y-122990800D01*
X165494200Y-122279200D01*
X166865800Y-122279200D01*
X166865800Y-122990800D01*
X166865800Y-122990800D01*
G37*
G36*
X166865800Y-121720800D02*
X165494200Y-121720800D01*
X165494200Y-121009200D01*
X166865800Y-121009200D01*
X166865800Y-121720800D01*
X166865800Y-121720800D01*
G37*
G36*
X151152659Y-117912446D02*
X151188211Y-117923230D01*
X151220972Y-117940742D01*
X151249690Y-117964310D01*
X151273258Y-117993028D01*
X151290770Y-118025789D01*
X151301554Y-118061341D01*
X151305800Y-118104451D01*
X151305800Y-121163549D01*
X151301554Y-121206659D01*
X151290770Y-121242211D01*
X151273258Y-121274972D01*
X151249690Y-121303690D01*
X151220972Y-121327258D01*
X151188211Y-121344770D01*
X151152659Y-121355554D01*
X151109549Y-121359800D01*
X150050451Y-121359800D01*
X150007341Y-121355554D01*
X149971789Y-121344770D01*
X149939028Y-121327258D01*
X149910310Y-121303690D01*
X149886742Y-121274972D01*
X149869230Y-121242211D01*
X149858446Y-121206659D01*
X149854200Y-121163549D01*
X149854200Y-118104451D01*
X149858446Y-118061341D01*
X149869230Y-118025789D01*
X149886742Y-117993028D01*
X149910310Y-117964310D01*
X149939028Y-117940742D01*
X149971789Y-117923230D01*
X150007341Y-117912446D01*
X150050451Y-117908200D01*
X151109549Y-117908200D01*
X151152659Y-117912446D01*
X151152659Y-117912446D01*
G37*
G36*
X145352659Y-117912446D02*
X145388211Y-117923230D01*
X145420972Y-117940742D01*
X145449690Y-117964310D01*
X145473258Y-117993028D01*
X145490770Y-118025789D01*
X145501554Y-118061341D01*
X145505800Y-118104451D01*
X145505800Y-121163549D01*
X145501554Y-121206659D01*
X145490770Y-121242211D01*
X145473258Y-121274972D01*
X145449690Y-121303690D01*
X145420972Y-121327258D01*
X145388211Y-121344770D01*
X145352659Y-121355554D01*
X145309549Y-121359800D01*
X144250451Y-121359800D01*
X144207341Y-121355554D01*
X144171789Y-121344770D01*
X144139028Y-121327258D01*
X144110310Y-121303690D01*
X144086742Y-121274972D01*
X144069230Y-121242211D01*
X144058446Y-121206659D01*
X144054200Y-121163549D01*
X144054200Y-118104451D01*
X144058446Y-118061341D01*
X144069230Y-118025789D01*
X144086742Y-117993028D01*
X144110310Y-117964310D01*
X144139028Y-117940742D01*
X144171789Y-117923230D01*
X144207341Y-117912446D01*
X144250451Y-117908200D01*
X145309549Y-117908200D01*
X145352659Y-117912446D01*
X145352659Y-117912446D01*
G37*
G36*
X140212465Y-118712546D02*
X140248995Y-118723627D01*
X140282659Y-118741621D01*
X140312164Y-118765836D01*
X140336379Y-118795341D01*
X140354373Y-118829005D01*
X140365454Y-118865535D01*
X140369800Y-118909660D01*
X140369800Y-120358340D01*
X140365454Y-120402465D01*
X140354373Y-120438995D01*
X140336379Y-120472659D01*
X140312164Y-120502164D01*
X140282659Y-120526379D01*
X140248995Y-120544373D01*
X140212465Y-120555454D01*
X140168340Y-120559800D01*
X139219660Y-120559800D01*
X139175535Y-120555454D01*
X139139005Y-120544373D01*
X139105341Y-120526379D01*
X139075836Y-120502164D01*
X139051621Y-120472659D01*
X139033627Y-120438995D01*
X139022546Y-120402465D01*
X139018200Y-120358340D01*
X139018200Y-118909660D01*
X139022546Y-118865535D01*
X139033627Y-118829005D01*
X139051621Y-118795341D01*
X139075836Y-118765836D01*
X139105341Y-118741621D01*
X139139005Y-118723627D01*
X139175535Y-118712546D01*
X139219660Y-118708200D01*
X140168340Y-118708200D01*
X140212465Y-118712546D01*
X140212465Y-118712546D01*
G37*
G36*
X143012465Y-118712546D02*
X143048995Y-118723627D01*
X143082659Y-118741621D01*
X143112164Y-118765836D01*
X143136379Y-118795341D01*
X143154373Y-118829005D01*
X143165454Y-118865535D01*
X143169800Y-118909660D01*
X143169800Y-120358340D01*
X143165454Y-120402465D01*
X143154373Y-120438995D01*
X143136379Y-120472659D01*
X143112164Y-120502164D01*
X143082659Y-120526379D01*
X143048995Y-120544373D01*
X143012465Y-120555454D01*
X142968340Y-120559800D01*
X142019660Y-120559800D01*
X141975535Y-120555454D01*
X141939005Y-120544373D01*
X141905341Y-120526379D01*
X141875836Y-120502164D01*
X141851621Y-120472659D01*
X141833627Y-120438995D01*
X141822546Y-120402465D01*
X141818200Y-120358340D01*
X141818200Y-118909660D01*
X141822546Y-118865535D01*
X141833627Y-118829005D01*
X141851621Y-118795341D01*
X141875836Y-118765836D01*
X141905341Y-118741621D01*
X141939005Y-118723627D01*
X141975535Y-118712546D01*
X142019660Y-118708200D01*
X142968340Y-118708200D01*
X143012465Y-118712546D01*
X143012465Y-118712546D01*
G37*
G36*
X166865800Y-120450800D02*
X165494200Y-120450800D01*
X165494200Y-119739200D01*
X166865800Y-119739200D01*
X166865800Y-120450800D01*
X166865800Y-120450800D01*
G37*
G36*
X127006465Y-117647046D02*
X127042995Y-117658127D01*
X127076659Y-117676121D01*
X127106164Y-117700336D01*
X127130379Y-117729841D01*
X127148373Y-117763505D01*
X127159454Y-117800035D01*
X127163800Y-117844160D01*
X127163800Y-118792840D01*
X127159454Y-118836965D01*
X127148373Y-118873495D01*
X127130379Y-118907159D01*
X127106164Y-118936664D01*
X127076659Y-118960879D01*
X127042995Y-118978873D01*
X127006465Y-118989954D01*
X126962340Y-118994300D01*
X125513660Y-118994300D01*
X125469535Y-118989954D01*
X125433005Y-118978873D01*
X125399341Y-118960879D01*
X125369836Y-118936664D01*
X125345621Y-118907159D01*
X125327627Y-118873495D01*
X125316546Y-118836965D01*
X125312200Y-118792840D01*
X125312200Y-117844160D01*
X125316546Y-117800035D01*
X125327627Y-117763505D01*
X125345621Y-117729841D01*
X125369836Y-117700336D01*
X125399341Y-117676121D01*
X125433005Y-117658127D01*
X125469535Y-117647046D01*
X125513660Y-117642700D01*
X126962340Y-117642700D01*
X127006465Y-117647046D01*
X127006465Y-117647046D01*
G37*
G36*
X127006465Y-114847046D02*
X127042995Y-114858127D01*
X127076659Y-114876121D01*
X127106164Y-114900336D01*
X127130379Y-114929841D01*
X127148373Y-114963505D01*
X127159454Y-115000035D01*
X127163800Y-115044160D01*
X127163800Y-115992840D01*
X127159454Y-116036965D01*
X127148373Y-116073495D01*
X127130379Y-116107159D01*
X127106164Y-116136664D01*
X127076659Y-116160879D01*
X127042995Y-116178873D01*
X127006465Y-116189954D01*
X126962340Y-116194300D01*
X125513660Y-116194300D01*
X125469535Y-116189954D01*
X125433005Y-116178873D01*
X125399341Y-116160879D01*
X125369836Y-116136664D01*
X125345621Y-116107159D01*
X125327627Y-116073495D01*
X125316546Y-116036965D01*
X125312200Y-115992840D01*
X125312200Y-115044160D01*
X125316546Y-115000035D01*
X125327627Y-114963505D01*
X125345621Y-114929841D01*
X125369836Y-114900336D01*
X125399341Y-114876121D01*
X125433005Y-114858127D01*
X125469535Y-114847046D01*
X125513660Y-114842700D01*
X126962340Y-114842700D01*
X127006465Y-114847046D01*
X127006465Y-114847046D01*
G37*
G36*
X144022465Y-113886546D02*
X144058995Y-113897627D01*
X144092659Y-113915621D01*
X144122164Y-113939836D01*
X144146379Y-113969341D01*
X144164373Y-114003005D01*
X144175454Y-114039535D01*
X144179800Y-114083660D01*
X144179800Y-115532340D01*
X144175454Y-115576465D01*
X144164373Y-115612995D01*
X144146379Y-115646659D01*
X144122164Y-115676164D01*
X144092659Y-115700379D01*
X144058995Y-115718373D01*
X144022465Y-115729454D01*
X143978340Y-115733800D01*
X143029660Y-115733800D01*
X142985535Y-115729454D01*
X142949005Y-115718373D01*
X142915341Y-115700379D01*
X142885836Y-115676164D01*
X142861621Y-115646659D01*
X142843627Y-115612995D01*
X142832546Y-115576465D01*
X142828200Y-115532340D01*
X142828200Y-114083660D01*
X142832546Y-114039535D01*
X142843627Y-114003005D01*
X142861621Y-113969341D01*
X142885836Y-113939836D01*
X142915341Y-113915621D01*
X142949005Y-113897627D01*
X142985535Y-113886546D01*
X143029660Y-113882200D01*
X143978340Y-113882200D01*
X144022465Y-113886546D01*
X144022465Y-113886546D01*
G37*
G36*
X146822465Y-113886546D02*
X146858995Y-113897627D01*
X146892659Y-113915621D01*
X146922164Y-113939836D01*
X146946379Y-113969341D01*
X146964373Y-114003005D01*
X146975454Y-114039535D01*
X146979800Y-114083660D01*
X146979800Y-115532340D01*
X146975454Y-115576465D01*
X146964373Y-115612995D01*
X146946379Y-115646659D01*
X146922164Y-115676164D01*
X146892659Y-115700379D01*
X146858995Y-115718373D01*
X146822465Y-115729454D01*
X146778340Y-115733800D01*
X145829660Y-115733800D01*
X145785535Y-115729454D01*
X145749005Y-115718373D01*
X145715341Y-115700379D01*
X145685836Y-115676164D01*
X145661621Y-115646659D01*
X145643627Y-115612995D01*
X145632546Y-115576465D01*
X145628200Y-115532340D01*
X145628200Y-114083660D01*
X145632546Y-114039535D01*
X145643627Y-114003005D01*
X145661621Y-113969341D01*
X145685836Y-113939836D01*
X145715341Y-113915621D01*
X145749005Y-113897627D01*
X145785535Y-113886546D01*
X145829660Y-113882200D01*
X146778340Y-113882200D01*
X146822465Y-113886546D01*
X146822465Y-113886546D01*
G37*
G36*
X124307600Y-115265200D02*
X122224800Y-115265200D01*
X122224800Y-114604800D01*
X124307600Y-114604800D01*
X124307600Y-115265200D01*
X124307600Y-115265200D01*
G37*
G36*
X119583200Y-115265200D02*
X117500400Y-115265200D01*
X117500400Y-114604800D01*
X119583200Y-114604800D01*
X119583200Y-115265200D01*
X119583200Y-115265200D01*
G37*
G36*
X124307600Y-113995200D02*
X122224800Y-113995200D01*
X122224800Y-113334800D01*
X124307600Y-113334800D01*
X124307600Y-113995200D01*
X124307600Y-113995200D01*
G37*
G36*
X119583200Y-113995200D02*
X117500400Y-113995200D01*
X117500400Y-113334800D01*
X119583200Y-113334800D01*
X119583200Y-113995200D01*
X119583200Y-113995200D01*
G37*
G36*
X134372465Y-112410046D02*
X134408995Y-112421127D01*
X134442659Y-112439121D01*
X134472164Y-112463336D01*
X134496379Y-112492841D01*
X134514373Y-112526505D01*
X134525454Y-112563035D01*
X134529800Y-112607160D01*
X134529800Y-113555840D01*
X134525454Y-113599965D01*
X134514373Y-113636495D01*
X134496379Y-113670159D01*
X134472164Y-113699664D01*
X134442659Y-113723879D01*
X134408995Y-113741873D01*
X134372465Y-113752954D01*
X134328340Y-113757300D01*
X132879660Y-113757300D01*
X132835535Y-113752954D01*
X132799005Y-113741873D01*
X132765341Y-113723879D01*
X132735836Y-113699664D01*
X132711621Y-113670159D01*
X132693627Y-113636495D01*
X132682546Y-113599965D01*
X132678200Y-113555840D01*
X132678200Y-112607160D01*
X132682546Y-112563035D01*
X132693627Y-112526505D01*
X132711621Y-112492841D01*
X132735836Y-112463336D01*
X132765341Y-112439121D01*
X132799005Y-112421127D01*
X132835535Y-112410046D01*
X132879660Y-112405700D01*
X134328340Y-112405700D01*
X134372465Y-112410046D01*
X134372465Y-112410046D01*
G37*
G36*
X119583200Y-112725200D02*
X117500400Y-112725200D01*
X117500400Y-112064800D01*
X119583200Y-112064800D01*
X119583200Y-112725200D01*
X119583200Y-112725200D01*
G37*
G36*
X124307600Y-112725200D02*
X122224800Y-112725200D01*
X122224800Y-112064800D01*
X124307600Y-112064800D01*
X124307600Y-112725200D01*
X124307600Y-112725200D01*
G37*
G36*
X119583200Y-111455200D02*
X117500400Y-111455200D01*
X117500400Y-110794800D01*
X119583200Y-110794800D01*
X119583200Y-111455200D01*
X119583200Y-111455200D01*
G37*
G36*
X124307600Y-111455200D02*
X122224800Y-111455200D01*
X122224800Y-110794800D01*
X124307600Y-110794800D01*
X124307600Y-111455200D01*
X124307600Y-111455200D01*
G37*
G36*
X134372465Y-109610046D02*
X134408995Y-109621127D01*
X134442659Y-109639121D01*
X134472164Y-109663336D01*
X134496379Y-109692841D01*
X134514373Y-109726505D01*
X134525454Y-109763035D01*
X134529800Y-109807160D01*
X134529800Y-110755840D01*
X134525454Y-110799965D01*
X134514373Y-110836495D01*
X134496379Y-110870159D01*
X134472164Y-110899664D01*
X134442659Y-110923879D01*
X134408995Y-110941873D01*
X134372465Y-110952954D01*
X134328340Y-110957300D01*
X132879660Y-110957300D01*
X132835535Y-110952954D01*
X132799005Y-110941873D01*
X132765341Y-110923879D01*
X132735836Y-110899664D01*
X132711621Y-110870159D01*
X132693627Y-110836495D01*
X132682546Y-110799965D01*
X132678200Y-110755840D01*
X132678200Y-109807160D01*
X132682546Y-109763035D01*
X132693627Y-109726505D01*
X132711621Y-109692841D01*
X132735836Y-109663336D01*
X132765341Y-109639121D01*
X132799005Y-109621127D01*
X132835535Y-109610046D01*
X132879660Y-109605700D01*
X134328340Y-109605700D01*
X134372465Y-109610046D01*
X134372465Y-109610046D01*
G37*
G36*
X132694065Y-103624946D02*
X132730595Y-103636027D01*
X132764259Y-103654021D01*
X132793764Y-103678236D01*
X132817979Y-103707741D01*
X132835973Y-103741405D01*
X132847054Y-103777935D01*
X132851400Y-103822060D01*
X132851400Y-105270740D01*
X132847054Y-105314865D01*
X132835973Y-105351395D01*
X132817979Y-105385059D01*
X132793764Y-105414564D01*
X132764259Y-105438779D01*
X132730595Y-105456773D01*
X132694065Y-105467854D01*
X132649940Y-105472200D01*
X131701260Y-105472200D01*
X131657135Y-105467854D01*
X131620605Y-105456773D01*
X131586941Y-105438779D01*
X131557436Y-105414564D01*
X131533221Y-105385059D01*
X131515227Y-105351395D01*
X131504146Y-105314865D01*
X131499800Y-105270740D01*
X131499800Y-103822060D01*
X131504146Y-103777935D01*
X131515227Y-103741405D01*
X131533221Y-103707741D01*
X131557436Y-103678236D01*
X131586941Y-103654021D01*
X131620605Y-103636027D01*
X131657135Y-103624946D01*
X131701260Y-103620600D01*
X132649940Y-103620600D01*
X132694065Y-103624946D01*
X132694065Y-103624946D01*
G37*
G36*
X135494065Y-103624946D02*
X135530595Y-103636027D01*
X135564259Y-103654021D01*
X135593764Y-103678236D01*
X135617979Y-103707741D01*
X135635973Y-103741405D01*
X135647054Y-103777935D01*
X135651400Y-103822060D01*
X135651400Y-105270740D01*
X135647054Y-105314865D01*
X135635973Y-105351395D01*
X135617979Y-105385059D01*
X135593764Y-105414564D01*
X135564259Y-105438779D01*
X135530595Y-105456773D01*
X135494065Y-105467854D01*
X135449940Y-105472200D01*
X134501260Y-105472200D01*
X134457135Y-105467854D01*
X134420605Y-105456773D01*
X134386941Y-105438779D01*
X134357436Y-105414564D01*
X134333221Y-105385059D01*
X134315227Y-105351395D01*
X134304146Y-105314865D01*
X134299800Y-105270740D01*
X134299800Y-103822060D01*
X134304146Y-103777935D01*
X134315227Y-103741405D01*
X134333221Y-103707741D01*
X134357436Y-103678236D01*
X134386941Y-103654021D01*
X134420605Y-103636027D01*
X134457135Y-103624946D01*
X134501260Y-103620600D01*
X135449940Y-103620600D01*
X135494065Y-103624946D01*
X135494065Y-103624946D01*
G37*
G36*
X126360448Y-103952564D02*
X126399100Y-103964289D01*
X126434724Y-103983330D01*
X126465946Y-104008954D01*
X126491570Y-104040176D01*
X126510611Y-104075800D01*
X126522336Y-104114452D01*
X126526900Y-104160791D01*
X126526900Y-105236809D01*
X126522336Y-105283148D01*
X126510611Y-105321800D01*
X126491570Y-105357424D01*
X126465946Y-105388646D01*
X126434724Y-105414270D01*
X126399100Y-105433311D01*
X126360448Y-105445036D01*
X126314109Y-105449600D01*
X125663091Y-105449600D01*
X125616752Y-105445036D01*
X125578100Y-105433311D01*
X125542476Y-105414270D01*
X125511254Y-105388646D01*
X125485630Y-105357424D01*
X125466589Y-105321800D01*
X125454864Y-105283148D01*
X125450300Y-105236809D01*
X125450300Y-104160791D01*
X125454864Y-104114452D01*
X125466589Y-104075800D01*
X125485630Y-104040176D01*
X125511254Y-104008954D01*
X125542476Y-103983330D01*
X125578100Y-103964289D01*
X125616752Y-103952564D01*
X125663091Y-103948000D01*
X126314109Y-103948000D01*
X126360448Y-103952564D01*
X126360448Y-103952564D01*
G37*
G36*
X128235448Y-103952564D02*
X128274100Y-103964289D01*
X128309724Y-103983330D01*
X128340946Y-104008954D01*
X128366570Y-104040176D01*
X128385611Y-104075800D01*
X128397336Y-104114452D01*
X128401900Y-104160791D01*
X128401900Y-105236809D01*
X128397336Y-105283148D01*
X128385611Y-105321800D01*
X128366570Y-105357424D01*
X128340946Y-105388646D01*
X128309724Y-105414270D01*
X128274100Y-105433311D01*
X128235448Y-105445036D01*
X128189109Y-105449600D01*
X127538091Y-105449600D01*
X127491752Y-105445036D01*
X127453100Y-105433311D01*
X127417476Y-105414270D01*
X127386254Y-105388646D01*
X127360630Y-105357424D01*
X127341589Y-105321800D01*
X127329864Y-105283148D01*
X127325300Y-105236809D01*
X127325300Y-104160791D01*
X127329864Y-104114452D01*
X127341589Y-104075800D01*
X127360630Y-104040176D01*
X127386254Y-104008954D01*
X127417476Y-103983330D01*
X127453100Y-103964289D01*
X127491752Y-103952564D01*
X127538091Y-103948000D01*
X128189109Y-103948000D01*
X128235448Y-103952564D01*
X128235448Y-103952564D01*
G37*
G36*
X141228465Y-103472546D02*
X141264995Y-103483627D01*
X141298659Y-103501621D01*
X141328164Y-103525836D01*
X141352379Y-103555341D01*
X141370373Y-103589005D01*
X141381454Y-103625535D01*
X141385800Y-103669660D01*
X141385800Y-105118340D01*
X141381454Y-105162465D01*
X141370373Y-105198995D01*
X141352379Y-105232659D01*
X141328164Y-105262164D01*
X141298659Y-105286379D01*
X141264995Y-105304373D01*
X141228465Y-105315454D01*
X141184340Y-105319800D01*
X140235660Y-105319800D01*
X140191535Y-105315454D01*
X140155005Y-105304373D01*
X140121341Y-105286379D01*
X140091836Y-105262164D01*
X140067621Y-105232659D01*
X140049627Y-105198995D01*
X140038546Y-105162465D01*
X140034200Y-105118340D01*
X140034200Y-103669660D01*
X140038546Y-103625535D01*
X140049627Y-103589005D01*
X140067621Y-103555341D01*
X140091836Y-103525836D01*
X140121341Y-103501621D01*
X140155005Y-103483627D01*
X140191535Y-103472546D01*
X140235660Y-103468200D01*
X141184340Y-103468200D01*
X141228465Y-103472546D01*
X141228465Y-103472546D01*
G37*
G36*
X144028465Y-103472546D02*
X144064995Y-103483627D01*
X144098659Y-103501621D01*
X144128164Y-103525836D01*
X144152379Y-103555341D01*
X144170373Y-103589005D01*
X144181454Y-103625535D01*
X144185800Y-103669660D01*
X144185800Y-105118340D01*
X144181454Y-105162465D01*
X144170373Y-105198995D01*
X144152379Y-105232659D01*
X144128164Y-105262164D01*
X144098659Y-105286379D01*
X144064995Y-105304373D01*
X144028465Y-105315454D01*
X143984340Y-105319800D01*
X143035660Y-105319800D01*
X142991535Y-105315454D01*
X142955005Y-105304373D01*
X142921341Y-105286379D01*
X142891836Y-105262164D01*
X142867621Y-105232659D01*
X142849627Y-105198995D01*
X142838546Y-105162465D01*
X142834200Y-105118340D01*
X142834200Y-103669660D01*
X142838546Y-103625535D01*
X142849627Y-103589005D01*
X142867621Y-103555341D01*
X142891836Y-103525836D01*
X142921341Y-103501621D01*
X142955005Y-103483627D01*
X142991535Y-103472546D01*
X143035660Y-103468200D01*
X143984340Y-103468200D01*
X144028465Y-103472546D01*
X144028465Y-103472546D01*
G37*
G36*
X166865800Y-105260800D02*
X165494200Y-105260800D01*
X165494200Y-104549200D01*
X166865800Y-104549200D01*
X166865800Y-105260800D01*
X166865800Y-105260800D01*
G37*
G36*
X172205800Y-101450800D02*
X171670800Y-101450800D01*
X171646414Y-101453202D01*
X171622965Y-101460315D01*
X171601354Y-101471866D01*
X171582412Y-101487412D01*
X171566866Y-101506354D01*
X171555315Y-101527965D01*
X171548202Y-101551414D01*
X171545800Y-101575800D01*
X171545800Y-101884200D01*
X171548202Y-101908586D01*
X171555315Y-101932035D01*
X171566866Y-101953646D01*
X171582412Y-101972588D01*
X171601354Y-101988134D01*
X171622965Y-101999685D01*
X171646414Y-102006798D01*
X171670800Y-102009200D01*
X172205800Y-102009200D01*
X172205800Y-102720800D01*
X171670800Y-102720800D01*
X171646414Y-102723202D01*
X171622965Y-102730315D01*
X171601354Y-102741866D01*
X171582412Y-102757412D01*
X171566866Y-102776354D01*
X171555315Y-102797965D01*
X171548202Y-102821414D01*
X171545800Y-102845800D01*
X171545800Y-103154200D01*
X171548202Y-103178586D01*
X171555315Y-103202035D01*
X171566866Y-103223646D01*
X171582412Y-103242588D01*
X171601354Y-103258134D01*
X171622965Y-103269685D01*
X171646414Y-103276798D01*
X171670800Y-103279200D01*
X172205800Y-103279200D01*
X172205800Y-103990800D01*
X171670800Y-103990800D01*
X171646414Y-103993202D01*
X171622965Y-104000315D01*
X171601354Y-104011866D01*
X171582412Y-104027412D01*
X171566866Y-104046354D01*
X171555315Y-104067965D01*
X171548202Y-104091414D01*
X171545800Y-104115800D01*
X171545800Y-104424200D01*
X171548202Y-104448586D01*
X171555315Y-104472035D01*
X171566866Y-104493646D01*
X171582412Y-104512588D01*
X171601354Y-104528134D01*
X171622965Y-104539685D01*
X171646414Y-104546798D01*
X171670800Y-104549200D01*
X172205800Y-104549200D01*
X172205800Y-105260800D01*
X171084200Y-105260800D01*
X171084200Y-105080800D01*
X171081798Y-105056414D01*
X171074685Y-105032965D01*
X171063134Y-105011354D01*
X171047588Y-104992412D01*
X171028646Y-104976866D01*
X171007035Y-104965315D01*
X170983586Y-104958202D01*
X170959200Y-104955800D01*
X167534200Y-104955800D01*
X167534200Y-101044200D01*
X170959200Y-101044200D01*
X170983586Y-101041798D01*
X171007035Y-101034685D01*
X171028646Y-101023134D01*
X171047588Y-101007588D01*
X171063134Y-100988646D01*
X171074685Y-100967035D01*
X171081798Y-100943586D01*
X171084200Y-100919200D01*
X171084200Y-100739200D01*
X172205800Y-100739200D01*
X172205800Y-101450800D01*
X172205800Y-101450800D01*
G37*
G36*
X166865800Y-103990800D02*
X165494200Y-103990800D01*
X165494200Y-103279200D01*
X166865800Y-103279200D01*
X166865800Y-103990800D01*
X166865800Y-103990800D01*
G37*
G36*
X115018800Y-103008800D02*
X113217200Y-103008800D01*
X113217200Y-101207200D01*
X115018800Y-101207200D01*
X115018800Y-103008800D01*
X115018800Y-103008800D01*
G37*
G36*
X166865800Y-102720800D02*
X165494200Y-102720800D01*
X165494200Y-102009200D01*
X166865800Y-102009200D01*
X166865800Y-102720800D01*
X166865800Y-102720800D01*
G37*
G36*
X203406200Y-102517400D02*
X200504600Y-102517400D01*
X200504600Y-99615800D01*
X203406200Y-99615800D01*
X203406200Y-102517400D01*
X203406200Y-102517400D01*
G37*
G36*
X166865800Y-101450800D02*
X165494200Y-101450800D01*
X165494200Y-100739200D01*
X166865800Y-100739200D01*
X166865800Y-101450800D01*
X166865800Y-101450800D01*
G37*
G36*
X114206362Y-98671545D02*
X114294588Y-98680234D01*
X114407789Y-98714573D01*
X114464390Y-98731743D01*
X114602980Y-98805822D01*
X114620879Y-98815389D01*
X114656609Y-98844712D01*
X114758044Y-98927956D01*
X114841288Y-99029391D01*
X114870611Y-99065121D01*
X114870612Y-99065123D01*
X114954257Y-99221610D01*
X114954257Y-99221611D01*
X115005766Y-99391412D01*
X115023158Y-99568000D01*
X115005766Y-99744588D01*
X114971427Y-99857789D01*
X114954257Y-99914390D01*
X114880178Y-100052980D01*
X114870611Y-100070879D01*
X114841288Y-100106609D01*
X114758044Y-100208044D01*
X114656609Y-100291288D01*
X114620879Y-100320611D01*
X114620877Y-100320612D01*
X114464390Y-100404257D01*
X114407789Y-100421427D01*
X114294588Y-100455766D01*
X114206362Y-100464455D01*
X114162250Y-100468800D01*
X114073750Y-100468800D01*
X114029638Y-100464455D01*
X113941412Y-100455766D01*
X113828211Y-100421427D01*
X113771610Y-100404257D01*
X113615123Y-100320612D01*
X113615121Y-100320611D01*
X113579391Y-100291288D01*
X113477956Y-100208044D01*
X113394712Y-100106609D01*
X113365389Y-100070879D01*
X113355822Y-100052980D01*
X113281743Y-99914390D01*
X113264573Y-99857789D01*
X113230234Y-99744588D01*
X113212842Y-99568000D01*
X113230234Y-99391412D01*
X113281743Y-99221611D01*
X113281743Y-99221610D01*
X113365388Y-99065123D01*
X113365389Y-99065121D01*
X113394712Y-99029391D01*
X113477956Y-98927956D01*
X113579391Y-98844712D01*
X113615121Y-98815389D01*
X113633020Y-98805822D01*
X113771610Y-98731743D01*
X113828211Y-98714573D01*
X113941412Y-98680234D01*
X114029638Y-98671545D01*
X114073750Y-98667200D01*
X114162250Y-98667200D01*
X114206362Y-98671545D01*
X114206362Y-98671545D01*
G37*
G36*
X114206362Y-96131545D02*
X114294588Y-96140234D01*
X114407789Y-96174573D01*
X114464390Y-96191743D01*
X114602980Y-96265822D01*
X114620879Y-96275389D01*
X114656609Y-96304712D01*
X114758044Y-96387956D01*
X114841288Y-96489391D01*
X114870611Y-96525121D01*
X114870612Y-96525123D01*
X114954257Y-96681610D01*
X114954257Y-96681611D01*
X115005766Y-96851412D01*
X115023158Y-97028000D01*
X115005766Y-97204588D01*
X114982249Y-97282112D01*
X114954257Y-97374390D01*
X114880178Y-97512980D01*
X114870611Y-97530879D01*
X114841288Y-97566609D01*
X114758044Y-97668044D01*
X114656609Y-97751288D01*
X114620879Y-97780611D01*
X114620877Y-97780612D01*
X114464390Y-97864257D01*
X114407789Y-97881427D01*
X114294588Y-97915766D01*
X114206362Y-97924455D01*
X114162250Y-97928800D01*
X114073750Y-97928800D01*
X114029638Y-97924455D01*
X113941412Y-97915766D01*
X113828211Y-97881427D01*
X113771610Y-97864257D01*
X113615123Y-97780612D01*
X113615121Y-97780611D01*
X113579391Y-97751288D01*
X113477956Y-97668044D01*
X113394712Y-97566609D01*
X113365389Y-97530879D01*
X113355822Y-97512980D01*
X113281743Y-97374390D01*
X113253751Y-97282112D01*
X113230234Y-97204588D01*
X113212842Y-97028000D01*
X113230234Y-96851412D01*
X113281743Y-96681611D01*
X113281743Y-96681610D01*
X113365388Y-96525123D01*
X113365389Y-96525121D01*
X113394712Y-96489391D01*
X113477956Y-96387956D01*
X113579391Y-96304712D01*
X113615121Y-96275389D01*
X113633020Y-96265822D01*
X113771610Y-96191743D01*
X113828211Y-96174573D01*
X113941412Y-96140234D01*
X114029638Y-96131545D01*
X114073750Y-96127200D01*
X114162250Y-96127200D01*
X114206362Y-96131545D01*
X114206362Y-96131545D01*
G37*
G36*
X202285152Y-94652969D02*
X202378583Y-94671553D01*
X202565280Y-94748886D01*
X202598988Y-94762848D01*
X202642612Y-94780918D01*
X202673415Y-94801500D01*
X202880234Y-94939692D01*
X203082308Y-95141766D01*
X203241083Y-95379390D01*
X203261324Y-95428256D01*
X203338133Y-95613688D01*
X203350447Y-95643418D01*
X203406200Y-95923707D01*
X203406200Y-96209493D01*
X203393092Y-96275389D01*
X203350447Y-96489783D01*
X203241082Y-96753812D01*
X203207347Y-96804300D01*
X203082308Y-96991434D01*
X202880234Y-97193508D01*
X202880231Y-97193510D01*
X202642612Y-97352282D01*
X202378583Y-97461647D01*
X202285152Y-97480231D01*
X202098293Y-97517400D01*
X201812507Y-97517400D01*
X201625648Y-97480231D01*
X201532217Y-97461647D01*
X201268188Y-97352282D01*
X201030569Y-97193510D01*
X201030566Y-97193508D01*
X200828492Y-96991434D01*
X200703453Y-96804300D01*
X200669718Y-96753812D01*
X200560353Y-96489783D01*
X200517708Y-96275389D01*
X200504600Y-96209493D01*
X200504600Y-95923707D01*
X200560353Y-95643418D01*
X200572668Y-95613688D01*
X200649476Y-95428256D01*
X200669717Y-95379390D01*
X200828492Y-95141766D01*
X201030566Y-94939692D01*
X201237385Y-94801500D01*
X201268188Y-94780918D01*
X201311813Y-94762848D01*
X201345520Y-94748886D01*
X201532217Y-94671553D01*
X201625648Y-94652969D01*
X201812507Y-94615800D01*
X202098293Y-94615800D01*
X202285152Y-94652969D01*
X202285152Y-94652969D01*
G37*
G36*
X180516350Y-95405122D02*
X180632652Y-95428256D01*
X180815241Y-95503887D01*
X180979567Y-95613686D01*
X181119314Y-95753433D01*
X181229113Y-95917759D01*
X181304744Y-96100348D01*
X181322923Y-96191743D01*
X181343300Y-96294182D01*
X181343300Y-96491818D01*
X181327878Y-96569350D01*
X181304744Y-96685652D01*
X181229113Y-96868241D01*
X181119314Y-97032567D01*
X180979567Y-97172314D01*
X180815241Y-97282113D01*
X180632652Y-97357744D01*
X180516350Y-97380878D01*
X180438818Y-97396300D01*
X180241182Y-97396300D01*
X180163650Y-97380878D01*
X180047348Y-97357744D01*
X179864759Y-97282113D01*
X179700433Y-97172314D01*
X179560686Y-97032567D01*
X179450887Y-96868241D01*
X179375256Y-96685652D01*
X179352122Y-96569350D01*
X179336700Y-96491818D01*
X179336700Y-96294182D01*
X179357077Y-96191743D01*
X179375256Y-96100348D01*
X179450887Y-95917759D01*
X179560686Y-95753433D01*
X179700433Y-95613686D01*
X179864759Y-95503887D01*
X180047348Y-95428256D01*
X180163650Y-95405122D01*
X180241182Y-95389700D01*
X180438818Y-95389700D01*
X180516350Y-95405122D01*
X180516350Y-95405122D01*
G37*
G36*
X192265300Y-97396300D02*
X190258700Y-97396300D01*
X190258700Y-95389700D01*
X192265300Y-95389700D01*
X192265300Y-97396300D01*
X192265300Y-97396300D01*
G37*
G36*
X137054348Y-95732264D02*
X137093000Y-95743989D01*
X137128624Y-95763030D01*
X137159846Y-95788654D01*
X137185470Y-95819876D01*
X137204511Y-95855500D01*
X137216236Y-95894152D01*
X137220800Y-95940491D01*
X137220800Y-96591509D01*
X137216236Y-96637848D01*
X137204511Y-96676500D01*
X137185470Y-96712124D01*
X137159846Y-96743346D01*
X137128624Y-96768970D01*
X137093000Y-96788011D01*
X137054348Y-96799736D01*
X137008009Y-96804300D01*
X135931991Y-96804300D01*
X135885652Y-96799736D01*
X135847000Y-96788011D01*
X135811376Y-96768970D01*
X135780154Y-96743346D01*
X135754530Y-96712124D01*
X135735489Y-96676500D01*
X135723764Y-96637848D01*
X135719200Y-96591509D01*
X135719200Y-95940491D01*
X135723764Y-95894152D01*
X135735489Y-95855500D01*
X135754530Y-95819876D01*
X135780154Y-95788654D01*
X135811376Y-95763030D01*
X135847000Y-95743989D01*
X135885652Y-95732264D01*
X135931991Y-95727700D01*
X137008009Y-95727700D01*
X137054348Y-95732264D01*
X137054348Y-95732264D01*
G37*
G36*
X145050465Y-94074546D02*
X145086995Y-94085627D01*
X145120659Y-94103621D01*
X145150164Y-94127836D01*
X145174379Y-94157341D01*
X145192373Y-94191005D01*
X145203454Y-94227535D01*
X145207800Y-94271660D01*
X145207800Y-95720340D01*
X145203454Y-95764465D01*
X145192373Y-95800995D01*
X145174379Y-95834659D01*
X145150164Y-95864164D01*
X145120659Y-95888379D01*
X145086995Y-95906373D01*
X145050465Y-95917454D01*
X145006340Y-95921800D01*
X144057660Y-95921800D01*
X144013535Y-95917454D01*
X143977005Y-95906373D01*
X143943341Y-95888379D01*
X143913836Y-95864164D01*
X143889621Y-95834659D01*
X143871627Y-95800995D01*
X143860546Y-95764465D01*
X143856200Y-95720340D01*
X143856200Y-94271660D01*
X143860546Y-94227535D01*
X143871627Y-94191005D01*
X143889621Y-94157341D01*
X143913836Y-94127836D01*
X143943341Y-94103621D01*
X143977005Y-94085627D01*
X144013535Y-94074546D01*
X144057660Y-94070200D01*
X145006340Y-94070200D01*
X145050465Y-94074546D01*
X145050465Y-94074546D01*
G37*
G36*
X142250465Y-94074546D02*
X142286995Y-94085627D01*
X142320659Y-94103621D01*
X142350164Y-94127836D01*
X142374379Y-94157341D01*
X142392373Y-94191005D01*
X142403454Y-94227535D01*
X142407800Y-94271660D01*
X142407800Y-95720340D01*
X142403454Y-95764465D01*
X142392373Y-95800995D01*
X142374379Y-95834659D01*
X142350164Y-95864164D01*
X142320659Y-95888379D01*
X142286995Y-95906373D01*
X142250465Y-95917454D01*
X142206340Y-95921800D01*
X141257660Y-95921800D01*
X141213535Y-95917454D01*
X141177005Y-95906373D01*
X141143341Y-95888379D01*
X141113836Y-95864164D01*
X141089621Y-95834659D01*
X141071627Y-95800995D01*
X141060546Y-95764465D01*
X141056200Y-95720340D01*
X141056200Y-94271660D01*
X141060546Y-94227535D01*
X141071627Y-94191005D01*
X141089621Y-94157341D01*
X141113836Y-94127836D01*
X141143341Y-94103621D01*
X141177005Y-94085627D01*
X141213535Y-94074546D01*
X141257660Y-94070200D01*
X142206340Y-94070200D01*
X142250465Y-94074546D01*
X142250465Y-94074546D01*
G37*
G36*
X137054348Y-93857264D02*
X137093000Y-93868989D01*
X137128624Y-93888030D01*
X137159846Y-93913654D01*
X137185470Y-93944876D01*
X137204511Y-93980500D01*
X137216236Y-94019152D01*
X137220800Y-94065491D01*
X137220800Y-94716509D01*
X137216236Y-94762848D01*
X137204511Y-94801500D01*
X137185470Y-94837124D01*
X137159846Y-94868346D01*
X137128624Y-94893970D01*
X137093000Y-94913011D01*
X137054348Y-94924736D01*
X137008009Y-94929300D01*
X135931991Y-94929300D01*
X135885652Y-94924736D01*
X135847000Y-94913011D01*
X135811376Y-94893970D01*
X135780154Y-94868346D01*
X135754530Y-94837124D01*
X135735489Y-94801500D01*
X135723764Y-94762848D01*
X135719200Y-94716509D01*
X135719200Y-94065491D01*
X135723764Y-94019152D01*
X135735489Y-93980500D01*
X135754530Y-93944876D01*
X135780154Y-93913654D01*
X135811376Y-93888030D01*
X135847000Y-93868989D01*
X135885652Y-93857264D01*
X135931991Y-93852700D01*
X137008009Y-93852700D01*
X137054348Y-93857264D01*
X137054348Y-93857264D01*
G37*
G36*
X131565400Y-89869600D02*
X131567802Y-89893986D01*
X131574915Y-89917435D01*
X131586466Y-89939046D01*
X131602012Y-89957988D01*
X131620954Y-89973534D01*
X131642565Y-89985085D01*
X131666014Y-89992198D01*
X131690400Y-89994600D01*
X132695800Y-89994600D01*
X132695800Y-92885400D01*
X131690400Y-92885400D01*
X131666014Y-92887802D01*
X131642565Y-92894915D01*
X131620954Y-92906466D01*
X131602012Y-92922012D01*
X131586466Y-92940954D01*
X131574915Y-92962565D01*
X131567802Y-92986014D01*
X131565400Y-93010400D01*
X131565400Y-94015800D01*
X128674600Y-94015800D01*
X128674600Y-93010400D01*
X128672198Y-92986014D01*
X128665085Y-92962565D01*
X128653534Y-92940954D01*
X128637988Y-92922012D01*
X128619046Y-92906466D01*
X128597435Y-92894915D01*
X128573986Y-92887802D01*
X128549600Y-92885400D01*
X127544200Y-92885400D01*
X127544200Y-89994600D01*
X128549600Y-89994600D01*
X128573986Y-89992198D01*
X128597435Y-89985085D01*
X128619046Y-89973534D01*
X128637988Y-89957988D01*
X128653534Y-89939046D01*
X128665085Y-89917435D01*
X128672198Y-89893986D01*
X128674600Y-89869600D01*
X128674600Y-88864200D01*
X131565400Y-88864200D01*
X131565400Y-89869600D01*
X131565400Y-89869600D01*
G37*
G36*
X117490220Y-92612580D02*
X115688620Y-92612580D01*
X115688620Y-90810980D01*
X117490220Y-90810980D01*
X117490220Y-92612580D01*
X117490220Y-92612580D01*
G37*
G36*
X114137782Y-90815325D02*
X114226008Y-90824014D01*
X114339209Y-90858353D01*
X114395810Y-90875523D01*
X114534400Y-90949602D01*
X114552299Y-90959169D01*
X114584018Y-90985200D01*
X114689464Y-91071736D01*
X114772708Y-91173171D01*
X114802031Y-91208901D01*
X114802032Y-91208903D01*
X114885677Y-91365390D01*
X114893796Y-91392154D01*
X114937186Y-91535192D01*
X114954578Y-91711780D01*
X114937186Y-91888368D01*
X114902847Y-92001569D01*
X114885677Y-92058170D01*
X114813335Y-92193510D01*
X114802031Y-92214659D01*
X114780128Y-92241348D01*
X114689464Y-92351824D01*
X114588029Y-92435068D01*
X114552299Y-92464391D01*
X114541785Y-92470011D01*
X114395810Y-92548037D01*
X114339209Y-92565207D01*
X114226008Y-92599546D01*
X114137782Y-92608235D01*
X114093670Y-92612580D01*
X114005170Y-92612580D01*
X113961058Y-92608235D01*
X113872832Y-92599546D01*
X113759631Y-92565207D01*
X113703030Y-92548037D01*
X113557055Y-92470011D01*
X113546541Y-92464391D01*
X113510811Y-92435068D01*
X113409376Y-92351824D01*
X113318712Y-92241348D01*
X113296809Y-92214659D01*
X113285505Y-92193510D01*
X113213163Y-92058170D01*
X113195993Y-92001569D01*
X113161654Y-91888368D01*
X113144262Y-91711780D01*
X113161654Y-91535192D01*
X113205044Y-91392154D01*
X113213163Y-91365390D01*
X113296808Y-91208903D01*
X113296809Y-91208901D01*
X113326132Y-91173171D01*
X113409376Y-91071736D01*
X113514822Y-90985200D01*
X113546541Y-90959169D01*
X113564440Y-90949602D01*
X113703030Y-90875523D01*
X113759631Y-90858353D01*
X113872832Y-90824014D01*
X113961058Y-90815325D01*
X114005170Y-90810980D01*
X114093670Y-90810980D01*
X114137782Y-90815325D01*
X114137782Y-90815325D01*
G37*
G36*
X202285152Y-89652969D02*
X202378583Y-89671553D01*
X202642612Y-89780918D01*
X202775334Y-89869600D01*
X202880234Y-89939692D01*
X203082308Y-90141766D01*
X203082310Y-90141769D01*
X203198834Y-90316159D01*
X203241083Y-90379390D01*
X203248046Y-90396200D01*
X203337144Y-90611300D01*
X203350447Y-90643418D01*
X203396616Y-90875523D01*
X203406200Y-90923709D01*
X203406200Y-91209491D01*
X203350447Y-91489783D01*
X203241082Y-91753812D01*
X203146877Y-91894800D01*
X203082308Y-91991434D01*
X202880234Y-92193508D01*
X202880231Y-92193510D01*
X202642612Y-92352282D01*
X202378583Y-92461647D01*
X202285152Y-92480231D01*
X202098293Y-92517400D01*
X201812507Y-92517400D01*
X201625648Y-92480231D01*
X201532217Y-92461647D01*
X201268188Y-92352282D01*
X201030569Y-92193510D01*
X201030566Y-92193508D01*
X200828492Y-91991434D01*
X200763923Y-91894800D01*
X200669718Y-91753812D01*
X200560353Y-91489783D01*
X200504600Y-91209491D01*
X200504600Y-90923709D01*
X200514185Y-90875523D01*
X200560353Y-90643418D01*
X200573657Y-90611300D01*
X200662754Y-90396200D01*
X200669717Y-90379390D01*
X200711967Y-90316159D01*
X200828490Y-90141769D01*
X200828492Y-90141766D01*
X201030566Y-89939692D01*
X201135466Y-89869600D01*
X201268188Y-89780918D01*
X201532217Y-89671553D01*
X201625648Y-89652969D01*
X201812507Y-89615800D01*
X202098293Y-89615800D01*
X202285152Y-89652969D01*
X202285152Y-89652969D01*
G37*
G36*
X137054348Y-91414264D02*
X137093000Y-91425989D01*
X137128624Y-91445030D01*
X137159846Y-91470654D01*
X137185470Y-91501876D01*
X137204511Y-91537500D01*
X137216236Y-91576152D01*
X137220800Y-91622491D01*
X137220800Y-92273509D01*
X137216236Y-92319848D01*
X137204511Y-92358500D01*
X137185470Y-92394124D01*
X137159846Y-92425346D01*
X137128624Y-92450970D01*
X137093000Y-92470011D01*
X137054348Y-92481736D01*
X137008009Y-92486300D01*
X135931991Y-92486300D01*
X135885652Y-92481736D01*
X135847000Y-92470011D01*
X135811376Y-92450970D01*
X135780154Y-92425346D01*
X135754530Y-92394124D01*
X135735489Y-92358500D01*
X135723764Y-92319848D01*
X135719200Y-92273509D01*
X135719200Y-91622491D01*
X135723764Y-91576152D01*
X135735489Y-91537500D01*
X135754530Y-91501876D01*
X135780154Y-91470654D01*
X135811376Y-91445030D01*
X135847000Y-91425989D01*
X135885652Y-91414264D01*
X135931991Y-91409700D01*
X137008009Y-91409700D01*
X137054348Y-91414264D01*
X137054348Y-91414264D01*
G37*
G36*
X140610348Y-91335764D02*
X140649000Y-91347489D01*
X140684624Y-91366530D01*
X140715846Y-91392154D01*
X140741470Y-91423376D01*
X140760511Y-91459000D01*
X140772236Y-91497652D01*
X140776800Y-91543991D01*
X140776800Y-92195009D01*
X140772236Y-92241348D01*
X140760511Y-92280000D01*
X140741470Y-92315624D01*
X140715846Y-92346846D01*
X140684624Y-92372470D01*
X140649000Y-92391511D01*
X140610348Y-92403236D01*
X140564009Y-92407800D01*
X139487991Y-92407800D01*
X139441652Y-92403236D01*
X139403000Y-92391511D01*
X139367376Y-92372470D01*
X139336154Y-92346846D01*
X139310530Y-92315624D01*
X139291489Y-92280000D01*
X139279764Y-92241348D01*
X139275200Y-92195009D01*
X139275200Y-91543991D01*
X139279764Y-91497652D01*
X139291489Y-91459000D01*
X139310530Y-91423376D01*
X139336154Y-91392154D01*
X139367376Y-91366530D01*
X139403000Y-91347489D01*
X139441652Y-91335764D01*
X139487991Y-91331200D01*
X140564009Y-91331200D01*
X140610348Y-91335764D01*
X140610348Y-91335764D01*
G37*
G36*
X137054348Y-89539264D02*
X137093000Y-89550989D01*
X137128624Y-89570030D01*
X137159846Y-89595654D01*
X137185470Y-89626876D01*
X137204511Y-89662500D01*
X137216236Y-89701152D01*
X137220800Y-89747491D01*
X137220800Y-90398509D01*
X137216236Y-90444848D01*
X137204511Y-90483500D01*
X137185470Y-90519124D01*
X137159846Y-90550346D01*
X137128624Y-90575970D01*
X137093000Y-90595011D01*
X137054348Y-90606736D01*
X137008009Y-90611300D01*
X135931991Y-90611300D01*
X135885652Y-90606736D01*
X135847000Y-90595011D01*
X135811376Y-90575970D01*
X135780154Y-90550346D01*
X135754530Y-90519124D01*
X135735489Y-90483500D01*
X135723764Y-90444848D01*
X135719200Y-90398509D01*
X135719200Y-89747491D01*
X135723764Y-89701152D01*
X135735489Y-89662500D01*
X135754530Y-89626876D01*
X135780154Y-89595654D01*
X135811376Y-89570030D01*
X135847000Y-89550989D01*
X135885652Y-89539264D01*
X135931991Y-89534700D01*
X137008009Y-89534700D01*
X137054348Y-89539264D01*
X137054348Y-89539264D01*
G37*
G36*
X140610348Y-89460764D02*
X140649000Y-89472489D01*
X140684624Y-89491530D01*
X140715846Y-89517154D01*
X140741470Y-89548376D01*
X140760511Y-89584000D01*
X140772236Y-89622652D01*
X140776800Y-89668991D01*
X140776800Y-90320009D01*
X140772236Y-90366348D01*
X140760511Y-90405000D01*
X140741470Y-90440624D01*
X140715846Y-90471846D01*
X140684624Y-90497470D01*
X140649000Y-90516511D01*
X140610348Y-90528236D01*
X140564009Y-90532800D01*
X139487991Y-90532800D01*
X139441652Y-90528236D01*
X139403000Y-90516511D01*
X139367376Y-90497470D01*
X139336154Y-90471846D01*
X139310530Y-90440624D01*
X139291489Y-90405000D01*
X139279764Y-90366348D01*
X139275200Y-90320009D01*
X139275200Y-89668991D01*
X139279764Y-89622652D01*
X139291489Y-89584000D01*
X139310530Y-89548376D01*
X139336154Y-89517154D01*
X139367376Y-89491530D01*
X139403000Y-89472489D01*
X139441652Y-89460764D01*
X139487991Y-89456200D01*
X140564009Y-89456200D01*
X140610348Y-89460764D01*
X140610348Y-89460764D01*
G37*
G36*
X114137782Y-88275325D02*
X114226008Y-88284014D01*
X114339209Y-88318353D01*
X114395810Y-88335523D01*
X114516496Y-88400032D01*
X114552299Y-88419169D01*
X114588029Y-88448492D01*
X114689464Y-88531736D01*
X114755043Y-88611646D01*
X114802031Y-88668901D01*
X114802032Y-88668903D01*
X114885677Y-88825390D01*
X114885677Y-88825391D01*
X114937186Y-88995192D01*
X114954578Y-89171780D01*
X114937186Y-89348368D01*
X114904475Y-89456200D01*
X114885677Y-89518170D01*
X114827572Y-89626876D01*
X114802031Y-89674659D01*
X114780536Y-89700851D01*
X114689464Y-89811824D01*
X114619062Y-89869600D01*
X114552299Y-89924391D01*
X114552297Y-89924392D01*
X114395810Y-90008037D01*
X114339209Y-90025207D01*
X114226008Y-90059546D01*
X114137782Y-90068235D01*
X114093670Y-90072580D01*
X114005170Y-90072580D01*
X113961058Y-90068235D01*
X113872832Y-90059546D01*
X113759631Y-90025207D01*
X113703030Y-90008037D01*
X113546543Y-89924392D01*
X113546541Y-89924391D01*
X113479778Y-89869600D01*
X113409376Y-89811824D01*
X113318304Y-89700851D01*
X113296809Y-89674659D01*
X113271268Y-89626876D01*
X113213163Y-89518170D01*
X113194365Y-89456200D01*
X113161654Y-89348368D01*
X113144262Y-89171780D01*
X113161654Y-88995192D01*
X113213163Y-88825391D01*
X113213163Y-88825390D01*
X113296808Y-88668903D01*
X113296809Y-88668901D01*
X113343797Y-88611646D01*
X113409376Y-88531736D01*
X113510811Y-88448492D01*
X113546541Y-88419169D01*
X113582344Y-88400032D01*
X113703030Y-88335523D01*
X113759631Y-88318353D01*
X113872832Y-88284014D01*
X113961058Y-88275325D01*
X114005170Y-88270980D01*
X114093670Y-88270980D01*
X114137782Y-88275325D01*
X114137782Y-88275325D01*
G37*
G36*
X116677782Y-88275325D02*
X116766008Y-88284014D01*
X116879209Y-88318353D01*
X116935810Y-88335523D01*
X117056496Y-88400032D01*
X117092299Y-88419169D01*
X117128029Y-88448492D01*
X117229464Y-88531736D01*
X117295043Y-88611646D01*
X117342031Y-88668901D01*
X117342032Y-88668903D01*
X117425677Y-88825390D01*
X117425677Y-88825391D01*
X117477186Y-88995192D01*
X117494578Y-89171780D01*
X117477186Y-89348368D01*
X117444475Y-89456200D01*
X117425677Y-89518170D01*
X117367572Y-89626876D01*
X117342031Y-89674659D01*
X117320536Y-89700851D01*
X117229464Y-89811824D01*
X117159062Y-89869600D01*
X117092299Y-89924391D01*
X117092297Y-89924392D01*
X116935810Y-90008037D01*
X116879209Y-90025207D01*
X116766008Y-90059546D01*
X116677782Y-90068235D01*
X116633670Y-90072580D01*
X116545170Y-90072580D01*
X116501058Y-90068235D01*
X116412832Y-90059546D01*
X116299631Y-90025207D01*
X116243030Y-90008037D01*
X116086543Y-89924392D01*
X116086541Y-89924391D01*
X116019778Y-89869600D01*
X115949376Y-89811824D01*
X115858304Y-89700851D01*
X115836809Y-89674659D01*
X115811268Y-89626876D01*
X115753163Y-89518170D01*
X115734365Y-89456200D01*
X115701654Y-89348368D01*
X115684262Y-89171780D01*
X115701654Y-88995192D01*
X115753163Y-88825391D01*
X115753163Y-88825390D01*
X115836808Y-88668903D01*
X115836809Y-88668901D01*
X115883797Y-88611646D01*
X115949376Y-88531736D01*
X116050811Y-88448492D01*
X116086541Y-88419169D01*
X116122344Y-88400032D01*
X116243030Y-88335523D01*
X116299631Y-88318353D01*
X116412832Y-88284014D01*
X116501058Y-88275325D01*
X116545170Y-88270980D01*
X116633670Y-88270980D01*
X116677782Y-88275325D01*
X116677782Y-88275325D01*
G37*
G36*
X185000800Y-90004800D02*
X183299200Y-90004800D01*
X183299200Y-88303200D01*
X185000800Y-88303200D01*
X185000800Y-90004800D01*
X185000800Y-90004800D01*
G37*
G36*
X186898169Y-88335895D02*
X187053005Y-88400031D01*
X187192354Y-88493140D01*
X187310860Y-88611646D01*
X187403969Y-88750995D01*
X187468105Y-88905831D01*
X187500800Y-89070203D01*
X187500800Y-89237797D01*
X187468105Y-89402169D01*
X187403969Y-89557005D01*
X187310860Y-89696354D01*
X187192354Y-89814860D01*
X187053005Y-89907969D01*
X186898169Y-89972105D01*
X186733797Y-90004800D01*
X186566203Y-90004800D01*
X186401831Y-89972105D01*
X186246995Y-89907969D01*
X186107646Y-89814860D01*
X185989140Y-89696354D01*
X185896031Y-89557005D01*
X185831895Y-89402169D01*
X185799200Y-89237797D01*
X185799200Y-89070203D01*
X185831895Y-88905831D01*
X185896031Y-88750995D01*
X185989140Y-88611646D01*
X186107646Y-88493140D01*
X186246995Y-88400031D01*
X186401831Y-88335895D01*
X186566203Y-88303200D01*
X186733797Y-88303200D01*
X186898169Y-88335895D01*
X186898169Y-88335895D01*
G37*
G36*
X114137782Y-85735325D02*
X114226008Y-85744014D01*
X114339209Y-85778353D01*
X114395810Y-85795523D01*
X114534400Y-85869602D01*
X114552299Y-85879169D01*
X114588029Y-85908492D01*
X114689464Y-85991736D01*
X114772708Y-86093171D01*
X114802031Y-86128901D01*
X114802032Y-86128903D01*
X114885677Y-86285390D01*
X114885677Y-86285391D01*
X114937186Y-86455192D01*
X114954578Y-86631780D01*
X114937186Y-86808368D01*
X114902847Y-86921569D01*
X114885677Y-86978170D01*
X114878587Y-86991434D01*
X114802031Y-87134659D01*
X114772708Y-87170389D01*
X114689464Y-87271824D01*
X114591424Y-87352282D01*
X114552299Y-87384391D01*
X114552297Y-87384392D01*
X114395810Y-87468037D01*
X114339209Y-87485207D01*
X114226008Y-87519546D01*
X114137782Y-87528235D01*
X114093670Y-87532580D01*
X114005170Y-87532580D01*
X113961058Y-87528235D01*
X113872832Y-87519546D01*
X113759631Y-87485207D01*
X113703030Y-87468037D01*
X113546543Y-87384392D01*
X113546541Y-87384391D01*
X113507416Y-87352282D01*
X113409376Y-87271824D01*
X113326132Y-87170389D01*
X113296809Y-87134659D01*
X113220253Y-86991434D01*
X113213163Y-86978170D01*
X113195993Y-86921569D01*
X113161654Y-86808368D01*
X113144262Y-86631780D01*
X113161654Y-86455192D01*
X113213163Y-86285391D01*
X113213163Y-86285390D01*
X113296808Y-86128903D01*
X113296809Y-86128901D01*
X113326132Y-86093171D01*
X113409376Y-85991736D01*
X113510811Y-85908492D01*
X113546541Y-85879169D01*
X113564440Y-85869602D01*
X113703030Y-85795523D01*
X113759631Y-85778353D01*
X113872832Y-85744014D01*
X113961058Y-85735325D01*
X114005170Y-85730980D01*
X114093670Y-85730980D01*
X114137782Y-85735325D01*
X114137782Y-85735325D01*
G37*
G36*
X116677782Y-85735325D02*
X116766008Y-85744014D01*
X116879209Y-85778353D01*
X116935810Y-85795523D01*
X117074400Y-85869602D01*
X117092299Y-85879169D01*
X117128029Y-85908492D01*
X117229464Y-85991736D01*
X117312708Y-86093171D01*
X117342031Y-86128901D01*
X117342032Y-86128903D01*
X117425677Y-86285390D01*
X117425677Y-86285391D01*
X117477186Y-86455192D01*
X117494578Y-86631780D01*
X117477186Y-86808368D01*
X117442847Y-86921569D01*
X117425677Y-86978170D01*
X117418587Y-86991434D01*
X117342031Y-87134659D01*
X117312708Y-87170389D01*
X117229464Y-87271824D01*
X117131424Y-87352282D01*
X117092299Y-87384391D01*
X117092297Y-87384392D01*
X116935810Y-87468037D01*
X116879209Y-87485207D01*
X116766008Y-87519546D01*
X116677782Y-87528235D01*
X116633670Y-87532580D01*
X116545170Y-87532580D01*
X116501058Y-87528235D01*
X116412832Y-87519546D01*
X116299631Y-87485207D01*
X116243030Y-87468037D01*
X116086543Y-87384392D01*
X116086541Y-87384391D01*
X116047416Y-87352282D01*
X115949376Y-87271824D01*
X115866132Y-87170389D01*
X115836809Y-87134659D01*
X115760253Y-86991434D01*
X115753163Y-86978170D01*
X115735993Y-86921569D01*
X115701654Y-86808368D01*
X115684262Y-86631780D01*
X115701654Y-86455192D01*
X115753163Y-86285391D01*
X115753163Y-86285390D01*
X115836808Y-86128903D01*
X115836809Y-86128901D01*
X115866132Y-86093171D01*
X115949376Y-85991736D01*
X116050811Y-85908492D01*
X116086541Y-85879169D01*
X116104440Y-85869602D01*
X116243030Y-85795523D01*
X116299631Y-85778353D01*
X116412832Y-85744014D01*
X116501058Y-85735325D01*
X116545170Y-85730980D01*
X116633670Y-85730980D01*
X116677782Y-85735325D01*
X116677782Y-85735325D01*
G37*
G36*
X202285152Y-84652969D02*
X202378583Y-84671553D01*
X202642612Y-84780918D01*
X202770395Y-84866300D01*
X202880234Y-84939692D01*
X203082308Y-85141766D01*
X203082310Y-85141769D01*
X203199958Y-85317841D01*
X203241083Y-85379390D01*
X203350447Y-85643418D01*
X203406200Y-85923707D01*
X203406200Y-86209493D01*
X203371059Y-86386159D01*
X203350447Y-86489783D01*
X203273114Y-86676480D01*
X203241083Y-86753810D01*
X203082308Y-86991434D01*
X202880234Y-87193508D01*
X202880231Y-87193510D01*
X202642612Y-87352282D01*
X202378583Y-87461647D01*
X202285152Y-87480231D01*
X202098293Y-87517400D01*
X201812507Y-87517400D01*
X201625648Y-87480231D01*
X201532217Y-87461647D01*
X201268188Y-87352282D01*
X201030569Y-87193510D01*
X201030566Y-87193508D01*
X200828492Y-86991434D01*
X200669717Y-86753810D01*
X200637686Y-86676480D01*
X200560353Y-86489783D01*
X200539741Y-86386159D01*
X200504600Y-86209493D01*
X200504600Y-85923707D01*
X200560353Y-85643418D01*
X200669717Y-85379390D01*
X200710843Y-85317841D01*
X200828490Y-85141769D01*
X200828492Y-85141766D01*
X201030566Y-84939692D01*
X201140405Y-84866300D01*
X201268188Y-84780918D01*
X201532217Y-84671553D01*
X201625648Y-84652969D01*
X201812507Y-84615800D01*
X202098293Y-84615800D01*
X202285152Y-84652969D01*
X202285152Y-84652969D01*
G37*
G36*
X126884348Y-85105764D02*
X126923000Y-85117489D01*
X126958624Y-85136530D01*
X126989846Y-85162154D01*
X127015470Y-85193376D01*
X127034511Y-85229000D01*
X127046236Y-85267652D01*
X127050800Y-85313991D01*
X127050800Y-86390009D01*
X127046236Y-86436348D01*
X127034511Y-86475000D01*
X127015470Y-86510624D01*
X126989846Y-86541846D01*
X126958624Y-86567470D01*
X126923000Y-86586511D01*
X126884348Y-86598236D01*
X126838009Y-86602800D01*
X126186991Y-86602800D01*
X126140652Y-86598236D01*
X126102000Y-86586511D01*
X126066376Y-86567470D01*
X126035154Y-86541846D01*
X126009530Y-86510624D01*
X125990489Y-86475000D01*
X125978764Y-86436348D01*
X125974200Y-86390009D01*
X125974200Y-85313991D01*
X125978764Y-85267652D01*
X125990489Y-85229000D01*
X126009530Y-85193376D01*
X126035154Y-85162154D01*
X126066376Y-85136530D01*
X126102000Y-85117489D01*
X126140652Y-85105764D01*
X126186991Y-85101200D01*
X126838009Y-85101200D01*
X126884348Y-85105764D01*
X126884348Y-85105764D01*
G37*
G36*
X128759348Y-85105764D02*
X128798000Y-85117489D01*
X128833624Y-85136530D01*
X128864846Y-85162154D01*
X128890470Y-85193376D01*
X128909511Y-85229000D01*
X128921236Y-85267652D01*
X128925800Y-85313991D01*
X128925800Y-86390009D01*
X128921236Y-86436348D01*
X128909511Y-86475000D01*
X128890470Y-86510624D01*
X128864846Y-86541846D01*
X128833624Y-86567470D01*
X128798000Y-86586511D01*
X128759348Y-86598236D01*
X128713009Y-86602800D01*
X128061991Y-86602800D01*
X128015652Y-86598236D01*
X127977000Y-86586511D01*
X127941376Y-86567470D01*
X127910154Y-86541846D01*
X127884530Y-86510624D01*
X127865489Y-86475000D01*
X127853764Y-86436348D01*
X127849200Y-86390009D01*
X127849200Y-85313991D01*
X127853764Y-85267652D01*
X127865489Y-85229000D01*
X127884530Y-85193376D01*
X127910154Y-85162154D01*
X127941376Y-85136530D01*
X127977000Y-85117489D01*
X128015652Y-85105764D01*
X128061991Y-85101200D01*
X128713009Y-85101200D01*
X128759348Y-85105764D01*
X128759348Y-85105764D01*
G37*
G36*
X172205800Y-81450800D02*
X171670800Y-81450800D01*
X171646414Y-81453202D01*
X171622965Y-81460315D01*
X171601354Y-81471866D01*
X171582412Y-81487412D01*
X171566866Y-81506354D01*
X171555315Y-81527965D01*
X171548202Y-81551414D01*
X171545800Y-81575800D01*
X171545800Y-81884200D01*
X171548202Y-81908586D01*
X171555315Y-81932035D01*
X171566866Y-81953646D01*
X171582412Y-81972588D01*
X171601354Y-81988134D01*
X171622965Y-81999685D01*
X171646414Y-82006798D01*
X171670800Y-82009200D01*
X172205800Y-82009200D01*
X172205800Y-82720800D01*
X171670800Y-82720800D01*
X171646414Y-82723202D01*
X171622965Y-82730315D01*
X171601354Y-82741866D01*
X171582412Y-82757412D01*
X171566866Y-82776354D01*
X171555315Y-82797965D01*
X171548202Y-82821414D01*
X171545800Y-82845800D01*
X171545800Y-83154200D01*
X171548202Y-83178586D01*
X171555315Y-83202035D01*
X171566866Y-83223646D01*
X171582412Y-83242588D01*
X171601354Y-83258134D01*
X171622965Y-83269685D01*
X171646414Y-83276798D01*
X171670800Y-83279200D01*
X172205800Y-83279200D01*
X172205800Y-83990800D01*
X171670800Y-83990800D01*
X171646414Y-83993202D01*
X171622965Y-84000315D01*
X171601354Y-84011866D01*
X171582412Y-84027412D01*
X171566866Y-84046354D01*
X171555315Y-84067965D01*
X171548202Y-84091414D01*
X171545800Y-84115800D01*
X171545800Y-84424200D01*
X171548202Y-84448586D01*
X171555315Y-84472035D01*
X171566866Y-84493646D01*
X171582412Y-84512588D01*
X171601354Y-84528134D01*
X171622965Y-84539685D01*
X171646414Y-84546798D01*
X171670800Y-84549200D01*
X172205800Y-84549200D01*
X172205800Y-85260800D01*
X171084200Y-85260800D01*
X171084200Y-85080800D01*
X171081798Y-85056414D01*
X171074685Y-85032965D01*
X171063134Y-85011354D01*
X171047588Y-84992412D01*
X171028646Y-84976866D01*
X171007035Y-84965315D01*
X170983586Y-84958202D01*
X170959200Y-84955800D01*
X167534200Y-84955800D01*
X167534200Y-81044200D01*
X170959200Y-81044200D01*
X170983586Y-81041798D01*
X171007035Y-81034685D01*
X171028646Y-81023134D01*
X171047588Y-81007588D01*
X171063134Y-80988646D01*
X171074685Y-80967035D01*
X171081798Y-80943586D01*
X171084200Y-80919200D01*
X171084200Y-80739200D01*
X172205800Y-80739200D01*
X172205800Y-81450800D01*
X172205800Y-81450800D01*
G37*
G36*
X166865800Y-85260800D02*
X165494200Y-85260800D01*
X165494200Y-84549200D01*
X166865800Y-84549200D01*
X166865800Y-85260800D01*
X166865800Y-85260800D01*
G37*
G36*
X137054348Y-83794264D02*
X137093000Y-83805989D01*
X137128624Y-83825030D01*
X137159846Y-83850654D01*
X137185470Y-83881876D01*
X137204511Y-83917500D01*
X137216236Y-83956152D01*
X137220800Y-84002491D01*
X137220800Y-84653509D01*
X137216236Y-84699848D01*
X137204511Y-84738500D01*
X137185470Y-84774124D01*
X137159846Y-84805346D01*
X137128624Y-84830970D01*
X137093000Y-84850011D01*
X137054348Y-84861736D01*
X137008009Y-84866300D01*
X135931991Y-84866300D01*
X135885652Y-84861736D01*
X135847000Y-84850011D01*
X135811376Y-84830970D01*
X135780154Y-84805346D01*
X135754530Y-84774124D01*
X135735489Y-84738500D01*
X135723764Y-84699848D01*
X135719200Y-84653509D01*
X135719200Y-84002491D01*
X135723764Y-83956152D01*
X135735489Y-83917500D01*
X135754530Y-83881876D01*
X135780154Y-83850654D01*
X135811376Y-83825030D01*
X135847000Y-83805989D01*
X135885652Y-83794264D01*
X135931991Y-83789700D01*
X137008009Y-83789700D01*
X137054348Y-83794264D01*
X137054348Y-83794264D01*
G37*
G36*
X145044465Y-82390546D02*
X145080995Y-82401627D01*
X145114659Y-82419621D01*
X145144164Y-82443836D01*
X145168379Y-82473341D01*
X145186373Y-82507005D01*
X145197454Y-82543535D01*
X145201800Y-82587660D01*
X145201800Y-84036340D01*
X145197454Y-84080465D01*
X145186373Y-84116995D01*
X145168379Y-84150659D01*
X145144164Y-84180164D01*
X145114659Y-84204379D01*
X145080995Y-84222373D01*
X145044465Y-84233454D01*
X145000340Y-84237800D01*
X144051660Y-84237800D01*
X144007535Y-84233454D01*
X143971005Y-84222373D01*
X143937341Y-84204379D01*
X143907836Y-84180164D01*
X143883621Y-84150659D01*
X143865627Y-84116995D01*
X143854546Y-84080465D01*
X143850200Y-84036340D01*
X143850200Y-82587660D01*
X143854546Y-82543535D01*
X143865627Y-82507005D01*
X143883621Y-82473341D01*
X143907836Y-82443836D01*
X143937341Y-82419621D01*
X143971005Y-82401627D01*
X144007535Y-82390546D01*
X144051660Y-82386200D01*
X145000340Y-82386200D01*
X145044465Y-82390546D01*
X145044465Y-82390546D01*
G37*
G36*
X142244465Y-82390546D02*
X142280995Y-82401627D01*
X142314659Y-82419621D01*
X142344164Y-82443836D01*
X142368379Y-82473341D01*
X142386373Y-82507005D01*
X142397454Y-82543535D01*
X142401800Y-82587660D01*
X142401800Y-84036340D01*
X142397454Y-84080465D01*
X142386373Y-84116995D01*
X142368379Y-84150659D01*
X142344164Y-84180164D01*
X142314659Y-84204379D01*
X142280995Y-84222373D01*
X142244465Y-84233454D01*
X142200340Y-84237800D01*
X141251660Y-84237800D01*
X141207535Y-84233454D01*
X141171005Y-84222373D01*
X141137341Y-84204379D01*
X141107836Y-84180164D01*
X141083621Y-84150659D01*
X141065627Y-84116995D01*
X141054546Y-84080465D01*
X141050200Y-84036340D01*
X141050200Y-82587660D01*
X141054546Y-82543535D01*
X141065627Y-82507005D01*
X141083621Y-82473341D01*
X141107836Y-82443836D01*
X141137341Y-82419621D01*
X141171005Y-82401627D01*
X141207535Y-82390546D01*
X141251660Y-82386200D01*
X142200340Y-82386200D01*
X142244465Y-82390546D01*
X142244465Y-82390546D01*
G37*
G36*
X166865800Y-83990800D02*
X165494200Y-83990800D01*
X165494200Y-83279200D01*
X166865800Y-83279200D01*
X166865800Y-83990800D01*
X166865800Y-83990800D01*
G37*
G36*
X137054348Y-81919264D02*
X137093000Y-81930989D01*
X137128624Y-81950030D01*
X137159846Y-81975654D01*
X137185470Y-82006876D01*
X137204511Y-82042500D01*
X137216236Y-82081152D01*
X137220800Y-82127491D01*
X137220800Y-82778509D01*
X137216236Y-82824848D01*
X137204511Y-82863500D01*
X137185470Y-82899124D01*
X137159846Y-82930346D01*
X137128624Y-82955970D01*
X137093000Y-82975011D01*
X137054348Y-82986736D01*
X137008009Y-82991300D01*
X135931991Y-82991300D01*
X135885652Y-82986736D01*
X135847000Y-82975011D01*
X135811376Y-82955970D01*
X135780154Y-82930346D01*
X135754530Y-82899124D01*
X135735489Y-82863500D01*
X135723764Y-82824848D01*
X135719200Y-82778509D01*
X135719200Y-82127491D01*
X135723764Y-82081152D01*
X135735489Y-82042500D01*
X135754530Y-82006876D01*
X135780154Y-81975654D01*
X135811376Y-81950030D01*
X135847000Y-81930989D01*
X135885652Y-81919264D01*
X135931991Y-81914700D01*
X137008009Y-81914700D01*
X137054348Y-81919264D01*
X137054348Y-81919264D01*
G37*
G36*
X166865800Y-82720800D02*
X165494200Y-82720800D01*
X165494200Y-82009200D01*
X166865800Y-82009200D01*
X166865800Y-82720800D01*
X166865800Y-82720800D01*
G37*
G36*
X124208265Y-80843146D02*
X124244795Y-80854227D01*
X124278459Y-80872221D01*
X124307964Y-80896436D01*
X124332179Y-80925941D01*
X124350173Y-80959605D01*
X124361254Y-80996135D01*
X124365600Y-81040260D01*
X124365600Y-81988940D01*
X124361254Y-82033065D01*
X124350173Y-82069595D01*
X124332179Y-82103259D01*
X124307964Y-82132764D01*
X124278459Y-82156979D01*
X124244795Y-82174973D01*
X124208265Y-82186054D01*
X124164140Y-82190400D01*
X122715460Y-82190400D01*
X122671335Y-82186054D01*
X122634805Y-82174973D01*
X122601141Y-82156979D01*
X122571636Y-82132764D01*
X122547421Y-82103259D01*
X122529427Y-82069595D01*
X122518346Y-82033065D01*
X122514000Y-81988940D01*
X122514000Y-81040260D01*
X122518346Y-80996135D01*
X122529427Y-80959605D01*
X122547421Y-80925941D01*
X122571636Y-80896436D01*
X122601141Y-80872221D01*
X122634805Y-80854227D01*
X122671335Y-80843146D01*
X122715460Y-80838800D01*
X124164140Y-80838800D01*
X124208265Y-80843146D01*
X124208265Y-80843146D01*
G37*
G36*
X114797820Y-81723600D02*
X112996220Y-81723600D01*
X112996220Y-79922000D01*
X114797820Y-79922000D01*
X114797820Y-81723600D01*
X114797820Y-81723600D01*
G37*
G36*
X118473200Y-81723600D02*
X116671600Y-81723600D01*
X116671600Y-79922000D01*
X118473200Y-79922000D01*
X118473200Y-81723600D01*
X118473200Y-81723600D01*
G37*
G36*
X166865800Y-81450800D02*
X165494200Y-81450800D01*
X165494200Y-80739200D01*
X166865800Y-80739200D01*
X166865800Y-81450800D01*
X166865800Y-81450800D01*
G37*
G36*
X124208265Y-78043146D02*
X124244795Y-78054227D01*
X124278459Y-78072221D01*
X124307964Y-78096436D01*
X124332179Y-78125941D01*
X124350173Y-78159605D01*
X124361254Y-78196135D01*
X124365600Y-78240260D01*
X124365600Y-79188940D01*
X124361254Y-79233065D01*
X124350173Y-79269595D01*
X124332179Y-79303259D01*
X124307964Y-79332764D01*
X124278459Y-79356979D01*
X124244795Y-79374973D01*
X124208265Y-79386054D01*
X124164140Y-79390400D01*
X122715460Y-79390400D01*
X122671335Y-79386054D01*
X122634805Y-79374973D01*
X122601141Y-79356979D01*
X122571636Y-79332764D01*
X122547421Y-79303259D01*
X122529427Y-79269595D01*
X122518346Y-79233065D01*
X122514000Y-79188940D01*
X122514000Y-78240260D01*
X122518346Y-78196135D01*
X122529427Y-78159605D01*
X122547421Y-78125941D01*
X122571636Y-78096436D01*
X122601141Y-78072221D01*
X122634805Y-78054227D01*
X122671335Y-78043146D01*
X122715460Y-78038800D01*
X124164140Y-78038800D01*
X124208265Y-78043146D01*
X124208265Y-78043146D01*
G37*
G36*
X117660762Y-77386345D02*
X117748988Y-77395034D01*
X117862189Y-77429373D01*
X117918790Y-77446543D01*
X118057380Y-77520622D01*
X118075279Y-77530189D01*
X118111009Y-77559512D01*
X118212444Y-77642756D01*
X118295688Y-77744191D01*
X118325011Y-77779921D01*
X118325012Y-77779923D01*
X118408657Y-77936410D01*
X118408657Y-77936411D01*
X118460166Y-78106212D01*
X118477558Y-78282800D01*
X118460166Y-78459388D01*
X118425827Y-78572589D01*
X118408657Y-78629190D01*
X118334578Y-78767780D01*
X118325011Y-78785679D01*
X118295688Y-78821409D01*
X118212444Y-78922844D01*
X118111009Y-79006088D01*
X118075279Y-79035411D01*
X118075277Y-79035412D01*
X117918790Y-79119057D01*
X117862189Y-79136227D01*
X117748988Y-79170566D01*
X117660762Y-79179255D01*
X117616650Y-79183600D01*
X117528150Y-79183600D01*
X117484038Y-79179255D01*
X117395812Y-79170566D01*
X117282611Y-79136227D01*
X117226010Y-79119057D01*
X117069523Y-79035412D01*
X117069521Y-79035411D01*
X117033791Y-79006088D01*
X116932356Y-78922844D01*
X116849112Y-78821409D01*
X116819789Y-78785679D01*
X116810222Y-78767780D01*
X116736143Y-78629190D01*
X116718973Y-78572589D01*
X116684634Y-78459388D01*
X116667242Y-78282800D01*
X116684634Y-78106212D01*
X116736143Y-77936411D01*
X116736143Y-77936410D01*
X116819788Y-77779923D01*
X116819789Y-77779921D01*
X116849112Y-77744191D01*
X116932356Y-77642756D01*
X117033791Y-77559512D01*
X117069521Y-77530189D01*
X117087420Y-77520622D01*
X117226010Y-77446543D01*
X117282611Y-77429373D01*
X117395812Y-77395034D01*
X117484038Y-77386345D01*
X117528150Y-77382000D01*
X117616650Y-77382000D01*
X117660762Y-77386345D01*
X117660762Y-77386345D01*
G37*
G36*
X113985382Y-77386345D02*
X114073608Y-77395034D01*
X114186809Y-77429373D01*
X114243410Y-77446543D01*
X114382000Y-77520622D01*
X114399899Y-77530189D01*
X114435629Y-77559512D01*
X114537064Y-77642756D01*
X114620308Y-77744191D01*
X114649631Y-77779921D01*
X114649632Y-77779923D01*
X114733277Y-77936410D01*
X114733277Y-77936411D01*
X114784786Y-78106212D01*
X114802178Y-78282800D01*
X114784786Y-78459388D01*
X114750447Y-78572589D01*
X114733277Y-78629190D01*
X114659198Y-78767780D01*
X114649631Y-78785679D01*
X114620308Y-78821409D01*
X114537064Y-78922844D01*
X114435629Y-79006088D01*
X114399899Y-79035411D01*
X114399897Y-79035412D01*
X114243410Y-79119057D01*
X114186809Y-79136227D01*
X114073608Y-79170566D01*
X113985382Y-79179255D01*
X113941270Y-79183600D01*
X113852770Y-79183600D01*
X113808658Y-79179255D01*
X113720432Y-79170566D01*
X113607231Y-79136227D01*
X113550630Y-79119057D01*
X113394143Y-79035412D01*
X113394141Y-79035411D01*
X113358411Y-79006088D01*
X113256976Y-78922844D01*
X113173732Y-78821409D01*
X113144409Y-78785679D01*
X113134842Y-78767780D01*
X113060763Y-78629190D01*
X113043593Y-78572589D01*
X113009254Y-78459388D01*
X112991862Y-78282800D01*
X113009254Y-78106212D01*
X113060763Y-77936411D01*
X113060763Y-77936410D01*
X113144408Y-77779923D01*
X113144409Y-77779921D01*
X113173732Y-77744191D01*
X113256976Y-77642756D01*
X113358411Y-77559512D01*
X113394141Y-77530189D01*
X113412040Y-77520622D01*
X113550630Y-77446543D01*
X113607231Y-77429373D01*
X113720432Y-77395034D01*
X113808658Y-77386345D01*
X113852770Y-77382000D01*
X113941270Y-77382000D01*
X113985382Y-77386345D01*
X113985382Y-77386345D01*
G37*
G36*
X124208265Y-75737746D02*
X124244795Y-75748827D01*
X124278459Y-75766821D01*
X124307964Y-75791036D01*
X124332179Y-75820541D01*
X124350173Y-75854205D01*
X124361254Y-75890735D01*
X124365600Y-75934860D01*
X124365600Y-76883540D01*
X124361254Y-76927665D01*
X124350173Y-76964195D01*
X124332179Y-76997859D01*
X124307964Y-77027364D01*
X124278459Y-77051579D01*
X124244795Y-77069573D01*
X124208265Y-77080654D01*
X124164140Y-77085000D01*
X122715460Y-77085000D01*
X122671335Y-77080654D01*
X122634805Y-77069573D01*
X122601141Y-77051579D01*
X122571636Y-77027364D01*
X122547421Y-76997859D01*
X122529427Y-76964195D01*
X122518346Y-76927665D01*
X122514000Y-76883540D01*
X122514000Y-75934860D01*
X122518346Y-75890735D01*
X122529427Y-75854205D01*
X122547421Y-75820541D01*
X122571636Y-75791036D01*
X122601141Y-75766821D01*
X122634805Y-75748827D01*
X122671335Y-75737746D01*
X122715460Y-75733400D01*
X124164140Y-75733400D01*
X124208265Y-75737746D01*
X124208265Y-75737746D01*
G37*
G36*
X113985382Y-74846345D02*
X114073608Y-74855034D01*
X114186809Y-74889373D01*
X114243410Y-74906543D01*
X114382000Y-74980622D01*
X114399899Y-74990189D01*
X114435629Y-75019512D01*
X114537064Y-75102756D01*
X114620308Y-75204191D01*
X114649631Y-75239921D01*
X114649632Y-75239923D01*
X114733277Y-75396410D01*
X114733277Y-75396411D01*
X114784786Y-75566212D01*
X114802178Y-75742800D01*
X114784786Y-75919388D01*
X114759204Y-76003720D01*
X114733277Y-76089190D01*
X114659198Y-76227780D01*
X114649631Y-76245679D01*
X114620308Y-76281409D01*
X114537064Y-76382844D01*
X114435629Y-76466088D01*
X114399899Y-76495411D01*
X114399897Y-76495412D01*
X114243410Y-76579057D01*
X114186809Y-76596227D01*
X114073608Y-76630566D01*
X113985382Y-76639255D01*
X113941270Y-76643600D01*
X113852770Y-76643600D01*
X113808658Y-76639255D01*
X113720432Y-76630566D01*
X113607231Y-76596227D01*
X113550630Y-76579057D01*
X113394143Y-76495412D01*
X113394141Y-76495411D01*
X113358411Y-76466088D01*
X113256976Y-76382844D01*
X113173732Y-76281409D01*
X113144409Y-76245679D01*
X113134842Y-76227780D01*
X113060763Y-76089190D01*
X113034836Y-76003720D01*
X113009254Y-75919388D01*
X112991862Y-75742800D01*
X113009254Y-75566212D01*
X113060763Y-75396411D01*
X113060763Y-75396410D01*
X113144408Y-75239923D01*
X113144409Y-75239921D01*
X113173732Y-75204191D01*
X113256976Y-75102756D01*
X113358411Y-75019512D01*
X113394141Y-74990189D01*
X113412040Y-74980622D01*
X113550630Y-74906543D01*
X113607231Y-74889373D01*
X113720432Y-74855034D01*
X113808658Y-74846345D01*
X113852770Y-74842000D01*
X113941270Y-74842000D01*
X113985382Y-74846345D01*
X113985382Y-74846345D01*
G37*
G36*
X117660762Y-74846345D02*
X117748988Y-74855034D01*
X117862189Y-74889373D01*
X117918790Y-74906543D01*
X118057380Y-74980622D01*
X118075279Y-74990189D01*
X118111009Y-75019512D01*
X118212444Y-75102756D01*
X118295688Y-75204191D01*
X118325011Y-75239921D01*
X118325012Y-75239923D01*
X118408657Y-75396410D01*
X118408657Y-75396411D01*
X118460166Y-75566212D01*
X118477558Y-75742800D01*
X118460166Y-75919388D01*
X118434584Y-76003720D01*
X118408657Y-76089190D01*
X118334578Y-76227780D01*
X118325011Y-76245679D01*
X118295688Y-76281409D01*
X118212444Y-76382844D01*
X118111009Y-76466088D01*
X118075279Y-76495411D01*
X118075277Y-76495412D01*
X117918790Y-76579057D01*
X117862189Y-76596227D01*
X117748988Y-76630566D01*
X117660762Y-76639255D01*
X117616650Y-76643600D01*
X117528150Y-76643600D01*
X117484038Y-76639255D01*
X117395812Y-76630566D01*
X117282611Y-76596227D01*
X117226010Y-76579057D01*
X117069523Y-76495412D01*
X117069521Y-76495411D01*
X117033791Y-76466088D01*
X116932356Y-76382844D01*
X116849112Y-76281409D01*
X116819789Y-76245679D01*
X116810222Y-76227780D01*
X116736143Y-76089190D01*
X116710216Y-76003720D01*
X116684634Y-75919388D01*
X116667242Y-75742800D01*
X116684634Y-75566212D01*
X116736143Y-75396411D01*
X116736143Y-75396410D01*
X116819788Y-75239923D01*
X116819789Y-75239921D01*
X116849112Y-75204191D01*
X116932356Y-75102756D01*
X117033791Y-75019512D01*
X117069521Y-74990189D01*
X117087420Y-74980622D01*
X117226010Y-74906543D01*
X117282611Y-74889373D01*
X117395812Y-74855034D01*
X117484038Y-74846345D01*
X117528150Y-74842000D01*
X117616650Y-74842000D01*
X117660762Y-74846345D01*
X117660762Y-74846345D01*
G37*
G36*
X124208265Y-72937746D02*
X124244795Y-72948827D01*
X124278459Y-72966821D01*
X124307964Y-72991036D01*
X124332179Y-73020541D01*
X124350173Y-73054205D01*
X124361254Y-73090735D01*
X124365600Y-73134860D01*
X124365600Y-74083540D01*
X124361254Y-74127665D01*
X124350173Y-74164195D01*
X124332179Y-74197859D01*
X124307964Y-74227364D01*
X124278459Y-74251579D01*
X124244795Y-74269573D01*
X124208265Y-74280654D01*
X124164140Y-74285000D01*
X122715460Y-74285000D01*
X122671335Y-74280654D01*
X122634805Y-74269573D01*
X122601141Y-74251579D01*
X122571636Y-74227364D01*
X122547421Y-74197859D01*
X122529427Y-74164195D01*
X122518346Y-74127665D01*
X122514000Y-74083540D01*
X122514000Y-73134860D01*
X122518346Y-73090735D01*
X122529427Y-73054205D01*
X122547421Y-73020541D01*
X122571636Y-72991036D01*
X122601141Y-72966821D01*
X122634805Y-72948827D01*
X122671335Y-72937746D01*
X122715460Y-72933400D01*
X124164140Y-72933400D01*
X124208265Y-72937746D01*
X124208265Y-72937746D01*
G37*
G36*
X142498465Y-71722546D02*
X142534995Y-71733627D01*
X142568659Y-71751621D01*
X142598164Y-71775836D01*
X142622379Y-71805341D01*
X142640373Y-71839005D01*
X142651454Y-71875535D01*
X142655800Y-71919660D01*
X142655800Y-73368340D01*
X142651454Y-73412465D01*
X142640373Y-73448995D01*
X142622379Y-73482659D01*
X142598164Y-73512164D01*
X142568659Y-73536379D01*
X142534995Y-73554373D01*
X142498465Y-73565454D01*
X142454340Y-73569800D01*
X141505660Y-73569800D01*
X141461535Y-73565454D01*
X141425005Y-73554373D01*
X141391341Y-73536379D01*
X141361836Y-73512164D01*
X141337621Y-73482659D01*
X141319627Y-73448995D01*
X141308546Y-73412465D01*
X141304200Y-73368340D01*
X141304200Y-71919660D01*
X141308546Y-71875535D01*
X141319627Y-71839005D01*
X141337621Y-71805341D01*
X141361836Y-71775836D01*
X141391341Y-71751621D01*
X141425005Y-71733627D01*
X141461535Y-71722546D01*
X141505660Y-71718200D01*
X142454340Y-71718200D01*
X142498465Y-71722546D01*
X142498465Y-71722546D01*
G37*
G36*
X145298465Y-71722546D02*
X145334995Y-71733627D01*
X145368659Y-71751621D01*
X145398164Y-71775836D01*
X145422379Y-71805341D01*
X145440373Y-71839005D01*
X145451454Y-71875535D01*
X145455800Y-71919660D01*
X145455800Y-73368340D01*
X145451454Y-73412465D01*
X145440373Y-73448995D01*
X145422379Y-73482659D01*
X145398164Y-73512164D01*
X145368659Y-73536379D01*
X145334995Y-73554373D01*
X145298465Y-73565454D01*
X145254340Y-73569800D01*
X144305660Y-73569800D01*
X144261535Y-73565454D01*
X144225005Y-73554373D01*
X144191341Y-73536379D01*
X144161836Y-73512164D01*
X144137621Y-73482659D01*
X144119627Y-73448995D01*
X144108546Y-73412465D01*
X144104200Y-73368340D01*
X144104200Y-71919660D01*
X144108546Y-71875535D01*
X144119627Y-71839005D01*
X144137621Y-71805341D01*
X144161836Y-71775836D01*
X144191341Y-71751621D01*
X144225005Y-71733627D01*
X144261535Y-71722546D01*
X144305660Y-71718200D01*
X145254340Y-71718200D01*
X145298465Y-71722546D01*
X145298465Y-71722546D01*
G37*
G36*
X127330348Y-66365264D02*
X127369000Y-66376989D01*
X127404624Y-66396030D01*
X127435846Y-66421654D01*
X127461470Y-66452876D01*
X127480511Y-66488500D01*
X127492236Y-66527152D01*
X127496800Y-66573491D01*
X127496800Y-67224509D01*
X127492236Y-67270848D01*
X127480511Y-67309500D01*
X127461470Y-67345124D01*
X127435846Y-67376346D01*
X127404624Y-67401970D01*
X127369000Y-67421011D01*
X127330348Y-67432736D01*
X127284009Y-67437300D01*
X126207991Y-67437300D01*
X126161652Y-67432736D01*
X126123000Y-67421011D01*
X126087376Y-67401970D01*
X126056154Y-67376346D01*
X126030530Y-67345124D01*
X126011489Y-67309500D01*
X125999764Y-67270848D01*
X125995200Y-67224509D01*
X125995200Y-66573491D01*
X125999764Y-66527152D01*
X126011489Y-66488500D01*
X126030530Y-66452876D01*
X126056154Y-66421654D01*
X126087376Y-66396030D01*
X126123000Y-66376989D01*
X126161652Y-66365264D01*
X126207991Y-66360700D01*
X127284009Y-66360700D01*
X127330348Y-66365264D01*
X127330348Y-66365264D01*
G37*
G36*
X136606169Y-64205895D02*
X136761005Y-64270031D01*
X136900354Y-64363140D01*
X137018860Y-64481646D01*
X137111969Y-64620995D01*
X137176105Y-64775831D01*
X137208800Y-64940203D01*
X137208800Y-65107797D01*
X137176105Y-65272169D01*
X137111969Y-65427005D01*
X137018860Y-65566354D01*
X136900354Y-65684860D01*
X136761005Y-65777969D01*
X136606169Y-65842105D01*
X136441797Y-65874800D01*
X136274203Y-65874800D01*
X136109831Y-65842105D01*
X135954995Y-65777969D01*
X135815646Y-65684860D01*
X135697140Y-65566354D01*
X135604031Y-65427005D01*
X135539895Y-65272169D01*
X135507200Y-65107797D01*
X135507200Y-64940203D01*
X135539895Y-64775831D01*
X135604031Y-64620995D01*
X135697140Y-64481646D01*
X135815646Y-64363140D01*
X135954995Y-64270031D01*
X136109831Y-64205895D01*
X136274203Y-64173200D01*
X136441797Y-64173200D01*
X136606169Y-64205895D01*
X136606169Y-64205895D01*
G37*
G36*
X134708800Y-65874800D02*
X133007200Y-65874800D01*
X133007200Y-64173200D01*
X134708800Y-64173200D01*
X134708800Y-65874800D01*
X134708800Y-65874800D01*
G37*
G36*
X127330348Y-64490264D02*
X127369000Y-64501989D01*
X127404624Y-64521030D01*
X127435846Y-64546654D01*
X127461470Y-64577876D01*
X127480511Y-64613500D01*
X127492236Y-64652152D01*
X127496800Y-64698491D01*
X127496800Y-65349509D01*
X127492236Y-65395848D01*
X127480511Y-65434500D01*
X127461470Y-65470124D01*
X127435846Y-65501346D01*
X127404624Y-65526970D01*
X127369000Y-65546011D01*
X127330348Y-65557736D01*
X127284009Y-65562300D01*
X126207991Y-65562300D01*
X126161652Y-65557736D01*
X126123000Y-65546011D01*
X126087376Y-65526970D01*
X126056154Y-65501346D01*
X126030530Y-65470124D01*
X126011489Y-65434500D01*
X125999764Y-65395848D01*
X125995200Y-65349509D01*
X125995200Y-64698491D01*
X125999764Y-64652152D01*
X126011489Y-64613500D01*
X126030530Y-64577876D01*
X126056154Y-64546654D01*
X126087376Y-64521030D01*
X126123000Y-64501989D01*
X126161652Y-64490264D01*
X126207991Y-64485700D01*
X127284009Y-64485700D01*
X127330348Y-64490264D01*
X127330348Y-64490264D01*
G37*
G36*
X167025800Y-65260800D02*
X165654200Y-65260800D01*
X165654200Y-64549200D01*
X167025800Y-64549200D01*
X167025800Y-65260800D01*
X167025800Y-65260800D01*
G37*
G36*
X172365800Y-61450800D02*
X171830800Y-61450800D01*
X171806414Y-61453202D01*
X171782965Y-61460315D01*
X171761354Y-61471866D01*
X171742412Y-61487412D01*
X171726866Y-61506354D01*
X171715315Y-61527965D01*
X171708202Y-61551414D01*
X171705800Y-61575800D01*
X171705800Y-61884200D01*
X171708202Y-61908586D01*
X171715315Y-61932035D01*
X171726866Y-61953646D01*
X171742412Y-61972588D01*
X171761354Y-61988134D01*
X171782965Y-61999685D01*
X171806414Y-62006798D01*
X171830800Y-62009200D01*
X172365800Y-62009200D01*
X172365800Y-62720800D01*
X171830800Y-62720800D01*
X171806414Y-62723202D01*
X171782965Y-62730315D01*
X171761354Y-62741866D01*
X171742412Y-62757412D01*
X171726866Y-62776354D01*
X171715315Y-62797965D01*
X171708202Y-62821414D01*
X171705800Y-62845800D01*
X171705800Y-63154200D01*
X171708202Y-63178586D01*
X171715315Y-63202035D01*
X171726866Y-63223646D01*
X171742412Y-63242588D01*
X171761354Y-63258134D01*
X171782965Y-63269685D01*
X171806414Y-63276798D01*
X171830800Y-63279200D01*
X172365800Y-63279200D01*
X172365800Y-63990800D01*
X171830800Y-63990800D01*
X171806414Y-63993202D01*
X171782965Y-64000315D01*
X171761354Y-64011866D01*
X171742412Y-64027412D01*
X171726866Y-64046354D01*
X171715315Y-64067965D01*
X171708202Y-64091414D01*
X171705800Y-64115800D01*
X171705800Y-64424200D01*
X171708202Y-64448586D01*
X171715315Y-64472035D01*
X171726866Y-64493646D01*
X171742412Y-64512588D01*
X171761354Y-64528134D01*
X171782965Y-64539685D01*
X171806414Y-64546798D01*
X171830800Y-64549200D01*
X172365800Y-64549200D01*
X172365800Y-65260800D01*
X171244200Y-65260800D01*
X171244200Y-65080800D01*
X171241798Y-65056414D01*
X171234685Y-65032965D01*
X171223134Y-65011354D01*
X171207588Y-64992412D01*
X171188646Y-64976866D01*
X171167035Y-64965315D01*
X171143586Y-64958202D01*
X171119200Y-64955800D01*
X167694200Y-64955800D01*
X167694200Y-61044200D01*
X171119200Y-61044200D01*
X171143586Y-61041798D01*
X171167035Y-61034685D01*
X171188646Y-61023134D01*
X171207588Y-61007588D01*
X171223134Y-60988646D01*
X171234685Y-60967035D01*
X171241798Y-60943586D01*
X171244200Y-60919200D01*
X171244200Y-60739200D01*
X172365800Y-60739200D01*
X172365800Y-61450800D01*
X172365800Y-61450800D01*
G37*
G36*
X167025800Y-63990800D02*
X165654200Y-63990800D01*
X165654200Y-63279200D01*
X167025800Y-63279200D01*
X167025800Y-63990800D01*
X167025800Y-63990800D01*
G37*
G36*
X167025800Y-62720800D02*
X165654200Y-62720800D01*
X165654200Y-62009200D01*
X167025800Y-62009200D01*
X167025800Y-62720800D01*
X167025800Y-62720800D01*
G37*
G36*
X167025800Y-61450800D02*
X165654200Y-61450800D01*
X165654200Y-60739200D01*
X167025800Y-60739200D01*
X167025800Y-61450800D01*
X167025800Y-61450800D01*
G37*
G36*
X117386409Y-55673016D02*
X117656963Y-55726833D01*
X117868092Y-55814285D01*
X118166675Y-55937962D01*
X118166676Y-55937963D01*
X118625406Y-56244476D01*
X119015524Y-56634594D01*
X119245409Y-56978641D01*
X119322038Y-57093325D01*
X119368989Y-57206675D01*
X119533167Y-57603037D01*
X119586983Y-57873591D01*
X119640800Y-58144144D01*
X119640800Y-58695856D01*
X119533167Y-59236962D01*
X119322038Y-59746675D01*
X119322037Y-59746676D01*
X119015524Y-60205406D01*
X118625406Y-60595524D01*
X118410379Y-60739200D01*
X118166675Y-60902038D01*
X117874322Y-61023134D01*
X117656963Y-61113167D01*
X117386409Y-61166984D01*
X117115856Y-61220800D01*
X116564144Y-61220800D01*
X116293591Y-61166984D01*
X116023037Y-61113167D01*
X115805678Y-61023134D01*
X115513325Y-60902038D01*
X115269621Y-60739200D01*
X115054594Y-60595524D01*
X114664476Y-60205406D01*
X114357963Y-59746676D01*
X114357962Y-59746675D01*
X114146833Y-59236962D01*
X114039200Y-58695856D01*
X114039200Y-58144144D01*
X114093017Y-57873591D01*
X114146833Y-57603037D01*
X114311011Y-57206675D01*
X114357962Y-57093325D01*
X114434591Y-56978641D01*
X114664476Y-56634594D01*
X115054594Y-56244476D01*
X115513324Y-55937963D01*
X115513325Y-55937962D01*
X115811908Y-55814285D01*
X116023037Y-55726833D01*
X116293591Y-55673016D01*
X116564144Y-55619200D01*
X117115856Y-55619200D01*
X117386409Y-55673016D01*
X117386409Y-55673016D01*
G37*
G36*
X203746409Y-53133017D02*
X204016963Y-53186833D01*
X204228092Y-53274285D01*
X204526675Y-53397962D01*
X204526676Y-53397963D01*
X204985406Y-53704476D01*
X205375524Y-54094594D01*
X205605409Y-54438641D01*
X205682038Y-54553325D01*
X205805715Y-54851908D01*
X205893167Y-55063037D01*
X206000800Y-55604145D01*
X206000800Y-56155855D01*
X205905574Y-56634591D01*
X205893167Y-56696962D01*
X205682038Y-57206675D01*
X205682037Y-57206676D01*
X205375524Y-57665406D01*
X204985406Y-58055524D01*
X204641358Y-58285409D01*
X204526675Y-58362038D01*
X204228092Y-58485715D01*
X204016963Y-58573167D01*
X203746409Y-58626984D01*
X203475856Y-58680800D01*
X202924144Y-58680800D01*
X202653591Y-58626984D01*
X202383037Y-58573167D01*
X202171908Y-58485715D01*
X201873325Y-58362038D01*
X201758641Y-58285409D01*
X201414594Y-58055524D01*
X201024476Y-57665406D01*
X200717963Y-57206676D01*
X200717962Y-57206675D01*
X200506833Y-56696962D01*
X200494427Y-56634591D01*
X200399200Y-56155855D01*
X200399200Y-55604145D01*
X200506833Y-55063037D01*
X200594285Y-54851908D01*
X200717962Y-54553325D01*
X200794591Y-54438641D01*
X201024476Y-54094594D01*
X201414594Y-53704476D01*
X201873324Y-53397963D01*
X201873325Y-53397962D01*
X202171908Y-53274285D01*
X202383037Y-53186833D01*
X202653591Y-53133017D01*
X202924144Y-53079200D01*
X203475856Y-53079200D01*
X203746409Y-53133017D01*
X203746409Y-53133017D01*
G37*
M02*
