G04 #@! TF.GenerationSoftware,KiCad,Pcbnew,(5.0.1)-4*
G04 #@! TF.CreationDate,2019-02-26T19:28:48-05:00*
G04 #@! TF.ProjectId,Capstone,43617073746F6E652E6B696361645F70,v01*
G04 #@! TF.SameCoordinates,Original*
G04 #@! TF.FileFunction,Copper,L1,Top,Signal*
G04 #@! TF.FilePolarity,Positive*
%FSLAX46Y46*%
G04 Gerber Fmt 4.6, Leading zero omitted, Abs format (unit mm)*
G04 Created by KiCad (PCBNEW (5.0.1)-4) date 26/02/2019 7:28:48 PM*
%MOMM*%
%LPD*%
G01*
G04 APERTURE LIST*
G04 #@! TA.AperFunction,ComponentPad*
%ADD10C,5.500000*%
G04 #@! TD*
G04 #@! TA.AperFunction,ComponentPad*
%ADD11C,1.600000*%
G04 #@! TD*
G04 #@! TA.AperFunction,ComponentPad*
%ADD12R,1.600000X1.600000*%
G04 #@! TD*
G04 #@! TA.AperFunction,ComponentPad*
%ADD13R,1.700000X1.700000*%
G04 #@! TD*
G04 #@! TA.AperFunction,ComponentPad*
%ADD14O,1.700000X1.700000*%
G04 #@! TD*
G04 #@! TA.AperFunction,Conductor*
%ADD15C,0.100000*%
G04 #@! TD*
G04 #@! TA.AperFunction,SMDPad,CuDef*
%ADD16C,0.975000*%
G04 #@! TD*
G04 #@! TA.AperFunction,SMDPad,CuDef*
%ADD17R,0.300000X0.950000*%
G04 #@! TD*
G04 #@! TA.AperFunction,SMDPad,CuDef*
%ADD18R,0.950000X0.300000*%
G04 #@! TD*
G04 #@! TA.AperFunction,SMDPad,CuDef*
%ADD19R,2.700000X2.700000*%
G04 #@! TD*
G04 #@! TA.AperFunction,SMDPad,CuDef*
%ADD20C,1.250000*%
G04 #@! TD*
G04 #@! TA.AperFunction,SMDPad,CuDef*
%ADD21C,1.350000*%
G04 #@! TD*
G04 #@! TA.AperFunction,SMDPad,CuDef*
%ADD22R,1.981200X0.558800*%
G04 #@! TD*
G04 #@! TA.AperFunction,ComponentPad*
%ADD23R,1.905000X1.905000*%
G04 #@! TD*
G04 #@! TA.AperFunction,ComponentPad*
%ADD24C,1.905000*%
G04 #@! TD*
G04 #@! TA.AperFunction,ComponentPad*
%ADD25R,2.800000X2.800000*%
G04 #@! TD*
G04 #@! TA.AperFunction,ComponentPad*
%ADD26C,2.800000*%
G04 #@! TD*
G04 #@! TA.AperFunction,SMDPad,CuDef*
%ADD27R,1.270000X0.610000*%
G04 #@! TD*
G04 #@! TA.AperFunction,SMDPad,CuDef*
%ADD28R,3.910000X3.810000*%
G04 #@! TD*
G04 #@! TA.AperFunction,SMDPad,CuDef*
%ADD29R,1.020000X0.610000*%
G04 #@! TD*
G04 #@! TA.AperFunction,ViaPad*
%ADD30C,0.762000*%
G04 #@! TD*
G04 #@! TA.AperFunction,Conductor*
%ADD31C,0.300000*%
G04 #@! TD*
G04 #@! TA.AperFunction,Conductor*
%ADD32C,0.203200*%
G04 #@! TD*
G04 #@! TA.AperFunction,Conductor*
%ADD33C,2.032000*%
G04 #@! TD*
G04 #@! TA.AperFunction,Conductor*
%ADD34C,0.762000*%
G04 #@! TD*
G04 #@! TA.AperFunction,Conductor*
%ADD35C,0.025400*%
G04 #@! TD*
G04 #@! TA.AperFunction,Conductor*
%ADD36C,0.254000*%
G04 #@! TD*
G04 APERTURE END LIST*
D10*
G04 #@! TO.P,,1*
G04 #@! TO.N,N/C*
X203200000Y-55880000D03*
G04 #@! TD*
G04 #@! TO.P,,1*
G04 #@! TO.N,N/C*
X203200000Y-129540000D03*
G04 #@! TD*
G04 #@! TO.P,,1*
G04 #@! TO.N,N/C*
X116840000Y-127000000D03*
G04 #@! TD*
D11*
G04 #@! TO.P,Ce2,2*
G04 #@! TO.N,Earth*
X186650000Y-89154000D03*
D12*
G04 #@! TO.P,Ce2,1*
G04 #@! TO.N,Net-(Cc1-Pad1)*
X184150000Y-89154000D03*
G04 #@! TD*
D13*
G04 #@! TO.P,J2,1*
G04 #@! TO.N,Net-(J2-Pad1)*
X116589420Y-91711780D03*
D14*
G04 #@! TO.P,J2,2*
G04 #@! TO.N,Net-(J2-Pad2)*
X114049420Y-91711780D03*
G04 #@! TO.P,J2,3*
G04 #@! TO.N,Net-(J2-Pad3)*
X116589420Y-89171780D03*
G04 #@! TO.P,J2,4*
G04 #@! TO.N,Net-(J2-Pad4)*
X114049420Y-89171780D03*
G04 #@! TO.P,J2,5*
G04 #@! TO.N,Net-(Cc6-Pad1)*
X116589420Y-86631780D03*
G04 #@! TO.P,J2,6*
G04 #@! TO.N,Net-(J2-Pad6)*
X114049420Y-86631780D03*
G04 #@! TD*
D15*
G04 #@! TO.N,Net-(Cc3-Pad2)*
G04 #@! TO.C,Cc3*
G36*
X136950142Y-83841674D02*
X136973803Y-83845184D01*
X136997007Y-83850996D01*
X137019529Y-83859054D01*
X137041153Y-83869282D01*
X137061670Y-83881579D01*
X137080883Y-83895829D01*
X137098607Y-83911893D01*
X137114671Y-83929617D01*
X137128921Y-83948830D01*
X137141218Y-83969347D01*
X137151446Y-83990971D01*
X137159504Y-84013493D01*
X137165316Y-84036697D01*
X137168826Y-84060358D01*
X137170000Y-84084250D01*
X137170000Y-84571750D01*
X137168826Y-84595642D01*
X137165316Y-84619303D01*
X137159504Y-84642507D01*
X137151446Y-84665029D01*
X137141218Y-84686653D01*
X137128921Y-84707170D01*
X137114671Y-84726383D01*
X137098607Y-84744107D01*
X137080883Y-84760171D01*
X137061670Y-84774421D01*
X137041153Y-84786718D01*
X137019529Y-84796946D01*
X136997007Y-84805004D01*
X136973803Y-84810816D01*
X136950142Y-84814326D01*
X136926250Y-84815500D01*
X136013750Y-84815500D01*
X135989858Y-84814326D01*
X135966197Y-84810816D01*
X135942993Y-84805004D01*
X135920471Y-84796946D01*
X135898847Y-84786718D01*
X135878330Y-84774421D01*
X135859117Y-84760171D01*
X135841393Y-84744107D01*
X135825329Y-84726383D01*
X135811079Y-84707170D01*
X135798782Y-84686653D01*
X135788554Y-84665029D01*
X135780496Y-84642507D01*
X135774684Y-84619303D01*
X135771174Y-84595642D01*
X135770000Y-84571750D01*
X135770000Y-84084250D01*
X135771174Y-84060358D01*
X135774684Y-84036697D01*
X135780496Y-84013493D01*
X135788554Y-83990971D01*
X135798782Y-83969347D01*
X135811079Y-83948830D01*
X135825329Y-83929617D01*
X135841393Y-83911893D01*
X135859117Y-83895829D01*
X135878330Y-83881579D01*
X135898847Y-83869282D01*
X135920471Y-83859054D01*
X135942993Y-83850996D01*
X135966197Y-83845184D01*
X135989858Y-83841674D01*
X136013750Y-83840500D01*
X136926250Y-83840500D01*
X136950142Y-83841674D01*
X136950142Y-83841674D01*
G37*
D16*
G04 #@! TD*
G04 #@! TO.P,Cc3,2*
G04 #@! TO.N,Net-(Cc3-Pad2)*
X136470000Y-84328000D03*
D15*
G04 #@! TO.N,Net-(Cc3-Pad1)*
G04 #@! TO.C,Cc3*
G36*
X136950142Y-81966674D02*
X136973803Y-81970184D01*
X136997007Y-81975996D01*
X137019529Y-81984054D01*
X137041153Y-81994282D01*
X137061670Y-82006579D01*
X137080883Y-82020829D01*
X137098607Y-82036893D01*
X137114671Y-82054617D01*
X137128921Y-82073830D01*
X137141218Y-82094347D01*
X137151446Y-82115971D01*
X137159504Y-82138493D01*
X137165316Y-82161697D01*
X137168826Y-82185358D01*
X137170000Y-82209250D01*
X137170000Y-82696750D01*
X137168826Y-82720642D01*
X137165316Y-82744303D01*
X137159504Y-82767507D01*
X137151446Y-82790029D01*
X137141218Y-82811653D01*
X137128921Y-82832170D01*
X137114671Y-82851383D01*
X137098607Y-82869107D01*
X137080883Y-82885171D01*
X137061670Y-82899421D01*
X137041153Y-82911718D01*
X137019529Y-82921946D01*
X136997007Y-82930004D01*
X136973803Y-82935816D01*
X136950142Y-82939326D01*
X136926250Y-82940500D01*
X136013750Y-82940500D01*
X135989858Y-82939326D01*
X135966197Y-82935816D01*
X135942993Y-82930004D01*
X135920471Y-82921946D01*
X135898847Y-82911718D01*
X135878330Y-82899421D01*
X135859117Y-82885171D01*
X135841393Y-82869107D01*
X135825329Y-82851383D01*
X135811079Y-82832170D01*
X135798782Y-82811653D01*
X135788554Y-82790029D01*
X135780496Y-82767507D01*
X135774684Y-82744303D01*
X135771174Y-82720642D01*
X135770000Y-82696750D01*
X135770000Y-82209250D01*
X135771174Y-82185358D01*
X135774684Y-82161697D01*
X135780496Y-82138493D01*
X135788554Y-82115971D01*
X135798782Y-82094347D01*
X135811079Y-82073830D01*
X135825329Y-82054617D01*
X135841393Y-82036893D01*
X135859117Y-82020829D01*
X135878330Y-82006579D01*
X135898847Y-81994282D01*
X135920471Y-81984054D01*
X135942993Y-81975996D01*
X135966197Y-81970184D01*
X135989858Y-81966674D01*
X136013750Y-81965500D01*
X136926250Y-81965500D01*
X136950142Y-81966674D01*
X136950142Y-81966674D01*
G37*
D16*
G04 #@! TD*
G04 #@! TO.P,Cc3,1*
G04 #@! TO.N,Net-(Cc3-Pad1)*
X136470000Y-82453000D03*
D15*
G04 #@! TO.N,Net-(Cc4-Pad2)*
G04 #@! TO.C,Cc4*
G36*
X140506142Y-89508174D02*
X140529803Y-89511684D01*
X140553007Y-89517496D01*
X140575529Y-89525554D01*
X140597153Y-89535782D01*
X140617670Y-89548079D01*
X140636883Y-89562329D01*
X140654607Y-89578393D01*
X140670671Y-89596117D01*
X140684921Y-89615330D01*
X140697218Y-89635847D01*
X140707446Y-89657471D01*
X140715504Y-89679993D01*
X140721316Y-89703197D01*
X140724826Y-89726858D01*
X140726000Y-89750750D01*
X140726000Y-90238250D01*
X140724826Y-90262142D01*
X140721316Y-90285803D01*
X140715504Y-90309007D01*
X140707446Y-90331529D01*
X140697218Y-90353153D01*
X140684921Y-90373670D01*
X140670671Y-90392883D01*
X140654607Y-90410607D01*
X140636883Y-90426671D01*
X140617670Y-90440921D01*
X140597153Y-90453218D01*
X140575529Y-90463446D01*
X140553007Y-90471504D01*
X140529803Y-90477316D01*
X140506142Y-90480826D01*
X140482250Y-90482000D01*
X139569750Y-90482000D01*
X139545858Y-90480826D01*
X139522197Y-90477316D01*
X139498993Y-90471504D01*
X139476471Y-90463446D01*
X139454847Y-90453218D01*
X139434330Y-90440921D01*
X139415117Y-90426671D01*
X139397393Y-90410607D01*
X139381329Y-90392883D01*
X139367079Y-90373670D01*
X139354782Y-90353153D01*
X139344554Y-90331529D01*
X139336496Y-90309007D01*
X139330684Y-90285803D01*
X139327174Y-90262142D01*
X139326000Y-90238250D01*
X139326000Y-89750750D01*
X139327174Y-89726858D01*
X139330684Y-89703197D01*
X139336496Y-89679993D01*
X139344554Y-89657471D01*
X139354782Y-89635847D01*
X139367079Y-89615330D01*
X139381329Y-89596117D01*
X139397393Y-89578393D01*
X139415117Y-89562329D01*
X139434330Y-89548079D01*
X139454847Y-89535782D01*
X139476471Y-89525554D01*
X139498993Y-89517496D01*
X139522197Y-89511684D01*
X139545858Y-89508174D01*
X139569750Y-89507000D01*
X140482250Y-89507000D01*
X140506142Y-89508174D01*
X140506142Y-89508174D01*
G37*
D16*
G04 #@! TD*
G04 #@! TO.P,Cc4,2*
G04 #@! TO.N,Net-(Cc4-Pad2)*
X140026000Y-89994500D03*
D15*
G04 #@! TO.N,Earth*
G04 #@! TO.C,Cc4*
G36*
X140506142Y-91383174D02*
X140529803Y-91386684D01*
X140553007Y-91392496D01*
X140575529Y-91400554D01*
X140597153Y-91410782D01*
X140617670Y-91423079D01*
X140636883Y-91437329D01*
X140654607Y-91453393D01*
X140670671Y-91471117D01*
X140684921Y-91490330D01*
X140697218Y-91510847D01*
X140707446Y-91532471D01*
X140715504Y-91554993D01*
X140721316Y-91578197D01*
X140724826Y-91601858D01*
X140726000Y-91625750D01*
X140726000Y-92113250D01*
X140724826Y-92137142D01*
X140721316Y-92160803D01*
X140715504Y-92184007D01*
X140707446Y-92206529D01*
X140697218Y-92228153D01*
X140684921Y-92248670D01*
X140670671Y-92267883D01*
X140654607Y-92285607D01*
X140636883Y-92301671D01*
X140617670Y-92315921D01*
X140597153Y-92328218D01*
X140575529Y-92338446D01*
X140553007Y-92346504D01*
X140529803Y-92352316D01*
X140506142Y-92355826D01*
X140482250Y-92357000D01*
X139569750Y-92357000D01*
X139545858Y-92355826D01*
X139522197Y-92352316D01*
X139498993Y-92346504D01*
X139476471Y-92338446D01*
X139454847Y-92328218D01*
X139434330Y-92315921D01*
X139415117Y-92301671D01*
X139397393Y-92285607D01*
X139381329Y-92267883D01*
X139367079Y-92248670D01*
X139354782Y-92228153D01*
X139344554Y-92206529D01*
X139336496Y-92184007D01*
X139330684Y-92160803D01*
X139327174Y-92137142D01*
X139326000Y-92113250D01*
X139326000Y-91625750D01*
X139327174Y-91601858D01*
X139330684Y-91578197D01*
X139336496Y-91554993D01*
X139344554Y-91532471D01*
X139354782Y-91510847D01*
X139367079Y-91490330D01*
X139381329Y-91471117D01*
X139397393Y-91453393D01*
X139415117Y-91437329D01*
X139434330Y-91423079D01*
X139454847Y-91410782D01*
X139476471Y-91400554D01*
X139498993Y-91392496D01*
X139522197Y-91386684D01*
X139545858Y-91383174D01*
X139569750Y-91382000D01*
X140482250Y-91382000D01*
X140506142Y-91383174D01*
X140506142Y-91383174D01*
G37*
D16*
G04 #@! TD*
G04 #@! TO.P,Cc4,1*
G04 #@! TO.N,Earth*
X140026000Y-91869500D03*
D15*
G04 #@! TO.N,Net-(Cc5-Pad2)*
G04 #@! TO.C,Cc5*
G36*
X136950142Y-89586674D02*
X136973803Y-89590184D01*
X136997007Y-89595996D01*
X137019529Y-89604054D01*
X137041153Y-89614282D01*
X137061670Y-89626579D01*
X137080883Y-89640829D01*
X137098607Y-89656893D01*
X137114671Y-89674617D01*
X137128921Y-89693830D01*
X137141218Y-89714347D01*
X137151446Y-89735971D01*
X137159504Y-89758493D01*
X137165316Y-89781697D01*
X137168826Y-89805358D01*
X137170000Y-89829250D01*
X137170000Y-90316750D01*
X137168826Y-90340642D01*
X137165316Y-90364303D01*
X137159504Y-90387507D01*
X137151446Y-90410029D01*
X137141218Y-90431653D01*
X137128921Y-90452170D01*
X137114671Y-90471383D01*
X137098607Y-90489107D01*
X137080883Y-90505171D01*
X137061670Y-90519421D01*
X137041153Y-90531718D01*
X137019529Y-90541946D01*
X136997007Y-90550004D01*
X136973803Y-90555816D01*
X136950142Y-90559326D01*
X136926250Y-90560500D01*
X136013750Y-90560500D01*
X135989858Y-90559326D01*
X135966197Y-90555816D01*
X135942993Y-90550004D01*
X135920471Y-90541946D01*
X135898847Y-90531718D01*
X135878330Y-90519421D01*
X135859117Y-90505171D01*
X135841393Y-90489107D01*
X135825329Y-90471383D01*
X135811079Y-90452170D01*
X135798782Y-90431653D01*
X135788554Y-90410029D01*
X135780496Y-90387507D01*
X135774684Y-90364303D01*
X135771174Y-90340642D01*
X135770000Y-90316750D01*
X135770000Y-89829250D01*
X135771174Y-89805358D01*
X135774684Y-89781697D01*
X135780496Y-89758493D01*
X135788554Y-89735971D01*
X135798782Y-89714347D01*
X135811079Y-89693830D01*
X135825329Y-89674617D01*
X135841393Y-89656893D01*
X135859117Y-89640829D01*
X135878330Y-89626579D01*
X135898847Y-89614282D01*
X135920471Y-89604054D01*
X135942993Y-89595996D01*
X135966197Y-89590184D01*
X135989858Y-89586674D01*
X136013750Y-89585500D01*
X136926250Y-89585500D01*
X136950142Y-89586674D01*
X136950142Y-89586674D01*
G37*
D16*
G04 #@! TD*
G04 #@! TO.P,Cc5,2*
G04 #@! TO.N,Net-(Cc5-Pad2)*
X136470000Y-90073000D03*
D15*
G04 #@! TO.N,Net-(Cc5-Pad1)*
G04 #@! TO.C,Cc5*
G36*
X136950142Y-91461674D02*
X136973803Y-91465184D01*
X136997007Y-91470996D01*
X137019529Y-91479054D01*
X137041153Y-91489282D01*
X137061670Y-91501579D01*
X137080883Y-91515829D01*
X137098607Y-91531893D01*
X137114671Y-91549617D01*
X137128921Y-91568830D01*
X137141218Y-91589347D01*
X137151446Y-91610971D01*
X137159504Y-91633493D01*
X137165316Y-91656697D01*
X137168826Y-91680358D01*
X137170000Y-91704250D01*
X137170000Y-92191750D01*
X137168826Y-92215642D01*
X137165316Y-92239303D01*
X137159504Y-92262507D01*
X137151446Y-92285029D01*
X137141218Y-92306653D01*
X137128921Y-92327170D01*
X137114671Y-92346383D01*
X137098607Y-92364107D01*
X137080883Y-92380171D01*
X137061670Y-92394421D01*
X137041153Y-92406718D01*
X137019529Y-92416946D01*
X136997007Y-92425004D01*
X136973803Y-92430816D01*
X136950142Y-92434326D01*
X136926250Y-92435500D01*
X136013750Y-92435500D01*
X135989858Y-92434326D01*
X135966197Y-92430816D01*
X135942993Y-92425004D01*
X135920471Y-92416946D01*
X135898847Y-92406718D01*
X135878330Y-92394421D01*
X135859117Y-92380171D01*
X135841393Y-92364107D01*
X135825329Y-92346383D01*
X135811079Y-92327170D01*
X135798782Y-92306653D01*
X135788554Y-92285029D01*
X135780496Y-92262507D01*
X135774684Y-92239303D01*
X135771174Y-92215642D01*
X135770000Y-92191750D01*
X135770000Y-91704250D01*
X135771174Y-91680358D01*
X135774684Y-91656697D01*
X135780496Y-91633493D01*
X135788554Y-91610971D01*
X135798782Y-91589347D01*
X135811079Y-91568830D01*
X135825329Y-91549617D01*
X135841393Y-91531893D01*
X135859117Y-91515829D01*
X135878330Y-91501579D01*
X135898847Y-91489282D01*
X135920471Y-91479054D01*
X135942993Y-91470996D01*
X135966197Y-91465184D01*
X135989858Y-91461674D01*
X136013750Y-91460500D01*
X136926250Y-91460500D01*
X136950142Y-91461674D01*
X136950142Y-91461674D01*
G37*
D16*
G04 #@! TD*
G04 #@! TO.P,Cc5,1*
G04 #@! TO.N,Net-(Cc5-Pad1)*
X136470000Y-91948000D03*
D11*
G04 #@! TO.P,Ce1,2*
G04 #@! TO.N,Earth*
X136358000Y-65024000D03*
D12*
G04 #@! TO.P,Ce1,1*
G04 #@! TO.N,Net-(Cc1-Pad1)*
X133858000Y-65024000D03*
G04 #@! TD*
D17*
G04 #@! TO.P,U1,1*
G04 #@! TO.N,Net-(Cc3-Pad1)*
X131364600Y-89390000D03*
G04 #@! TO.P,U1,2*
G04 #@! TO.N,Net-(R6-Pad1)*
X130882000Y-89390000D03*
G04 #@! TO.P,U1,3*
G04 #@! TO.N,Net-(Cc1-Pad1)*
X130374000Y-89390000D03*
G04 #@! TO.P,U1,4*
G04 #@! TO.N,Net-(Cc2-Pad1)*
X129866000Y-89390000D03*
G04 #@! TO.P,U1,5*
G04 #@! TO.N,Net-(Cc2-Pad2)*
X129358000Y-89390000D03*
G04 #@! TO.P,U1,6*
G04 #@! TO.N,Earth*
X128875400Y-89390000D03*
D18*
G04 #@! TO.P,U1,7*
X128070000Y-90195400D03*
G04 #@! TO.P,U1,8*
G04 #@! TO.N,Net-(J2-Pad4)*
X128070000Y-90678000D03*
G04 #@! TO.P,U1,9*
G04 #@! TO.N,Net-(J2-Pad6)*
X128070000Y-91186000D03*
G04 #@! TO.P,U1,10*
X128070000Y-91694000D03*
G04 #@! TO.P,U1,11*
G04 #@! TO.N,Net-(J2-Pad4)*
X128070000Y-92202000D03*
G04 #@! TO.P,U1,12*
G04 #@! TO.N,Net-(Cc6-Pad1)*
X128070000Y-92684600D03*
D17*
G04 #@! TO.P,U1,13*
G04 #@! TO.N,Earth*
X128875400Y-93490000D03*
G04 #@! TO.P,U1,14*
G04 #@! TO.N,Net-(R7-Pad1)*
X129358000Y-93490000D03*
G04 #@! TO.P,U1,15*
G04 #@! TO.N,Net-(J1-Pad3)*
X129866000Y-93490000D03*
G04 #@! TO.P,U1,16*
G04 #@! TO.N,Net-(J1-Pad1)*
X130374000Y-93490000D03*
G04 #@! TO.P,U1,17*
G04 #@! TO.N,Earth*
X130882000Y-93490000D03*
G04 #@! TO.P,U1,18*
G04 #@! TO.N,Net-(R8-Pad1)*
X131364600Y-93490000D03*
D18*
G04 #@! TO.P,U1,19*
G04 #@! TO.N,Net-(Cc5-Pad1)*
X132170000Y-92684600D03*
G04 #@! TO.P,U1,20*
G04 #@! TO.N,Net-(R4-Pad1)*
X132170000Y-92202000D03*
G04 #@! TO.P,U1,21*
G04 #@! TO.N,Net-(Cc5-Pad2)*
X132170000Y-91694000D03*
G04 #@! TO.P,U1,22*
G04 #@! TO.N,Net-(Cc4-Pad2)*
X132170000Y-91186000D03*
G04 #@! TO.P,U1,23*
G04 #@! TO.N,Net-(Cc3-Pad2)*
X132170000Y-90678000D03*
G04 #@! TO.P,U1,24*
G04 #@! TO.N,Net-(R3-Pad1)*
X132170000Y-90195400D03*
D19*
G04 #@! TO.P,U1,25*
G04 #@! TO.N,N/C*
X130120000Y-91440000D03*
G04 #@! TD*
D15*
G04 #@! TO.N,Earth*
G04 #@! TO.C,R1*
G36*
X124089304Y-72985404D02*
X124113573Y-72989004D01*
X124137371Y-72994965D01*
X124160471Y-73003230D01*
X124182649Y-73013720D01*
X124203693Y-73026333D01*
X124223398Y-73040947D01*
X124241577Y-73057423D01*
X124258053Y-73075602D01*
X124272667Y-73095307D01*
X124285280Y-73116351D01*
X124295770Y-73138529D01*
X124304035Y-73161629D01*
X124309996Y-73185427D01*
X124313596Y-73209696D01*
X124314800Y-73234200D01*
X124314800Y-73984200D01*
X124313596Y-74008704D01*
X124309996Y-74032973D01*
X124304035Y-74056771D01*
X124295770Y-74079871D01*
X124285280Y-74102049D01*
X124272667Y-74123093D01*
X124258053Y-74142798D01*
X124241577Y-74160977D01*
X124223398Y-74177453D01*
X124203693Y-74192067D01*
X124182649Y-74204680D01*
X124160471Y-74215170D01*
X124137371Y-74223435D01*
X124113573Y-74229396D01*
X124089304Y-74232996D01*
X124064800Y-74234200D01*
X122814800Y-74234200D01*
X122790296Y-74232996D01*
X122766027Y-74229396D01*
X122742229Y-74223435D01*
X122719129Y-74215170D01*
X122696951Y-74204680D01*
X122675907Y-74192067D01*
X122656202Y-74177453D01*
X122638023Y-74160977D01*
X122621547Y-74142798D01*
X122606933Y-74123093D01*
X122594320Y-74102049D01*
X122583830Y-74079871D01*
X122575565Y-74056771D01*
X122569604Y-74032973D01*
X122566004Y-74008704D01*
X122564800Y-73984200D01*
X122564800Y-73234200D01*
X122566004Y-73209696D01*
X122569604Y-73185427D01*
X122575565Y-73161629D01*
X122583830Y-73138529D01*
X122594320Y-73116351D01*
X122606933Y-73095307D01*
X122621547Y-73075602D01*
X122638023Y-73057423D01*
X122656202Y-73040947D01*
X122675907Y-73026333D01*
X122696951Y-73013720D01*
X122719129Y-73003230D01*
X122742229Y-72994965D01*
X122766027Y-72989004D01*
X122790296Y-72985404D01*
X122814800Y-72984200D01*
X124064800Y-72984200D01*
X124089304Y-72985404D01*
X124089304Y-72985404D01*
G37*
D20*
G04 #@! TD*
G04 #@! TO.P,R1,2*
G04 #@! TO.N,Earth*
X123439800Y-73609200D03*
D15*
G04 #@! TO.N,Net-(J2-Pad4)*
G04 #@! TO.C,R1*
G36*
X124089304Y-75785404D02*
X124113573Y-75789004D01*
X124137371Y-75794965D01*
X124160471Y-75803230D01*
X124182649Y-75813720D01*
X124203693Y-75826333D01*
X124223398Y-75840947D01*
X124241577Y-75857423D01*
X124258053Y-75875602D01*
X124272667Y-75895307D01*
X124285280Y-75916351D01*
X124295770Y-75938529D01*
X124304035Y-75961629D01*
X124309996Y-75985427D01*
X124313596Y-76009696D01*
X124314800Y-76034200D01*
X124314800Y-76784200D01*
X124313596Y-76808704D01*
X124309996Y-76832973D01*
X124304035Y-76856771D01*
X124295770Y-76879871D01*
X124285280Y-76902049D01*
X124272667Y-76923093D01*
X124258053Y-76942798D01*
X124241577Y-76960977D01*
X124223398Y-76977453D01*
X124203693Y-76992067D01*
X124182649Y-77004680D01*
X124160471Y-77015170D01*
X124137371Y-77023435D01*
X124113573Y-77029396D01*
X124089304Y-77032996D01*
X124064800Y-77034200D01*
X122814800Y-77034200D01*
X122790296Y-77032996D01*
X122766027Y-77029396D01*
X122742229Y-77023435D01*
X122719129Y-77015170D01*
X122696951Y-77004680D01*
X122675907Y-76992067D01*
X122656202Y-76977453D01*
X122638023Y-76960977D01*
X122621547Y-76942798D01*
X122606933Y-76923093D01*
X122594320Y-76902049D01*
X122583830Y-76879871D01*
X122575565Y-76856771D01*
X122569604Y-76832973D01*
X122566004Y-76808704D01*
X122564800Y-76784200D01*
X122564800Y-76034200D01*
X122566004Y-76009696D01*
X122569604Y-75985427D01*
X122575565Y-75961629D01*
X122583830Y-75938529D01*
X122594320Y-75916351D01*
X122606933Y-75895307D01*
X122621547Y-75875602D01*
X122638023Y-75857423D01*
X122656202Y-75840947D01*
X122675907Y-75826333D01*
X122696951Y-75813720D01*
X122719129Y-75803230D01*
X122742229Y-75794965D01*
X122766027Y-75789004D01*
X122790296Y-75785404D01*
X122814800Y-75784200D01*
X124064800Y-75784200D01*
X124089304Y-75785404D01*
X124089304Y-75785404D01*
G37*
D20*
G04 #@! TD*
G04 #@! TO.P,R1,1*
G04 #@! TO.N,Net-(J2-Pad4)*
X123439800Y-76409200D03*
D15*
G04 #@! TO.N,Net-(J2-Pad6)*
G04 #@! TO.C,R2*
G36*
X124089304Y-80890804D02*
X124113573Y-80894404D01*
X124137371Y-80900365D01*
X124160471Y-80908630D01*
X124182649Y-80919120D01*
X124203693Y-80931733D01*
X124223398Y-80946347D01*
X124241577Y-80962823D01*
X124258053Y-80981002D01*
X124272667Y-81000707D01*
X124285280Y-81021751D01*
X124295770Y-81043929D01*
X124304035Y-81067029D01*
X124309996Y-81090827D01*
X124313596Y-81115096D01*
X124314800Y-81139600D01*
X124314800Y-81889600D01*
X124313596Y-81914104D01*
X124309996Y-81938373D01*
X124304035Y-81962171D01*
X124295770Y-81985271D01*
X124285280Y-82007449D01*
X124272667Y-82028493D01*
X124258053Y-82048198D01*
X124241577Y-82066377D01*
X124223398Y-82082853D01*
X124203693Y-82097467D01*
X124182649Y-82110080D01*
X124160471Y-82120570D01*
X124137371Y-82128835D01*
X124113573Y-82134796D01*
X124089304Y-82138396D01*
X124064800Y-82139600D01*
X122814800Y-82139600D01*
X122790296Y-82138396D01*
X122766027Y-82134796D01*
X122742229Y-82128835D01*
X122719129Y-82120570D01*
X122696951Y-82110080D01*
X122675907Y-82097467D01*
X122656202Y-82082853D01*
X122638023Y-82066377D01*
X122621547Y-82048198D01*
X122606933Y-82028493D01*
X122594320Y-82007449D01*
X122583830Y-81985271D01*
X122575565Y-81962171D01*
X122569604Y-81938373D01*
X122566004Y-81914104D01*
X122564800Y-81889600D01*
X122564800Y-81139600D01*
X122566004Y-81115096D01*
X122569604Y-81090827D01*
X122575565Y-81067029D01*
X122583830Y-81043929D01*
X122594320Y-81021751D01*
X122606933Y-81000707D01*
X122621547Y-80981002D01*
X122638023Y-80962823D01*
X122656202Y-80946347D01*
X122675907Y-80931733D01*
X122696951Y-80919120D01*
X122719129Y-80908630D01*
X122742229Y-80900365D01*
X122766027Y-80894404D01*
X122790296Y-80890804D01*
X122814800Y-80889600D01*
X124064800Y-80889600D01*
X124089304Y-80890804D01*
X124089304Y-80890804D01*
G37*
D20*
G04 #@! TD*
G04 #@! TO.P,R2,1*
G04 #@! TO.N,Net-(J2-Pad6)*
X123439800Y-81514600D03*
D15*
G04 #@! TO.N,Earth*
G04 #@! TO.C,R2*
G36*
X124089304Y-78090804D02*
X124113573Y-78094404D01*
X124137371Y-78100365D01*
X124160471Y-78108630D01*
X124182649Y-78119120D01*
X124203693Y-78131733D01*
X124223398Y-78146347D01*
X124241577Y-78162823D01*
X124258053Y-78181002D01*
X124272667Y-78200707D01*
X124285280Y-78221751D01*
X124295770Y-78243929D01*
X124304035Y-78267029D01*
X124309996Y-78290827D01*
X124313596Y-78315096D01*
X124314800Y-78339600D01*
X124314800Y-79089600D01*
X124313596Y-79114104D01*
X124309996Y-79138373D01*
X124304035Y-79162171D01*
X124295770Y-79185271D01*
X124285280Y-79207449D01*
X124272667Y-79228493D01*
X124258053Y-79248198D01*
X124241577Y-79266377D01*
X124223398Y-79282853D01*
X124203693Y-79297467D01*
X124182649Y-79310080D01*
X124160471Y-79320570D01*
X124137371Y-79328835D01*
X124113573Y-79334796D01*
X124089304Y-79338396D01*
X124064800Y-79339600D01*
X122814800Y-79339600D01*
X122790296Y-79338396D01*
X122766027Y-79334796D01*
X122742229Y-79328835D01*
X122719129Y-79320570D01*
X122696951Y-79310080D01*
X122675907Y-79297467D01*
X122656202Y-79282853D01*
X122638023Y-79266377D01*
X122621547Y-79248198D01*
X122606933Y-79228493D01*
X122594320Y-79207449D01*
X122583830Y-79185271D01*
X122575565Y-79162171D01*
X122569604Y-79138373D01*
X122566004Y-79114104D01*
X122564800Y-79089600D01*
X122564800Y-78339600D01*
X122566004Y-78315096D01*
X122569604Y-78290827D01*
X122575565Y-78267029D01*
X122583830Y-78243929D01*
X122594320Y-78221751D01*
X122606933Y-78200707D01*
X122621547Y-78181002D01*
X122638023Y-78162823D01*
X122656202Y-78146347D01*
X122675907Y-78131733D01*
X122696951Y-78119120D01*
X122719129Y-78108630D01*
X122742229Y-78100365D01*
X122766027Y-78094404D01*
X122790296Y-78090804D01*
X122814800Y-78089600D01*
X124064800Y-78089600D01*
X124089304Y-78090804D01*
X124089304Y-78090804D01*
G37*
D20*
G04 #@! TD*
G04 #@! TO.P,R2,2*
G04 #@! TO.N,Earth*
X123439800Y-78714600D03*
D15*
G04 #@! TO.N,Net-(R3-Pad1)*
G04 #@! TO.C,R3*
G36*
X142125504Y-82438204D02*
X142149773Y-82441804D01*
X142173571Y-82447765D01*
X142196671Y-82456030D01*
X142218849Y-82466520D01*
X142239893Y-82479133D01*
X142259598Y-82493747D01*
X142277777Y-82510223D01*
X142294253Y-82528402D01*
X142308867Y-82548107D01*
X142321480Y-82569151D01*
X142331970Y-82591329D01*
X142340235Y-82614429D01*
X142346196Y-82638227D01*
X142349796Y-82662496D01*
X142351000Y-82687000D01*
X142351000Y-83937000D01*
X142349796Y-83961504D01*
X142346196Y-83985773D01*
X142340235Y-84009571D01*
X142331970Y-84032671D01*
X142321480Y-84054849D01*
X142308867Y-84075893D01*
X142294253Y-84095598D01*
X142277777Y-84113777D01*
X142259598Y-84130253D01*
X142239893Y-84144867D01*
X142218849Y-84157480D01*
X142196671Y-84167970D01*
X142173571Y-84176235D01*
X142149773Y-84182196D01*
X142125504Y-84185796D01*
X142101000Y-84187000D01*
X141351000Y-84187000D01*
X141326496Y-84185796D01*
X141302227Y-84182196D01*
X141278429Y-84176235D01*
X141255329Y-84167970D01*
X141233151Y-84157480D01*
X141212107Y-84144867D01*
X141192402Y-84130253D01*
X141174223Y-84113777D01*
X141157747Y-84095598D01*
X141143133Y-84075893D01*
X141130520Y-84054849D01*
X141120030Y-84032671D01*
X141111765Y-84009571D01*
X141105804Y-83985773D01*
X141102204Y-83961504D01*
X141101000Y-83937000D01*
X141101000Y-82687000D01*
X141102204Y-82662496D01*
X141105804Y-82638227D01*
X141111765Y-82614429D01*
X141120030Y-82591329D01*
X141130520Y-82569151D01*
X141143133Y-82548107D01*
X141157747Y-82528402D01*
X141174223Y-82510223D01*
X141192402Y-82493747D01*
X141212107Y-82479133D01*
X141233151Y-82466520D01*
X141255329Y-82456030D01*
X141278429Y-82447765D01*
X141302227Y-82441804D01*
X141326496Y-82438204D01*
X141351000Y-82437000D01*
X142101000Y-82437000D01*
X142125504Y-82438204D01*
X142125504Y-82438204D01*
G37*
D20*
G04 #@! TD*
G04 #@! TO.P,R3,1*
G04 #@! TO.N,Net-(R3-Pad1)*
X141726000Y-83312000D03*
D15*
G04 #@! TO.N,Net-(Q1-Pad4)*
G04 #@! TO.C,R3*
G36*
X144925504Y-82438204D02*
X144949773Y-82441804D01*
X144973571Y-82447765D01*
X144996671Y-82456030D01*
X145018849Y-82466520D01*
X145039893Y-82479133D01*
X145059598Y-82493747D01*
X145077777Y-82510223D01*
X145094253Y-82528402D01*
X145108867Y-82548107D01*
X145121480Y-82569151D01*
X145131970Y-82591329D01*
X145140235Y-82614429D01*
X145146196Y-82638227D01*
X145149796Y-82662496D01*
X145151000Y-82687000D01*
X145151000Y-83937000D01*
X145149796Y-83961504D01*
X145146196Y-83985773D01*
X145140235Y-84009571D01*
X145131970Y-84032671D01*
X145121480Y-84054849D01*
X145108867Y-84075893D01*
X145094253Y-84095598D01*
X145077777Y-84113777D01*
X145059598Y-84130253D01*
X145039893Y-84144867D01*
X145018849Y-84157480D01*
X144996671Y-84167970D01*
X144973571Y-84176235D01*
X144949773Y-84182196D01*
X144925504Y-84185796D01*
X144901000Y-84187000D01*
X144151000Y-84187000D01*
X144126496Y-84185796D01*
X144102227Y-84182196D01*
X144078429Y-84176235D01*
X144055329Y-84167970D01*
X144033151Y-84157480D01*
X144012107Y-84144867D01*
X143992402Y-84130253D01*
X143974223Y-84113777D01*
X143957747Y-84095598D01*
X143943133Y-84075893D01*
X143930520Y-84054849D01*
X143920030Y-84032671D01*
X143911765Y-84009571D01*
X143905804Y-83985773D01*
X143902204Y-83961504D01*
X143901000Y-83937000D01*
X143901000Y-82687000D01*
X143902204Y-82662496D01*
X143905804Y-82638227D01*
X143911765Y-82614429D01*
X143920030Y-82591329D01*
X143930520Y-82569151D01*
X143943133Y-82548107D01*
X143957747Y-82528402D01*
X143974223Y-82510223D01*
X143992402Y-82493747D01*
X144012107Y-82479133D01*
X144033151Y-82466520D01*
X144055329Y-82456030D01*
X144078429Y-82447765D01*
X144102227Y-82441804D01*
X144126496Y-82438204D01*
X144151000Y-82437000D01*
X144901000Y-82437000D01*
X144925504Y-82438204D01*
X144925504Y-82438204D01*
G37*
D20*
G04 #@! TD*
G04 #@! TO.P,R3,2*
G04 #@! TO.N,Net-(Q1-Pad4)*
X144526000Y-83312000D03*
D15*
G04 #@! TO.N,Net-(Q2-Pad4)*
G04 #@! TO.C,R4*
G36*
X144931504Y-94122204D02*
X144955773Y-94125804D01*
X144979571Y-94131765D01*
X145002671Y-94140030D01*
X145024849Y-94150520D01*
X145045893Y-94163133D01*
X145065598Y-94177747D01*
X145083777Y-94194223D01*
X145100253Y-94212402D01*
X145114867Y-94232107D01*
X145127480Y-94253151D01*
X145137970Y-94275329D01*
X145146235Y-94298429D01*
X145152196Y-94322227D01*
X145155796Y-94346496D01*
X145157000Y-94371000D01*
X145157000Y-95621000D01*
X145155796Y-95645504D01*
X145152196Y-95669773D01*
X145146235Y-95693571D01*
X145137970Y-95716671D01*
X145127480Y-95738849D01*
X145114867Y-95759893D01*
X145100253Y-95779598D01*
X145083777Y-95797777D01*
X145065598Y-95814253D01*
X145045893Y-95828867D01*
X145024849Y-95841480D01*
X145002671Y-95851970D01*
X144979571Y-95860235D01*
X144955773Y-95866196D01*
X144931504Y-95869796D01*
X144907000Y-95871000D01*
X144157000Y-95871000D01*
X144132496Y-95869796D01*
X144108227Y-95866196D01*
X144084429Y-95860235D01*
X144061329Y-95851970D01*
X144039151Y-95841480D01*
X144018107Y-95828867D01*
X143998402Y-95814253D01*
X143980223Y-95797777D01*
X143963747Y-95779598D01*
X143949133Y-95759893D01*
X143936520Y-95738849D01*
X143926030Y-95716671D01*
X143917765Y-95693571D01*
X143911804Y-95669773D01*
X143908204Y-95645504D01*
X143907000Y-95621000D01*
X143907000Y-94371000D01*
X143908204Y-94346496D01*
X143911804Y-94322227D01*
X143917765Y-94298429D01*
X143926030Y-94275329D01*
X143936520Y-94253151D01*
X143949133Y-94232107D01*
X143963747Y-94212402D01*
X143980223Y-94194223D01*
X143998402Y-94177747D01*
X144018107Y-94163133D01*
X144039151Y-94150520D01*
X144061329Y-94140030D01*
X144084429Y-94131765D01*
X144108227Y-94125804D01*
X144132496Y-94122204D01*
X144157000Y-94121000D01*
X144907000Y-94121000D01*
X144931504Y-94122204D01*
X144931504Y-94122204D01*
G37*
D20*
G04 #@! TD*
G04 #@! TO.P,R4,2*
G04 #@! TO.N,Net-(Q2-Pad4)*
X144532000Y-94996000D03*
D15*
G04 #@! TO.N,Net-(R4-Pad1)*
G04 #@! TO.C,R4*
G36*
X142131504Y-94122204D02*
X142155773Y-94125804D01*
X142179571Y-94131765D01*
X142202671Y-94140030D01*
X142224849Y-94150520D01*
X142245893Y-94163133D01*
X142265598Y-94177747D01*
X142283777Y-94194223D01*
X142300253Y-94212402D01*
X142314867Y-94232107D01*
X142327480Y-94253151D01*
X142337970Y-94275329D01*
X142346235Y-94298429D01*
X142352196Y-94322227D01*
X142355796Y-94346496D01*
X142357000Y-94371000D01*
X142357000Y-95621000D01*
X142355796Y-95645504D01*
X142352196Y-95669773D01*
X142346235Y-95693571D01*
X142337970Y-95716671D01*
X142327480Y-95738849D01*
X142314867Y-95759893D01*
X142300253Y-95779598D01*
X142283777Y-95797777D01*
X142265598Y-95814253D01*
X142245893Y-95828867D01*
X142224849Y-95841480D01*
X142202671Y-95851970D01*
X142179571Y-95860235D01*
X142155773Y-95866196D01*
X142131504Y-95869796D01*
X142107000Y-95871000D01*
X141357000Y-95871000D01*
X141332496Y-95869796D01*
X141308227Y-95866196D01*
X141284429Y-95860235D01*
X141261329Y-95851970D01*
X141239151Y-95841480D01*
X141218107Y-95828867D01*
X141198402Y-95814253D01*
X141180223Y-95797777D01*
X141163747Y-95779598D01*
X141149133Y-95759893D01*
X141136520Y-95738849D01*
X141126030Y-95716671D01*
X141117765Y-95693571D01*
X141111804Y-95669773D01*
X141108204Y-95645504D01*
X141107000Y-95621000D01*
X141107000Y-94371000D01*
X141108204Y-94346496D01*
X141111804Y-94322227D01*
X141117765Y-94298429D01*
X141126030Y-94275329D01*
X141136520Y-94253151D01*
X141149133Y-94232107D01*
X141163747Y-94212402D01*
X141180223Y-94194223D01*
X141198402Y-94177747D01*
X141218107Y-94163133D01*
X141239151Y-94150520D01*
X141261329Y-94140030D01*
X141284429Y-94131765D01*
X141308227Y-94125804D01*
X141332496Y-94122204D01*
X141357000Y-94121000D01*
X142107000Y-94121000D01*
X142131504Y-94122204D01*
X142131504Y-94122204D01*
G37*
D20*
G04 #@! TD*
G04 #@! TO.P,R4,1*
G04 #@! TO.N,Net-(R4-Pad1)*
X141732000Y-94996000D03*
D15*
G04 #@! TO.N,Net-(R6-Pad1)*
G04 #@! TO.C,R6*
G36*
X142379504Y-71770204D02*
X142403773Y-71773804D01*
X142427571Y-71779765D01*
X142450671Y-71788030D01*
X142472849Y-71798520D01*
X142493893Y-71811133D01*
X142513598Y-71825747D01*
X142531777Y-71842223D01*
X142548253Y-71860402D01*
X142562867Y-71880107D01*
X142575480Y-71901151D01*
X142585970Y-71923329D01*
X142594235Y-71946429D01*
X142600196Y-71970227D01*
X142603796Y-71994496D01*
X142605000Y-72019000D01*
X142605000Y-73269000D01*
X142603796Y-73293504D01*
X142600196Y-73317773D01*
X142594235Y-73341571D01*
X142585970Y-73364671D01*
X142575480Y-73386849D01*
X142562867Y-73407893D01*
X142548253Y-73427598D01*
X142531777Y-73445777D01*
X142513598Y-73462253D01*
X142493893Y-73476867D01*
X142472849Y-73489480D01*
X142450671Y-73499970D01*
X142427571Y-73508235D01*
X142403773Y-73514196D01*
X142379504Y-73517796D01*
X142355000Y-73519000D01*
X141605000Y-73519000D01*
X141580496Y-73517796D01*
X141556227Y-73514196D01*
X141532429Y-73508235D01*
X141509329Y-73499970D01*
X141487151Y-73489480D01*
X141466107Y-73476867D01*
X141446402Y-73462253D01*
X141428223Y-73445777D01*
X141411747Y-73427598D01*
X141397133Y-73407893D01*
X141384520Y-73386849D01*
X141374030Y-73364671D01*
X141365765Y-73341571D01*
X141359804Y-73317773D01*
X141356204Y-73293504D01*
X141355000Y-73269000D01*
X141355000Y-72019000D01*
X141356204Y-71994496D01*
X141359804Y-71970227D01*
X141365765Y-71946429D01*
X141374030Y-71923329D01*
X141384520Y-71901151D01*
X141397133Y-71880107D01*
X141411747Y-71860402D01*
X141428223Y-71842223D01*
X141446402Y-71825747D01*
X141466107Y-71811133D01*
X141487151Y-71798520D01*
X141509329Y-71788030D01*
X141532429Y-71779765D01*
X141556227Y-71773804D01*
X141580496Y-71770204D01*
X141605000Y-71769000D01*
X142355000Y-71769000D01*
X142379504Y-71770204D01*
X142379504Y-71770204D01*
G37*
D20*
G04 #@! TD*
G04 #@! TO.P,R6,1*
G04 #@! TO.N,Net-(R6-Pad1)*
X141980000Y-72644000D03*
D15*
G04 #@! TO.N,Net-(Q3-Pad4)*
G04 #@! TO.C,R6*
G36*
X145179504Y-71770204D02*
X145203773Y-71773804D01*
X145227571Y-71779765D01*
X145250671Y-71788030D01*
X145272849Y-71798520D01*
X145293893Y-71811133D01*
X145313598Y-71825747D01*
X145331777Y-71842223D01*
X145348253Y-71860402D01*
X145362867Y-71880107D01*
X145375480Y-71901151D01*
X145385970Y-71923329D01*
X145394235Y-71946429D01*
X145400196Y-71970227D01*
X145403796Y-71994496D01*
X145405000Y-72019000D01*
X145405000Y-73269000D01*
X145403796Y-73293504D01*
X145400196Y-73317773D01*
X145394235Y-73341571D01*
X145385970Y-73364671D01*
X145375480Y-73386849D01*
X145362867Y-73407893D01*
X145348253Y-73427598D01*
X145331777Y-73445777D01*
X145313598Y-73462253D01*
X145293893Y-73476867D01*
X145272849Y-73489480D01*
X145250671Y-73499970D01*
X145227571Y-73508235D01*
X145203773Y-73514196D01*
X145179504Y-73517796D01*
X145155000Y-73519000D01*
X144405000Y-73519000D01*
X144380496Y-73517796D01*
X144356227Y-73514196D01*
X144332429Y-73508235D01*
X144309329Y-73499970D01*
X144287151Y-73489480D01*
X144266107Y-73476867D01*
X144246402Y-73462253D01*
X144228223Y-73445777D01*
X144211747Y-73427598D01*
X144197133Y-73407893D01*
X144184520Y-73386849D01*
X144174030Y-73364671D01*
X144165765Y-73341571D01*
X144159804Y-73317773D01*
X144156204Y-73293504D01*
X144155000Y-73269000D01*
X144155000Y-72019000D01*
X144156204Y-71994496D01*
X144159804Y-71970227D01*
X144165765Y-71946429D01*
X144174030Y-71923329D01*
X144184520Y-71901151D01*
X144197133Y-71880107D01*
X144211747Y-71860402D01*
X144228223Y-71842223D01*
X144246402Y-71825747D01*
X144266107Y-71811133D01*
X144287151Y-71798520D01*
X144309329Y-71788030D01*
X144332429Y-71779765D01*
X144356227Y-71773804D01*
X144380496Y-71770204D01*
X144405000Y-71769000D01*
X145155000Y-71769000D01*
X145179504Y-71770204D01*
X145179504Y-71770204D01*
G37*
D20*
G04 #@! TD*
G04 #@! TO.P,R6,2*
G04 #@! TO.N,Net-(Q3-Pad4)*
X144780000Y-72644000D03*
D15*
G04 #@! TO.N,Net-(R5-Pad1)*
G04 #@! TO.C,R9*
G36*
X140093504Y-118760204D02*
X140117773Y-118763804D01*
X140141571Y-118769765D01*
X140164671Y-118778030D01*
X140186849Y-118788520D01*
X140207893Y-118801133D01*
X140227598Y-118815747D01*
X140245777Y-118832223D01*
X140262253Y-118850402D01*
X140276867Y-118870107D01*
X140289480Y-118891151D01*
X140299970Y-118913329D01*
X140308235Y-118936429D01*
X140314196Y-118960227D01*
X140317796Y-118984496D01*
X140319000Y-119009000D01*
X140319000Y-120259000D01*
X140317796Y-120283504D01*
X140314196Y-120307773D01*
X140308235Y-120331571D01*
X140299970Y-120354671D01*
X140289480Y-120376849D01*
X140276867Y-120397893D01*
X140262253Y-120417598D01*
X140245777Y-120435777D01*
X140227598Y-120452253D01*
X140207893Y-120466867D01*
X140186849Y-120479480D01*
X140164671Y-120489970D01*
X140141571Y-120498235D01*
X140117773Y-120504196D01*
X140093504Y-120507796D01*
X140069000Y-120509000D01*
X139319000Y-120509000D01*
X139294496Y-120507796D01*
X139270227Y-120504196D01*
X139246429Y-120498235D01*
X139223329Y-120489970D01*
X139201151Y-120479480D01*
X139180107Y-120466867D01*
X139160402Y-120452253D01*
X139142223Y-120435777D01*
X139125747Y-120417598D01*
X139111133Y-120397893D01*
X139098520Y-120376849D01*
X139088030Y-120354671D01*
X139079765Y-120331571D01*
X139073804Y-120307773D01*
X139070204Y-120283504D01*
X139069000Y-120259000D01*
X139069000Y-119009000D01*
X139070204Y-118984496D01*
X139073804Y-118960227D01*
X139079765Y-118936429D01*
X139088030Y-118913329D01*
X139098520Y-118891151D01*
X139111133Y-118870107D01*
X139125747Y-118850402D01*
X139142223Y-118832223D01*
X139160402Y-118815747D01*
X139180107Y-118801133D01*
X139201151Y-118788520D01*
X139223329Y-118778030D01*
X139246429Y-118769765D01*
X139270227Y-118763804D01*
X139294496Y-118760204D01*
X139319000Y-118759000D01*
X140069000Y-118759000D01*
X140093504Y-118760204D01*
X140093504Y-118760204D01*
G37*
D20*
G04 #@! TD*
G04 #@! TO.P,R9,2*
G04 #@! TO.N,Net-(R5-Pad1)*
X139694000Y-119634000D03*
D15*
G04 #@! TO.N,Earth*
G04 #@! TO.C,R9*
G36*
X142893504Y-118760204D02*
X142917773Y-118763804D01*
X142941571Y-118769765D01*
X142964671Y-118778030D01*
X142986849Y-118788520D01*
X143007893Y-118801133D01*
X143027598Y-118815747D01*
X143045777Y-118832223D01*
X143062253Y-118850402D01*
X143076867Y-118870107D01*
X143089480Y-118891151D01*
X143099970Y-118913329D01*
X143108235Y-118936429D01*
X143114196Y-118960227D01*
X143117796Y-118984496D01*
X143119000Y-119009000D01*
X143119000Y-120259000D01*
X143117796Y-120283504D01*
X143114196Y-120307773D01*
X143108235Y-120331571D01*
X143099970Y-120354671D01*
X143089480Y-120376849D01*
X143076867Y-120397893D01*
X143062253Y-120417598D01*
X143045777Y-120435777D01*
X143027598Y-120452253D01*
X143007893Y-120466867D01*
X142986849Y-120479480D01*
X142964671Y-120489970D01*
X142941571Y-120498235D01*
X142917773Y-120504196D01*
X142893504Y-120507796D01*
X142869000Y-120509000D01*
X142119000Y-120509000D01*
X142094496Y-120507796D01*
X142070227Y-120504196D01*
X142046429Y-120498235D01*
X142023329Y-120489970D01*
X142001151Y-120479480D01*
X141980107Y-120466867D01*
X141960402Y-120452253D01*
X141942223Y-120435777D01*
X141925747Y-120417598D01*
X141911133Y-120397893D01*
X141898520Y-120376849D01*
X141888030Y-120354671D01*
X141879765Y-120331571D01*
X141873804Y-120307773D01*
X141870204Y-120283504D01*
X141869000Y-120259000D01*
X141869000Y-119009000D01*
X141870204Y-118984496D01*
X141873804Y-118960227D01*
X141879765Y-118936429D01*
X141888030Y-118913329D01*
X141898520Y-118891151D01*
X141911133Y-118870107D01*
X141925747Y-118850402D01*
X141942223Y-118832223D01*
X141960402Y-118815747D01*
X141980107Y-118801133D01*
X142001151Y-118788520D01*
X142023329Y-118778030D01*
X142046429Y-118769765D01*
X142070227Y-118763804D01*
X142094496Y-118760204D01*
X142119000Y-118759000D01*
X142869000Y-118759000D01*
X142893504Y-118760204D01*
X142893504Y-118760204D01*
G37*
D20*
G04 #@! TD*
G04 #@! TO.P,R9,1*
G04 #@! TO.N,Earth*
X142494000Y-119634000D03*
D15*
G04 #@! TO.N,Net-(Cc6-Pad1)*
G04 #@! TO.C,R11*
G36*
X135375104Y-103672604D02*
X135399373Y-103676204D01*
X135423171Y-103682165D01*
X135446271Y-103690430D01*
X135468449Y-103700920D01*
X135489493Y-103713533D01*
X135509198Y-103728147D01*
X135527377Y-103744623D01*
X135543853Y-103762802D01*
X135558467Y-103782507D01*
X135571080Y-103803551D01*
X135581570Y-103825729D01*
X135589835Y-103848829D01*
X135595796Y-103872627D01*
X135599396Y-103896896D01*
X135600600Y-103921400D01*
X135600600Y-105171400D01*
X135599396Y-105195904D01*
X135595796Y-105220173D01*
X135589835Y-105243971D01*
X135581570Y-105267071D01*
X135571080Y-105289249D01*
X135558467Y-105310293D01*
X135543853Y-105329998D01*
X135527377Y-105348177D01*
X135509198Y-105364653D01*
X135489493Y-105379267D01*
X135468449Y-105391880D01*
X135446271Y-105402370D01*
X135423171Y-105410635D01*
X135399373Y-105416596D01*
X135375104Y-105420196D01*
X135350600Y-105421400D01*
X134600600Y-105421400D01*
X134576096Y-105420196D01*
X134551827Y-105416596D01*
X134528029Y-105410635D01*
X134504929Y-105402370D01*
X134482751Y-105391880D01*
X134461707Y-105379267D01*
X134442002Y-105364653D01*
X134423823Y-105348177D01*
X134407347Y-105329998D01*
X134392733Y-105310293D01*
X134380120Y-105289249D01*
X134369630Y-105267071D01*
X134361365Y-105243971D01*
X134355404Y-105220173D01*
X134351804Y-105195904D01*
X134350600Y-105171400D01*
X134350600Y-103921400D01*
X134351804Y-103896896D01*
X134355404Y-103872627D01*
X134361365Y-103848829D01*
X134369630Y-103825729D01*
X134380120Y-103803551D01*
X134392733Y-103782507D01*
X134407347Y-103762802D01*
X134423823Y-103744623D01*
X134442002Y-103728147D01*
X134461707Y-103713533D01*
X134482751Y-103700920D01*
X134504929Y-103690430D01*
X134528029Y-103682165D01*
X134551827Y-103676204D01*
X134576096Y-103672604D01*
X134600600Y-103671400D01*
X135350600Y-103671400D01*
X135375104Y-103672604D01*
X135375104Y-103672604D01*
G37*
D20*
G04 #@! TD*
G04 #@! TO.P,R11,2*
G04 #@! TO.N,Net-(Cc6-Pad1)*
X134975600Y-104546400D03*
D15*
G04 #@! TO.N,Net-(J1-Pad3)*
G04 #@! TO.C,R11*
G36*
X132575104Y-103672604D02*
X132599373Y-103676204D01*
X132623171Y-103682165D01*
X132646271Y-103690430D01*
X132668449Y-103700920D01*
X132689493Y-103713533D01*
X132709198Y-103728147D01*
X132727377Y-103744623D01*
X132743853Y-103762802D01*
X132758467Y-103782507D01*
X132771080Y-103803551D01*
X132781570Y-103825729D01*
X132789835Y-103848829D01*
X132795796Y-103872627D01*
X132799396Y-103896896D01*
X132800600Y-103921400D01*
X132800600Y-105171400D01*
X132799396Y-105195904D01*
X132795796Y-105220173D01*
X132789835Y-105243971D01*
X132781570Y-105267071D01*
X132771080Y-105289249D01*
X132758467Y-105310293D01*
X132743853Y-105329998D01*
X132727377Y-105348177D01*
X132709198Y-105364653D01*
X132689493Y-105379267D01*
X132668449Y-105391880D01*
X132646271Y-105402370D01*
X132623171Y-105410635D01*
X132599373Y-105416596D01*
X132575104Y-105420196D01*
X132550600Y-105421400D01*
X131800600Y-105421400D01*
X131776096Y-105420196D01*
X131751827Y-105416596D01*
X131728029Y-105410635D01*
X131704929Y-105402370D01*
X131682751Y-105391880D01*
X131661707Y-105379267D01*
X131642002Y-105364653D01*
X131623823Y-105348177D01*
X131607347Y-105329998D01*
X131592733Y-105310293D01*
X131580120Y-105289249D01*
X131569630Y-105267071D01*
X131561365Y-105243971D01*
X131555404Y-105220173D01*
X131551804Y-105195904D01*
X131550600Y-105171400D01*
X131550600Y-103921400D01*
X131551804Y-103896896D01*
X131555404Y-103872627D01*
X131561365Y-103848829D01*
X131569630Y-103825729D01*
X131580120Y-103803551D01*
X131592733Y-103782507D01*
X131607347Y-103762802D01*
X131623823Y-103744623D01*
X131642002Y-103728147D01*
X131661707Y-103713533D01*
X131682751Y-103700920D01*
X131704929Y-103690430D01*
X131728029Y-103682165D01*
X131751827Y-103676204D01*
X131776096Y-103672604D01*
X131800600Y-103671400D01*
X132550600Y-103671400D01*
X132575104Y-103672604D01*
X132575104Y-103672604D01*
G37*
D20*
G04 #@! TD*
G04 #@! TO.P,R11,1*
G04 #@! TO.N,Net-(J1-Pad3)*
X132175600Y-104546400D03*
D13*
G04 #@! TO.P,RV1,1*
G04 #@! TO.N,Net-(Cc6-Pad1)*
X113897020Y-80822800D03*
D14*
G04 #@! TO.P,RV1,2*
G04 #@! TO.N,Net-(J2-Pad3)*
X113897020Y-78282800D03*
G04 #@! TO.P,RV1,3*
G04 #@! TO.N,Earth*
X113897020Y-75742800D03*
G04 #@! TD*
D15*
G04 #@! TO.N,Earth*
G04 #@! TO.C,Cc1*
G36*
X127226142Y-66412674D02*
X127249803Y-66416184D01*
X127273007Y-66421996D01*
X127295529Y-66430054D01*
X127317153Y-66440282D01*
X127337670Y-66452579D01*
X127356883Y-66466829D01*
X127374607Y-66482893D01*
X127390671Y-66500617D01*
X127404921Y-66519830D01*
X127417218Y-66540347D01*
X127427446Y-66561971D01*
X127435504Y-66584493D01*
X127441316Y-66607697D01*
X127444826Y-66631358D01*
X127446000Y-66655250D01*
X127446000Y-67142750D01*
X127444826Y-67166642D01*
X127441316Y-67190303D01*
X127435504Y-67213507D01*
X127427446Y-67236029D01*
X127417218Y-67257653D01*
X127404921Y-67278170D01*
X127390671Y-67297383D01*
X127374607Y-67315107D01*
X127356883Y-67331171D01*
X127337670Y-67345421D01*
X127317153Y-67357718D01*
X127295529Y-67367946D01*
X127273007Y-67376004D01*
X127249803Y-67381816D01*
X127226142Y-67385326D01*
X127202250Y-67386500D01*
X126289750Y-67386500D01*
X126265858Y-67385326D01*
X126242197Y-67381816D01*
X126218993Y-67376004D01*
X126196471Y-67367946D01*
X126174847Y-67357718D01*
X126154330Y-67345421D01*
X126135117Y-67331171D01*
X126117393Y-67315107D01*
X126101329Y-67297383D01*
X126087079Y-67278170D01*
X126074782Y-67257653D01*
X126064554Y-67236029D01*
X126056496Y-67213507D01*
X126050684Y-67190303D01*
X126047174Y-67166642D01*
X126046000Y-67142750D01*
X126046000Y-66655250D01*
X126047174Y-66631358D01*
X126050684Y-66607697D01*
X126056496Y-66584493D01*
X126064554Y-66561971D01*
X126074782Y-66540347D01*
X126087079Y-66519830D01*
X126101329Y-66500617D01*
X126117393Y-66482893D01*
X126135117Y-66466829D01*
X126154330Y-66452579D01*
X126174847Y-66440282D01*
X126196471Y-66430054D01*
X126218993Y-66421996D01*
X126242197Y-66416184D01*
X126265858Y-66412674D01*
X126289750Y-66411500D01*
X127202250Y-66411500D01*
X127226142Y-66412674D01*
X127226142Y-66412674D01*
G37*
D16*
G04 #@! TD*
G04 #@! TO.P,Cc1,2*
G04 #@! TO.N,Earth*
X126746000Y-66899000D03*
D15*
G04 #@! TO.N,Net-(Cc1-Pad1)*
G04 #@! TO.C,Cc1*
G36*
X127226142Y-64537674D02*
X127249803Y-64541184D01*
X127273007Y-64546996D01*
X127295529Y-64555054D01*
X127317153Y-64565282D01*
X127337670Y-64577579D01*
X127356883Y-64591829D01*
X127374607Y-64607893D01*
X127390671Y-64625617D01*
X127404921Y-64644830D01*
X127417218Y-64665347D01*
X127427446Y-64686971D01*
X127435504Y-64709493D01*
X127441316Y-64732697D01*
X127444826Y-64756358D01*
X127446000Y-64780250D01*
X127446000Y-65267750D01*
X127444826Y-65291642D01*
X127441316Y-65315303D01*
X127435504Y-65338507D01*
X127427446Y-65361029D01*
X127417218Y-65382653D01*
X127404921Y-65403170D01*
X127390671Y-65422383D01*
X127374607Y-65440107D01*
X127356883Y-65456171D01*
X127337670Y-65470421D01*
X127317153Y-65482718D01*
X127295529Y-65492946D01*
X127273007Y-65501004D01*
X127249803Y-65506816D01*
X127226142Y-65510326D01*
X127202250Y-65511500D01*
X126289750Y-65511500D01*
X126265858Y-65510326D01*
X126242197Y-65506816D01*
X126218993Y-65501004D01*
X126196471Y-65492946D01*
X126174847Y-65482718D01*
X126154330Y-65470421D01*
X126135117Y-65456171D01*
X126117393Y-65440107D01*
X126101329Y-65422383D01*
X126087079Y-65403170D01*
X126074782Y-65382653D01*
X126064554Y-65361029D01*
X126056496Y-65338507D01*
X126050684Y-65315303D01*
X126047174Y-65291642D01*
X126046000Y-65267750D01*
X126046000Y-64780250D01*
X126047174Y-64756358D01*
X126050684Y-64732697D01*
X126056496Y-64709493D01*
X126064554Y-64686971D01*
X126074782Y-64665347D01*
X126087079Y-64644830D01*
X126101329Y-64625617D01*
X126117393Y-64607893D01*
X126135117Y-64591829D01*
X126154330Y-64577579D01*
X126174847Y-64565282D01*
X126196471Y-64555054D01*
X126218993Y-64546996D01*
X126242197Y-64541184D01*
X126265858Y-64537674D01*
X126289750Y-64536500D01*
X127202250Y-64536500D01*
X127226142Y-64537674D01*
X127226142Y-64537674D01*
G37*
D16*
G04 #@! TD*
G04 #@! TO.P,Cc1,1*
G04 #@! TO.N,Net-(Cc1-Pad1)*
X126746000Y-65024000D03*
D15*
G04 #@! TO.N,Net-(Cc2-Pad1)*
G04 #@! TO.C,Cc2*
G36*
X128655142Y-85153174D02*
X128678803Y-85156684D01*
X128702007Y-85162496D01*
X128724529Y-85170554D01*
X128746153Y-85180782D01*
X128766670Y-85193079D01*
X128785883Y-85207329D01*
X128803607Y-85223393D01*
X128819671Y-85241117D01*
X128833921Y-85260330D01*
X128846218Y-85280847D01*
X128856446Y-85302471D01*
X128864504Y-85324993D01*
X128870316Y-85348197D01*
X128873826Y-85371858D01*
X128875000Y-85395750D01*
X128875000Y-86308250D01*
X128873826Y-86332142D01*
X128870316Y-86355803D01*
X128864504Y-86379007D01*
X128856446Y-86401529D01*
X128846218Y-86423153D01*
X128833921Y-86443670D01*
X128819671Y-86462883D01*
X128803607Y-86480607D01*
X128785883Y-86496671D01*
X128766670Y-86510921D01*
X128746153Y-86523218D01*
X128724529Y-86533446D01*
X128702007Y-86541504D01*
X128678803Y-86547316D01*
X128655142Y-86550826D01*
X128631250Y-86552000D01*
X128143750Y-86552000D01*
X128119858Y-86550826D01*
X128096197Y-86547316D01*
X128072993Y-86541504D01*
X128050471Y-86533446D01*
X128028847Y-86523218D01*
X128008330Y-86510921D01*
X127989117Y-86496671D01*
X127971393Y-86480607D01*
X127955329Y-86462883D01*
X127941079Y-86443670D01*
X127928782Y-86423153D01*
X127918554Y-86401529D01*
X127910496Y-86379007D01*
X127904684Y-86355803D01*
X127901174Y-86332142D01*
X127900000Y-86308250D01*
X127900000Y-85395750D01*
X127901174Y-85371858D01*
X127904684Y-85348197D01*
X127910496Y-85324993D01*
X127918554Y-85302471D01*
X127928782Y-85280847D01*
X127941079Y-85260330D01*
X127955329Y-85241117D01*
X127971393Y-85223393D01*
X127989117Y-85207329D01*
X128008330Y-85193079D01*
X128028847Y-85180782D01*
X128050471Y-85170554D01*
X128072993Y-85162496D01*
X128096197Y-85156684D01*
X128119858Y-85153174D01*
X128143750Y-85152000D01*
X128631250Y-85152000D01*
X128655142Y-85153174D01*
X128655142Y-85153174D01*
G37*
D16*
G04 #@! TD*
G04 #@! TO.P,Cc2,1*
G04 #@! TO.N,Net-(Cc2-Pad1)*
X128387500Y-85852000D03*
D15*
G04 #@! TO.N,Net-(Cc2-Pad2)*
G04 #@! TO.C,Cc2*
G36*
X126780142Y-85153174D02*
X126803803Y-85156684D01*
X126827007Y-85162496D01*
X126849529Y-85170554D01*
X126871153Y-85180782D01*
X126891670Y-85193079D01*
X126910883Y-85207329D01*
X126928607Y-85223393D01*
X126944671Y-85241117D01*
X126958921Y-85260330D01*
X126971218Y-85280847D01*
X126981446Y-85302471D01*
X126989504Y-85324993D01*
X126995316Y-85348197D01*
X126998826Y-85371858D01*
X127000000Y-85395750D01*
X127000000Y-86308250D01*
X126998826Y-86332142D01*
X126995316Y-86355803D01*
X126989504Y-86379007D01*
X126981446Y-86401529D01*
X126971218Y-86423153D01*
X126958921Y-86443670D01*
X126944671Y-86462883D01*
X126928607Y-86480607D01*
X126910883Y-86496671D01*
X126891670Y-86510921D01*
X126871153Y-86523218D01*
X126849529Y-86533446D01*
X126827007Y-86541504D01*
X126803803Y-86547316D01*
X126780142Y-86550826D01*
X126756250Y-86552000D01*
X126268750Y-86552000D01*
X126244858Y-86550826D01*
X126221197Y-86547316D01*
X126197993Y-86541504D01*
X126175471Y-86533446D01*
X126153847Y-86523218D01*
X126133330Y-86510921D01*
X126114117Y-86496671D01*
X126096393Y-86480607D01*
X126080329Y-86462883D01*
X126066079Y-86443670D01*
X126053782Y-86423153D01*
X126043554Y-86401529D01*
X126035496Y-86379007D01*
X126029684Y-86355803D01*
X126026174Y-86332142D01*
X126025000Y-86308250D01*
X126025000Y-85395750D01*
X126026174Y-85371858D01*
X126029684Y-85348197D01*
X126035496Y-85324993D01*
X126043554Y-85302471D01*
X126053782Y-85280847D01*
X126066079Y-85260330D01*
X126080329Y-85241117D01*
X126096393Y-85223393D01*
X126114117Y-85207329D01*
X126133330Y-85193079D01*
X126153847Y-85180782D01*
X126175471Y-85170554D01*
X126197993Y-85162496D01*
X126221197Y-85156684D01*
X126244858Y-85153174D01*
X126268750Y-85152000D01*
X126756250Y-85152000D01*
X126780142Y-85153174D01*
X126780142Y-85153174D01*
G37*
D16*
G04 #@! TD*
G04 #@! TO.P,Cc2,2*
G04 #@! TO.N,Net-(Cc2-Pad2)*
X126512500Y-85852000D03*
D15*
G04 #@! TO.N,Net-(Cc6-Pad1)*
G04 #@! TO.C,Cc6*
G36*
X136950142Y-95779674D02*
X136973803Y-95783184D01*
X136997007Y-95788996D01*
X137019529Y-95797054D01*
X137041153Y-95807282D01*
X137061670Y-95819579D01*
X137080883Y-95833829D01*
X137098607Y-95849893D01*
X137114671Y-95867617D01*
X137128921Y-95886830D01*
X137141218Y-95907347D01*
X137151446Y-95928971D01*
X137159504Y-95951493D01*
X137165316Y-95974697D01*
X137168826Y-95998358D01*
X137170000Y-96022250D01*
X137170000Y-96509750D01*
X137168826Y-96533642D01*
X137165316Y-96557303D01*
X137159504Y-96580507D01*
X137151446Y-96603029D01*
X137141218Y-96624653D01*
X137128921Y-96645170D01*
X137114671Y-96664383D01*
X137098607Y-96682107D01*
X137080883Y-96698171D01*
X137061670Y-96712421D01*
X137041153Y-96724718D01*
X137019529Y-96734946D01*
X136997007Y-96743004D01*
X136973803Y-96748816D01*
X136950142Y-96752326D01*
X136926250Y-96753500D01*
X136013750Y-96753500D01*
X135989858Y-96752326D01*
X135966197Y-96748816D01*
X135942993Y-96743004D01*
X135920471Y-96734946D01*
X135898847Y-96724718D01*
X135878330Y-96712421D01*
X135859117Y-96698171D01*
X135841393Y-96682107D01*
X135825329Y-96664383D01*
X135811079Y-96645170D01*
X135798782Y-96624653D01*
X135788554Y-96603029D01*
X135780496Y-96580507D01*
X135774684Y-96557303D01*
X135771174Y-96533642D01*
X135770000Y-96509750D01*
X135770000Y-96022250D01*
X135771174Y-95998358D01*
X135774684Y-95974697D01*
X135780496Y-95951493D01*
X135788554Y-95928971D01*
X135798782Y-95907347D01*
X135811079Y-95886830D01*
X135825329Y-95867617D01*
X135841393Y-95849893D01*
X135859117Y-95833829D01*
X135878330Y-95819579D01*
X135898847Y-95807282D01*
X135920471Y-95797054D01*
X135942993Y-95788996D01*
X135966197Y-95783184D01*
X135989858Y-95779674D01*
X136013750Y-95778500D01*
X136926250Y-95778500D01*
X136950142Y-95779674D01*
X136950142Y-95779674D01*
G37*
D16*
G04 #@! TD*
G04 #@! TO.P,Cc6,1*
G04 #@! TO.N,Net-(Cc6-Pad1)*
X136470000Y-96266000D03*
D15*
G04 #@! TO.N,Earth*
G04 #@! TO.C,Cc6*
G36*
X136950142Y-93904674D02*
X136973803Y-93908184D01*
X136997007Y-93913996D01*
X137019529Y-93922054D01*
X137041153Y-93932282D01*
X137061670Y-93944579D01*
X137080883Y-93958829D01*
X137098607Y-93974893D01*
X137114671Y-93992617D01*
X137128921Y-94011830D01*
X137141218Y-94032347D01*
X137151446Y-94053971D01*
X137159504Y-94076493D01*
X137165316Y-94099697D01*
X137168826Y-94123358D01*
X137170000Y-94147250D01*
X137170000Y-94634750D01*
X137168826Y-94658642D01*
X137165316Y-94682303D01*
X137159504Y-94705507D01*
X137151446Y-94728029D01*
X137141218Y-94749653D01*
X137128921Y-94770170D01*
X137114671Y-94789383D01*
X137098607Y-94807107D01*
X137080883Y-94823171D01*
X137061670Y-94837421D01*
X137041153Y-94849718D01*
X137019529Y-94859946D01*
X136997007Y-94868004D01*
X136973803Y-94873816D01*
X136950142Y-94877326D01*
X136926250Y-94878500D01*
X136013750Y-94878500D01*
X135989858Y-94877326D01*
X135966197Y-94873816D01*
X135942993Y-94868004D01*
X135920471Y-94859946D01*
X135898847Y-94849718D01*
X135878330Y-94837421D01*
X135859117Y-94823171D01*
X135841393Y-94807107D01*
X135825329Y-94789383D01*
X135811079Y-94770170D01*
X135798782Y-94749653D01*
X135788554Y-94728029D01*
X135780496Y-94705507D01*
X135774684Y-94682303D01*
X135771174Y-94658642D01*
X135770000Y-94634750D01*
X135770000Y-94147250D01*
X135771174Y-94123358D01*
X135774684Y-94099697D01*
X135780496Y-94076493D01*
X135788554Y-94053971D01*
X135798782Y-94032347D01*
X135811079Y-94011830D01*
X135825329Y-93992617D01*
X135841393Y-93974893D01*
X135859117Y-93958829D01*
X135878330Y-93944579D01*
X135898847Y-93932282D01*
X135920471Y-93922054D01*
X135942993Y-93913996D01*
X135966197Y-93908184D01*
X135989858Y-93904674D01*
X136013750Y-93903500D01*
X136926250Y-93903500D01*
X136950142Y-93904674D01*
X136950142Y-93904674D01*
G37*
D16*
G04 #@! TD*
G04 #@! TO.P,Cc6,2*
G04 #@! TO.N,Earth*
X136470000Y-94391000D03*
D15*
G04 #@! TO.N,Earth*
G04 #@! TO.C,R10*
G36*
X145229505Y-117960204D02*
X145253773Y-117963804D01*
X145277572Y-117969765D01*
X145300671Y-117978030D01*
X145322850Y-117988520D01*
X145343893Y-118001132D01*
X145363599Y-118015747D01*
X145381777Y-118032223D01*
X145398253Y-118050401D01*
X145412868Y-118070107D01*
X145425480Y-118091150D01*
X145435970Y-118113329D01*
X145444235Y-118136428D01*
X145450196Y-118160227D01*
X145453796Y-118184495D01*
X145455000Y-118208999D01*
X145455000Y-121059001D01*
X145453796Y-121083505D01*
X145450196Y-121107773D01*
X145444235Y-121131572D01*
X145435970Y-121154671D01*
X145425480Y-121176850D01*
X145412868Y-121197893D01*
X145398253Y-121217599D01*
X145381777Y-121235777D01*
X145363599Y-121252253D01*
X145343893Y-121266868D01*
X145322850Y-121279480D01*
X145300671Y-121289970D01*
X145277572Y-121298235D01*
X145253773Y-121304196D01*
X145229505Y-121307796D01*
X145205001Y-121309000D01*
X144354999Y-121309000D01*
X144330495Y-121307796D01*
X144306227Y-121304196D01*
X144282428Y-121298235D01*
X144259329Y-121289970D01*
X144237150Y-121279480D01*
X144216107Y-121266868D01*
X144196401Y-121252253D01*
X144178223Y-121235777D01*
X144161747Y-121217599D01*
X144147132Y-121197893D01*
X144134520Y-121176850D01*
X144124030Y-121154671D01*
X144115765Y-121131572D01*
X144109804Y-121107773D01*
X144106204Y-121083505D01*
X144105000Y-121059001D01*
X144105000Y-118208999D01*
X144106204Y-118184495D01*
X144109804Y-118160227D01*
X144115765Y-118136428D01*
X144124030Y-118113329D01*
X144134520Y-118091150D01*
X144147132Y-118070107D01*
X144161747Y-118050401D01*
X144178223Y-118032223D01*
X144196401Y-118015747D01*
X144216107Y-118001132D01*
X144237150Y-117988520D01*
X144259329Y-117978030D01*
X144282428Y-117969765D01*
X144306227Y-117963804D01*
X144330495Y-117960204D01*
X144354999Y-117959000D01*
X145205001Y-117959000D01*
X145229505Y-117960204D01*
X145229505Y-117960204D01*
G37*
D21*
G04 #@! TD*
G04 #@! TO.P,R10,1*
G04 #@! TO.N,Earth*
X144780000Y-119634000D03*
D15*
G04 #@! TO.N,Net-(Q3-Pad1)*
G04 #@! TO.C,R10*
G36*
X151029505Y-117960204D02*
X151053773Y-117963804D01*
X151077572Y-117969765D01*
X151100671Y-117978030D01*
X151122850Y-117988520D01*
X151143893Y-118001132D01*
X151163599Y-118015747D01*
X151181777Y-118032223D01*
X151198253Y-118050401D01*
X151212868Y-118070107D01*
X151225480Y-118091150D01*
X151235970Y-118113329D01*
X151244235Y-118136428D01*
X151250196Y-118160227D01*
X151253796Y-118184495D01*
X151255000Y-118208999D01*
X151255000Y-121059001D01*
X151253796Y-121083505D01*
X151250196Y-121107773D01*
X151244235Y-121131572D01*
X151235970Y-121154671D01*
X151225480Y-121176850D01*
X151212868Y-121197893D01*
X151198253Y-121217599D01*
X151181777Y-121235777D01*
X151163599Y-121252253D01*
X151143893Y-121266868D01*
X151122850Y-121279480D01*
X151100671Y-121289970D01*
X151077572Y-121298235D01*
X151053773Y-121304196D01*
X151029505Y-121307796D01*
X151005001Y-121309000D01*
X150154999Y-121309000D01*
X150130495Y-121307796D01*
X150106227Y-121304196D01*
X150082428Y-121298235D01*
X150059329Y-121289970D01*
X150037150Y-121279480D01*
X150016107Y-121266868D01*
X149996401Y-121252253D01*
X149978223Y-121235777D01*
X149961747Y-121217599D01*
X149947132Y-121197893D01*
X149934520Y-121176850D01*
X149924030Y-121154671D01*
X149915765Y-121131572D01*
X149909804Y-121107773D01*
X149906204Y-121083505D01*
X149905000Y-121059001D01*
X149905000Y-118208999D01*
X149906204Y-118184495D01*
X149909804Y-118160227D01*
X149915765Y-118136428D01*
X149924030Y-118113329D01*
X149934520Y-118091150D01*
X149947132Y-118070107D01*
X149961747Y-118050401D01*
X149978223Y-118032223D01*
X149996401Y-118015747D01*
X150016107Y-118001132D01*
X150037150Y-117988520D01*
X150059329Y-117978030D01*
X150082428Y-117969765D01*
X150106227Y-117963804D01*
X150130495Y-117960204D01*
X150154999Y-117959000D01*
X151005001Y-117959000D01*
X151029505Y-117960204D01*
X151029505Y-117960204D01*
G37*
D21*
G04 #@! TD*
G04 #@! TO.P,R10,2*
G04 #@! TO.N,Net-(Q3-Pad1)*
X150580000Y-119634000D03*
D15*
G04 #@! TO.N,Net-(Q3-Pad1)*
G04 #@! TO.C,R12*
G36*
X146703504Y-113934204D02*
X146727773Y-113937804D01*
X146751571Y-113943765D01*
X146774671Y-113952030D01*
X146796849Y-113962520D01*
X146817893Y-113975133D01*
X146837598Y-113989747D01*
X146855777Y-114006223D01*
X146872253Y-114024402D01*
X146886867Y-114044107D01*
X146899480Y-114065151D01*
X146909970Y-114087329D01*
X146918235Y-114110429D01*
X146924196Y-114134227D01*
X146927796Y-114158496D01*
X146929000Y-114183000D01*
X146929000Y-115433000D01*
X146927796Y-115457504D01*
X146924196Y-115481773D01*
X146918235Y-115505571D01*
X146909970Y-115528671D01*
X146899480Y-115550849D01*
X146886867Y-115571893D01*
X146872253Y-115591598D01*
X146855777Y-115609777D01*
X146837598Y-115626253D01*
X146817893Y-115640867D01*
X146796849Y-115653480D01*
X146774671Y-115663970D01*
X146751571Y-115672235D01*
X146727773Y-115678196D01*
X146703504Y-115681796D01*
X146679000Y-115683000D01*
X145929000Y-115683000D01*
X145904496Y-115681796D01*
X145880227Y-115678196D01*
X145856429Y-115672235D01*
X145833329Y-115663970D01*
X145811151Y-115653480D01*
X145790107Y-115640867D01*
X145770402Y-115626253D01*
X145752223Y-115609777D01*
X145735747Y-115591598D01*
X145721133Y-115571893D01*
X145708520Y-115550849D01*
X145698030Y-115528671D01*
X145689765Y-115505571D01*
X145683804Y-115481773D01*
X145680204Y-115457504D01*
X145679000Y-115433000D01*
X145679000Y-114183000D01*
X145680204Y-114158496D01*
X145683804Y-114134227D01*
X145689765Y-114110429D01*
X145698030Y-114087329D01*
X145708520Y-114065151D01*
X145721133Y-114044107D01*
X145735747Y-114024402D01*
X145752223Y-114006223D01*
X145770402Y-113989747D01*
X145790107Y-113975133D01*
X145811151Y-113962520D01*
X145833329Y-113952030D01*
X145856429Y-113943765D01*
X145880227Y-113937804D01*
X145904496Y-113934204D01*
X145929000Y-113933000D01*
X146679000Y-113933000D01*
X146703504Y-113934204D01*
X146703504Y-113934204D01*
G37*
D20*
G04 #@! TD*
G04 #@! TO.P,R12,1*
G04 #@! TO.N,Net-(Q3-Pad1)*
X146304000Y-114808000D03*
D15*
G04 #@! TO.N,Net-(R12-Pad2)*
G04 #@! TO.C,R12*
G36*
X143903504Y-113934204D02*
X143927773Y-113937804D01*
X143951571Y-113943765D01*
X143974671Y-113952030D01*
X143996849Y-113962520D01*
X144017893Y-113975133D01*
X144037598Y-113989747D01*
X144055777Y-114006223D01*
X144072253Y-114024402D01*
X144086867Y-114044107D01*
X144099480Y-114065151D01*
X144109970Y-114087329D01*
X144118235Y-114110429D01*
X144124196Y-114134227D01*
X144127796Y-114158496D01*
X144129000Y-114183000D01*
X144129000Y-115433000D01*
X144127796Y-115457504D01*
X144124196Y-115481773D01*
X144118235Y-115505571D01*
X144109970Y-115528671D01*
X144099480Y-115550849D01*
X144086867Y-115571893D01*
X144072253Y-115591598D01*
X144055777Y-115609777D01*
X144037598Y-115626253D01*
X144017893Y-115640867D01*
X143996849Y-115653480D01*
X143974671Y-115663970D01*
X143951571Y-115672235D01*
X143927773Y-115678196D01*
X143903504Y-115681796D01*
X143879000Y-115683000D01*
X143129000Y-115683000D01*
X143104496Y-115681796D01*
X143080227Y-115678196D01*
X143056429Y-115672235D01*
X143033329Y-115663970D01*
X143011151Y-115653480D01*
X142990107Y-115640867D01*
X142970402Y-115626253D01*
X142952223Y-115609777D01*
X142935747Y-115591598D01*
X142921133Y-115571893D01*
X142908520Y-115550849D01*
X142898030Y-115528671D01*
X142889765Y-115505571D01*
X142883804Y-115481773D01*
X142880204Y-115457504D01*
X142879000Y-115433000D01*
X142879000Y-114183000D01*
X142880204Y-114158496D01*
X142883804Y-114134227D01*
X142889765Y-114110429D01*
X142898030Y-114087329D01*
X142908520Y-114065151D01*
X142921133Y-114044107D01*
X142935747Y-114024402D01*
X142952223Y-114006223D01*
X142970402Y-113989747D01*
X142990107Y-113975133D01*
X143011151Y-113962520D01*
X143033329Y-113952030D01*
X143056429Y-113943765D01*
X143080227Y-113937804D01*
X143104496Y-113934204D01*
X143129000Y-113933000D01*
X143879000Y-113933000D01*
X143903504Y-113934204D01*
X143903504Y-113934204D01*
G37*
D20*
G04 #@! TD*
G04 #@! TO.P,R12,2*
G04 #@! TO.N,Net-(R12-Pad2)*
X143504000Y-114808000D03*
D13*
G04 #@! TO.P,RV2,1*
G04 #@! TO.N,Net-(Cc6-Pad1)*
X117572400Y-80822800D03*
D14*
G04 #@! TO.P,RV2,2*
G04 #@! TO.N,Net-(J2-Pad2)*
X117572400Y-78282800D03*
G04 #@! TO.P,RV2,3*
G04 #@! TO.N,Earth*
X117572400Y-75742800D03*
G04 #@! TD*
D22*
G04 #@! TO.P,U2,8*
G04 #@! TO.N,N/C*
X118541800Y-114935000D03*
G04 #@! TO.P,U2,7*
G04 #@! TO.N,Net-(Cc6-Pad1)*
X118541800Y-113665000D03*
G04 #@! TO.P,U2,6*
G04 #@! TO.N,Net-(J2-Pad1)*
X118541800Y-112395000D03*
G04 #@! TO.P,U2,5*
G04 #@! TO.N,N/C*
X118541800Y-111125000D03*
G04 #@! TO.P,U2,4*
G04 #@! TO.N,Earth*
X123266200Y-111125000D03*
G04 #@! TO.P,U2,3*
G04 #@! TO.N,Net-(R12-Pad2)*
X123266200Y-112395000D03*
G04 #@! TO.P,U2,2*
G04 #@! TO.N,Net-(R5-Pad1)*
X123266200Y-113665000D03*
G04 #@! TO.P,U2,1*
G04 #@! TO.N,N/C*
X123266200Y-114935000D03*
G04 #@! TD*
D23*
G04 #@! TO.P,F1,1*
G04 #@! TO.N,Net-(F1-Pad1)*
X191262000Y-96393000D03*
D24*
G04 #@! TO.P,F1,2*
G04 #@! TO.N,Net-(Cc1-Pad1)*
X180340000Y-96393000D03*
G04 #@! TD*
D13*
G04 #@! TO.P,J1,1*
G04 #@! TO.N,Net-(J1-Pad1)*
X114118000Y-102108000D03*
D14*
G04 #@! TO.P,J1,2*
X114118000Y-99568000D03*
G04 #@! TO.P,J1,3*
G04 #@! TO.N,Net-(J1-Pad3)*
X114118000Y-97028000D03*
G04 #@! TD*
D25*
G04 #@! TO.P,J3,1*
G04 #@! TO.N,Net-(Cc5-Pad1)*
X201955400Y-101066600D03*
D26*
G04 #@! TO.P,J3,2*
G04 #@! TO.N,Net-(F1-Pad1)*
X201955400Y-96066600D03*
G04 #@! TO.P,J3,3*
G04 #@! TO.N,Earth*
X201955400Y-91066600D03*
G04 #@! TO.P,J3,4*
G04 #@! TO.N,Net-(Cc3-Pad1)*
X201955400Y-86066600D03*
G04 #@! TD*
D15*
G04 #@! TO.N,Net-(R7-Pad1)*
G04 #@! TO.C,R7*
G36*
X128131242Y-103999974D02*
X128154903Y-104003484D01*
X128178107Y-104009296D01*
X128200629Y-104017354D01*
X128222253Y-104027582D01*
X128242770Y-104039879D01*
X128261983Y-104054129D01*
X128279707Y-104070193D01*
X128295771Y-104087917D01*
X128310021Y-104107130D01*
X128322318Y-104127647D01*
X128332546Y-104149271D01*
X128340604Y-104171793D01*
X128346416Y-104194997D01*
X128349926Y-104218658D01*
X128351100Y-104242550D01*
X128351100Y-105155050D01*
X128349926Y-105178942D01*
X128346416Y-105202603D01*
X128340604Y-105225807D01*
X128332546Y-105248329D01*
X128322318Y-105269953D01*
X128310021Y-105290470D01*
X128295771Y-105309683D01*
X128279707Y-105327407D01*
X128261983Y-105343471D01*
X128242770Y-105357721D01*
X128222253Y-105370018D01*
X128200629Y-105380246D01*
X128178107Y-105388304D01*
X128154903Y-105394116D01*
X128131242Y-105397626D01*
X128107350Y-105398800D01*
X127619850Y-105398800D01*
X127595958Y-105397626D01*
X127572297Y-105394116D01*
X127549093Y-105388304D01*
X127526571Y-105380246D01*
X127504947Y-105370018D01*
X127484430Y-105357721D01*
X127465217Y-105343471D01*
X127447493Y-105327407D01*
X127431429Y-105309683D01*
X127417179Y-105290470D01*
X127404882Y-105269953D01*
X127394654Y-105248329D01*
X127386596Y-105225807D01*
X127380784Y-105202603D01*
X127377274Y-105178942D01*
X127376100Y-105155050D01*
X127376100Y-104242550D01*
X127377274Y-104218658D01*
X127380784Y-104194997D01*
X127386596Y-104171793D01*
X127394654Y-104149271D01*
X127404882Y-104127647D01*
X127417179Y-104107130D01*
X127431429Y-104087917D01*
X127447493Y-104070193D01*
X127465217Y-104054129D01*
X127484430Y-104039879D01*
X127504947Y-104027582D01*
X127526571Y-104017354D01*
X127549093Y-104009296D01*
X127572297Y-104003484D01*
X127595958Y-103999974D01*
X127619850Y-103998800D01*
X128107350Y-103998800D01*
X128131242Y-103999974D01*
X128131242Y-103999974D01*
G37*
D16*
G04 #@! TD*
G04 #@! TO.P,R7,1*
G04 #@! TO.N,Net-(R7-Pad1)*
X127863600Y-104698800D03*
D15*
G04 #@! TO.N,Earth*
G04 #@! TO.C,R7*
G36*
X126256242Y-103999974D02*
X126279903Y-104003484D01*
X126303107Y-104009296D01*
X126325629Y-104017354D01*
X126347253Y-104027582D01*
X126367770Y-104039879D01*
X126386983Y-104054129D01*
X126404707Y-104070193D01*
X126420771Y-104087917D01*
X126435021Y-104107130D01*
X126447318Y-104127647D01*
X126457546Y-104149271D01*
X126465604Y-104171793D01*
X126471416Y-104194997D01*
X126474926Y-104218658D01*
X126476100Y-104242550D01*
X126476100Y-105155050D01*
X126474926Y-105178942D01*
X126471416Y-105202603D01*
X126465604Y-105225807D01*
X126457546Y-105248329D01*
X126447318Y-105269953D01*
X126435021Y-105290470D01*
X126420771Y-105309683D01*
X126404707Y-105327407D01*
X126386983Y-105343471D01*
X126367770Y-105357721D01*
X126347253Y-105370018D01*
X126325629Y-105380246D01*
X126303107Y-105388304D01*
X126279903Y-105394116D01*
X126256242Y-105397626D01*
X126232350Y-105398800D01*
X125744850Y-105398800D01*
X125720958Y-105397626D01*
X125697297Y-105394116D01*
X125674093Y-105388304D01*
X125651571Y-105380246D01*
X125629947Y-105370018D01*
X125609430Y-105357721D01*
X125590217Y-105343471D01*
X125572493Y-105327407D01*
X125556429Y-105309683D01*
X125542179Y-105290470D01*
X125529882Y-105269953D01*
X125519654Y-105248329D01*
X125511596Y-105225807D01*
X125505784Y-105202603D01*
X125502274Y-105178942D01*
X125501100Y-105155050D01*
X125501100Y-104242550D01*
X125502274Y-104218658D01*
X125505784Y-104194997D01*
X125511596Y-104171793D01*
X125519654Y-104149271D01*
X125529882Y-104127647D01*
X125542179Y-104107130D01*
X125556429Y-104087917D01*
X125572493Y-104070193D01*
X125590217Y-104054129D01*
X125609430Y-104039879D01*
X125629947Y-104027582D01*
X125651571Y-104017354D01*
X125674093Y-104009296D01*
X125697297Y-104003484D01*
X125720958Y-103999974D01*
X125744850Y-103998800D01*
X126232350Y-103998800D01*
X126256242Y-103999974D01*
X126256242Y-103999974D01*
G37*
D16*
G04 #@! TD*
G04 #@! TO.P,R7,2*
G04 #@! TO.N,Earth*
X125988600Y-104698800D03*
D15*
G04 #@! TO.N,Net-(R8-Pad1)*
G04 #@! TO.C,R8*
G36*
X141109504Y-103520204D02*
X141133773Y-103523804D01*
X141157571Y-103529765D01*
X141180671Y-103538030D01*
X141202849Y-103548520D01*
X141223893Y-103561133D01*
X141243598Y-103575747D01*
X141261777Y-103592223D01*
X141278253Y-103610402D01*
X141292867Y-103630107D01*
X141305480Y-103651151D01*
X141315970Y-103673329D01*
X141324235Y-103696429D01*
X141330196Y-103720227D01*
X141333796Y-103744496D01*
X141335000Y-103769000D01*
X141335000Y-105019000D01*
X141333796Y-105043504D01*
X141330196Y-105067773D01*
X141324235Y-105091571D01*
X141315970Y-105114671D01*
X141305480Y-105136849D01*
X141292867Y-105157893D01*
X141278253Y-105177598D01*
X141261777Y-105195777D01*
X141243598Y-105212253D01*
X141223893Y-105226867D01*
X141202849Y-105239480D01*
X141180671Y-105249970D01*
X141157571Y-105258235D01*
X141133773Y-105264196D01*
X141109504Y-105267796D01*
X141085000Y-105269000D01*
X140335000Y-105269000D01*
X140310496Y-105267796D01*
X140286227Y-105264196D01*
X140262429Y-105258235D01*
X140239329Y-105249970D01*
X140217151Y-105239480D01*
X140196107Y-105226867D01*
X140176402Y-105212253D01*
X140158223Y-105195777D01*
X140141747Y-105177598D01*
X140127133Y-105157893D01*
X140114520Y-105136849D01*
X140104030Y-105114671D01*
X140095765Y-105091571D01*
X140089804Y-105067773D01*
X140086204Y-105043504D01*
X140085000Y-105019000D01*
X140085000Y-103769000D01*
X140086204Y-103744496D01*
X140089804Y-103720227D01*
X140095765Y-103696429D01*
X140104030Y-103673329D01*
X140114520Y-103651151D01*
X140127133Y-103630107D01*
X140141747Y-103610402D01*
X140158223Y-103592223D01*
X140176402Y-103575747D01*
X140196107Y-103561133D01*
X140217151Y-103548520D01*
X140239329Y-103538030D01*
X140262429Y-103529765D01*
X140286227Y-103523804D01*
X140310496Y-103520204D01*
X140335000Y-103519000D01*
X141085000Y-103519000D01*
X141109504Y-103520204D01*
X141109504Y-103520204D01*
G37*
D20*
G04 #@! TD*
G04 #@! TO.P,R8,1*
G04 #@! TO.N,Net-(R8-Pad1)*
X140710000Y-104394000D03*
D15*
G04 #@! TO.N,Net-(Q4-Pad4)*
G04 #@! TO.C,R8*
G36*
X143909504Y-103520204D02*
X143933773Y-103523804D01*
X143957571Y-103529765D01*
X143980671Y-103538030D01*
X144002849Y-103548520D01*
X144023893Y-103561133D01*
X144043598Y-103575747D01*
X144061777Y-103592223D01*
X144078253Y-103610402D01*
X144092867Y-103630107D01*
X144105480Y-103651151D01*
X144115970Y-103673329D01*
X144124235Y-103696429D01*
X144130196Y-103720227D01*
X144133796Y-103744496D01*
X144135000Y-103769000D01*
X144135000Y-105019000D01*
X144133796Y-105043504D01*
X144130196Y-105067773D01*
X144124235Y-105091571D01*
X144115970Y-105114671D01*
X144105480Y-105136849D01*
X144092867Y-105157893D01*
X144078253Y-105177598D01*
X144061777Y-105195777D01*
X144043598Y-105212253D01*
X144023893Y-105226867D01*
X144002849Y-105239480D01*
X143980671Y-105249970D01*
X143957571Y-105258235D01*
X143933773Y-105264196D01*
X143909504Y-105267796D01*
X143885000Y-105269000D01*
X143135000Y-105269000D01*
X143110496Y-105267796D01*
X143086227Y-105264196D01*
X143062429Y-105258235D01*
X143039329Y-105249970D01*
X143017151Y-105239480D01*
X142996107Y-105226867D01*
X142976402Y-105212253D01*
X142958223Y-105195777D01*
X142941747Y-105177598D01*
X142927133Y-105157893D01*
X142914520Y-105136849D01*
X142904030Y-105114671D01*
X142895765Y-105091571D01*
X142889804Y-105067773D01*
X142886204Y-105043504D01*
X142885000Y-105019000D01*
X142885000Y-103769000D01*
X142886204Y-103744496D01*
X142889804Y-103720227D01*
X142895765Y-103696429D01*
X142904030Y-103673329D01*
X142914520Y-103651151D01*
X142927133Y-103630107D01*
X142941747Y-103610402D01*
X142958223Y-103592223D01*
X142976402Y-103575747D01*
X142996107Y-103561133D01*
X143017151Y-103548520D01*
X143039329Y-103538030D01*
X143062429Y-103529765D01*
X143086227Y-103523804D01*
X143110496Y-103520204D01*
X143135000Y-103519000D01*
X143885000Y-103519000D01*
X143909504Y-103520204D01*
X143909504Y-103520204D01*
G37*
D20*
G04 #@! TD*
G04 #@! TO.P,R8,2*
G04 #@! TO.N,Net-(Q4-Pad4)*
X143510000Y-104394000D03*
D27*
G04 #@! TO.P,Q1,3*
G04 #@! TO.N,Net-(Cc3-Pad1)*
X166180000Y-83635000D03*
G04 #@! TO.P,Q1,2*
X166180000Y-82365000D03*
G04 #@! TO.P,Q1,1*
X166180000Y-81095000D03*
G04 #@! TO.P,Q1,4*
G04 #@! TO.N,Net-(Q1-Pad4)*
X166180000Y-84905000D03*
D28*
G04 #@! TO.P,Q1,9*
G04 #@! TO.N,Net-(Cc1-Pad1)*
X169540000Y-83000000D03*
D29*
G04 #@! TO.P,Q1,5*
X171645000Y-84905000D03*
G04 #@! TO.P,Q1,6*
X171645000Y-83635000D03*
G04 #@! TO.P,Q1,7*
X171645000Y-82365000D03*
G04 #@! TO.P,Q1,8*
X171645000Y-81095000D03*
G04 #@! TD*
G04 #@! TO.P,Q2,8*
G04 #@! TO.N,Net-(Cc1-Pad1)*
X171645000Y-101095000D03*
G04 #@! TO.P,Q2,7*
X171645000Y-102365000D03*
G04 #@! TO.P,Q2,6*
X171645000Y-103635000D03*
G04 #@! TO.P,Q2,5*
X171645000Y-104905000D03*
D28*
G04 #@! TO.P,Q2,9*
X169540000Y-103000000D03*
D27*
G04 #@! TO.P,Q2,4*
G04 #@! TO.N,Net-(Q2-Pad4)*
X166180000Y-104905000D03*
G04 #@! TO.P,Q2,1*
G04 #@! TO.N,Net-(Cc5-Pad1)*
X166180000Y-101095000D03*
G04 #@! TO.P,Q2,2*
X166180000Y-102365000D03*
G04 #@! TO.P,Q2,3*
X166180000Y-103635000D03*
G04 #@! TD*
G04 #@! TO.P,Q3,3*
G04 #@! TO.N,Net-(Q3-Pad1)*
X166340000Y-63635000D03*
G04 #@! TO.P,Q3,2*
X166340000Y-62365000D03*
G04 #@! TO.P,Q3,1*
X166340000Y-61095000D03*
G04 #@! TO.P,Q3,4*
G04 #@! TO.N,Net-(Q3-Pad4)*
X166340000Y-64905000D03*
D28*
G04 #@! TO.P,Q3,9*
G04 #@! TO.N,Net-(Cc3-Pad1)*
X169700000Y-63000000D03*
D29*
G04 #@! TO.P,Q3,5*
X171805000Y-64905000D03*
G04 #@! TO.P,Q3,6*
X171805000Y-63635000D03*
G04 #@! TO.P,Q3,7*
X171805000Y-62365000D03*
G04 #@! TO.P,Q3,8*
X171805000Y-61095000D03*
G04 #@! TD*
G04 #@! TO.P,Q4,8*
G04 #@! TO.N,Net-(Cc5-Pad1)*
X171645000Y-120095000D03*
G04 #@! TO.P,Q4,7*
X171645000Y-121365000D03*
G04 #@! TO.P,Q4,6*
X171645000Y-122635000D03*
G04 #@! TO.P,Q4,5*
X171645000Y-123905000D03*
D28*
G04 #@! TO.P,Q4,9*
X169540000Y-122000000D03*
D27*
G04 #@! TO.P,Q4,4*
G04 #@! TO.N,Net-(Q4-Pad4)*
X166180000Y-123905000D03*
G04 #@! TO.P,Q4,1*
G04 #@! TO.N,Net-(Q3-Pad1)*
X166180000Y-120095000D03*
G04 #@! TO.P,Q4,2*
X166180000Y-121365000D03*
G04 #@! TO.P,Q4,3*
X166180000Y-122635000D03*
G04 #@! TD*
D15*
G04 #@! TO.N,Net-(R5-Pad1)*
G04 #@! TO.C,R5*
G36*
X126887504Y-114894704D02*
X126911773Y-114898304D01*
X126935571Y-114904265D01*
X126958671Y-114912530D01*
X126980849Y-114923020D01*
X127001893Y-114935633D01*
X127021598Y-114950247D01*
X127039777Y-114966723D01*
X127056253Y-114984902D01*
X127070867Y-115004607D01*
X127083480Y-115025651D01*
X127093970Y-115047829D01*
X127102235Y-115070929D01*
X127108196Y-115094727D01*
X127111796Y-115118996D01*
X127113000Y-115143500D01*
X127113000Y-115893500D01*
X127111796Y-115918004D01*
X127108196Y-115942273D01*
X127102235Y-115966071D01*
X127093970Y-115989171D01*
X127083480Y-116011349D01*
X127070867Y-116032393D01*
X127056253Y-116052098D01*
X127039777Y-116070277D01*
X127021598Y-116086753D01*
X127001893Y-116101367D01*
X126980849Y-116113980D01*
X126958671Y-116124470D01*
X126935571Y-116132735D01*
X126911773Y-116138696D01*
X126887504Y-116142296D01*
X126863000Y-116143500D01*
X125613000Y-116143500D01*
X125588496Y-116142296D01*
X125564227Y-116138696D01*
X125540429Y-116132735D01*
X125517329Y-116124470D01*
X125495151Y-116113980D01*
X125474107Y-116101367D01*
X125454402Y-116086753D01*
X125436223Y-116070277D01*
X125419747Y-116052098D01*
X125405133Y-116032393D01*
X125392520Y-116011349D01*
X125382030Y-115989171D01*
X125373765Y-115966071D01*
X125367804Y-115942273D01*
X125364204Y-115918004D01*
X125363000Y-115893500D01*
X125363000Y-115143500D01*
X125364204Y-115118996D01*
X125367804Y-115094727D01*
X125373765Y-115070929D01*
X125382030Y-115047829D01*
X125392520Y-115025651D01*
X125405133Y-115004607D01*
X125419747Y-114984902D01*
X125436223Y-114966723D01*
X125454402Y-114950247D01*
X125474107Y-114935633D01*
X125495151Y-114923020D01*
X125517329Y-114912530D01*
X125540429Y-114904265D01*
X125564227Y-114898304D01*
X125588496Y-114894704D01*
X125613000Y-114893500D01*
X126863000Y-114893500D01*
X126887504Y-114894704D01*
X126887504Y-114894704D01*
G37*
D20*
G04 #@! TD*
G04 #@! TO.P,R5,1*
G04 #@! TO.N,Net-(R5-Pad1)*
X126238000Y-115518500D03*
D15*
G04 #@! TO.N,Net-(J2-Pad1)*
G04 #@! TO.C,R5*
G36*
X126887504Y-117694704D02*
X126911773Y-117698304D01*
X126935571Y-117704265D01*
X126958671Y-117712530D01*
X126980849Y-117723020D01*
X127001893Y-117735633D01*
X127021598Y-117750247D01*
X127039777Y-117766723D01*
X127056253Y-117784902D01*
X127070867Y-117804607D01*
X127083480Y-117825651D01*
X127093970Y-117847829D01*
X127102235Y-117870929D01*
X127108196Y-117894727D01*
X127111796Y-117918996D01*
X127113000Y-117943500D01*
X127113000Y-118693500D01*
X127111796Y-118718004D01*
X127108196Y-118742273D01*
X127102235Y-118766071D01*
X127093970Y-118789171D01*
X127083480Y-118811349D01*
X127070867Y-118832393D01*
X127056253Y-118852098D01*
X127039777Y-118870277D01*
X127021598Y-118886753D01*
X127001893Y-118901367D01*
X126980849Y-118913980D01*
X126958671Y-118924470D01*
X126935571Y-118932735D01*
X126911773Y-118938696D01*
X126887504Y-118942296D01*
X126863000Y-118943500D01*
X125613000Y-118943500D01*
X125588496Y-118942296D01*
X125564227Y-118938696D01*
X125540429Y-118932735D01*
X125517329Y-118924470D01*
X125495151Y-118913980D01*
X125474107Y-118901367D01*
X125454402Y-118886753D01*
X125436223Y-118870277D01*
X125419747Y-118852098D01*
X125405133Y-118832393D01*
X125392520Y-118811349D01*
X125382030Y-118789171D01*
X125373765Y-118766071D01*
X125367804Y-118742273D01*
X125364204Y-118718004D01*
X125363000Y-118693500D01*
X125363000Y-117943500D01*
X125364204Y-117918996D01*
X125367804Y-117894727D01*
X125373765Y-117870929D01*
X125382030Y-117847829D01*
X125392520Y-117825651D01*
X125405133Y-117804607D01*
X125419747Y-117784902D01*
X125436223Y-117766723D01*
X125454402Y-117750247D01*
X125474107Y-117735633D01*
X125495151Y-117723020D01*
X125517329Y-117712530D01*
X125540429Y-117704265D01*
X125564227Y-117698304D01*
X125588496Y-117694704D01*
X125613000Y-117693500D01*
X126863000Y-117693500D01*
X126887504Y-117694704D01*
X126887504Y-117694704D01*
G37*
D20*
G04 #@! TD*
G04 #@! TO.P,R5,2*
G04 #@! TO.N,Net-(J2-Pad1)*
X126238000Y-118318500D03*
D15*
G04 #@! TO.N,Earth*
G04 #@! TO.C,R13*
G36*
X134253504Y-112457704D02*
X134277773Y-112461304D01*
X134301571Y-112467265D01*
X134324671Y-112475530D01*
X134346849Y-112486020D01*
X134367893Y-112498633D01*
X134387598Y-112513247D01*
X134405777Y-112529723D01*
X134422253Y-112547902D01*
X134436867Y-112567607D01*
X134449480Y-112588651D01*
X134459970Y-112610829D01*
X134468235Y-112633929D01*
X134474196Y-112657727D01*
X134477796Y-112681996D01*
X134479000Y-112706500D01*
X134479000Y-113456500D01*
X134477796Y-113481004D01*
X134474196Y-113505273D01*
X134468235Y-113529071D01*
X134459970Y-113552171D01*
X134449480Y-113574349D01*
X134436867Y-113595393D01*
X134422253Y-113615098D01*
X134405777Y-113633277D01*
X134387598Y-113649753D01*
X134367893Y-113664367D01*
X134346849Y-113676980D01*
X134324671Y-113687470D01*
X134301571Y-113695735D01*
X134277773Y-113701696D01*
X134253504Y-113705296D01*
X134229000Y-113706500D01*
X132979000Y-113706500D01*
X132954496Y-113705296D01*
X132930227Y-113701696D01*
X132906429Y-113695735D01*
X132883329Y-113687470D01*
X132861151Y-113676980D01*
X132840107Y-113664367D01*
X132820402Y-113649753D01*
X132802223Y-113633277D01*
X132785747Y-113615098D01*
X132771133Y-113595393D01*
X132758520Y-113574349D01*
X132748030Y-113552171D01*
X132739765Y-113529071D01*
X132733804Y-113505273D01*
X132730204Y-113481004D01*
X132729000Y-113456500D01*
X132729000Y-112706500D01*
X132730204Y-112681996D01*
X132733804Y-112657727D01*
X132739765Y-112633929D01*
X132748030Y-112610829D01*
X132758520Y-112588651D01*
X132771133Y-112567607D01*
X132785747Y-112547902D01*
X132802223Y-112529723D01*
X132820402Y-112513247D01*
X132840107Y-112498633D01*
X132861151Y-112486020D01*
X132883329Y-112475530D01*
X132906429Y-112467265D01*
X132930227Y-112461304D01*
X132954496Y-112457704D01*
X132979000Y-112456500D01*
X134229000Y-112456500D01*
X134253504Y-112457704D01*
X134253504Y-112457704D01*
G37*
D20*
G04 #@! TD*
G04 #@! TO.P,R13,2*
G04 #@! TO.N,Earth*
X133604000Y-113081500D03*
D15*
G04 #@! TO.N,Net-(R12-Pad2)*
G04 #@! TO.C,R13*
G36*
X134253504Y-109657704D02*
X134277773Y-109661304D01*
X134301571Y-109667265D01*
X134324671Y-109675530D01*
X134346849Y-109686020D01*
X134367893Y-109698633D01*
X134387598Y-109713247D01*
X134405777Y-109729723D01*
X134422253Y-109747902D01*
X134436867Y-109767607D01*
X134449480Y-109788651D01*
X134459970Y-109810829D01*
X134468235Y-109833929D01*
X134474196Y-109857727D01*
X134477796Y-109881996D01*
X134479000Y-109906500D01*
X134479000Y-110656500D01*
X134477796Y-110681004D01*
X134474196Y-110705273D01*
X134468235Y-110729071D01*
X134459970Y-110752171D01*
X134449480Y-110774349D01*
X134436867Y-110795393D01*
X134422253Y-110815098D01*
X134405777Y-110833277D01*
X134387598Y-110849753D01*
X134367893Y-110864367D01*
X134346849Y-110876980D01*
X134324671Y-110887470D01*
X134301571Y-110895735D01*
X134277773Y-110901696D01*
X134253504Y-110905296D01*
X134229000Y-110906500D01*
X132979000Y-110906500D01*
X132954496Y-110905296D01*
X132930227Y-110901696D01*
X132906429Y-110895735D01*
X132883329Y-110887470D01*
X132861151Y-110876980D01*
X132840107Y-110864367D01*
X132820402Y-110849753D01*
X132802223Y-110833277D01*
X132785747Y-110815098D01*
X132771133Y-110795393D01*
X132758520Y-110774349D01*
X132748030Y-110752171D01*
X132739765Y-110729071D01*
X132733804Y-110705273D01*
X132730204Y-110681004D01*
X132729000Y-110656500D01*
X132729000Y-109906500D01*
X132730204Y-109881996D01*
X132733804Y-109857727D01*
X132739765Y-109833929D01*
X132748030Y-109810829D01*
X132758520Y-109788651D01*
X132771133Y-109767607D01*
X132785747Y-109747902D01*
X132802223Y-109729723D01*
X132820402Y-109713247D01*
X132840107Y-109698633D01*
X132861151Y-109686020D01*
X132883329Y-109675530D01*
X132906429Y-109667265D01*
X132930227Y-109661304D01*
X132954496Y-109657704D01*
X132979000Y-109656500D01*
X134229000Y-109656500D01*
X134253504Y-109657704D01*
X134253504Y-109657704D01*
G37*
D20*
G04 #@! TD*
G04 #@! TO.P,R13,1*
G04 #@! TO.N,Net-(R12-Pad2)*
X133604000Y-110281500D03*
D10*
G04 #@! TO.P,,1*
G04 #@! TO.N,N/C*
X116840000Y-58420000D03*
G04 #@! TD*
D30*
G04 #@! TO.N,Net-(Cc1-Pad1)*
X168071800Y-104394000D03*
X169926000Y-104394000D03*
X169037000Y-103505000D03*
X168059100Y-101727000D03*
X170815000Y-103505000D03*
X170815000Y-101727000D03*
X169024300Y-101727000D03*
X168097200Y-103505000D03*
X169037000Y-104394000D03*
X170815000Y-104394000D03*
X169926000Y-101727000D03*
X168059100Y-102616000D03*
X170815000Y-102616000D03*
X169037000Y-102616000D03*
X169926000Y-102616000D03*
X169926000Y-103505000D03*
X169926000Y-84328000D03*
X169037000Y-84328000D03*
X168071800Y-84328000D03*
X168097200Y-83439000D03*
X169037000Y-83439000D03*
X169926000Y-83439000D03*
X169926000Y-82550000D03*
X169037000Y-82550000D03*
X168059100Y-82550000D03*
X170815000Y-84328000D03*
X170815000Y-83439000D03*
X170815000Y-82550000D03*
X170815000Y-81661000D03*
X169926000Y-81661000D03*
X169024300Y-81661000D03*
X168059100Y-81661000D03*
G04 #@! TO.N,Earth*
X126288800Y-99060000D03*
X131041429Y-99014507D03*
G04 #@! TO.N,Net-(Cc3-Pad1)*
X168275000Y-64389000D03*
X170129200Y-64389000D03*
X169240200Y-63500000D03*
X168262300Y-61722000D03*
X171018200Y-63500000D03*
X171018200Y-61722000D03*
X169227500Y-61722000D03*
X168300400Y-63500000D03*
X169240200Y-64389000D03*
X171018200Y-64389000D03*
X170129200Y-61722000D03*
X168262300Y-62611000D03*
X171018200Y-62611000D03*
X169240200Y-62611000D03*
X170129200Y-62611000D03*
X170129200Y-63500000D03*
X136448800Y-81178400D03*
X158165800Y-89128600D03*
G04 #@! TO.N,Net-(J1-Pad1)*
X122682000Y-108966000D03*
G04 #@! TO.N,Net-(R3-Pad1)*
X137668000Y-86614000D03*
X133858000Y-86868000D03*
G04 #@! TO.N,Net-(R4-Pad1)*
X134438000Y-92456000D03*
X139954000Y-94996000D03*
G04 #@! TO.N,Net-(Cc6-Pad1)*
X134620000Y-95504000D03*
X120307980Y-97536000D03*
X120307980Y-103632000D03*
G04 #@! TO.N,Net-(Cc5-Pad1)*
X168071800Y-123317000D03*
X169926000Y-123317000D03*
X169037000Y-122428000D03*
X168059100Y-120650000D03*
X170815000Y-122428000D03*
X170815000Y-120650000D03*
X169024300Y-120650000D03*
X168097200Y-122428000D03*
X169037000Y-123317000D03*
X170815000Y-123317000D03*
X169926000Y-120650000D03*
X168059100Y-121539000D03*
X170815000Y-121539000D03*
X169037000Y-121539000D03*
X169926000Y-121539000D03*
X169926000Y-122428000D03*
X138049000Y-93243400D03*
X158292800Y-91719400D03*
G04 #@! TO.N,Net-(J2-Pad4)*
X121738000Y-90678000D03*
G04 #@! TO.N,Net-(J2-Pad6)*
X125294000Y-91440000D03*
X121158000Y-84269580D03*
G04 #@! TO.N,Net-(J1-Pad3)*
X121920000Y-107696000D03*
G04 #@! TO.N,Net-(Q1-Pad4)*
X158242000Y-90170000D03*
X146050000Y-83312000D03*
G04 #@! TO.N,Net-(Q2-Pad4)*
X146050000Y-94996000D03*
X187198000Y-93726000D03*
G04 #@! TO.N,Net-(Q3-Pad4)*
X146304000Y-72644000D03*
X157988000Y-72644000D03*
G04 #@! TO.N,Net-(Q4-Pad4)*
X145288000Y-111988600D03*
X148005800Y-123901200D03*
G04 #@! TD*
D31*
G04 #@! TO.N,Net-(Cc1-Pad1)*
X126746000Y-65024000D02*
X133858000Y-65024000D01*
X130374000Y-88615000D02*
X130374000Y-89390000D01*
X130374000Y-69608000D02*
X130374000Y-88615000D01*
X133858000Y-66124000D02*
X130374000Y-69608000D01*
X133858000Y-65024000D02*
X133858000Y-66124000D01*
D32*
G04 #@! TO.N,Earth*
X128875400Y-89065000D02*
X128875400Y-89390000D01*
D31*
X139947500Y-91948000D02*
X140026000Y-91869500D01*
X128425400Y-89390000D02*
X128875400Y-89390000D01*
X128070000Y-90195400D02*
X128070000Y-89745400D01*
X128070000Y-89745400D02*
X128425400Y-89390000D01*
X130882000Y-94265000D02*
X137226400Y-100609400D01*
X130882000Y-93490000D02*
X130882000Y-94265000D01*
X138912600Y-102295600D02*
X138912600Y-102895400D01*
X137226400Y-100609400D02*
X138912600Y-102295600D01*
X138912600Y-102295600D02*
X138912600Y-103530400D01*
X128875400Y-94265000D02*
X128601600Y-94538800D01*
X128875400Y-93490000D02*
X128875400Y-94265000D01*
X128601600Y-94538800D02*
X128270000Y-94538800D01*
D33*
X144780000Y-119634000D02*
X144526000Y-119634000D01*
X144780000Y-119634000D02*
X142494000Y-119634000D01*
D31*
G04 #@! TO.N,Net-(Cc2-Pad1)*
X129866000Y-86143000D02*
X129866000Y-89390000D01*
X129575000Y-85852000D02*
X129866000Y-86143000D01*
X128850000Y-85852000D02*
X129575000Y-85852000D01*
G04 #@! TO.N,Net-(Cc2-Pad2)*
X126050000Y-86827000D02*
X127361000Y-88138000D01*
X126050000Y-85852000D02*
X126050000Y-86827000D01*
X127361000Y-88138000D02*
X129104000Y-88138000D01*
X129358000Y-88392000D02*
X129358000Y-89390000D01*
X129104000Y-88138000D02*
X129358000Y-88392000D01*
G04 #@! TO.N,Net-(Cc3-Pad2)*
X136470000Y-84328000D02*
X136470000Y-85598000D01*
X136470000Y-85598000D02*
X134438000Y-87630000D01*
X134438000Y-87630000D02*
X134438000Y-90170000D01*
X133930000Y-90678000D02*
X132170000Y-90678000D01*
X134438000Y-90170000D02*
X133930000Y-90678000D01*
G04 #@! TO.N,Net-(Cc3-Pad1)*
X136470000Y-82453000D02*
X133773000Y-82453000D01*
X131364600Y-84861400D02*
X131364600Y-89390000D01*
X133773000Y-82453000D02*
X131364600Y-84861400D01*
X136470000Y-82453000D02*
X136470000Y-81199600D01*
X136470000Y-81199600D02*
X136448800Y-81178400D01*
X158165800Y-89128600D02*
X161290000Y-89128600D01*
X161290000Y-89128600D02*
X164388800Y-86029800D01*
X164388800Y-86029800D02*
X164388800Y-83642200D01*
G04 #@! TO.N,Net-(J1-Pad1)*
X130374000Y-94583882D02*
X130374000Y-93490000D01*
X137922000Y-102131882D02*
X130374000Y-94583882D01*
X137922000Y-105918000D02*
X137922000Y-102131882D01*
X122682000Y-108966000D02*
X134874000Y-108966000D01*
X134874000Y-108966000D02*
X137922000Y-105918000D01*
D33*
X114118000Y-99568000D02*
X114118000Y-102108000D01*
D32*
G04 #@! TO.N,Net-(R3-Pad1)*
X132170000Y-90195400D02*
X132495000Y-90195400D01*
D31*
X141726000Y-83312000D02*
X140970000Y-83312000D01*
X140970000Y-83312000D02*
X137668000Y-86614000D01*
X133858000Y-86868000D02*
X133858000Y-89916000D01*
X133578600Y-90195400D02*
X132170000Y-90195400D01*
X133858000Y-89916000D02*
X133578600Y-90195400D01*
G04 #@! TO.N,Net-(R4-Pad1)*
X132945000Y-92202000D02*
X133453000Y-92710000D01*
X132170000Y-92202000D02*
X132945000Y-92202000D01*
X133453000Y-92710000D02*
X133930000Y-92710000D01*
X133930000Y-92710000D02*
X134184000Y-92710000D01*
X134184000Y-92710000D02*
X134438000Y-92456000D01*
X141732000Y-94996000D02*
X139954000Y-94996000D01*
D34*
G04 #@! TO.N,Net-(R5-Pad1)*
X126238000Y-115393500D02*
X126238000Y-115981000D01*
X123266200Y-113665000D02*
X124509500Y-113665000D01*
X124509500Y-113665000D02*
X126238000Y-115393500D01*
X136041000Y-115981000D02*
X139694000Y-119634000D01*
X126238000Y-115981000D02*
X136041000Y-115981000D01*
D31*
G04 #@! TO.N,Net-(R6-Pad1)*
X130882000Y-88615000D02*
X130882000Y-89390000D01*
X130882000Y-83017000D02*
X130882000Y-88615000D01*
X141255000Y-72644000D02*
X130882000Y-83017000D01*
X141980000Y-72644000D02*
X141255000Y-72644000D01*
G04 #@! TO.N,Net-(Cc4-Pad2)*
X133168000Y-91186000D02*
X132170000Y-91186000D01*
X138677500Y-88646000D02*
X135708000Y-88646000D01*
X140026000Y-89994500D02*
X138677500Y-88646000D01*
X135708000Y-88646000D02*
X135200000Y-89154000D01*
X135200000Y-89154000D02*
X135200000Y-90424000D01*
X135200000Y-90424000D02*
X134438000Y-91186000D01*
X134438000Y-91186000D02*
X133168000Y-91186000D01*
G04 #@! TO.N,Net-(Cc6-Pad1)*
X120307980Y-90350340D02*
X116589420Y-86631780D01*
X122428000Y-107188000D02*
X120307980Y-105067980D01*
X133309000Y-107188000D02*
X122428000Y-107188000D01*
X134975600Y-104546400D02*
X134975600Y-105521400D01*
X134975600Y-105521400D02*
X133309000Y-107188000D01*
X122642240Y-92684600D02*
X120307980Y-90350340D01*
X128070000Y-92684600D02*
X122642240Y-92684600D01*
X120307980Y-105067980D02*
X120307980Y-103886000D01*
X136470000Y-96266000D02*
X135382000Y-96266000D01*
X135382000Y-96266000D02*
X134620000Y-95504000D01*
X120307980Y-97536000D02*
X120307980Y-90350340D01*
X120307980Y-103886000D02*
X120307980Y-103632000D01*
X120307980Y-103632000D02*
X120307980Y-97536000D01*
D33*
X117572400Y-80822800D02*
X113897020Y-80822800D01*
X113897020Y-83704800D02*
X111760000Y-85841820D01*
X113897020Y-80822800D02*
X113897020Y-83704800D01*
X111760000Y-85841820D02*
X111760000Y-112776000D01*
X111760000Y-112776000D02*
X112776000Y-113792000D01*
D34*
X112649000Y-113665000D02*
X111760000Y-112776000D01*
X118541800Y-113665000D02*
X112649000Y-113665000D01*
D31*
G04 #@! TO.N,Net-(Cc5-Pad2)*
X134849000Y-91694000D02*
X136470000Y-90073000D01*
X132170000Y-91694000D02*
X134849000Y-91694000D01*
G04 #@! TO.N,Net-(Cc5-Pad1)*
X132495000Y-92684600D02*
X132170000Y-92684600D01*
X133028400Y-93218000D02*
X132495000Y-92684600D01*
X134692000Y-93218000D02*
X133028400Y-93218000D01*
X135405763Y-92504237D02*
X134692000Y-93218000D01*
X135913763Y-92504237D02*
X135405763Y-92504237D01*
X136470000Y-91948000D02*
X135913763Y-92504237D01*
X136470000Y-92535500D02*
X137177900Y-93243400D01*
X136470000Y-91948000D02*
X136470000Y-92535500D01*
X137177900Y-93243400D02*
X138049000Y-93243400D01*
X158292800Y-91719400D02*
X158292800Y-99720400D01*
X158292800Y-99720400D02*
X160937400Y-102365000D01*
X160937400Y-102365000D02*
X164592000Y-102365000D01*
D33*
G04 #@! TO.N,Net-(J2-Pad1)*
X116589420Y-91711780D02*
X116589420Y-93729420D01*
X116589420Y-93729420D02*
X117348000Y-94488000D01*
D34*
X120294400Y-112395000D02*
X121158000Y-113258600D01*
X118541800Y-112395000D02*
X120294400Y-112395000D01*
X121158000Y-113258600D02*
X121158000Y-115824000D01*
X123190000Y-117856000D02*
X126238000Y-117856000D01*
X121158000Y-115824000D02*
X123190000Y-117856000D01*
D33*
X117348000Y-94488000D02*
X117348000Y-107696000D01*
X117348000Y-107696000D02*
X115316000Y-109728000D01*
X115316000Y-109728000D02*
X115316000Y-111760000D01*
D34*
X118541800Y-112395000D02*
X115951000Y-112395000D01*
X115951000Y-112395000D02*
X115316000Y-111760000D01*
D31*
G04 #@! TO.N,Net-(J2-Pad4)*
X124532000Y-90678000D02*
X124532000Y-91948000D01*
X124532000Y-90678000D02*
X128070000Y-90678000D01*
X121738000Y-90678000D02*
X124532000Y-90678000D01*
X124786000Y-92202000D02*
X128070000Y-92202000D01*
X124532000Y-91948000D02*
X124786000Y-92202000D01*
X124487200Y-76409200D02*
X123439800Y-76409200D01*
X125802000Y-77724000D02*
X124487200Y-76409200D01*
X125802000Y-83058000D02*
X125802000Y-77724000D01*
X121738000Y-90678000D02*
X121738000Y-87122000D01*
X121738000Y-87122000D02*
X125802000Y-83058000D01*
G04 #@! TO.N,Net-(J2-Pad6)*
X125294000Y-91440000D02*
X126056000Y-91440000D01*
X126056000Y-91440000D02*
X126310000Y-91186000D01*
X127072000Y-91694000D02*
X128070000Y-91694000D01*
X126564000Y-91186000D02*
X127072000Y-91694000D01*
X126564000Y-91186000D02*
X128070000Y-91186000D01*
X126310000Y-91186000D02*
X126564000Y-91186000D01*
X116411620Y-84269580D02*
X114049420Y-86631780D01*
X119683140Y-84269580D02*
X116411620Y-84269580D01*
X121158000Y-83796400D02*
X121158000Y-84269580D01*
X123439800Y-81514600D02*
X121158000Y-83796400D01*
X119683140Y-84269580D02*
X121158000Y-84269580D01*
G04 #@! TO.N,Net-(R7-Pad1)*
X129358000Y-103204400D02*
X127863600Y-104698800D01*
X129358000Y-93490000D02*
X129358000Y-103204400D01*
G04 #@! TO.N,Net-(R8-Pad1)*
X131364600Y-93815000D02*
X131364600Y-93490000D01*
X140710000Y-103160400D02*
X131364600Y-93815000D01*
X140710000Y-104394000D02*
X140710000Y-103160400D01*
D34*
G04 #@! TO.N,Net-(R12-Pad2)*
X123266200Y-112395000D02*
X125018800Y-112395000D01*
X133604000Y-110744000D02*
X131953000Y-112395000D01*
X126873000Y-112395000D02*
X126492000Y-112395000D01*
X129286000Y-114808000D02*
X126873000Y-112395000D01*
X143504000Y-114808000D02*
X129286000Y-114808000D01*
X131953000Y-112395000D02*
X126492000Y-112395000D01*
X126492000Y-112395000D02*
X123266200Y-112395000D01*
D31*
G04 #@! TO.N,Net-(J1-Pad3)*
X131216400Y-104546400D02*
X132175600Y-104546400D01*
X129866000Y-93490000D02*
X129866000Y-103196000D01*
X129866000Y-103196000D02*
X131216400Y-104546400D01*
X134874000Y-107696000D02*
X121920000Y-107696000D01*
X132175600Y-103571400D02*
X132877000Y-102870000D01*
X132175600Y-104546400D02*
X132175600Y-103571400D01*
X136398000Y-102870000D02*
X136652000Y-103124000D01*
X136652000Y-103124000D02*
X136652000Y-105918000D01*
X132877000Y-102870000D02*
X136398000Y-102870000D01*
X136652000Y-105918000D02*
X134874000Y-107696000D01*
G04 #@! TO.N,Net-(Q1-Pad4)*
X144526000Y-83312000D02*
X146050000Y-83312000D01*
X166180000Y-85510000D02*
X166180000Y-84905000D01*
X158242000Y-90170000D02*
X161520000Y-90170000D01*
X161520000Y-90170000D02*
X166180000Y-85510000D01*
G04 #@! TO.N,Net-(Q2-Pad4)*
X144532000Y-94996000D02*
X146050000Y-94996000D01*
X187578999Y-94106999D02*
X187578999Y-105537001D01*
X187198000Y-93726000D02*
X187578999Y-94106999D01*
X187578999Y-105537001D02*
X186436000Y-106680000D01*
X186436000Y-106680000D02*
X166878000Y-106680000D01*
X166180000Y-105982000D02*
X166180000Y-104905000D01*
X166878000Y-106680000D02*
X166180000Y-105982000D01*
G04 #@! TO.N,Net-(Q3-Pad4)*
X144780000Y-72644000D02*
X146304000Y-72644000D01*
X157988000Y-72644000D02*
X157988000Y-69850000D01*
X162933000Y-64905000D02*
X166340000Y-64905000D01*
X157988000Y-69850000D02*
X162933000Y-64905000D01*
D33*
G04 #@! TO.N,Net-(Q3-Pad1)*
X150580000Y-116544000D02*
X150580000Y-119634000D01*
X148844000Y-114808000D02*
X150580000Y-116544000D01*
X148844000Y-114808000D02*
X146304000Y-114808000D01*
D31*
G04 #@! TO.N,Net-(Q4-Pad4)*
X144235000Y-104394000D02*
X145364200Y-105523200D01*
X143510000Y-104394000D02*
X144235000Y-104394000D01*
X145364200Y-105523200D02*
X145364200Y-111912400D01*
X145364200Y-111912400D02*
X145288000Y-111988600D01*
X166176200Y-123901200D02*
X166180000Y-123905000D01*
X148005800Y-123901200D02*
X166176200Y-123901200D01*
G04 #@! TD*
D35*
G04 #@! TO.N,Net-(Cc3-Pad1)*
G36*
X181147609Y-59626464D02*
X203441300Y-81285369D01*
X203441300Y-88125300D01*
X197109427Y-88125300D01*
X188197778Y-78807422D01*
X188193720Y-78804578D01*
X188188615Y-78803500D01*
X166954215Y-78778100D01*
X166949354Y-78779061D01*
X166945230Y-78781809D01*
X166942473Y-78785926D01*
X166941500Y-78790800D01*
X166941500Y-84112139D01*
X158686500Y-84137461D01*
X158686500Y-70058460D01*
X162260509Y-66484451D01*
X170434118Y-66408299D01*
X170438969Y-66407287D01*
X170443064Y-66404496D01*
X170445778Y-66400351D01*
X170446700Y-66395600D01*
X170446700Y-59550391D01*
X181147609Y-59626464D01*
X181147609Y-59626464D01*
G37*
X181147609Y-59626464D02*
X203441300Y-81285369D01*
X203441300Y-88125300D01*
X197109427Y-88125300D01*
X188197778Y-78807422D01*
X188193720Y-78804578D01*
X188188615Y-78803500D01*
X166954215Y-78778100D01*
X166949354Y-78779061D01*
X166945230Y-78781809D01*
X166942473Y-78785926D01*
X166941500Y-78790800D01*
X166941500Y-84112139D01*
X158686500Y-84137461D01*
X158686500Y-70058460D01*
X162260509Y-66484451D01*
X170434118Y-66408299D01*
X170438969Y-66407287D01*
X170443064Y-66404496D01*
X170445778Y-66400351D01*
X170446700Y-66395600D01*
X170446700Y-59550391D01*
X181147609Y-59626464D01*
G04 #@! TO.N,Net-(Cc1-Pad1)*
G36*
X185483500Y-105981500D02*
X169379900Y-105981500D01*
X169379900Y-80454500D01*
X185483500Y-80454500D01*
X185483500Y-105981500D01*
X185483500Y-105981500D01*
G37*
X185483500Y-105981500D02*
X169379900Y-105981500D01*
X169379900Y-80454500D01*
X185483500Y-80454500D01*
X185483500Y-105981500D01*
G04 #@! TO.N,Net-(F1-Pad1)*
G36*
X203695300Y-98793300D02*
X189242700Y-98793300D01*
X189242700Y-93992700D01*
X203695300Y-93992700D01*
X203695300Y-98793300D01*
X203695300Y-98793300D01*
G37*
X203695300Y-98793300D02*
X189242700Y-98793300D01*
X189242700Y-93992700D01*
X203695300Y-93992700D01*
X203695300Y-98793300D01*
G04 #@! TO.N,Net-(Q3-Pad1)*
G36*
X166433500Y-64325500D02*
X162610800Y-64325500D01*
X162605940Y-64326467D01*
X162601908Y-64329133D01*
X157331408Y-69498033D01*
X157328615Y-69502126D01*
X157327600Y-69507093D01*
X157302200Y-116979693D01*
X157303164Y-116984554D01*
X157306713Y-116989409D01*
X160062613Y-119313509D01*
X160066951Y-119315903D01*
X160070901Y-119316500D01*
X166458900Y-119265802D01*
X166458900Y-123253500D01*
X151133373Y-123253500D01*
X147764500Y-121328430D01*
X147764500Y-64090507D01*
X153648872Y-59626500D01*
X166433500Y-59626500D01*
X166433500Y-64325500D01*
X166433500Y-64325500D01*
G37*
X166433500Y-64325500D02*
X162610800Y-64325500D01*
X162605940Y-64326467D01*
X162601908Y-64329133D01*
X157331408Y-69498033D01*
X157328615Y-69502126D01*
X157327600Y-69507093D01*
X157302200Y-116979693D01*
X157303164Y-116984554D01*
X157306713Y-116989409D01*
X160062613Y-119313509D01*
X160066951Y-119315903D01*
X160070901Y-119316500D01*
X166458900Y-119265802D01*
X166458900Y-123253500D01*
X151133373Y-123253500D01*
X147764500Y-121328430D01*
X147764500Y-64090507D01*
X153648872Y-59626500D01*
X166433500Y-59626500D01*
X166433500Y-64325500D01*
G04 #@! TO.N,Net-(Cc5-Pad1)*
G36*
X203695300Y-103619300D02*
X201510900Y-103619300D01*
X201506040Y-103620267D01*
X201501920Y-103623020D01*
X201499167Y-103627140D01*
X201498200Y-103631993D01*
X201485507Y-125590392D01*
X170218100Y-125818807D01*
X170218100Y-118008400D01*
X170217133Y-118003540D01*
X170214380Y-117999420D01*
X170210260Y-117996667D01*
X170205435Y-117995700D01*
X161041275Y-117970315D01*
X158661100Y-115590140D01*
X158661100Y-100012500D01*
X166941500Y-100012500D01*
X166941500Y-104203500D01*
X164414200Y-104203500D01*
X164409340Y-104204467D01*
X164405220Y-104207220D01*
X164402467Y-104211340D01*
X164401500Y-104216200D01*
X164401500Y-107365800D01*
X164402467Y-107370660D01*
X164405220Y-107374780D01*
X164409340Y-107377533D01*
X164414200Y-107378500D01*
X189153800Y-107378500D01*
X189158660Y-107377533D01*
X189162780Y-107374780D01*
X189165533Y-107370660D01*
X189166499Y-107365917D01*
X189242584Y-99072700D01*
X203695300Y-99072700D01*
X203695300Y-103619300D01*
X203695300Y-103619300D01*
G37*
X203695300Y-103619300D02*
X201510900Y-103619300D01*
X201506040Y-103620267D01*
X201501920Y-103623020D01*
X201499167Y-103627140D01*
X201498200Y-103631993D01*
X201485507Y-125590392D01*
X170218100Y-125818807D01*
X170218100Y-118008400D01*
X170217133Y-118003540D01*
X170214380Y-117999420D01*
X170210260Y-117996667D01*
X170205435Y-117995700D01*
X161041275Y-117970315D01*
X158661100Y-115590140D01*
X158661100Y-100012500D01*
X166941500Y-100012500D01*
X166941500Y-104203500D01*
X164414200Y-104203500D01*
X164409340Y-104204467D01*
X164405220Y-104207220D01*
X164402467Y-104211340D01*
X164401500Y-104216200D01*
X164401500Y-107365800D01*
X164402467Y-107370660D01*
X164405220Y-107374780D01*
X164409340Y-107377533D01*
X164414200Y-107378500D01*
X189153800Y-107378500D01*
X189158660Y-107377533D01*
X189162780Y-107374780D01*
X189165533Y-107370660D01*
X189166499Y-107365917D01*
X189242584Y-99072700D01*
X203695300Y-99072700D01*
X203695300Y-103619300D01*
D36*
G04 #@! TO.N,Earth*
G36*
X207606301Y-134606300D02*
X110393700Y-134606300D01*
X110393700Y-113067923D01*
X110444056Y-113321081D01*
X110674883Y-113666538D01*
X110752821Y-113783180D01*
X110869462Y-113861117D01*
X111885461Y-114877117D01*
X112230918Y-115107944D01*
X112776000Y-115216367D01*
X113321081Y-115107944D01*
X113783180Y-114799180D01*
X114031862Y-114427000D01*
X117245721Y-114427000D01*
X117192306Y-114506941D01*
X117162736Y-114655600D01*
X117162736Y-115214400D01*
X117192306Y-115363059D01*
X117276514Y-115489086D01*
X117402541Y-115573294D01*
X117551200Y-115602864D01*
X119532400Y-115602864D01*
X119681059Y-115573294D01*
X119807086Y-115489086D01*
X119891294Y-115363059D01*
X119920864Y-115214400D01*
X119920864Y-114655600D01*
X119891294Y-114506941D01*
X119807086Y-114380914D01*
X119685989Y-114300000D01*
X119807086Y-114219086D01*
X119891294Y-114093059D01*
X119920864Y-113944400D01*
X119920864Y-113385600D01*
X119891294Y-113236941D01*
X119837879Y-113157000D01*
X119978770Y-113157000D01*
X120396000Y-113574231D01*
X120396001Y-115748952D01*
X120381073Y-115824000D01*
X120427230Y-116056048D01*
X120440213Y-116121317D01*
X120608630Y-116373371D01*
X120672251Y-116415881D01*
X122598118Y-118341749D01*
X122640629Y-118405371D01*
X122892683Y-118573788D01*
X123114952Y-118618000D01*
X123114957Y-118618000D01*
X123190000Y-118632927D01*
X123265043Y-118618000D01*
X124974536Y-118618000D01*
X124974536Y-118693500D01*
X125023136Y-118937830D01*
X125161538Y-119144962D01*
X125368670Y-119283364D01*
X125613000Y-119331964D01*
X126863000Y-119331964D01*
X127107330Y-119283364D01*
X127314462Y-119144962D01*
X127452864Y-118937830D01*
X127501464Y-118693500D01*
X127501464Y-117943500D01*
X127452864Y-117699170D01*
X127314462Y-117492038D01*
X127107330Y-117353636D01*
X126863000Y-117305036D01*
X126784987Y-117305036D01*
X126535317Y-117138212D01*
X126313048Y-117094000D01*
X123505631Y-117094000D01*
X121920000Y-115508370D01*
X121920000Y-115367989D01*
X122000914Y-115489086D01*
X122126941Y-115573294D01*
X122275600Y-115602864D01*
X124256800Y-115602864D01*
X124405459Y-115573294D01*
X124531486Y-115489086D01*
X124615694Y-115363059D01*
X124645264Y-115214400D01*
X124645264Y-114878394D01*
X124974536Y-115207667D01*
X124974536Y-115893500D01*
X125023136Y-116137830D01*
X125161538Y-116344962D01*
X125368670Y-116483364D01*
X125613000Y-116531964D01*
X125691013Y-116531964D01*
X125940683Y-116698788D01*
X126162952Y-116743000D01*
X126238000Y-116757928D01*
X126313048Y-116743000D01*
X135725370Y-116743000D01*
X138680536Y-119698167D01*
X138680536Y-120259000D01*
X138729136Y-120503330D01*
X138867538Y-120710462D01*
X139074670Y-120848864D01*
X139319000Y-120897464D01*
X140069000Y-120897464D01*
X140313330Y-120848864D01*
X140520462Y-120710462D01*
X140658864Y-120503330D01*
X140707464Y-120259000D01*
X140707464Y-119009000D01*
X140658864Y-118764670D01*
X140520462Y-118557538D01*
X140313330Y-118419136D01*
X140069000Y-118370536D01*
X139508167Y-118370536D01*
X136707630Y-115570000D01*
X142517787Y-115570000D01*
X142539136Y-115677330D01*
X142677538Y-115884462D01*
X142884670Y-116022864D01*
X143129000Y-116071464D01*
X143879000Y-116071464D01*
X144123330Y-116022864D01*
X144330462Y-115884462D01*
X144468864Y-115677330D01*
X144517464Y-115433000D01*
X144517464Y-114808000D01*
X144879632Y-114808000D01*
X144988056Y-115353082D01*
X145296820Y-115815180D01*
X145758918Y-116123944D01*
X146166412Y-116205000D01*
X147370800Y-116205000D01*
X147370800Y-121335800D01*
X147384225Y-121436048D01*
X147450568Y-121569082D01*
X147562771Y-121666601D01*
X150544069Y-123370200D01*
X148552430Y-123370200D01*
X148437438Y-123255208D01*
X148157371Y-123139200D01*
X147854229Y-123139200D01*
X147574162Y-123255208D01*
X147359808Y-123469562D01*
X147243800Y-123749629D01*
X147243800Y-124052771D01*
X147359808Y-124332838D01*
X147574162Y-124547192D01*
X147854229Y-124663200D01*
X148157371Y-124663200D01*
X148437438Y-124547192D01*
X148552430Y-124432200D01*
X165235244Y-124432200D01*
X165270314Y-124484686D01*
X165396341Y-124568894D01*
X165545000Y-124598464D01*
X166815000Y-124598464D01*
X166963659Y-124568894D01*
X167089686Y-124484686D01*
X167173894Y-124358659D01*
X167203464Y-124210000D01*
X167203464Y-123939830D01*
X167226106Y-124053659D01*
X167310314Y-124179686D01*
X167436341Y-124263894D01*
X167585000Y-124293464D01*
X169824400Y-124293464D01*
X169824400Y-125831600D01*
X169854476Y-125979970D01*
X169937968Y-126102969D01*
X170062173Y-126184654D01*
X170208183Y-126212590D01*
X201500983Y-125983990D01*
X201643799Y-125955082D01*
X201767452Y-125872563D01*
X201850114Y-125749006D01*
X201879200Y-125603220D01*
X201891680Y-104013000D01*
X203708000Y-104013000D01*
X203853802Y-103983998D01*
X203977408Y-103901408D01*
X204059998Y-103777802D01*
X204089000Y-103632000D01*
X204089000Y-99060000D01*
X204063738Y-98933000D01*
X204089000Y-98806000D01*
X204089000Y-93980000D01*
X204059998Y-93834198D01*
X203977408Y-93710592D01*
X203853802Y-93628002D01*
X203708000Y-93599000D01*
X189230000Y-93599000D01*
X189084198Y-93628002D01*
X188960592Y-93710592D01*
X188878002Y-93834198D01*
X188849000Y-93980000D01*
X188849000Y-98806000D01*
X188874506Y-98934229D01*
X188849016Y-99056505D01*
X188776279Y-106984800D01*
X186882147Y-106984800D01*
X187917497Y-105949451D01*
X187961828Y-105919830D01*
X188079189Y-105744187D01*
X188109999Y-105589295D01*
X188120401Y-105537001D01*
X188109999Y-105484707D01*
X188109999Y-94159289D01*
X188120400Y-94106999D01*
X188109999Y-94054709D01*
X188109999Y-94054705D01*
X188079189Y-93899813D01*
X188064327Y-93877571D01*
X187991450Y-93768502D01*
X187991449Y-93768501D01*
X187961828Y-93724170D01*
X187960000Y-93722949D01*
X187960000Y-93574429D01*
X187843992Y-93294362D01*
X187629638Y-93080008D01*
X187349571Y-92964000D01*
X187046429Y-92964000D01*
X186766362Y-93080008D01*
X186552008Y-93294362D01*
X186436000Y-93574429D01*
X186436000Y-93877571D01*
X186552008Y-94157638D01*
X186766362Y-94371992D01*
X187046429Y-94488000D01*
X187047999Y-94488000D01*
X187048000Y-105317052D01*
X186216053Y-106149000D01*
X185842186Y-106149000D01*
X185848198Y-106140002D01*
X185877200Y-105994200D01*
X185877200Y-80441800D01*
X185848198Y-80295998D01*
X185765608Y-80172392D01*
X185642002Y-80089802D01*
X185496200Y-80060800D01*
X169367200Y-80060800D01*
X169221398Y-80089802D01*
X169097792Y-80172392D01*
X169015202Y-80295998D01*
X168986200Y-80441800D01*
X168986200Y-80706536D01*
X167585000Y-80706536D01*
X167436341Y-80736106D01*
X167335200Y-80803686D01*
X167335200Y-79172256D01*
X188025602Y-79197006D01*
X196828657Y-88401339D01*
X196958198Y-88489998D01*
X197104000Y-88519000D01*
X203454000Y-88519000D01*
X203599802Y-88489998D01*
X203723408Y-88407408D01*
X203805998Y-88283802D01*
X203835000Y-88138000D01*
X203835000Y-81280000D01*
X203803856Y-81129130D01*
X203719489Y-81006730D01*
X181418289Y-59340530D01*
X181301101Y-59262847D01*
X181155508Y-59232810D01*
X170436708Y-59156610D01*
X170288198Y-59185602D01*
X170164592Y-59268192D01*
X170082002Y-59391798D01*
X170053000Y-59537600D01*
X170053000Y-60706536D01*
X167745000Y-60706536D01*
X167596341Y-60736106D01*
X167470314Y-60820314D01*
X167386106Y-60946341D01*
X167363464Y-61060170D01*
X167363464Y-60790000D01*
X167333894Y-60641341D01*
X167249686Y-60515314D01*
X167123659Y-60431106D01*
X166975000Y-60401536D01*
X166827200Y-60401536D01*
X166827200Y-59613800D01*
X166798198Y-59467998D01*
X166715608Y-59344392D01*
X166592002Y-59261802D01*
X166446200Y-59232800D01*
X153644600Y-59232800D01*
X153548017Y-59245245D01*
X153414329Y-59310261D01*
X147521529Y-63780661D01*
X147399802Y-63938398D01*
X147370800Y-64084200D01*
X147370800Y-113411000D01*
X146166412Y-113411000D01*
X145758918Y-113492056D01*
X145296820Y-113800820D01*
X144988056Y-114262918D01*
X144879632Y-114808000D01*
X144517464Y-114808000D01*
X144517464Y-114183000D01*
X144468864Y-113938670D01*
X144330462Y-113731538D01*
X144123330Y-113593136D01*
X143879000Y-113544536D01*
X143129000Y-113544536D01*
X142884670Y-113593136D01*
X142677538Y-113731538D01*
X142539136Y-113938670D01*
X142517787Y-114046000D01*
X129601631Y-114046000D01*
X128712631Y-113157000D01*
X131877957Y-113157000D01*
X131953000Y-113171927D01*
X132028043Y-113157000D01*
X132028048Y-113157000D01*
X132250317Y-113112788D01*
X132502371Y-112944371D01*
X132544883Y-112880747D01*
X134130667Y-111294964D01*
X134229000Y-111294964D01*
X134473330Y-111246364D01*
X134680462Y-111107962D01*
X134818864Y-110900830D01*
X134867464Y-110656500D01*
X134867464Y-109906500D01*
X134818864Y-109662170D01*
X134708500Y-109497000D01*
X134821710Y-109497000D01*
X134874000Y-109507401D01*
X134926290Y-109497000D01*
X134926294Y-109497000D01*
X135081186Y-109466190D01*
X135256829Y-109348829D01*
X135286452Y-109304495D01*
X138260498Y-106330450D01*
X138304829Y-106300829D01*
X138422190Y-106125186D01*
X138453000Y-105970294D01*
X138453000Y-105970293D01*
X138463402Y-105918000D01*
X138453000Y-105865706D01*
X138453000Y-102184172D01*
X138463401Y-102131882D01*
X138453000Y-102079592D01*
X138453000Y-102079588D01*
X138422190Y-101924696D01*
X138391370Y-101878571D01*
X138334451Y-101793385D01*
X138334450Y-101793384D01*
X138304829Y-101749053D01*
X138260498Y-101719432D01*
X130905000Y-94363935D01*
X130905000Y-94187433D01*
X130939914Y-94239686D01*
X131065941Y-94323894D01*
X131136602Y-94337949D01*
X140023003Y-103224350D01*
X139883538Y-103317538D01*
X139745136Y-103524670D01*
X139696536Y-103769000D01*
X139696536Y-105019000D01*
X139745136Y-105263330D01*
X139883538Y-105470462D01*
X140090670Y-105608864D01*
X140335000Y-105657464D01*
X141085000Y-105657464D01*
X141329330Y-105608864D01*
X141536462Y-105470462D01*
X141674864Y-105263330D01*
X141723464Y-105019000D01*
X141723464Y-103769000D01*
X142496536Y-103769000D01*
X142496536Y-105019000D01*
X142545136Y-105263330D01*
X142683538Y-105470462D01*
X142890670Y-105608864D01*
X143135000Y-105657464D01*
X143885000Y-105657464D01*
X144129330Y-105608864D01*
X144336462Y-105470462D01*
X144426205Y-105336153D01*
X144833200Y-105743148D01*
X144833201Y-111365769D01*
X144642008Y-111556962D01*
X144526000Y-111837029D01*
X144526000Y-112140171D01*
X144642008Y-112420238D01*
X144856362Y-112634592D01*
X145136429Y-112750600D01*
X145439571Y-112750600D01*
X145719638Y-112634592D01*
X145933992Y-112420238D01*
X146050000Y-112140171D01*
X146050000Y-111837029D01*
X145933992Y-111556962D01*
X145895200Y-111518170D01*
X145895200Y-105575490D01*
X145905601Y-105523200D01*
X145895200Y-105470910D01*
X145895200Y-105470906D01*
X145864390Y-105316014D01*
X145837096Y-105275165D01*
X145776651Y-105184703D01*
X145776650Y-105184702D01*
X145747029Y-105140371D01*
X145702698Y-105110750D01*
X144647452Y-104055505D01*
X144617829Y-104011171D01*
X144523464Y-103948118D01*
X144523464Y-103769000D01*
X144474864Y-103524670D01*
X144336462Y-103317538D01*
X144129330Y-103179136D01*
X143885000Y-103130536D01*
X143135000Y-103130536D01*
X142890670Y-103179136D01*
X142683538Y-103317538D01*
X142545136Y-103524670D01*
X142496536Y-103769000D01*
X141723464Y-103769000D01*
X141674864Y-103524670D01*
X141536462Y-103317538D01*
X141329330Y-103179136D01*
X141250782Y-103163512D01*
X141251401Y-103160399D01*
X141241000Y-103108109D01*
X141241000Y-103108106D01*
X141210190Y-102953214D01*
X141092829Y-102777571D01*
X141048495Y-102747948D01*
X134566547Y-96266000D01*
X134631052Y-96266000D01*
X134969550Y-96604498D01*
X134999171Y-96648829D01*
X135174814Y-96766190D01*
X135329706Y-96797000D01*
X135382000Y-96807402D01*
X135434294Y-96797000D01*
X135459937Y-96797000D01*
X135566707Y-96956793D01*
X135771812Y-97093840D01*
X136013750Y-97141964D01*
X136926250Y-97141964D01*
X137168188Y-97093840D01*
X137373293Y-96956793D01*
X137510340Y-96751688D01*
X137558464Y-96509750D01*
X137558464Y-96022250D01*
X137510340Y-95780312D01*
X137373293Y-95575207D01*
X137168188Y-95438160D01*
X136926250Y-95390036D01*
X136013750Y-95390036D01*
X135771812Y-95438160D01*
X135566707Y-95575207D01*
X135516818Y-95649871D01*
X135382000Y-95515052D01*
X135382000Y-95352429D01*
X135265992Y-95072362D01*
X135051638Y-94858008D01*
X135018856Y-94844429D01*
X139192000Y-94844429D01*
X139192000Y-95147571D01*
X139308008Y-95427638D01*
X139522362Y-95641992D01*
X139802429Y-95758000D01*
X140105571Y-95758000D01*
X140385638Y-95641992D01*
X140500630Y-95527000D01*
X140718536Y-95527000D01*
X140718536Y-95621000D01*
X140767136Y-95865330D01*
X140905538Y-96072462D01*
X141112670Y-96210864D01*
X141357000Y-96259464D01*
X142107000Y-96259464D01*
X142351330Y-96210864D01*
X142558462Y-96072462D01*
X142696864Y-95865330D01*
X142745464Y-95621000D01*
X142745464Y-94371000D01*
X143518536Y-94371000D01*
X143518536Y-95621000D01*
X143567136Y-95865330D01*
X143705538Y-96072462D01*
X143912670Y-96210864D01*
X144157000Y-96259464D01*
X144907000Y-96259464D01*
X145151330Y-96210864D01*
X145358462Y-96072462D01*
X145496864Y-95865330D01*
X145545464Y-95621000D01*
X145545464Y-95569094D01*
X145618362Y-95641992D01*
X145898429Y-95758000D01*
X146201571Y-95758000D01*
X146481638Y-95641992D01*
X146695992Y-95427638D01*
X146812000Y-95147571D01*
X146812000Y-94844429D01*
X146695992Y-94564362D01*
X146481638Y-94350008D01*
X146201571Y-94234000D01*
X145898429Y-94234000D01*
X145618362Y-94350008D01*
X145545464Y-94422906D01*
X145545464Y-94371000D01*
X145496864Y-94126670D01*
X145358462Y-93919538D01*
X145151330Y-93781136D01*
X144907000Y-93732536D01*
X144157000Y-93732536D01*
X143912670Y-93781136D01*
X143705538Y-93919538D01*
X143567136Y-94126670D01*
X143518536Y-94371000D01*
X142745464Y-94371000D01*
X142696864Y-94126670D01*
X142558462Y-93919538D01*
X142351330Y-93781136D01*
X142107000Y-93732536D01*
X141357000Y-93732536D01*
X141112670Y-93781136D01*
X140905538Y-93919538D01*
X140767136Y-94126670D01*
X140718536Y-94371000D01*
X140718536Y-94465000D01*
X140500630Y-94465000D01*
X140385638Y-94350008D01*
X140105571Y-94234000D01*
X139802429Y-94234000D01*
X139522362Y-94350008D01*
X139308008Y-94564362D01*
X139192000Y-94844429D01*
X135018856Y-94844429D01*
X134771571Y-94742000D01*
X134468429Y-94742000D01*
X134188362Y-94858008D01*
X133974008Y-95072362D01*
X133858000Y-95352429D01*
X133858000Y-95557453D01*
X131903064Y-93602517D01*
X131903064Y-93223064D01*
X132282517Y-93223064D01*
X132615948Y-93556495D01*
X132645571Y-93600829D01*
X132821214Y-93718190D01*
X132976106Y-93749000D01*
X133028400Y-93759402D01*
X133080694Y-93749000D01*
X134639710Y-93749000D01*
X134692000Y-93759401D01*
X134744290Y-93749000D01*
X134744294Y-93749000D01*
X134899186Y-93718190D01*
X135074829Y-93600829D01*
X135104452Y-93556495D01*
X135625710Y-93035237D01*
X135861473Y-93035237D01*
X135913763Y-93045638D01*
X135966053Y-93035237D01*
X135966057Y-93035237D01*
X136120949Y-93004427D01*
X136161131Y-92977578D01*
X136765450Y-93581898D01*
X136795071Y-93626229D01*
X136970714Y-93743590D01*
X137125606Y-93774400D01*
X137177900Y-93784802D01*
X137230194Y-93774400D01*
X137502370Y-93774400D01*
X137617362Y-93889392D01*
X137897429Y-94005400D01*
X138200571Y-94005400D01*
X138480638Y-93889392D01*
X138694992Y-93675038D01*
X138811000Y-93394971D01*
X138811000Y-93091829D01*
X138694992Y-92811762D01*
X138480638Y-92597408D01*
X138200571Y-92481400D01*
X137897429Y-92481400D01*
X137617362Y-92597408D01*
X137502370Y-92712400D01*
X137397848Y-92712400D01*
X137343888Y-92658441D01*
X137373293Y-92638793D01*
X137510340Y-92433688D01*
X137558464Y-92191750D01*
X137558464Y-91704250D01*
X137510340Y-91462312D01*
X137373293Y-91257207D01*
X137168188Y-91120160D01*
X136926250Y-91072036D01*
X136221912Y-91072036D01*
X136344984Y-90948964D01*
X136926250Y-90948964D01*
X137168188Y-90900840D01*
X137373293Y-90763793D01*
X137510340Y-90558688D01*
X137558464Y-90316750D01*
X137558464Y-89829250D01*
X137510340Y-89587312D01*
X137373293Y-89382207D01*
X137168188Y-89245160D01*
X136926250Y-89197036D01*
X136013750Y-89197036D01*
X135881631Y-89223316D01*
X135927947Y-89177000D01*
X138457553Y-89177000D01*
X138953093Y-89672540D01*
X138937536Y-89750750D01*
X138937536Y-90238250D01*
X138985660Y-90480188D01*
X139122707Y-90685293D01*
X139327812Y-90822340D01*
X139569750Y-90870464D01*
X140482250Y-90870464D01*
X140724188Y-90822340D01*
X140929293Y-90685293D01*
X141066340Y-90480188D01*
X141114464Y-90238250D01*
X141114464Y-89750750D01*
X141066340Y-89508812D01*
X140929293Y-89303707D01*
X140724188Y-89166660D01*
X140482250Y-89118536D01*
X139900984Y-89118536D01*
X139089952Y-88307505D01*
X139060329Y-88263171D01*
X138884686Y-88145810D01*
X138729794Y-88115000D01*
X138729790Y-88115000D01*
X138677500Y-88104599D01*
X138625210Y-88115000D01*
X135760289Y-88115000D01*
X135707999Y-88104599D01*
X135655709Y-88115000D01*
X135655706Y-88115000D01*
X135500814Y-88145810D01*
X135325171Y-88263171D01*
X135295548Y-88307505D01*
X134969000Y-88634053D01*
X134969000Y-87849947D01*
X136356518Y-86462429D01*
X136906000Y-86462429D01*
X136906000Y-86765571D01*
X137022008Y-87045638D01*
X137236362Y-87259992D01*
X137516429Y-87376000D01*
X137819571Y-87376000D01*
X138099638Y-87259992D01*
X138313992Y-87045638D01*
X138430000Y-86765571D01*
X138430000Y-86602947D01*
X140797378Y-84235570D01*
X140899538Y-84388462D01*
X141106670Y-84526864D01*
X141351000Y-84575464D01*
X142101000Y-84575464D01*
X142345330Y-84526864D01*
X142552462Y-84388462D01*
X142690864Y-84181330D01*
X142739464Y-83937000D01*
X142739464Y-82687000D01*
X143512536Y-82687000D01*
X143512536Y-83937000D01*
X143561136Y-84181330D01*
X143699538Y-84388462D01*
X143906670Y-84526864D01*
X144151000Y-84575464D01*
X144901000Y-84575464D01*
X145145330Y-84526864D01*
X145352462Y-84388462D01*
X145490864Y-84181330D01*
X145539464Y-83937000D01*
X145539464Y-83879094D01*
X145618362Y-83957992D01*
X145898429Y-84074000D01*
X146201571Y-84074000D01*
X146481638Y-83957992D01*
X146695992Y-83743638D01*
X146812000Y-83463571D01*
X146812000Y-83160429D01*
X146695992Y-82880362D01*
X146481638Y-82666008D01*
X146201571Y-82550000D01*
X145898429Y-82550000D01*
X145618362Y-82666008D01*
X145539464Y-82744906D01*
X145539464Y-82687000D01*
X145490864Y-82442670D01*
X145352462Y-82235538D01*
X145145330Y-82097136D01*
X144901000Y-82048536D01*
X144151000Y-82048536D01*
X143906670Y-82097136D01*
X143699538Y-82235538D01*
X143561136Y-82442670D01*
X143512536Y-82687000D01*
X142739464Y-82687000D01*
X142690864Y-82442670D01*
X142552462Y-82235538D01*
X142345330Y-82097136D01*
X142101000Y-82048536D01*
X141351000Y-82048536D01*
X141106670Y-82097136D01*
X140899538Y-82235538D01*
X140761136Y-82442670D01*
X140712536Y-82687000D01*
X140712536Y-82845405D01*
X140660219Y-82880362D01*
X140587171Y-82929171D01*
X140557550Y-82973502D01*
X137679053Y-85852000D01*
X137516429Y-85852000D01*
X137236362Y-85968008D01*
X137022008Y-86182362D01*
X136906000Y-86462429D01*
X136356518Y-86462429D01*
X136808498Y-86010450D01*
X136852829Y-85980829D01*
X136882907Y-85935815D01*
X136970190Y-85805186D01*
X136987694Y-85717186D01*
X137001000Y-85650294D01*
X137001000Y-85650290D01*
X137011401Y-85598000D01*
X137001000Y-85545710D01*
X137001000Y-85189095D01*
X137168188Y-85155840D01*
X137373293Y-85018793D01*
X137510340Y-84813688D01*
X137558464Y-84571750D01*
X137558464Y-84084250D01*
X137510340Y-83842312D01*
X137373293Y-83637207D01*
X137168188Y-83500160D01*
X136926250Y-83452036D01*
X136013750Y-83452036D01*
X135771812Y-83500160D01*
X135566707Y-83637207D01*
X135429660Y-83842312D01*
X135381536Y-84084250D01*
X135381536Y-84571750D01*
X135429660Y-84813688D01*
X135566707Y-85018793D01*
X135771812Y-85155840D01*
X135939001Y-85189096D01*
X135939001Y-85378051D01*
X134614325Y-86702728D01*
X134503992Y-86436362D01*
X134289638Y-86222008D01*
X134009571Y-86106000D01*
X133706429Y-86106000D01*
X133426362Y-86222008D01*
X133212008Y-86436362D01*
X133096000Y-86716429D01*
X133096000Y-87019571D01*
X133212008Y-87299638D01*
X133327000Y-87414630D01*
X133327001Y-89664400D01*
X132682524Y-89664400D01*
X132645000Y-89656936D01*
X131903064Y-89656936D01*
X131903064Y-88915000D01*
X131895600Y-88877476D01*
X131895600Y-85081347D01*
X133992948Y-82984000D01*
X135459937Y-82984000D01*
X135566707Y-83143793D01*
X135771812Y-83280840D01*
X136013750Y-83328964D01*
X136926250Y-83328964D01*
X137168188Y-83280840D01*
X137373293Y-83143793D01*
X137510340Y-82938688D01*
X137558464Y-82696750D01*
X137558464Y-82209250D01*
X137510340Y-81967312D01*
X137373293Y-81762207D01*
X137168188Y-81625160D01*
X137094356Y-81610474D01*
X137094792Y-81610038D01*
X137210800Y-81329971D01*
X137210800Y-81026829D01*
X137094792Y-80746762D01*
X136880438Y-80532408D01*
X136600371Y-80416400D01*
X136297229Y-80416400D01*
X136017162Y-80532408D01*
X135802808Y-80746762D01*
X135686800Y-81026829D01*
X135686800Y-81329971D01*
X135802808Y-81610038D01*
X135810279Y-81617509D01*
X135771812Y-81625160D01*
X135566707Y-81762207D01*
X135459937Y-81922000D01*
X133825294Y-81922000D01*
X133773000Y-81911598D01*
X133565814Y-81952810D01*
X133447756Y-82031694D01*
X133390171Y-82070171D01*
X133360550Y-82114502D01*
X131413000Y-84062053D01*
X131413000Y-83236947D01*
X141063795Y-73586152D01*
X141153538Y-73720462D01*
X141360670Y-73858864D01*
X141605000Y-73907464D01*
X142355000Y-73907464D01*
X142599330Y-73858864D01*
X142806462Y-73720462D01*
X142944864Y-73513330D01*
X142993464Y-73269000D01*
X142993464Y-72019000D01*
X143766536Y-72019000D01*
X143766536Y-73269000D01*
X143815136Y-73513330D01*
X143953538Y-73720462D01*
X144160670Y-73858864D01*
X144405000Y-73907464D01*
X145155000Y-73907464D01*
X145399330Y-73858864D01*
X145606462Y-73720462D01*
X145744864Y-73513330D01*
X145793464Y-73269000D01*
X145793464Y-73211094D01*
X145872362Y-73289992D01*
X146152429Y-73406000D01*
X146455571Y-73406000D01*
X146735638Y-73289992D01*
X146949992Y-73075638D01*
X147066000Y-72795571D01*
X147066000Y-72492429D01*
X146949992Y-72212362D01*
X146735638Y-71998008D01*
X146455571Y-71882000D01*
X146152429Y-71882000D01*
X145872362Y-71998008D01*
X145793464Y-72076906D01*
X145793464Y-72019000D01*
X145744864Y-71774670D01*
X145606462Y-71567538D01*
X145399330Y-71429136D01*
X145155000Y-71380536D01*
X144405000Y-71380536D01*
X144160670Y-71429136D01*
X143953538Y-71567538D01*
X143815136Y-71774670D01*
X143766536Y-72019000D01*
X142993464Y-72019000D01*
X142944864Y-71774670D01*
X142806462Y-71567538D01*
X142599330Y-71429136D01*
X142355000Y-71380536D01*
X141605000Y-71380536D01*
X141360670Y-71429136D01*
X141153538Y-71567538D01*
X141015136Y-71774670D01*
X140966536Y-72019000D01*
X140966536Y-72198118D01*
X140872171Y-72261171D01*
X140842548Y-72305505D01*
X130905000Y-82243053D01*
X130905000Y-69827947D01*
X134196498Y-66536450D01*
X134240829Y-66506829D01*
X134358190Y-66331186D01*
X134381805Y-66212464D01*
X134658000Y-66212464D01*
X134806659Y-66182894D01*
X134932686Y-66098686D01*
X135016894Y-65972659D01*
X135046464Y-65824000D01*
X135046464Y-64224000D01*
X135016894Y-64075341D01*
X134932686Y-63949314D01*
X134806659Y-63865106D01*
X134658000Y-63835536D01*
X133058000Y-63835536D01*
X132909341Y-63865106D01*
X132783314Y-63949314D01*
X132699106Y-64075341D01*
X132669536Y-64224000D01*
X132669536Y-64493000D01*
X127756063Y-64493000D01*
X127649293Y-64333207D01*
X127444188Y-64196160D01*
X127202250Y-64148036D01*
X126289750Y-64148036D01*
X126047812Y-64196160D01*
X125842707Y-64333207D01*
X125705660Y-64538312D01*
X125657536Y-64780250D01*
X125657536Y-65267750D01*
X125705660Y-65509688D01*
X125842707Y-65714793D01*
X126047812Y-65851840D01*
X126289750Y-65899964D01*
X127202250Y-65899964D01*
X127444188Y-65851840D01*
X127649293Y-65714793D01*
X127756063Y-65555000D01*
X132669536Y-65555000D01*
X132669536Y-65824000D01*
X132699106Y-65972659D01*
X132783314Y-66098686D01*
X132909341Y-66182894D01*
X133025127Y-66205925D01*
X130035505Y-69195548D01*
X129991171Y-69225171D01*
X129873810Y-69400815D01*
X129843000Y-69555707D01*
X129843000Y-69555710D01*
X129832599Y-69608000D01*
X129843000Y-69660290D01*
X129843001Y-85392445D01*
X129782186Y-85351810D01*
X129627294Y-85321000D01*
X129627290Y-85321000D01*
X129575000Y-85310599D01*
X129522710Y-85321000D01*
X129248595Y-85321000D01*
X129215340Y-85153812D01*
X129078293Y-84948707D01*
X128873188Y-84811660D01*
X128631250Y-84763536D01*
X128143750Y-84763536D01*
X127901812Y-84811660D01*
X127696707Y-84948707D01*
X127559660Y-85153812D01*
X127511536Y-85395750D01*
X127511536Y-86308250D01*
X127559660Y-86550188D01*
X127696707Y-86755293D01*
X127901812Y-86892340D01*
X128143750Y-86940464D01*
X128631250Y-86940464D01*
X128873188Y-86892340D01*
X129078293Y-86755293D01*
X129215340Y-86550188D01*
X129248595Y-86383000D01*
X129335000Y-86383000D01*
X129335000Y-87653722D01*
X129311186Y-87637810D01*
X129156294Y-87607000D01*
X129156290Y-87607000D01*
X129104000Y-87596599D01*
X129051710Y-87607000D01*
X127580948Y-87607000D01*
X126888171Y-86914224D01*
X126998188Y-86892340D01*
X127203293Y-86755293D01*
X127340340Y-86550188D01*
X127388464Y-86308250D01*
X127388464Y-85395750D01*
X127340340Y-85153812D01*
X127203293Y-84948707D01*
X126998188Y-84811660D01*
X126756250Y-84763536D01*
X126268750Y-84763536D01*
X126026812Y-84811660D01*
X125821707Y-84948707D01*
X125684660Y-85153812D01*
X125636536Y-85395750D01*
X125636536Y-85515020D01*
X125549810Y-85644815D01*
X125519000Y-85799707D01*
X125519001Y-86774705D01*
X125508599Y-86827000D01*
X125549810Y-87034185D01*
X125637549Y-87165496D01*
X125637551Y-87165498D01*
X125667172Y-87209829D01*
X125711503Y-87239450D01*
X126948550Y-88476498D01*
X126978171Y-88520829D01*
X127022502Y-88550450D01*
X127022503Y-88550451D01*
X127093067Y-88597600D01*
X127153814Y-88638190D01*
X127308706Y-88669000D01*
X127308710Y-88669000D01*
X127361000Y-88679401D01*
X127413290Y-88669000D01*
X128827000Y-88669000D01*
X128827000Y-88877473D01*
X128819536Y-88915000D01*
X128819536Y-89701536D01*
X128770000Y-89701536D01*
X128621341Y-89731106D01*
X128495314Y-89815314D01*
X128411106Y-89941341D01*
X128381536Y-90090000D01*
X128381536Y-90139536D01*
X127595000Y-90139536D01*
X127557476Y-90147000D01*
X124584294Y-90147000D01*
X124532000Y-90136598D01*
X124479706Y-90147000D01*
X122284630Y-90147000D01*
X122269000Y-90131370D01*
X122269000Y-87341947D01*
X126140498Y-83470450D01*
X126184829Y-83440829D01*
X126302190Y-83265186D01*
X126333000Y-83110294D01*
X126333000Y-83110293D01*
X126343402Y-83058000D01*
X126333000Y-83005706D01*
X126333000Y-77776290D01*
X126343401Y-77724000D01*
X126333000Y-77671710D01*
X126333000Y-77671706D01*
X126302190Y-77516814D01*
X126184829Y-77341171D01*
X126140498Y-77311550D01*
X124899652Y-76070705D01*
X124870029Y-76026371D01*
X124694386Y-75909010D01*
X124677702Y-75905691D01*
X124654664Y-75789870D01*
X124516262Y-75582738D01*
X124309130Y-75444336D01*
X124064800Y-75395736D01*
X122814800Y-75395736D01*
X122570470Y-75444336D01*
X122363338Y-75582738D01*
X122224936Y-75789870D01*
X122176336Y-76034200D01*
X122176336Y-76784200D01*
X122224936Y-77028530D01*
X122363338Y-77235662D01*
X122570470Y-77374064D01*
X122814800Y-77422664D01*
X124064800Y-77422664D01*
X124309130Y-77374064D01*
X124516262Y-77235662D01*
X124534868Y-77207816D01*
X125271001Y-77943949D01*
X125271000Y-82838052D01*
X121399503Y-86709550D01*
X121355172Y-86739171D01*
X121325551Y-86783502D01*
X121325549Y-86783504D01*
X121237810Y-86914815D01*
X121196599Y-87122000D01*
X121207001Y-87174295D01*
X121207000Y-90131370D01*
X121092008Y-90246362D01*
X121051864Y-90343277D01*
X120720433Y-90011846D01*
X120720431Y-90011843D01*
X120720430Y-90011842D01*
X120690809Y-89967511D01*
X120646477Y-89937889D01*
X117760889Y-87052302D01*
X117844536Y-86631780D01*
X117748996Y-86151468D01*
X117476921Y-85744279D01*
X117069732Y-85472204D01*
X116710659Y-85400780D01*
X116468181Y-85400780D01*
X116109108Y-85472204D01*
X115701919Y-85744279D01*
X115429844Y-86151468D01*
X115334304Y-86631780D01*
X115429844Y-87112092D01*
X115701919Y-87519281D01*
X116109108Y-87791356D01*
X116468181Y-87862780D01*
X116710659Y-87862780D01*
X117009942Y-87803249D01*
X119776981Y-90570289D01*
X119776980Y-96989370D01*
X119661988Y-97104362D01*
X119545980Y-97384429D01*
X119545980Y-97687571D01*
X119661988Y-97967638D01*
X119776981Y-98082631D01*
X119776980Y-103085370D01*
X119661988Y-103200362D01*
X119545980Y-103480429D01*
X119545980Y-103783571D01*
X119661988Y-104063638D01*
X119776981Y-104178631D01*
X119776980Y-105015689D01*
X119766579Y-105067980D01*
X119776980Y-105120270D01*
X119776980Y-105120273D01*
X119807790Y-105275165D01*
X119925151Y-105450809D01*
X119969485Y-105480432D01*
X121524211Y-107035159D01*
X121488362Y-107050008D01*
X121274008Y-107264362D01*
X121158000Y-107544429D01*
X121158000Y-107847571D01*
X121274008Y-108127638D01*
X121488362Y-108341992D01*
X121768429Y-108458000D01*
X122071571Y-108458000D01*
X122141219Y-108429151D01*
X122036008Y-108534362D01*
X121920000Y-108814429D01*
X121920000Y-109117571D01*
X122036008Y-109397638D01*
X122250362Y-109611992D01*
X122530429Y-109728000D01*
X122833571Y-109728000D01*
X123113638Y-109611992D01*
X123228630Y-109497000D01*
X132499500Y-109497000D01*
X132389136Y-109662170D01*
X132340536Y-109906500D01*
X132340536Y-110656500D01*
X132385885Y-110884485D01*
X131637370Y-111633000D01*
X126948043Y-111633000D01*
X126873000Y-111618073D01*
X126797957Y-111633000D01*
X123191152Y-111633000D01*
X122968883Y-111677212D01*
X122894166Y-111727136D01*
X122275600Y-111727136D01*
X122126941Y-111756706D01*
X122000914Y-111840914D01*
X121916706Y-111966941D01*
X121887136Y-112115600D01*
X121887136Y-112674400D01*
X121916706Y-112823059D01*
X122000914Y-112949086D01*
X122122011Y-113030000D01*
X122000914Y-113110914D01*
X121927428Y-113220895D01*
X121917688Y-113171928D01*
X121875788Y-112961283D01*
X121707371Y-112709229D01*
X121643750Y-112666719D01*
X120886283Y-111909253D01*
X120843771Y-111845629D01*
X120591717Y-111677212D01*
X120369448Y-111633000D01*
X120369443Y-111633000D01*
X120294400Y-111618073D01*
X120219357Y-111633000D01*
X119837879Y-111633000D01*
X119891294Y-111553059D01*
X119920864Y-111404400D01*
X119920864Y-110845600D01*
X119891294Y-110696941D01*
X119807086Y-110570914D01*
X119681059Y-110486706D01*
X119532400Y-110457136D01*
X117551200Y-110457136D01*
X117402541Y-110486706D01*
X117276514Y-110570914D01*
X117192306Y-110696941D01*
X117162736Y-110845600D01*
X117162736Y-111404400D01*
X117192306Y-111553059D01*
X117245721Y-111633000D01*
X116713000Y-111633000D01*
X116713000Y-110306655D01*
X118238539Y-108781117D01*
X118355180Y-108703180D01*
X118663944Y-108241082D01*
X118745000Y-107833588D01*
X118745000Y-107833584D01*
X118772367Y-107696000D01*
X118745000Y-107558416D01*
X118745000Y-94625583D01*
X118772367Y-94487999D01*
X118745000Y-94350413D01*
X118745000Y-94350412D01*
X118663944Y-93942918D01*
X118620280Y-93877571D01*
X118433117Y-93597462D01*
X118355179Y-93480820D01*
X118238538Y-93402883D01*
X117986420Y-93150765D01*
X117986420Y-91574192D01*
X117905364Y-91166698D01*
X117827884Y-91050741D01*
X117827884Y-90861780D01*
X117798314Y-90713121D01*
X117714106Y-90587094D01*
X117588079Y-90502886D01*
X117439420Y-90473316D01*
X117250458Y-90473316D01*
X117134501Y-90395836D01*
X116940036Y-90357154D01*
X117069732Y-90331356D01*
X117476921Y-90059281D01*
X117748996Y-89652092D01*
X117844536Y-89171780D01*
X117748996Y-88691468D01*
X117476921Y-88284279D01*
X117069732Y-88012204D01*
X116710659Y-87940780D01*
X116468181Y-87940780D01*
X116109108Y-88012204D01*
X115701919Y-88284279D01*
X115429844Y-88691468D01*
X115334304Y-89171780D01*
X115429844Y-89652092D01*
X115701919Y-90059281D01*
X116109108Y-90331356D01*
X116238804Y-90357154D01*
X116044338Y-90395836D01*
X115928381Y-90473316D01*
X115739420Y-90473316D01*
X115590761Y-90502886D01*
X115464734Y-90587094D01*
X115380526Y-90713121D01*
X115350956Y-90861780D01*
X115350956Y-91050742D01*
X115273476Y-91166699D01*
X115234794Y-91361164D01*
X115208996Y-91231468D01*
X114936921Y-90824279D01*
X114529732Y-90552204D01*
X114170659Y-90480780D01*
X113928181Y-90480780D01*
X113569108Y-90552204D01*
X113161919Y-90824279D01*
X113157000Y-90831641D01*
X113157000Y-90051919D01*
X113161919Y-90059281D01*
X113569108Y-90331356D01*
X113928181Y-90402780D01*
X114170659Y-90402780D01*
X114529732Y-90331356D01*
X114936921Y-90059281D01*
X115208996Y-89652092D01*
X115304536Y-89171780D01*
X115208996Y-88691468D01*
X114936921Y-88284279D01*
X114529732Y-88012204D01*
X114170659Y-87940780D01*
X113928181Y-87940780D01*
X113569108Y-88012204D01*
X113161919Y-88284279D01*
X113157000Y-88291641D01*
X113157000Y-87511919D01*
X113161919Y-87519281D01*
X113569108Y-87791356D01*
X113928181Y-87862780D01*
X114170659Y-87862780D01*
X114529732Y-87791356D01*
X114936921Y-87519281D01*
X115208996Y-87112092D01*
X115304536Y-86631780D01*
X115220889Y-86211258D01*
X116631567Y-84800580D01*
X120611370Y-84800580D01*
X120726362Y-84915572D01*
X121006429Y-85031580D01*
X121309571Y-85031580D01*
X121589638Y-84915572D01*
X121803992Y-84701218D01*
X121920000Y-84421151D01*
X121920000Y-84118009D01*
X121822565Y-83882782D01*
X123177283Y-82528064D01*
X124064800Y-82528064D01*
X124309130Y-82479464D01*
X124516262Y-82341062D01*
X124654664Y-82133930D01*
X124703264Y-81889600D01*
X124703264Y-81139600D01*
X124654664Y-80895270D01*
X124516262Y-80688138D01*
X124309130Y-80549736D01*
X124064800Y-80501136D01*
X122814800Y-80501136D01*
X122570470Y-80549736D01*
X122363338Y-80688138D01*
X122224936Y-80895270D01*
X122176336Y-81139600D01*
X122176336Y-81889600D01*
X122199151Y-82004302D01*
X120819505Y-83383948D01*
X120775171Y-83413571D01*
X120657810Y-83589215D01*
X120632253Y-83717697D01*
X120611370Y-83738580D01*
X116463909Y-83738580D01*
X116411619Y-83728179D01*
X116359329Y-83738580D01*
X116359326Y-83738580D01*
X116204434Y-83769390D01*
X116028791Y-83886751D01*
X115999168Y-83931085D01*
X114469942Y-85460311D01*
X114175694Y-85401782D01*
X114787559Y-84789917D01*
X114904200Y-84711980D01*
X115212964Y-84249882D01*
X115294020Y-83842388D01*
X115294020Y-83842384D01*
X115321387Y-83704800D01*
X115294020Y-83567216D01*
X115294020Y-82219800D01*
X117709988Y-82219800D01*
X118117482Y-82138744D01*
X118233439Y-82061264D01*
X118422400Y-82061264D01*
X118571059Y-82031694D01*
X118697086Y-81947486D01*
X118781294Y-81821459D01*
X118810864Y-81672800D01*
X118810864Y-81483839D01*
X118888344Y-81367882D01*
X118996768Y-80822800D01*
X118888344Y-80277718D01*
X118810864Y-80161761D01*
X118810864Y-79972800D01*
X118781294Y-79824141D01*
X118697086Y-79698114D01*
X118571059Y-79613906D01*
X118422400Y-79584336D01*
X118233439Y-79584336D01*
X118117482Y-79506856D01*
X117923016Y-79468174D01*
X118052712Y-79442376D01*
X118459901Y-79170301D01*
X118731976Y-78763112D01*
X118827516Y-78282800D01*
X118731976Y-77802488D01*
X118459901Y-77395299D01*
X118052712Y-77123224D01*
X117693639Y-77051800D01*
X117451161Y-77051800D01*
X117092088Y-77123224D01*
X116684899Y-77395299D01*
X116412824Y-77802488D01*
X116317284Y-78282800D01*
X116412824Y-78763112D01*
X116684899Y-79170301D01*
X117067280Y-79425800D01*
X114402140Y-79425800D01*
X114784521Y-79170301D01*
X115056596Y-78763112D01*
X115152136Y-78282800D01*
X115056596Y-77802488D01*
X114784521Y-77395299D01*
X114377332Y-77123224D01*
X114018259Y-77051800D01*
X113775781Y-77051800D01*
X113416708Y-77123224D01*
X113009519Y-77395299D01*
X112737444Y-77802488D01*
X112641904Y-78282800D01*
X112737444Y-78763112D01*
X113009519Y-79170301D01*
X113416708Y-79442376D01*
X113546404Y-79468174D01*
X113351938Y-79506856D01*
X113235981Y-79584336D01*
X113047020Y-79584336D01*
X112898361Y-79613906D01*
X112772334Y-79698114D01*
X112688126Y-79824141D01*
X112658556Y-79972800D01*
X112658556Y-80161761D01*
X112581076Y-80277718D01*
X112472652Y-80822800D01*
X112500020Y-80960388D01*
X112500021Y-83126143D01*
X110869462Y-84756703D01*
X110752820Y-84834641D01*
X110444056Y-85296739D01*
X110393700Y-85549894D01*
X110393700Y-50393700D01*
X207606300Y-50393700D01*
X207606301Y-134606300D01*
X207606301Y-134606300D01*
G37*
X207606301Y-134606300D02*
X110393700Y-134606300D01*
X110393700Y-113067923D01*
X110444056Y-113321081D01*
X110674883Y-113666538D01*
X110752821Y-113783180D01*
X110869462Y-113861117D01*
X111885461Y-114877117D01*
X112230918Y-115107944D01*
X112776000Y-115216367D01*
X113321081Y-115107944D01*
X113783180Y-114799180D01*
X114031862Y-114427000D01*
X117245721Y-114427000D01*
X117192306Y-114506941D01*
X117162736Y-114655600D01*
X117162736Y-115214400D01*
X117192306Y-115363059D01*
X117276514Y-115489086D01*
X117402541Y-115573294D01*
X117551200Y-115602864D01*
X119532400Y-115602864D01*
X119681059Y-115573294D01*
X119807086Y-115489086D01*
X119891294Y-115363059D01*
X119920864Y-115214400D01*
X119920864Y-114655600D01*
X119891294Y-114506941D01*
X119807086Y-114380914D01*
X119685989Y-114300000D01*
X119807086Y-114219086D01*
X119891294Y-114093059D01*
X119920864Y-113944400D01*
X119920864Y-113385600D01*
X119891294Y-113236941D01*
X119837879Y-113157000D01*
X119978770Y-113157000D01*
X120396000Y-113574231D01*
X120396001Y-115748952D01*
X120381073Y-115824000D01*
X120427230Y-116056048D01*
X120440213Y-116121317D01*
X120608630Y-116373371D01*
X120672251Y-116415881D01*
X122598118Y-118341749D01*
X122640629Y-118405371D01*
X122892683Y-118573788D01*
X123114952Y-118618000D01*
X123114957Y-118618000D01*
X123190000Y-118632927D01*
X123265043Y-118618000D01*
X124974536Y-118618000D01*
X124974536Y-118693500D01*
X125023136Y-118937830D01*
X125161538Y-119144962D01*
X125368670Y-119283364D01*
X125613000Y-119331964D01*
X126863000Y-119331964D01*
X127107330Y-119283364D01*
X127314462Y-119144962D01*
X127452864Y-118937830D01*
X127501464Y-118693500D01*
X127501464Y-117943500D01*
X127452864Y-117699170D01*
X127314462Y-117492038D01*
X127107330Y-117353636D01*
X126863000Y-117305036D01*
X126784987Y-117305036D01*
X126535317Y-117138212D01*
X126313048Y-117094000D01*
X123505631Y-117094000D01*
X121920000Y-115508370D01*
X121920000Y-115367989D01*
X122000914Y-115489086D01*
X122126941Y-115573294D01*
X122275600Y-115602864D01*
X124256800Y-115602864D01*
X124405459Y-115573294D01*
X124531486Y-115489086D01*
X124615694Y-115363059D01*
X124645264Y-115214400D01*
X124645264Y-114878394D01*
X124974536Y-115207667D01*
X124974536Y-115893500D01*
X125023136Y-116137830D01*
X125161538Y-116344962D01*
X125368670Y-116483364D01*
X125613000Y-116531964D01*
X125691013Y-116531964D01*
X125940683Y-116698788D01*
X126162952Y-116743000D01*
X126238000Y-116757928D01*
X126313048Y-116743000D01*
X135725370Y-116743000D01*
X138680536Y-119698167D01*
X138680536Y-120259000D01*
X138729136Y-120503330D01*
X138867538Y-120710462D01*
X139074670Y-120848864D01*
X139319000Y-120897464D01*
X140069000Y-120897464D01*
X140313330Y-120848864D01*
X140520462Y-120710462D01*
X140658864Y-120503330D01*
X140707464Y-120259000D01*
X140707464Y-119009000D01*
X140658864Y-118764670D01*
X140520462Y-118557538D01*
X140313330Y-118419136D01*
X140069000Y-118370536D01*
X139508167Y-118370536D01*
X136707630Y-115570000D01*
X142517787Y-115570000D01*
X142539136Y-115677330D01*
X142677538Y-115884462D01*
X142884670Y-116022864D01*
X143129000Y-116071464D01*
X143879000Y-116071464D01*
X144123330Y-116022864D01*
X144330462Y-115884462D01*
X144468864Y-115677330D01*
X144517464Y-115433000D01*
X144517464Y-114808000D01*
X144879632Y-114808000D01*
X144988056Y-115353082D01*
X145296820Y-115815180D01*
X145758918Y-116123944D01*
X146166412Y-116205000D01*
X147370800Y-116205000D01*
X147370800Y-121335800D01*
X147384225Y-121436048D01*
X147450568Y-121569082D01*
X147562771Y-121666601D01*
X150544069Y-123370200D01*
X148552430Y-123370200D01*
X148437438Y-123255208D01*
X148157371Y-123139200D01*
X147854229Y-123139200D01*
X147574162Y-123255208D01*
X147359808Y-123469562D01*
X147243800Y-123749629D01*
X147243800Y-124052771D01*
X147359808Y-124332838D01*
X147574162Y-124547192D01*
X147854229Y-124663200D01*
X148157371Y-124663200D01*
X148437438Y-124547192D01*
X148552430Y-124432200D01*
X165235244Y-124432200D01*
X165270314Y-124484686D01*
X165396341Y-124568894D01*
X165545000Y-124598464D01*
X166815000Y-124598464D01*
X166963659Y-124568894D01*
X167089686Y-124484686D01*
X167173894Y-124358659D01*
X167203464Y-124210000D01*
X167203464Y-123939830D01*
X167226106Y-124053659D01*
X167310314Y-124179686D01*
X167436341Y-124263894D01*
X167585000Y-124293464D01*
X169824400Y-124293464D01*
X169824400Y-125831600D01*
X169854476Y-125979970D01*
X169937968Y-126102969D01*
X170062173Y-126184654D01*
X170208183Y-126212590D01*
X201500983Y-125983990D01*
X201643799Y-125955082D01*
X201767452Y-125872563D01*
X201850114Y-125749006D01*
X201879200Y-125603220D01*
X201891680Y-104013000D01*
X203708000Y-104013000D01*
X203853802Y-103983998D01*
X203977408Y-103901408D01*
X204059998Y-103777802D01*
X204089000Y-103632000D01*
X204089000Y-99060000D01*
X204063738Y-98933000D01*
X204089000Y-98806000D01*
X204089000Y-93980000D01*
X204059998Y-93834198D01*
X203977408Y-93710592D01*
X203853802Y-93628002D01*
X203708000Y-93599000D01*
X189230000Y-93599000D01*
X189084198Y-93628002D01*
X188960592Y-93710592D01*
X188878002Y-93834198D01*
X188849000Y-93980000D01*
X188849000Y-98806000D01*
X188874506Y-98934229D01*
X188849016Y-99056505D01*
X188776279Y-106984800D01*
X186882147Y-106984800D01*
X187917497Y-105949451D01*
X187961828Y-105919830D01*
X188079189Y-105744187D01*
X188109999Y-105589295D01*
X188120401Y-105537001D01*
X188109999Y-105484707D01*
X188109999Y-94159289D01*
X188120400Y-94106999D01*
X188109999Y-94054709D01*
X188109999Y-94054705D01*
X188079189Y-93899813D01*
X188064327Y-93877571D01*
X187991450Y-93768502D01*
X187991449Y-93768501D01*
X187961828Y-93724170D01*
X187960000Y-93722949D01*
X187960000Y-93574429D01*
X187843992Y-93294362D01*
X187629638Y-93080008D01*
X187349571Y-92964000D01*
X187046429Y-92964000D01*
X186766362Y-93080008D01*
X186552008Y-93294362D01*
X186436000Y-93574429D01*
X186436000Y-93877571D01*
X186552008Y-94157638D01*
X186766362Y-94371992D01*
X187046429Y-94488000D01*
X187047999Y-94488000D01*
X187048000Y-105317052D01*
X186216053Y-106149000D01*
X185842186Y-106149000D01*
X185848198Y-106140002D01*
X185877200Y-105994200D01*
X185877200Y-80441800D01*
X185848198Y-80295998D01*
X185765608Y-80172392D01*
X185642002Y-80089802D01*
X185496200Y-80060800D01*
X169367200Y-80060800D01*
X169221398Y-80089802D01*
X169097792Y-80172392D01*
X169015202Y-80295998D01*
X168986200Y-80441800D01*
X168986200Y-80706536D01*
X167585000Y-80706536D01*
X167436341Y-80736106D01*
X167335200Y-80803686D01*
X167335200Y-79172256D01*
X188025602Y-79197006D01*
X196828657Y-88401339D01*
X196958198Y-88489998D01*
X197104000Y-88519000D01*
X203454000Y-88519000D01*
X203599802Y-88489998D01*
X203723408Y-88407408D01*
X203805998Y-88283802D01*
X203835000Y-88138000D01*
X203835000Y-81280000D01*
X203803856Y-81129130D01*
X203719489Y-81006730D01*
X181418289Y-59340530D01*
X181301101Y-59262847D01*
X181155508Y-59232810D01*
X170436708Y-59156610D01*
X170288198Y-59185602D01*
X170164592Y-59268192D01*
X170082002Y-59391798D01*
X170053000Y-59537600D01*
X170053000Y-60706536D01*
X167745000Y-60706536D01*
X167596341Y-60736106D01*
X167470314Y-60820314D01*
X167386106Y-60946341D01*
X167363464Y-61060170D01*
X167363464Y-60790000D01*
X167333894Y-60641341D01*
X167249686Y-60515314D01*
X167123659Y-60431106D01*
X166975000Y-60401536D01*
X166827200Y-60401536D01*
X166827200Y-59613800D01*
X166798198Y-59467998D01*
X166715608Y-59344392D01*
X166592002Y-59261802D01*
X166446200Y-59232800D01*
X153644600Y-59232800D01*
X153548017Y-59245245D01*
X153414329Y-59310261D01*
X147521529Y-63780661D01*
X147399802Y-63938398D01*
X147370800Y-64084200D01*
X147370800Y-113411000D01*
X146166412Y-113411000D01*
X145758918Y-113492056D01*
X145296820Y-113800820D01*
X144988056Y-114262918D01*
X144879632Y-114808000D01*
X144517464Y-114808000D01*
X144517464Y-114183000D01*
X144468864Y-113938670D01*
X144330462Y-113731538D01*
X144123330Y-113593136D01*
X143879000Y-113544536D01*
X143129000Y-113544536D01*
X142884670Y-113593136D01*
X142677538Y-113731538D01*
X142539136Y-113938670D01*
X142517787Y-114046000D01*
X129601631Y-114046000D01*
X128712631Y-113157000D01*
X131877957Y-113157000D01*
X131953000Y-113171927D01*
X132028043Y-113157000D01*
X132028048Y-113157000D01*
X132250317Y-113112788D01*
X132502371Y-112944371D01*
X132544883Y-112880747D01*
X134130667Y-111294964D01*
X134229000Y-111294964D01*
X134473330Y-111246364D01*
X134680462Y-111107962D01*
X134818864Y-110900830D01*
X134867464Y-110656500D01*
X134867464Y-109906500D01*
X134818864Y-109662170D01*
X134708500Y-109497000D01*
X134821710Y-109497000D01*
X134874000Y-109507401D01*
X134926290Y-109497000D01*
X134926294Y-109497000D01*
X135081186Y-109466190D01*
X135256829Y-109348829D01*
X135286452Y-109304495D01*
X138260498Y-106330450D01*
X138304829Y-106300829D01*
X138422190Y-106125186D01*
X138453000Y-105970294D01*
X138453000Y-105970293D01*
X138463402Y-105918000D01*
X138453000Y-105865706D01*
X138453000Y-102184172D01*
X138463401Y-102131882D01*
X138453000Y-102079592D01*
X138453000Y-102079588D01*
X138422190Y-101924696D01*
X138391370Y-101878571D01*
X138334451Y-101793385D01*
X138334450Y-101793384D01*
X138304829Y-101749053D01*
X138260498Y-101719432D01*
X130905000Y-94363935D01*
X130905000Y-94187433D01*
X130939914Y-94239686D01*
X131065941Y-94323894D01*
X131136602Y-94337949D01*
X140023003Y-103224350D01*
X139883538Y-103317538D01*
X139745136Y-103524670D01*
X139696536Y-103769000D01*
X139696536Y-105019000D01*
X139745136Y-105263330D01*
X139883538Y-105470462D01*
X140090670Y-105608864D01*
X140335000Y-105657464D01*
X141085000Y-105657464D01*
X141329330Y-105608864D01*
X141536462Y-105470462D01*
X141674864Y-105263330D01*
X141723464Y-105019000D01*
X141723464Y-103769000D01*
X142496536Y-103769000D01*
X142496536Y-105019000D01*
X142545136Y-105263330D01*
X142683538Y-105470462D01*
X142890670Y-105608864D01*
X143135000Y-105657464D01*
X143885000Y-105657464D01*
X144129330Y-105608864D01*
X144336462Y-105470462D01*
X144426205Y-105336153D01*
X144833200Y-105743148D01*
X144833201Y-111365769D01*
X144642008Y-111556962D01*
X144526000Y-111837029D01*
X144526000Y-112140171D01*
X144642008Y-112420238D01*
X144856362Y-112634592D01*
X145136429Y-112750600D01*
X145439571Y-112750600D01*
X145719638Y-112634592D01*
X145933992Y-112420238D01*
X146050000Y-112140171D01*
X146050000Y-111837029D01*
X145933992Y-111556962D01*
X145895200Y-111518170D01*
X145895200Y-105575490D01*
X145905601Y-105523200D01*
X145895200Y-105470910D01*
X145895200Y-105470906D01*
X145864390Y-105316014D01*
X145837096Y-105275165D01*
X145776651Y-105184703D01*
X145776650Y-105184702D01*
X145747029Y-105140371D01*
X145702698Y-105110750D01*
X144647452Y-104055505D01*
X144617829Y-104011171D01*
X144523464Y-103948118D01*
X144523464Y-103769000D01*
X144474864Y-103524670D01*
X144336462Y-103317538D01*
X144129330Y-103179136D01*
X143885000Y-103130536D01*
X143135000Y-103130536D01*
X142890670Y-103179136D01*
X142683538Y-103317538D01*
X142545136Y-103524670D01*
X142496536Y-103769000D01*
X141723464Y-103769000D01*
X141674864Y-103524670D01*
X141536462Y-103317538D01*
X141329330Y-103179136D01*
X141250782Y-103163512D01*
X141251401Y-103160399D01*
X141241000Y-103108109D01*
X141241000Y-103108106D01*
X141210190Y-102953214D01*
X141092829Y-102777571D01*
X141048495Y-102747948D01*
X134566547Y-96266000D01*
X134631052Y-96266000D01*
X134969550Y-96604498D01*
X134999171Y-96648829D01*
X135174814Y-96766190D01*
X135329706Y-96797000D01*
X135382000Y-96807402D01*
X135434294Y-96797000D01*
X135459937Y-96797000D01*
X135566707Y-96956793D01*
X135771812Y-97093840D01*
X136013750Y-97141964D01*
X136926250Y-97141964D01*
X137168188Y-97093840D01*
X137373293Y-96956793D01*
X137510340Y-96751688D01*
X137558464Y-96509750D01*
X137558464Y-96022250D01*
X137510340Y-95780312D01*
X137373293Y-95575207D01*
X137168188Y-95438160D01*
X136926250Y-95390036D01*
X136013750Y-95390036D01*
X135771812Y-95438160D01*
X135566707Y-95575207D01*
X135516818Y-95649871D01*
X135382000Y-95515052D01*
X135382000Y-95352429D01*
X135265992Y-95072362D01*
X135051638Y-94858008D01*
X135018856Y-94844429D01*
X139192000Y-94844429D01*
X139192000Y-95147571D01*
X139308008Y-95427638D01*
X139522362Y-95641992D01*
X139802429Y-95758000D01*
X140105571Y-95758000D01*
X140385638Y-95641992D01*
X140500630Y-95527000D01*
X140718536Y-95527000D01*
X140718536Y-95621000D01*
X140767136Y-95865330D01*
X140905538Y-96072462D01*
X141112670Y-96210864D01*
X141357000Y-96259464D01*
X142107000Y-96259464D01*
X142351330Y-96210864D01*
X142558462Y-96072462D01*
X142696864Y-95865330D01*
X142745464Y-95621000D01*
X142745464Y-94371000D01*
X143518536Y-94371000D01*
X143518536Y-95621000D01*
X143567136Y-95865330D01*
X143705538Y-96072462D01*
X143912670Y-96210864D01*
X144157000Y-96259464D01*
X144907000Y-96259464D01*
X145151330Y-96210864D01*
X145358462Y-96072462D01*
X145496864Y-95865330D01*
X145545464Y-95621000D01*
X145545464Y-95569094D01*
X145618362Y-95641992D01*
X145898429Y-95758000D01*
X146201571Y-95758000D01*
X146481638Y-95641992D01*
X146695992Y-95427638D01*
X146812000Y-95147571D01*
X146812000Y-94844429D01*
X146695992Y-94564362D01*
X146481638Y-94350008D01*
X146201571Y-94234000D01*
X145898429Y-94234000D01*
X145618362Y-94350008D01*
X145545464Y-94422906D01*
X145545464Y-94371000D01*
X145496864Y-94126670D01*
X145358462Y-93919538D01*
X145151330Y-93781136D01*
X144907000Y-93732536D01*
X144157000Y-93732536D01*
X143912670Y-93781136D01*
X143705538Y-93919538D01*
X143567136Y-94126670D01*
X143518536Y-94371000D01*
X142745464Y-94371000D01*
X142696864Y-94126670D01*
X142558462Y-93919538D01*
X142351330Y-93781136D01*
X142107000Y-93732536D01*
X141357000Y-93732536D01*
X141112670Y-93781136D01*
X140905538Y-93919538D01*
X140767136Y-94126670D01*
X140718536Y-94371000D01*
X140718536Y-94465000D01*
X140500630Y-94465000D01*
X140385638Y-94350008D01*
X140105571Y-94234000D01*
X139802429Y-94234000D01*
X139522362Y-94350008D01*
X139308008Y-94564362D01*
X139192000Y-94844429D01*
X135018856Y-94844429D01*
X134771571Y-94742000D01*
X134468429Y-94742000D01*
X134188362Y-94858008D01*
X133974008Y-95072362D01*
X133858000Y-95352429D01*
X133858000Y-95557453D01*
X131903064Y-93602517D01*
X131903064Y-93223064D01*
X132282517Y-93223064D01*
X132615948Y-93556495D01*
X132645571Y-93600829D01*
X132821214Y-93718190D01*
X132976106Y-93749000D01*
X133028400Y-93759402D01*
X133080694Y-93749000D01*
X134639710Y-93749000D01*
X134692000Y-93759401D01*
X134744290Y-93749000D01*
X134744294Y-93749000D01*
X134899186Y-93718190D01*
X135074829Y-93600829D01*
X135104452Y-93556495D01*
X135625710Y-93035237D01*
X135861473Y-93035237D01*
X135913763Y-93045638D01*
X135966053Y-93035237D01*
X135966057Y-93035237D01*
X136120949Y-93004427D01*
X136161131Y-92977578D01*
X136765450Y-93581898D01*
X136795071Y-93626229D01*
X136970714Y-93743590D01*
X137125606Y-93774400D01*
X137177900Y-93784802D01*
X137230194Y-93774400D01*
X137502370Y-93774400D01*
X137617362Y-93889392D01*
X137897429Y-94005400D01*
X138200571Y-94005400D01*
X138480638Y-93889392D01*
X138694992Y-93675038D01*
X138811000Y-93394971D01*
X138811000Y-93091829D01*
X138694992Y-92811762D01*
X138480638Y-92597408D01*
X138200571Y-92481400D01*
X137897429Y-92481400D01*
X137617362Y-92597408D01*
X137502370Y-92712400D01*
X137397848Y-92712400D01*
X137343888Y-92658441D01*
X137373293Y-92638793D01*
X137510340Y-92433688D01*
X137558464Y-92191750D01*
X137558464Y-91704250D01*
X137510340Y-91462312D01*
X137373293Y-91257207D01*
X137168188Y-91120160D01*
X136926250Y-91072036D01*
X136221912Y-91072036D01*
X136344984Y-90948964D01*
X136926250Y-90948964D01*
X137168188Y-90900840D01*
X137373293Y-90763793D01*
X137510340Y-90558688D01*
X137558464Y-90316750D01*
X137558464Y-89829250D01*
X137510340Y-89587312D01*
X137373293Y-89382207D01*
X137168188Y-89245160D01*
X136926250Y-89197036D01*
X136013750Y-89197036D01*
X135881631Y-89223316D01*
X135927947Y-89177000D01*
X138457553Y-89177000D01*
X138953093Y-89672540D01*
X138937536Y-89750750D01*
X138937536Y-90238250D01*
X138985660Y-90480188D01*
X139122707Y-90685293D01*
X139327812Y-90822340D01*
X139569750Y-90870464D01*
X140482250Y-90870464D01*
X140724188Y-90822340D01*
X140929293Y-90685293D01*
X141066340Y-90480188D01*
X141114464Y-90238250D01*
X141114464Y-89750750D01*
X141066340Y-89508812D01*
X140929293Y-89303707D01*
X140724188Y-89166660D01*
X140482250Y-89118536D01*
X139900984Y-89118536D01*
X139089952Y-88307505D01*
X139060329Y-88263171D01*
X138884686Y-88145810D01*
X138729794Y-88115000D01*
X138729790Y-88115000D01*
X138677500Y-88104599D01*
X138625210Y-88115000D01*
X135760289Y-88115000D01*
X135707999Y-88104599D01*
X135655709Y-88115000D01*
X135655706Y-88115000D01*
X135500814Y-88145810D01*
X135325171Y-88263171D01*
X135295548Y-88307505D01*
X134969000Y-88634053D01*
X134969000Y-87849947D01*
X136356518Y-86462429D01*
X136906000Y-86462429D01*
X136906000Y-86765571D01*
X137022008Y-87045638D01*
X137236362Y-87259992D01*
X137516429Y-87376000D01*
X137819571Y-87376000D01*
X138099638Y-87259992D01*
X138313992Y-87045638D01*
X138430000Y-86765571D01*
X138430000Y-86602947D01*
X140797378Y-84235570D01*
X140899538Y-84388462D01*
X141106670Y-84526864D01*
X141351000Y-84575464D01*
X142101000Y-84575464D01*
X142345330Y-84526864D01*
X142552462Y-84388462D01*
X142690864Y-84181330D01*
X142739464Y-83937000D01*
X142739464Y-82687000D01*
X143512536Y-82687000D01*
X143512536Y-83937000D01*
X143561136Y-84181330D01*
X143699538Y-84388462D01*
X143906670Y-84526864D01*
X144151000Y-84575464D01*
X144901000Y-84575464D01*
X145145330Y-84526864D01*
X145352462Y-84388462D01*
X145490864Y-84181330D01*
X145539464Y-83937000D01*
X145539464Y-83879094D01*
X145618362Y-83957992D01*
X145898429Y-84074000D01*
X146201571Y-84074000D01*
X146481638Y-83957992D01*
X146695992Y-83743638D01*
X146812000Y-83463571D01*
X146812000Y-83160429D01*
X146695992Y-82880362D01*
X146481638Y-82666008D01*
X146201571Y-82550000D01*
X145898429Y-82550000D01*
X145618362Y-82666008D01*
X145539464Y-82744906D01*
X145539464Y-82687000D01*
X145490864Y-82442670D01*
X145352462Y-82235538D01*
X145145330Y-82097136D01*
X144901000Y-82048536D01*
X144151000Y-82048536D01*
X143906670Y-82097136D01*
X143699538Y-82235538D01*
X143561136Y-82442670D01*
X143512536Y-82687000D01*
X142739464Y-82687000D01*
X142690864Y-82442670D01*
X142552462Y-82235538D01*
X142345330Y-82097136D01*
X142101000Y-82048536D01*
X141351000Y-82048536D01*
X141106670Y-82097136D01*
X140899538Y-82235538D01*
X140761136Y-82442670D01*
X140712536Y-82687000D01*
X140712536Y-82845405D01*
X140660219Y-82880362D01*
X140587171Y-82929171D01*
X140557550Y-82973502D01*
X137679053Y-85852000D01*
X137516429Y-85852000D01*
X137236362Y-85968008D01*
X137022008Y-86182362D01*
X136906000Y-86462429D01*
X136356518Y-86462429D01*
X136808498Y-86010450D01*
X136852829Y-85980829D01*
X136882907Y-85935815D01*
X136970190Y-85805186D01*
X136987694Y-85717186D01*
X137001000Y-85650294D01*
X137001000Y-85650290D01*
X137011401Y-85598000D01*
X137001000Y-85545710D01*
X137001000Y-85189095D01*
X137168188Y-85155840D01*
X137373293Y-85018793D01*
X137510340Y-84813688D01*
X137558464Y-84571750D01*
X137558464Y-84084250D01*
X137510340Y-83842312D01*
X137373293Y-83637207D01*
X137168188Y-83500160D01*
X136926250Y-83452036D01*
X136013750Y-83452036D01*
X135771812Y-83500160D01*
X135566707Y-83637207D01*
X135429660Y-83842312D01*
X135381536Y-84084250D01*
X135381536Y-84571750D01*
X135429660Y-84813688D01*
X135566707Y-85018793D01*
X135771812Y-85155840D01*
X135939001Y-85189096D01*
X135939001Y-85378051D01*
X134614325Y-86702728D01*
X134503992Y-86436362D01*
X134289638Y-86222008D01*
X134009571Y-86106000D01*
X133706429Y-86106000D01*
X133426362Y-86222008D01*
X133212008Y-86436362D01*
X133096000Y-86716429D01*
X133096000Y-87019571D01*
X133212008Y-87299638D01*
X133327000Y-87414630D01*
X133327001Y-89664400D01*
X132682524Y-89664400D01*
X132645000Y-89656936D01*
X131903064Y-89656936D01*
X131903064Y-88915000D01*
X131895600Y-88877476D01*
X131895600Y-85081347D01*
X133992948Y-82984000D01*
X135459937Y-82984000D01*
X135566707Y-83143793D01*
X135771812Y-83280840D01*
X136013750Y-83328964D01*
X136926250Y-83328964D01*
X137168188Y-83280840D01*
X137373293Y-83143793D01*
X137510340Y-82938688D01*
X137558464Y-82696750D01*
X137558464Y-82209250D01*
X137510340Y-81967312D01*
X137373293Y-81762207D01*
X137168188Y-81625160D01*
X137094356Y-81610474D01*
X137094792Y-81610038D01*
X137210800Y-81329971D01*
X137210800Y-81026829D01*
X137094792Y-80746762D01*
X136880438Y-80532408D01*
X136600371Y-80416400D01*
X136297229Y-80416400D01*
X136017162Y-80532408D01*
X135802808Y-80746762D01*
X135686800Y-81026829D01*
X135686800Y-81329971D01*
X135802808Y-81610038D01*
X135810279Y-81617509D01*
X135771812Y-81625160D01*
X135566707Y-81762207D01*
X135459937Y-81922000D01*
X133825294Y-81922000D01*
X133773000Y-81911598D01*
X133565814Y-81952810D01*
X133447756Y-82031694D01*
X133390171Y-82070171D01*
X133360550Y-82114502D01*
X131413000Y-84062053D01*
X131413000Y-83236947D01*
X141063795Y-73586152D01*
X141153538Y-73720462D01*
X141360670Y-73858864D01*
X141605000Y-73907464D01*
X142355000Y-73907464D01*
X142599330Y-73858864D01*
X142806462Y-73720462D01*
X142944864Y-73513330D01*
X142993464Y-73269000D01*
X142993464Y-72019000D01*
X143766536Y-72019000D01*
X143766536Y-73269000D01*
X143815136Y-73513330D01*
X143953538Y-73720462D01*
X144160670Y-73858864D01*
X144405000Y-73907464D01*
X145155000Y-73907464D01*
X145399330Y-73858864D01*
X145606462Y-73720462D01*
X145744864Y-73513330D01*
X145793464Y-73269000D01*
X145793464Y-73211094D01*
X145872362Y-73289992D01*
X146152429Y-73406000D01*
X146455571Y-73406000D01*
X146735638Y-73289992D01*
X146949992Y-73075638D01*
X147066000Y-72795571D01*
X147066000Y-72492429D01*
X146949992Y-72212362D01*
X146735638Y-71998008D01*
X146455571Y-71882000D01*
X146152429Y-71882000D01*
X145872362Y-71998008D01*
X145793464Y-72076906D01*
X145793464Y-72019000D01*
X145744864Y-71774670D01*
X145606462Y-71567538D01*
X145399330Y-71429136D01*
X145155000Y-71380536D01*
X144405000Y-71380536D01*
X144160670Y-71429136D01*
X143953538Y-71567538D01*
X143815136Y-71774670D01*
X143766536Y-72019000D01*
X142993464Y-72019000D01*
X142944864Y-71774670D01*
X142806462Y-71567538D01*
X142599330Y-71429136D01*
X142355000Y-71380536D01*
X141605000Y-71380536D01*
X141360670Y-71429136D01*
X141153538Y-71567538D01*
X141015136Y-71774670D01*
X140966536Y-72019000D01*
X140966536Y-72198118D01*
X140872171Y-72261171D01*
X140842548Y-72305505D01*
X130905000Y-82243053D01*
X130905000Y-69827947D01*
X134196498Y-66536450D01*
X134240829Y-66506829D01*
X134358190Y-66331186D01*
X134381805Y-66212464D01*
X134658000Y-66212464D01*
X134806659Y-66182894D01*
X134932686Y-66098686D01*
X135016894Y-65972659D01*
X135046464Y-65824000D01*
X135046464Y-64224000D01*
X135016894Y-64075341D01*
X134932686Y-63949314D01*
X134806659Y-63865106D01*
X134658000Y-63835536D01*
X133058000Y-63835536D01*
X132909341Y-63865106D01*
X132783314Y-63949314D01*
X132699106Y-64075341D01*
X132669536Y-64224000D01*
X132669536Y-64493000D01*
X127756063Y-64493000D01*
X127649293Y-64333207D01*
X127444188Y-64196160D01*
X127202250Y-64148036D01*
X126289750Y-64148036D01*
X126047812Y-64196160D01*
X125842707Y-64333207D01*
X125705660Y-64538312D01*
X125657536Y-64780250D01*
X125657536Y-65267750D01*
X125705660Y-65509688D01*
X125842707Y-65714793D01*
X126047812Y-65851840D01*
X126289750Y-65899964D01*
X127202250Y-65899964D01*
X127444188Y-65851840D01*
X127649293Y-65714793D01*
X127756063Y-65555000D01*
X132669536Y-65555000D01*
X132669536Y-65824000D01*
X132699106Y-65972659D01*
X132783314Y-66098686D01*
X132909341Y-66182894D01*
X133025127Y-66205925D01*
X130035505Y-69195548D01*
X129991171Y-69225171D01*
X129873810Y-69400815D01*
X129843000Y-69555707D01*
X129843000Y-69555710D01*
X129832599Y-69608000D01*
X129843000Y-69660290D01*
X129843001Y-85392445D01*
X129782186Y-85351810D01*
X129627294Y-85321000D01*
X129627290Y-85321000D01*
X129575000Y-85310599D01*
X129522710Y-85321000D01*
X129248595Y-85321000D01*
X129215340Y-85153812D01*
X129078293Y-84948707D01*
X128873188Y-84811660D01*
X128631250Y-84763536D01*
X128143750Y-84763536D01*
X127901812Y-84811660D01*
X127696707Y-84948707D01*
X127559660Y-85153812D01*
X127511536Y-85395750D01*
X127511536Y-86308250D01*
X127559660Y-86550188D01*
X127696707Y-86755293D01*
X127901812Y-86892340D01*
X128143750Y-86940464D01*
X128631250Y-86940464D01*
X128873188Y-86892340D01*
X129078293Y-86755293D01*
X129215340Y-86550188D01*
X129248595Y-86383000D01*
X129335000Y-86383000D01*
X129335000Y-87653722D01*
X129311186Y-87637810D01*
X129156294Y-87607000D01*
X129156290Y-87607000D01*
X129104000Y-87596599D01*
X129051710Y-87607000D01*
X127580948Y-87607000D01*
X126888171Y-86914224D01*
X126998188Y-86892340D01*
X127203293Y-86755293D01*
X127340340Y-86550188D01*
X127388464Y-86308250D01*
X127388464Y-85395750D01*
X127340340Y-85153812D01*
X127203293Y-84948707D01*
X126998188Y-84811660D01*
X126756250Y-84763536D01*
X126268750Y-84763536D01*
X126026812Y-84811660D01*
X125821707Y-84948707D01*
X125684660Y-85153812D01*
X125636536Y-85395750D01*
X125636536Y-85515020D01*
X125549810Y-85644815D01*
X125519000Y-85799707D01*
X125519001Y-86774705D01*
X125508599Y-86827000D01*
X125549810Y-87034185D01*
X125637549Y-87165496D01*
X125637551Y-87165498D01*
X125667172Y-87209829D01*
X125711503Y-87239450D01*
X126948550Y-88476498D01*
X126978171Y-88520829D01*
X127022502Y-88550450D01*
X127022503Y-88550451D01*
X127093067Y-88597600D01*
X127153814Y-88638190D01*
X127308706Y-88669000D01*
X127308710Y-88669000D01*
X127361000Y-88679401D01*
X127413290Y-88669000D01*
X128827000Y-88669000D01*
X128827000Y-88877473D01*
X128819536Y-88915000D01*
X128819536Y-89701536D01*
X128770000Y-89701536D01*
X128621341Y-89731106D01*
X128495314Y-89815314D01*
X128411106Y-89941341D01*
X128381536Y-90090000D01*
X128381536Y-90139536D01*
X127595000Y-90139536D01*
X127557476Y-90147000D01*
X124584294Y-90147000D01*
X124532000Y-90136598D01*
X124479706Y-90147000D01*
X122284630Y-90147000D01*
X122269000Y-90131370D01*
X122269000Y-87341947D01*
X126140498Y-83470450D01*
X126184829Y-83440829D01*
X126302190Y-83265186D01*
X126333000Y-83110294D01*
X126333000Y-83110293D01*
X126343402Y-83058000D01*
X126333000Y-83005706D01*
X126333000Y-77776290D01*
X126343401Y-77724000D01*
X126333000Y-77671710D01*
X126333000Y-77671706D01*
X126302190Y-77516814D01*
X126184829Y-77341171D01*
X126140498Y-77311550D01*
X124899652Y-76070705D01*
X124870029Y-76026371D01*
X124694386Y-75909010D01*
X124677702Y-75905691D01*
X124654664Y-75789870D01*
X124516262Y-75582738D01*
X124309130Y-75444336D01*
X124064800Y-75395736D01*
X122814800Y-75395736D01*
X122570470Y-75444336D01*
X122363338Y-75582738D01*
X122224936Y-75789870D01*
X122176336Y-76034200D01*
X122176336Y-76784200D01*
X122224936Y-77028530D01*
X122363338Y-77235662D01*
X122570470Y-77374064D01*
X122814800Y-77422664D01*
X124064800Y-77422664D01*
X124309130Y-77374064D01*
X124516262Y-77235662D01*
X124534868Y-77207816D01*
X125271001Y-77943949D01*
X125271000Y-82838052D01*
X121399503Y-86709550D01*
X121355172Y-86739171D01*
X121325551Y-86783502D01*
X121325549Y-86783504D01*
X121237810Y-86914815D01*
X121196599Y-87122000D01*
X121207001Y-87174295D01*
X121207000Y-90131370D01*
X121092008Y-90246362D01*
X121051864Y-90343277D01*
X120720433Y-90011846D01*
X120720431Y-90011843D01*
X120720430Y-90011842D01*
X120690809Y-89967511D01*
X120646477Y-89937889D01*
X117760889Y-87052302D01*
X117844536Y-86631780D01*
X117748996Y-86151468D01*
X117476921Y-85744279D01*
X117069732Y-85472204D01*
X116710659Y-85400780D01*
X116468181Y-85400780D01*
X116109108Y-85472204D01*
X115701919Y-85744279D01*
X115429844Y-86151468D01*
X115334304Y-86631780D01*
X115429844Y-87112092D01*
X115701919Y-87519281D01*
X116109108Y-87791356D01*
X116468181Y-87862780D01*
X116710659Y-87862780D01*
X117009942Y-87803249D01*
X119776981Y-90570289D01*
X119776980Y-96989370D01*
X119661988Y-97104362D01*
X119545980Y-97384429D01*
X119545980Y-97687571D01*
X119661988Y-97967638D01*
X119776981Y-98082631D01*
X119776980Y-103085370D01*
X119661988Y-103200362D01*
X119545980Y-103480429D01*
X119545980Y-103783571D01*
X119661988Y-104063638D01*
X119776981Y-104178631D01*
X119776980Y-105015689D01*
X119766579Y-105067980D01*
X119776980Y-105120270D01*
X119776980Y-105120273D01*
X119807790Y-105275165D01*
X119925151Y-105450809D01*
X119969485Y-105480432D01*
X121524211Y-107035159D01*
X121488362Y-107050008D01*
X121274008Y-107264362D01*
X121158000Y-107544429D01*
X121158000Y-107847571D01*
X121274008Y-108127638D01*
X121488362Y-108341992D01*
X121768429Y-108458000D01*
X122071571Y-108458000D01*
X122141219Y-108429151D01*
X122036008Y-108534362D01*
X121920000Y-108814429D01*
X121920000Y-109117571D01*
X122036008Y-109397638D01*
X122250362Y-109611992D01*
X122530429Y-109728000D01*
X122833571Y-109728000D01*
X123113638Y-109611992D01*
X123228630Y-109497000D01*
X132499500Y-109497000D01*
X132389136Y-109662170D01*
X132340536Y-109906500D01*
X132340536Y-110656500D01*
X132385885Y-110884485D01*
X131637370Y-111633000D01*
X126948043Y-111633000D01*
X126873000Y-111618073D01*
X126797957Y-111633000D01*
X123191152Y-111633000D01*
X122968883Y-111677212D01*
X122894166Y-111727136D01*
X122275600Y-111727136D01*
X122126941Y-111756706D01*
X122000914Y-111840914D01*
X121916706Y-111966941D01*
X121887136Y-112115600D01*
X121887136Y-112674400D01*
X121916706Y-112823059D01*
X122000914Y-112949086D01*
X122122011Y-113030000D01*
X122000914Y-113110914D01*
X121927428Y-113220895D01*
X121917688Y-113171928D01*
X121875788Y-112961283D01*
X121707371Y-112709229D01*
X121643750Y-112666719D01*
X120886283Y-111909253D01*
X120843771Y-111845629D01*
X120591717Y-111677212D01*
X120369448Y-111633000D01*
X120369443Y-111633000D01*
X120294400Y-111618073D01*
X120219357Y-111633000D01*
X119837879Y-111633000D01*
X119891294Y-111553059D01*
X119920864Y-111404400D01*
X119920864Y-110845600D01*
X119891294Y-110696941D01*
X119807086Y-110570914D01*
X119681059Y-110486706D01*
X119532400Y-110457136D01*
X117551200Y-110457136D01*
X117402541Y-110486706D01*
X117276514Y-110570914D01*
X117192306Y-110696941D01*
X117162736Y-110845600D01*
X117162736Y-111404400D01*
X117192306Y-111553059D01*
X117245721Y-111633000D01*
X116713000Y-111633000D01*
X116713000Y-110306655D01*
X118238539Y-108781117D01*
X118355180Y-108703180D01*
X118663944Y-108241082D01*
X118745000Y-107833588D01*
X118745000Y-107833584D01*
X118772367Y-107696000D01*
X118745000Y-107558416D01*
X118745000Y-94625583D01*
X118772367Y-94487999D01*
X118745000Y-94350413D01*
X118745000Y-94350412D01*
X118663944Y-93942918D01*
X118620280Y-93877571D01*
X118433117Y-93597462D01*
X118355179Y-93480820D01*
X118238538Y-93402883D01*
X117986420Y-93150765D01*
X117986420Y-91574192D01*
X117905364Y-91166698D01*
X117827884Y-91050741D01*
X117827884Y-90861780D01*
X117798314Y-90713121D01*
X117714106Y-90587094D01*
X117588079Y-90502886D01*
X117439420Y-90473316D01*
X117250458Y-90473316D01*
X117134501Y-90395836D01*
X116940036Y-90357154D01*
X117069732Y-90331356D01*
X117476921Y-90059281D01*
X117748996Y-89652092D01*
X117844536Y-89171780D01*
X117748996Y-88691468D01*
X117476921Y-88284279D01*
X117069732Y-88012204D01*
X116710659Y-87940780D01*
X116468181Y-87940780D01*
X116109108Y-88012204D01*
X115701919Y-88284279D01*
X115429844Y-88691468D01*
X115334304Y-89171780D01*
X115429844Y-89652092D01*
X115701919Y-90059281D01*
X116109108Y-90331356D01*
X116238804Y-90357154D01*
X116044338Y-90395836D01*
X115928381Y-90473316D01*
X115739420Y-90473316D01*
X115590761Y-90502886D01*
X115464734Y-90587094D01*
X115380526Y-90713121D01*
X115350956Y-90861780D01*
X115350956Y-91050742D01*
X115273476Y-91166699D01*
X115234794Y-91361164D01*
X115208996Y-91231468D01*
X114936921Y-90824279D01*
X114529732Y-90552204D01*
X114170659Y-90480780D01*
X113928181Y-90480780D01*
X113569108Y-90552204D01*
X113161919Y-90824279D01*
X113157000Y-90831641D01*
X113157000Y-90051919D01*
X113161919Y-90059281D01*
X113569108Y-90331356D01*
X113928181Y-90402780D01*
X114170659Y-90402780D01*
X114529732Y-90331356D01*
X114936921Y-90059281D01*
X115208996Y-89652092D01*
X115304536Y-89171780D01*
X115208996Y-88691468D01*
X114936921Y-88284279D01*
X114529732Y-88012204D01*
X114170659Y-87940780D01*
X113928181Y-87940780D01*
X113569108Y-88012204D01*
X113161919Y-88284279D01*
X113157000Y-88291641D01*
X113157000Y-87511919D01*
X113161919Y-87519281D01*
X113569108Y-87791356D01*
X113928181Y-87862780D01*
X114170659Y-87862780D01*
X114529732Y-87791356D01*
X114936921Y-87519281D01*
X115208996Y-87112092D01*
X115304536Y-86631780D01*
X115220889Y-86211258D01*
X116631567Y-84800580D01*
X120611370Y-84800580D01*
X120726362Y-84915572D01*
X121006429Y-85031580D01*
X121309571Y-85031580D01*
X121589638Y-84915572D01*
X121803992Y-84701218D01*
X121920000Y-84421151D01*
X121920000Y-84118009D01*
X121822565Y-83882782D01*
X123177283Y-82528064D01*
X124064800Y-82528064D01*
X124309130Y-82479464D01*
X124516262Y-82341062D01*
X124654664Y-82133930D01*
X124703264Y-81889600D01*
X124703264Y-81139600D01*
X124654664Y-80895270D01*
X124516262Y-80688138D01*
X124309130Y-80549736D01*
X124064800Y-80501136D01*
X122814800Y-80501136D01*
X122570470Y-80549736D01*
X122363338Y-80688138D01*
X122224936Y-80895270D01*
X122176336Y-81139600D01*
X122176336Y-81889600D01*
X122199151Y-82004302D01*
X120819505Y-83383948D01*
X120775171Y-83413571D01*
X120657810Y-83589215D01*
X120632253Y-83717697D01*
X120611370Y-83738580D01*
X116463909Y-83738580D01*
X116411619Y-83728179D01*
X116359329Y-83738580D01*
X116359326Y-83738580D01*
X116204434Y-83769390D01*
X116028791Y-83886751D01*
X115999168Y-83931085D01*
X114469942Y-85460311D01*
X114175694Y-85401782D01*
X114787559Y-84789917D01*
X114904200Y-84711980D01*
X115212964Y-84249882D01*
X115294020Y-83842388D01*
X115294020Y-83842384D01*
X115321387Y-83704800D01*
X115294020Y-83567216D01*
X115294020Y-82219800D01*
X117709988Y-82219800D01*
X118117482Y-82138744D01*
X118233439Y-82061264D01*
X118422400Y-82061264D01*
X118571059Y-82031694D01*
X118697086Y-81947486D01*
X118781294Y-81821459D01*
X118810864Y-81672800D01*
X118810864Y-81483839D01*
X118888344Y-81367882D01*
X118996768Y-80822800D01*
X118888344Y-80277718D01*
X118810864Y-80161761D01*
X118810864Y-79972800D01*
X118781294Y-79824141D01*
X118697086Y-79698114D01*
X118571059Y-79613906D01*
X118422400Y-79584336D01*
X118233439Y-79584336D01*
X118117482Y-79506856D01*
X117923016Y-79468174D01*
X118052712Y-79442376D01*
X118459901Y-79170301D01*
X118731976Y-78763112D01*
X118827516Y-78282800D01*
X118731976Y-77802488D01*
X118459901Y-77395299D01*
X118052712Y-77123224D01*
X117693639Y-77051800D01*
X117451161Y-77051800D01*
X117092088Y-77123224D01*
X116684899Y-77395299D01*
X116412824Y-77802488D01*
X116317284Y-78282800D01*
X116412824Y-78763112D01*
X116684899Y-79170301D01*
X117067280Y-79425800D01*
X114402140Y-79425800D01*
X114784521Y-79170301D01*
X115056596Y-78763112D01*
X115152136Y-78282800D01*
X115056596Y-77802488D01*
X114784521Y-77395299D01*
X114377332Y-77123224D01*
X114018259Y-77051800D01*
X113775781Y-77051800D01*
X113416708Y-77123224D01*
X113009519Y-77395299D01*
X112737444Y-77802488D01*
X112641904Y-78282800D01*
X112737444Y-78763112D01*
X113009519Y-79170301D01*
X113416708Y-79442376D01*
X113546404Y-79468174D01*
X113351938Y-79506856D01*
X113235981Y-79584336D01*
X113047020Y-79584336D01*
X112898361Y-79613906D01*
X112772334Y-79698114D01*
X112688126Y-79824141D01*
X112658556Y-79972800D01*
X112658556Y-80161761D01*
X112581076Y-80277718D01*
X112472652Y-80822800D01*
X112500020Y-80960388D01*
X112500021Y-83126143D01*
X110869462Y-84756703D01*
X110752820Y-84834641D01*
X110444056Y-85296739D01*
X110393700Y-85549894D01*
X110393700Y-50393700D01*
X207606300Y-50393700D01*
X207606301Y-134606300D01*
G36*
X122229790Y-93023098D02*
X122259411Y-93067429D01*
X122303742Y-93097050D01*
X122303743Y-93097051D01*
X122341757Y-93122451D01*
X122435054Y-93184790D01*
X122589946Y-93215600D01*
X122589949Y-93215600D01*
X122642239Y-93226001D01*
X122694529Y-93215600D01*
X127557476Y-93215600D01*
X127595000Y-93223064D01*
X128545000Y-93223064D01*
X128693659Y-93193494D01*
X128728506Y-93170210D01*
X128770000Y-93178464D01*
X128819536Y-93178464D01*
X128819536Y-93965000D01*
X128827000Y-94002524D01*
X128827001Y-102984451D01*
X128185560Y-103625893D01*
X128107350Y-103610336D01*
X127619850Y-103610336D01*
X127377912Y-103658460D01*
X127172807Y-103795507D01*
X127035760Y-104000612D01*
X126987636Y-104242550D01*
X126987636Y-105155050D01*
X127035760Y-105396988D01*
X127172807Y-105602093D01*
X127377912Y-105739140D01*
X127619850Y-105787264D01*
X128107350Y-105787264D01*
X128349288Y-105739140D01*
X128554393Y-105602093D01*
X128691440Y-105396988D01*
X128739564Y-105155050D01*
X128739564Y-104573783D01*
X129616200Y-103697148D01*
X130803950Y-104884898D01*
X130833571Y-104929229D01*
X130877902Y-104958850D01*
X130877903Y-104958851D01*
X130967923Y-105019000D01*
X131009214Y-105046590D01*
X131162136Y-105077008D01*
X131162136Y-105171400D01*
X131210736Y-105415730D01*
X131349138Y-105622862D01*
X131556270Y-105761264D01*
X131800600Y-105809864D01*
X132550600Y-105809864D01*
X132794930Y-105761264D01*
X133002062Y-105622862D01*
X133140464Y-105415730D01*
X133189064Y-105171400D01*
X133189064Y-103921400D01*
X133140464Y-103677070D01*
X133012455Y-103485492D01*
X133096947Y-103401000D01*
X134252310Y-103401000D01*
X134149138Y-103469938D01*
X134010736Y-103677070D01*
X133962136Y-103921400D01*
X133962136Y-105171400D01*
X134010736Y-105415730D01*
X134138745Y-105607308D01*
X133089053Y-106657000D01*
X122647948Y-106657000D01*
X120838980Y-104848033D01*
X120838980Y-104178630D01*
X120953972Y-104063638D01*
X121069980Y-103783571D01*
X121069980Y-103480429D01*
X120953972Y-103200362D01*
X120838980Y-103085370D01*
X120838980Y-98082630D01*
X120953972Y-97967638D01*
X121069980Y-97687571D01*
X121069980Y-97384429D01*
X120953972Y-97104362D01*
X120838980Y-96989370D01*
X120838980Y-91632287D01*
X122229790Y-93023098D01*
X122229790Y-93023098D01*
G37*
X122229790Y-93023098D02*
X122259411Y-93067429D01*
X122303742Y-93097050D01*
X122303743Y-93097051D01*
X122341757Y-93122451D01*
X122435054Y-93184790D01*
X122589946Y-93215600D01*
X122589949Y-93215600D01*
X122642239Y-93226001D01*
X122694529Y-93215600D01*
X127557476Y-93215600D01*
X127595000Y-93223064D01*
X128545000Y-93223064D01*
X128693659Y-93193494D01*
X128728506Y-93170210D01*
X128770000Y-93178464D01*
X128819536Y-93178464D01*
X128819536Y-93965000D01*
X128827000Y-94002524D01*
X128827001Y-102984451D01*
X128185560Y-103625893D01*
X128107350Y-103610336D01*
X127619850Y-103610336D01*
X127377912Y-103658460D01*
X127172807Y-103795507D01*
X127035760Y-104000612D01*
X126987636Y-104242550D01*
X126987636Y-105155050D01*
X127035760Y-105396988D01*
X127172807Y-105602093D01*
X127377912Y-105739140D01*
X127619850Y-105787264D01*
X128107350Y-105787264D01*
X128349288Y-105739140D01*
X128554393Y-105602093D01*
X128691440Y-105396988D01*
X128739564Y-105155050D01*
X128739564Y-104573783D01*
X129616200Y-103697148D01*
X130803950Y-104884898D01*
X130833571Y-104929229D01*
X130877902Y-104958850D01*
X130877903Y-104958851D01*
X130967923Y-105019000D01*
X131009214Y-105046590D01*
X131162136Y-105077008D01*
X131162136Y-105171400D01*
X131210736Y-105415730D01*
X131349138Y-105622862D01*
X131556270Y-105761264D01*
X131800600Y-105809864D01*
X132550600Y-105809864D01*
X132794930Y-105761264D01*
X133002062Y-105622862D01*
X133140464Y-105415730D01*
X133189064Y-105171400D01*
X133189064Y-103921400D01*
X133140464Y-103677070D01*
X133012455Y-103485492D01*
X133096947Y-103401000D01*
X134252310Y-103401000D01*
X134149138Y-103469938D01*
X134010736Y-103677070D01*
X133962136Y-103921400D01*
X133962136Y-105171400D01*
X134010736Y-105415730D01*
X134138745Y-105607308D01*
X133089053Y-106657000D01*
X122647948Y-106657000D01*
X120838980Y-104848033D01*
X120838980Y-104178630D01*
X120953972Y-104063638D01*
X121069980Y-103783571D01*
X121069980Y-103480429D01*
X120953972Y-103200362D01*
X120838980Y-103085370D01*
X120838980Y-98082630D01*
X120953972Y-97967638D01*
X121069980Y-97687571D01*
X121069980Y-97384429D01*
X120953972Y-97104362D01*
X120838980Y-96989370D01*
X120838980Y-91632287D01*
X122229790Y-93023098D01*
G36*
X137391001Y-102351831D02*
X137391000Y-105698052D01*
X137189694Y-105899358D01*
X137183000Y-105865706D01*
X137183000Y-103176289D01*
X137193401Y-103123999D01*
X137183000Y-103071707D01*
X137183000Y-103071706D01*
X137152190Y-102916814D01*
X137034829Y-102741171D01*
X136990493Y-102711547D01*
X136810453Y-102531506D01*
X136780829Y-102487171D01*
X136605186Y-102369810D01*
X136450294Y-102339000D01*
X136450290Y-102339000D01*
X136398000Y-102328599D01*
X136345710Y-102339000D01*
X132929289Y-102339000D01*
X132876999Y-102328599D01*
X132824709Y-102339000D01*
X132824706Y-102339000D01*
X132669814Y-102369810D01*
X132494171Y-102487171D01*
X132464548Y-102531505D01*
X131837103Y-103158950D01*
X131792772Y-103188571D01*
X131763151Y-103232902D01*
X131763149Y-103232904D01*
X131718854Y-103299196D01*
X131556270Y-103331536D01*
X131349138Y-103469938D01*
X131210736Y-103677070D01*
X131192035Y-103771087D01*
X130397000Y-102976053D01*
X130397000Y-95357829D01*
X137391001Y-102351831D01*
X137391001Y-102351831D01*
G37*
X137391001Y-102351831D02*
X137391000Y-105698052D01*
X137189694Y-105899358D01*
X137183000Y-105865706D01*
X137183000Y-103176289D01*
X137193401Y-103123999D01*
X137183000Y-103071707D01*
X137183000Y-103071706D01*
X137152190Y-102916814D01*
X137034829Y-102741171D01*
X136990493Y-102711547D01*
X136810453Y-102531506D01*
X136780829Y-102487171D01*
X136605186Y-102369810D01*
X136450294Y-102339000D01*
X136450290Y-102339000D01*
X136398000Y-102328599D01*
X136345710Y-102339000D01*
X132929289Y-102339000D01*
X132876999Y-102328599D01*
X132824709Y-102339000D01*
X132824706Y-102339000D01*
X132669814Y-102369810D01*
X132494171Y-102487171D01*
X132464548Y-102531505D01*
X131837103Y-103158950D01*
X131792772Y-103188571D01*
X131763151Y-103232902D01*
X131763149Y-103232904D01*
X131718854Y-103299196D01*
X131556270Y-103331536D01*
X131349138Y-103469938D01*
X131210736Y-103677070D01*
X131192035Y-103771087D01*
X130397000Y-102976053D01*
X130397000Y-95357829D01*
X137391001Y-102351831D01*
G04 #@! TD*
M02*
