G04 #@! TF.GenerationSoftware,KiCad,Pcbnew,(5.0.1)-4*
G04 #@! TF.CreationDate,2019-02-26T19:28:48-05:00*
G04 #@! TF.ProjectId,Capstone,43617073746F6E652E6B696361645F70,v01*
G04 #@! TF.SameCoordinates,Original*
G04 #@! TF.FileFunction,Copper,L2,Bot,Signal*
G04 #@! TF.FilePolarity,Positive*
%FSLAX46Y46*%
G04 Gerber Fmt 4.6, Leading zero omitted, Abs format (unit mm)*
G04 Created by KiCad (PCBNEW (5.0.1)-4) date 26/02/2019 7:28:48 PM*
%MOMM*%
%LPD*%
G01*
G04 APERTURE LIST*
G04 #@! TA.AperFunction,ComponentPad*
%ADD10C,5.500000*%
G04 #@! TD*
G04 #@! TA.AperFunction,ComponentPad*
%ADD11C,1.600000*%
G04 #@! TD*
G04 #@! TA.AperFunction,ComponentPad*
%ADD12R,1.600000X1.600000*%
G04 #@! TD*
G04 #@! TA.AperFunction,ComponentPad*
%ADD13R,1.700000X1.700000*%
G04 #@! TD*
G04 #@! TA.AperFunction,ComponentPad*
%ADD14O,1.700000X1.700000*%
G04 #@! TD*
G04 #@! TA.AperFunction,ComponentPad*
%ADD15R,1.905000X1.905000*%
G04 #@! TD*
G04 #@! TA.AperFunction,ComponentPad*
%ADD16C,1.905000*%
G04 #@! TD*
G04 #@! TA.AperFunction,ComponentPad*
%ADD17R,2.800000X2.800000*%
G04 #@! TD*
G04 #@! TA.AperFunction,ComponentPad*
%ADD18C,2.800000*%
G04 #@! TD*
G04 #@! TA.AperFunction,ViaPad*
%ADD19C,0.762000*%
G04 #@! TD*
G04 #@! TA.AperFunction,Conductor*
%ADD20C,0.300000*%
G04 #@! TD*
G04 #@! TA.AperFunction,Conductor*
%ADD21C,2.032000*%
G04 #@! TD*
G04 #@! TA.AperFunction,Conductor*
%ADD22C,0.025400*%
G04 #@! TD*
G04 #@! TA.AperFunction,Conductor*
%ADD23C,0.254000*%
G04 #@! TD*
G04 APERTURE END LIST*
D10*
G04 #@! TO.P,,1*
G04 #@! TO.N,N/C*
X203200000Y-55880000D03*
G04 #@! TD*
G04 #@! TO.P,,1*
G04 #@! TO.N,N/C*
X203200000Y-129540000D03*
G04 #@! TD*
G04 #@! TO.P,,1*
G04 #@! TO.N,N/C*
X116840000Y-127000000D03*
G04 #@! TD*
D11*
G04 #@! TO.P,Ce2,2*
G04 #@! TO.N,Earth*
X186650000Y-89154000D03*
D12*
G04 #@! TO.P,Ce2,1*
G04 #@! TO.N,Net-(Cc1-Pad1)*
X184150000Y-89154000D03*
G04 #@! TD*
D13*
G04 #@! TO.P,J2,1*
G04 #@! TO.N,Net-(J2-Pad1)*
X116589420Y-91711780D03*
D14*
G04 #@! TO.P,J2,2*
G04 #@! TO.N,Net-(J2-Pad2)*
X114049420Y-91711780D03*
G04 #@! TO.P,J2,3*
G04 #@! TO.N,Net-(J2-Pad3)*
X116589420Y-89171780D03*
G04 #@! TO.P,J2,4*
G04 #@! TO.N,Net-(J2-Pad4)*
X114049420Y-89171780D03*
G04 #@! TO.P,J2,5*
G04 #@! TO.N,Net-(Cc6-Pad1)*
X116589420Y-86631780D03*
G04 #@! TO.P,J2,6*
G04 #@! TO.N,Net-(J2-Pad6)*
X114049420Y-86631780D03*
G04 #@! TD*
D11*
G04 #@! TO.P,Ce1,2*
G04 #@! TO.N,Earth*
X136358000Y-65024000D03*
D12*
G04 #@! TO.P,Ce1,1*
G04 #@! TO.N,Net-(Cc1-Pad1)*
X133858000Y-65024000D03*
G04 #@! TD*
D13*
G04 #@! TO.P,RV1,1*
G04 #@! TO.N,Net-(Cc6-Pad1)*
X113897020Y-80822800D03*
D14*
G04 #@! TO.P,RV1,2*
G04 #@! TO.N,Net-(J2-Pad3)*
X113897020Y-78282800D03*
G04 #@! TO.P,RV1,3*
G04 #@! TO.N,Earth*
X113897020Y-75742800D03*
G04 #@! TD*
D13*
G04 #@! TO.P,RV2,1*
G04 #@! TO.N,Net-(Cc6-Pad1)*
X117572400Y-80822800D03*
D14*
G04 #@! TO.P,RV2,2*
G04 #@! TO.N,Net-(J2-Pad2)*
X117572400Y-78282800D03*
G04 #@! TO.P,RV2,3*
G04 #@! TO.N,Earth*
X117572400Y-75742800D03*
G04 #@! TD*
D15*
G04 #@! TO.P,F1,1*
G04 #@! TO.N,Net-(F1-Pad1)*
X191262000Y-96393000D03*
D16*
G04 #@! TO.P,F1,2*
G04 #@! TO.N,Net-(Cc1-Pad1)*
X180340000Y-96393000D03*
G04 #@! TD*
D13*
G04 #@! TO.P,J1,1*
G04 #@! TO.N,Net-(J1-Pad1)*
X114118000Y-102108000D03*
D14*
G04 #@! TO.P,J1,2*
X114118000Y-99568000D03*
G04 #@! TO.P,J1,3*
G04 #@! TO.N,Net-(J1-Pad3)*
X114118000Y-97028000D03*
G04 #@! TD*
D17*
G04 #@! TO.P,J3,1*
G04 #@! TO.N,Net-(Cc5-Pad1)*
X201955400Y-101066600D03*
D18*
G04 #@! TO.P,J3,2*
G04 #@! TO.N,Net-(F1-Pad1)*
X201955400Y-96066600D03*
G04 #@! TO.P,J3,3*
G04 #@! TO.N,Earth*
X201955400Y-91066600D03*
G04 #@! TO.P,J3,4*
G04 #@! TO.N,Net-(Cc3-Pad1)*
X201955400Y-86066600D03*
G04 #@! TD*
D10*
G04 #@! TO.P,,1*
G04 #@! TO.N,N/C*
X116840000Y-58420000D03*
G04 #@! TD*
D19*
G04 #@! TO.N,Net-(Cc1-Pad1)*
X168071800Y-104394000D03*
X169926000Y-104394000D03*
X169037000Y-103505000D03*
X168059100Y-101727000D03*
X170815000Y-103505000D03*
X170815000Y-101727000D03*
X169024300Y-101727000D03*
X168097200Y-103505000D03*
X169037000Y-104394000D03*
X170815000Y-104394000D03*
X169926000Y-101727000D03*
X168059100Y-102616000D03*
X170815000Y-102616000D03*
X169037000Y-102616000D03*
X169926000Y-102616000D03*
X169926000Y-103505000D03*
X169926000Y-84328000D03*
X169037000Y-84328000D03*
X168071800Y-84328000D03*
X168097200Y-83439000D03*
X169037000Y-83439000D03*
X169926000Y-83439000D03*
X169926000Y-82550000D03*
X169037000Y-82550000D03*
X168059100Y-82550000D03*
X170815000Y-84328000D03*
X170815000Y-83439000D03*
X170815000Y-82550000D03*
X170815000Y-81661000D03*
X169926000Y-81661000D03*
X169024300Y-81661000D03*
X168059100Y-81661000D03*
G04 #@! TO.N,Earth*
X126288800Y-99060000D03*
X131041429Y-99014507D03*
G04 #@! TO.N,Net-(Cc3-Pad1)*
X168275000Y-64389000D03*
X170129200Y-64389000D03*
X169240200Y-63500000D03*
X168262300Y-61722000D03*
X171018200Y-63500000D03*
X171018200Y-61722000D03*
X169227500Y-61722000D03*
X168300400Y-63500000D03*
X169240200Y-64389000D03*
X171018200Y-64389000D03*
X170129200Y-61722000D03*
X168262300Y-62611000D03*
X171018200Y-62611000D03*
X169240200Y-62611000D03*
X170129200Y-62611000D03*
X170129200Y-63500000D03*
X136448800Y-81178400D03*
X158165800Y-89128600D03*
G04 #@! TO.N,Net-(J1-Pad1)*
X122682000Y-108966000D03*
G04 #@! TO.N,Net-(R3-Pad1)*
X137668000Y-86614000D03*
X133858000Y-86868000D03*
G04 #@! TO.N,Net-(R4-Pad1)*
X134438000Y-92456000D03*
X139954000Y-94996000D03*
G04 #@! TO.N,Net-(Cc6-Pad1)*
X134620000Y-95504000D03*
X120307980Y-97536000D03*
X120307980Y-103632000D03*
G04 #@! TO.N,Net-(Cc5-Pad1)*
X168071800Y-123317000D03*
X169926000Y-123317000D03*
X169037000Y-122428000D03*
X168059100Y-120650000D03*
X170815000Y-122428000D03*
X170815000Y-120650000D03*
X169024300Y-120650000D03*
X168097200Y-122428000D03*
X169037000Y-123317000D03*
X170815000Y-123317000D03*
X169926000Y-120650000D03*
X168059100Y-121539000D03*
X170815000Y-121539000D03*
X169037000Y-121539000D03*
X169926000Y-121539000D03*
X169926000Y-122428000D03*
X138049000Y-93243400D03*
X158292800Y-91719400D03*
G04 #@! TO.N,Net-(J2-Pad4)*
X121738000Y-90678000D03*
G04 #@! TO.N,Net-(J2-Pad6)*
X125294000Y-91440000D03*
X121158000Y-84269580D03*
G04 #@! TO.N,Net-(J1-Pad3)*
X121920000Y-107696000D03*
G04 #@! TO.N,Net-(Q1-Pad4)*
X158242000Y-90170000D03*
X146050000Y-83312000D03*
G04 #@! TO.N,Net-(Q2-Pad4)*
X146050000Y-94996000D03*
X187198000Y-93726000D03*
G04 #@! TO.N,Net-(Q3-Pad4)*
X146304000Y-72644000D03*
X157988000Y-72644000D03*
G04 #@! TO.N,Net-(Q4-Pad4)*
X145288000Y-111988600D03*
X148005800Y-123901200D03*
G04 #@! TD*
D20*
G04 #@! TO.N,Net-(Cc1-Pad1)*
X184150000Y-88054000D02*
X199390000Y-72814000D01*
X184150000Y-89154000D02*
X184150000Y-88054000D01*
X199390000Y-72814000D02*
X199390000Y-55880000D01*
X199390000Y-55880000D02*
X195072000Y-51562000D01*
X195072000Y-51562000D02*
X137160000Y-51562000D01*
X133858000Y-54864000D02*
X133858000Y-65024000D01*
X137160000Y-51562000D02*
X133858000Y-54864000D01*
G04 #@! TO.N,Earth*
X126288800Y-99060000D02*
X130995936Y-99060000D01*
X130995936Y-99060000D02*
X131041429Y-99014507D01*
G04 #@! TO.N,Net-(Cc3-Pad1)*
X136829799Y-80797401D02*
X145669001Y-80797401D01*
X136448800Y-81178400D02*
X136829799Y-80797401D01*
X145669001Y-80797401D02*
X147066000Y-82194400D01*
X147066000Y-82194400D02*
X147066000Y-87731600D01*
X147066000Y-87731600D02*
X148463000Y-89128600D01*
X148463000Y-89128600D02*
X158165800Y-89128600D01*
G04 #@! TO.N,Net-(J1-Pad1)*
X114118000Y-102108000D02*
X114118000Y-103258000D01*
X119826000Y-108966000D02*
X122682000Y-108966000D01*
X114118000Y-103258000D02*
X119826000Y-108966000D01*
G04 #@! TO.N,Net-(J2-Pad2)*
X116370319Y-78282800D02*
X115824000Y-78829119D01*
X117572400Y-78282800D02*
X116370319Y-78282800D01*
X115824000Y-78829119D02*
X115824000Y-82042000D01*
X115824000Y-82042000D02*
X114808000Y-83058000D01*
X114808000Y-83058000D02*
X113284000Y-83058000D01*
X113284000Y-83058000D02*
X112014000Y-84328000D01*
X112014000Y-89676360D02*
X114049420Y-91711780D01*
X112014000Y-84328000D02*
X112014000Y-89676360D01*
G04 #@! TO.N,Net-(R3-Pad1)*
X137668000Y-86614000D02*
X134112000Y-86614000D01*
X134112000Y-86614000D02*
X133858000Y-86868000D01*
G04 #@! TO.N,Net-(R4-Pad1)*
X136978000Y-94996000D02*
X134438000Y-92456000D01*
X139954000Y-94996000D02*
X136978000Y-94996000D01*
G04 #@! TO.N,Net-(Cc6-Pad1)*
X132588000Y-97536000D02*
X120307980Y-97536000D01*
X134620000Y-95504000D02*
X132588000Y-97536000D01*
D21*
X117572400Y-82783008D02*
X117572400Y-80822800D01*
X116589420Y-83765988D02*
X117572400Y-82783008D01*
X116589420Y-86631780D02*
X116589420Y-83765988D01*
D20*
G04 #@! TO.N,Net-(J2-Pad3)*
X119126000Y-86635200D02*
X116589420Y-89171780D01*
X119126000Y-77470000D02*
X119126000Y-86635200D01*
X118618000Y-76962000D02*
X119126000Y-77470000D01*
X113897020Y-78282800D02*
X115217820Y-76962000D01*
X115217820Y-76962000D02*
X118618000Y-76962000D01*
G04 #@! TO.N,Net-(Cc5-Pad1)*
X138049000Y-93243400D02*
X146100800Y-93243400D01*
X146100800Y-93243400D02*
X147624800Y-91719400D01*
X147624800Y-91719400D02*
X158292800Y-91719400D01*
G04 #@! TO.N,Net-(J2-Pad4)*
X114899419Y-90021779D02*
X114049420Y-89171780D01*
X115176421Y-90298781D02*
X114899419Y-90021779D01*
X121358781Y-90298781D02*
X115176421Y-90298781D01*
X121738000Y-90678000D02*
X121358781Y-90298781D01*
G04 #@! TO.N,Net-(J2-Pad6)*
X125294000Y-91440000D02*
X125294000Y-89865200D01*
X121158000Y-85729200D02*
X125294000Y-89865200D01*
X121158000Y-84269580D02*
X121158000Y-85729200D01*
G04 #@! TO.N,Net-(J1-Pad3)*
X114118000Y-97028000D02*
X116586000Y-99496000D01*
X116586000Y-99496000D02*
X116586000Y-103632000D01*
X116586000Y-103632000D02*
X120650000Y-107696000D01*
X120650000Y-107696000D02*
X121920000Y-107696000D01*
G04 #@! TO.N,Net-(Q1-Pad4)*
X146050000Y-83312000D02*
X146050000Y-88138000D01*
X148082000Y-90170000D02*
X158242000Y-90170000D01*
X146050000Y-88138000D02*
X148082000Y-90170000D01*
G04 #@! TO.N,Net-(Q2-Pad4)*
X146050000Y-94996000D02*
X148336000Y-92710000D01*
X148336000Y-92710000D02*
X158242000Y-92710000D01*
X158242000Y-92710000D02*
X186182000Y-92710000D01*
X186182000Y-92710000D02*
X187198000Y-93726000D01*
G04 #@! TO.N,Net-(Q3-Pad4)*
X146304000Y-72644000D02*
X157988000Y-72644000D01*
G04 #@! TO.N,Net-(Q4-Pad4)*
X145288000Y-111988600D02*
X145288000Y-121183400D01*
X145288000Y-121183400D02*
X148005800Y-123901200D01*
G04 #@! TD*
D22*
G04 #@! TO.N,Net-(Cc3-Pad1)*
G36*
X189217300Y-71107300D02*
X148602700Y-71107300D01*
X148602700Y-52359700D01*
X189217300Y-52359700D01*
X189217300Y-71107300D01*
X189217300Y-71107300D01*
G37*
X189217300Y-71107300D02*
X148602700Y-71107300D01*
X148602700Y-52359700D01*
X189217300Y-52359700D01*
X189217300Y-71107300D01*
G04 #@! TO.N,Net-(Cc1-Pad1)*
G36*
X189217300Y-91427300D02*
X159283551Y-91427300D01*
X159281967Y-91419339D01*
X159204422Y-91232128D01*
X159091843Y-91063642D01*
X158948558Y-90920357D01*
X158947291Y-90919510D01*
X159041043Y-90825758D01*
X159153622Y-90657272D01*
X159231167Y-90470061D01*
X159270700Y-90271318D01*
X159270700Y-90068682D01*
X159231167Y-89869939D01*
X159153622Y-89682728D01*
X159089487Y-89586744D01*
X159154967Y-89428661D01*
X159194500Y-89229918D01*
X159194500Y-89027282D01*
X159191344Y-89011414D01*
X185202300Y-89011414D01*
X185202300Y-89296586D01*
X185257934Y-89576279D01*
X185367065Y-89839743D01*
X185525498Y-90076855D01*
X185727145Y-90278502D01*
X185964257Y-90436935D01*
X186227721Y-90546066D01*
X186507414Y-90601700D01*
X186792586Y-90601700D01*
X187072279Y-90546066D01*
X187335743Y-90436935D01*
X187572855Y-90278502D01*
X187774502Y-90076855D01*
X187932935Y-89839743D01*
X188042066Y-89576279D01*
X188097700Y-89296586D01*
X188097700Y-89011414D01*
X188042066Y-88731721D01*
X187932935Y-88468257D01*
X187774502Y-88231145D01*
X187572855Y-88029498D01*
X187335743Y-87871065D01*
X187072279Y-87761934D01*
X186792586Y-87706300D01*
X186507414Y-87706300D01*
X186227721Y-87761934D01*
X185964257Y-87871065D01*
X185727145Y-88029498D01*
X185525498Y-88231145D01*
X185367065Y-88468257D01*
X185257934Y-88731721D01*
X185202300Y-89011414D01*
X159191344Y-89011414D01*
X159154967Y-88828539D01*
X159077422Y-88641328D01*
X158964843Y-88472842D01*
X158821558Y-88329557D01*
X158653072Y-88216978D01*
X158465861Y-88139433D01*
X158267118Y-88099900D01*
X158064482Y-88099900D01*
X157865739Y-88139433D01*
X157678528Y-88216978D01*
X157510042Y-88329557D01*
X157508699Y-88330900D01*
X148793418Y-88330900D01*
X148602700Y-88140182D01*
X148602700Y-73672700D01*
X189217300Y-73672700D01*
X189217300Y-91427300D01*
X189217300Y-91427300D01*
G37*
X189217300Y-91427300D02*
X159283551Y-91427300D01*
X159281967Y-91419339D01*
X159204422Y-91232128D01*
X159091843Y-91063642D01*
X158948558Y-90920357D01*
X158947291Y-90919510D01*
X159041043Y-90825758D01*
X159153622Y-90657272D01*
X159231167Y-90470061D01*
X159270700Y-90271318D01*
X159270700Y-90068682D01*
X159231167Y-89869939D01*
X159153622Y-89682728D01*
X159089487Y-89586744D01*
X159154967Y-89428661D01*
X159194500Y-89229918D01*
X159194500Y-89027282D01*
X159191344Y-89011414D01*
X185202300Y-89011414D01*
X185202300Y-89296586D01*
X185257934Y-89576279D01*
X185367065Y-89839743D01*
X185525498Y-90076855D01*
X185727145Y-90278502D01*
X185964257Y-90436935D01*
X186227721Y-90546066D01*
X186507414Y-90601700D01*
X186792586Y-90601700D01*
X187072279Y-90546066D01*
X187335743Y-90436935D01*
X187572855Y-90278502D01*
X187774502Y-90076855D01*
X187932935Y-89839743D01*
X188042066Y-89576279D01*
X188097700Y-89296586D01*
X188097700Y-89011414D01*
X188042066Y-88731721D01*
X187932935Y-88468257D01*
X187774502Y-88231145D01*
X187572855Y-88029498D01*
X187335743Y-87871065D01*
X187072279Y-87761934D01*
X186792586Y-87706300D01*
X186507414Y-87706300D01*
X186227721Y-87761934D01*
X185964257Y-87871065D01*
X185727145Y-88029498D01*
X185525498Y-88231145D01*
X185367065Y-88468257D01*
X185257934Y-88731721D01*
X185202300Y-89011414D01*
X159191344Y-89011414D01*
X159154967Y-88828539D01*
X159077422Y-88641328D01*
X158964843Y-88472842D01*
X158821558Y-88329557D01*
X158653072Y-88216978D01*
X158465861Y-88139433D01*
X158267118Y-88099900D01*
X158064482Y-88099900D01*
X157865739Y-88139433D01*
X157678528Y-88216978D01*
X157510042Y-88329557D01*
X157508699Y-88330900D01*
X148793418Y-88330900D01*
X148602700Y-88140182D01*
X148602700Y-73672700D01*
X189217300Y-73672700D01*
X189217300Y-91427300D01*
G36*
X186208833Y-94026061D02*
X186286378Y-94213272D01*
X186398957Y-94381758D01*
X186542242Y-94525043D01*
X186710728Y-94637622D01*
X186897939Y-94715167D01*
X187096682Y-94754700D01*
X187299318Y-94754700D01*
X187498061Y-94715167D01*
X187685272Y-94637622D01*
X187853758Y-94525043D01*
X187997043Y-94381758D01*
X188109622Y-94213272D01*
X188187167Y-94026061D01*
X188193803Y-93992700D01*
X189217300Y-93992700D01*
X189217300Y-111747300D01*
X148602700Y-111747300D01*
X148602700Y-93992700D01*
X186202197Y-93992700D01*
X186208833Y-94026061D01*
X186208833Y-94026061D01*
G37*
X186208833Y-94026061D02*
X186286378Y-94213272D01*
X186398957Y-94381758D01*
X186542242Y-94525043D01*
X186710728Y-94637622D01*
X186897939Y-94715167D01*
X187096682Y-94754700D01*
X187299318Y-94754700D01*
X187498061Y-94715167D01*
X187685272Y-94637622D01*
X187853758Y-94525043D01*
X187997043Y-94381758D01*
X188109622Y-94213272D01*
X188187167Y-94026061D01*
X188193803Y-93992700D01*
X189217300Y-93992700D01*
X189217300Y-111747300D01*
X148602700Y-111747300D01*
X148602700Y-93992700D01*
X186202197Y-93992700D01*
X186208833Y-94026061D01*
G04 #@! TO.N,Net-(Cc5-Pad1)*
G36*
X189217300Y-133337300D02*
X148602700Y-133337300D01*
X148602700Y-124739571D01*
X148661558Y-124700243D01*
X148804843Y-124556958D01*
X148917422Y-124388472D01*
X148994967Y-124201261D01*
X149034500Y-124002518D01*
X149034500Y-123799882D01*
X148994967Y-123601139D01*
X148917422Y-123413928D01*
X148804843Y-123245442D01*
X148661558Y-123102157D01*
X148602700Y-123062829D01*
X148602700Y-114312700D01*
X189217300Y-114312700D01*
X189217300Y-133337300D01*
X189217300Y-133337300D01*
G37*
X189217300Y-133337300D02*
X148602700Y-133337300D01*
X148602700Y-124739571D01*
X148661558Y-124700243D01*
X148804843Y-124556958D01*
X148917422Y-124388472D01*
X148994967Y-124201261D01*
X149034500Y-124002518D01*
X149034500Y-123799882D01*
X148994967Y-123601139D01*
X148917422Y-123413928D01*
X148804843Y-123245442D01*
X148661558Y-123102157D01*
X148602700Y-123062829D01*
X148602700Y-114312700D01*
X189217300Y-114312700D01*
X189217300Y-133337300D01*
D23*
G04 #@! TO.N,Earth*
G36*
X207606301Y-134606300D02*
X110393700Y-134606300D01*
X110393700Y-111837029D01*
X144526000Y-111837029D01*
X144526000Y-112140171D01*
X144642008Y-112420238D01*
X144757000Y-112535230D01*
X144757001Y-121131105D01*
X144746599Y-121183400D01*
X144787810Y-121390585D01*
X144875549Y-121521896D01*
X144875551Y-121521898D01*
X144905172Y-121566229D01*
X144949503Y-121595850D01*
X147243800Y-123890147D01*
X147243800Y-124052771D01*
X147359808Y-124332838D01*
X147574162Y-124547192D01*
X147828000Y-124652336D01*
X147828000Y-133350000D01*
X147886004Y-133641605D01*
X148051185Y-133888815D01*
X148298395Y-134053996D01*
X148590000Y-134112000D01*
X189230000Y-134112000D01*
X189521605Y-134053996D01*
X189768815Y-133888815D01*
X189933996Y-133641605D01*
X189992000Y-133350000D01*
X189992000Y-114300000D01*
X189933996Y-114008395D01*
X189768815Y-113761185D01*
X189521605Y-113596004D01*
X189230000Y-113538000D01*
X148590000Y-113538000D01*
X148298395Y-113596004D01*
X148051185Y-113761185D01*
X147886004Y-114008395D01*
X147828000Y-114300000D01*
X147828000Y-122972453D01*
X145819000Y-120963453D01*
X145819000Y-112535230D01*
X145933992Y-112420238D01*
X146050000Y-112140171D01*
X146050000Y-111837029D01*
X145933992Y-111556962D01*
X145719638Y-111342608D01*
X145439571Y-111226600D01*
X145136429Y-111226600D01*
X144856362Y-111342608D01*
X144642008Y-111556962D01*
X144526000Y-111837029D01*
X110393700Y-111837029D01*
X110393700Y-99568000D01*
X112862884Y-99568000D01*
X112958424Y-100048312D01*
X113230499Y-100455501D01*
X113637688Y-100727576D01*
X113996761Y-100799000D01*
X114239239Y-100799000D01*
X114598312Y-100727576D01*
X115005501Y-100455501D01*
X115277576Y-100048312D01*
X115373116Y-99568000D01*
X115277576Y-99087688D01*
X115005501Y-98680499D01*
X114598312Y-98408424D01*
X114239239Y-98337000D01*
X113996761Y-98337000D01*
X113637688Y-98408424D01*
X113230499Y-98680499D01*
X112958424Y-99087688D01*
X112862884Y-99568000D01*
X110393700Y-99568000D01*
X110393700Y-97028000D01*
X112862884Y-97028000D01*
X112958424Y-97508312D01*
X113230499Y-97915501D01*
X113637688Y-98187576D01*
X113996761Y-98259000D01*
X114239239Y-98259000D01*
X114538522Y-98199469D01*
X116055000Y-99715948D01*
X116055001Y-103579705D01*
X116044599Y-103632000D01*
X116085810Y-103839185D01*
X116173549Y-103970496D01*
X116173551Y-103970498D01*
X116203172Y-104014829D01*
X116247503Y-104044450D01*
X120237550Y-108034498D01*
X120267171Y-108078829D01*
X120311502Y-108108450D01*
X120311503Y-108108451D01*
X120442814Y-108196190D01*
X120650000Y-108237402D01*
X120702294Y-108227000D01*
X121373370Y-108227000D01*
X121488362Y-108341992D01*
X121712902Y-108435000D01*
X120045948Y-108435000D01*
X114957411Y-103346464D01*
X114968000Y-103346464D01*
X115116659Y-103316894D01*
X115242686Y-103232686D01*
X115326894Y-103106659D01*
X115356464Y-102958000D01*
X115356464Y-101258000D01*
X115326894Y-101109341D01*
X115242686Y-100983314D01*
X115116659Y-100899106D01*
X114968000Y-100869536D01*
X113268000Y-100869536D01*
X113119341Y-100899106D01*
X112993314Y-100983314D01*
X112909106Y-101109341D01*
X112879536Y-101258000D01*
X112879536Y-102958000D01*
X112909106Y-103106659D01*
X112993314Y-103232686D01*
X113119341Y-103316894D01*
X113268000Y-103346464D01*
X113594195Y-103346464D01*
X113617810Y-103465185D01*
X113705549Y-103596496D01*
X113705551Y-103596498D01*
X113735172Y-103640829D01*
X113779503Y-103670450D01*
X119413550Y-109304498D01*
X119443171Y-109348829D01*
X119487502Y-109378450D01*
X119487503Y-109378451D01*
X119618814Y-109466190D01*
X119773706Y-109497000D01*
X119773709Y-109497000D01*
X119825999Y-109507401D01*
X119878289Y-109497000D01*
X122135370Y-109497000D01*
X122250362Y-109611992D01*
X122530429Y-109728000D01*
X122833571Y-109728000D01*
X123113638Y-109611992D01*
X123327992Y-109397638D01*
X123444000Y-109117571D01*
X123444000Y-108814429D01*
X123327992Y-108534362D01*
X123113638Y-108320008D01*
X122833571Y-108204000D01*
X122530429Y-108204000D01*
X122460781Y-108232849D01*
X122565992Y-108127638D01*
X122682000Y-107847571D01*
X122682000Y-107544429D01*
X122565992Y-107264362D01*
X122351638Y-107050008D01*
X122071571Y-106934000D01*
X121768429Y-106934000D01*
X121488362Y-107050008D01*
X121373370Y-107165000D01*
X120869948Y-107165000D01*
X117185377Y-103480429D01*
X119545980Y-103480429D01*
X119545980Y-103783571D01*
X119661988Y-104063638D01*
X119876342Y-104277992D01*
X120156409Y-104394000D01*
X120459551Y-104394000D01*
X120739618Y-104277992D01*
X120953972Y-104063638D01*
X121069980Y-103783571D01*
X121069980Y-103480429D01*
X120953972Y-103200362D01*
X120739618Y-102986008D01*
X120459551Y-102870000D01*
X120156409Y-102870000D01*
X119876342Y-102986008D01*
X119661988Y-103200362D01*
X119545980Y-103480429D01*
X117185377Y-103480429D01*
X117117000Y-103412053D01*
X117117000Y-99548289D01*
X117127401Y-99495999D01*
X117117000Y-99443707D01*
X117117000Y-99443706D01*
X117086190Y-99288814D01*
X116968829Y-99113171D01*
X116924498Y-99083550D01*
X115289469Y-97448522D01*
X115302217Y-97384429D01*
X119545980Y-97384429D01*
X119545980Y-97687571D01*
X119661988Y-97967638D01*
X119876342Y-98181992D01*
X120156409Y-98298000D01*
X120459551Y-98298000D01*
X120739618Y-98181992D01*
X120854610Y-98067000D01*
X132535710Y-98067000D01*
X132588000Y-98077401D01*
X132640290Y-98067000D01*
X132640294Y-98067000D01*
X132795186Y-98036190D01*
X132970829Y-97918829D01*
X133000452Y-97874495D01*
X134608948Y-96266000D01*
X134771571Y-96266000D01*
X135051638Y-96149992D01*
X135265992Y-95935638D01*
X135382000Y-95655571D01*
X135382000Y-95352429D01*
X135265992Y-95072362D01*
X135051638Y-94858008D01*
X134771571Y-94742000D01*
X134468429Y-94742000D01*
X134188362Y-94858008D01*
X133974008Y-95072362D01*
X133858000Y-95352429D01*
X133858000Y-95515052D01*
X132368053Y-97005000D01*
X120854610Y-97005000D01*
X120739618Y-96890008D01*
X120459551Y-96774000D01*
X120156409Y-96774000D01*
X119876342Y-96890008D01*
X119661988Y-97104362D01*
X119545980Y-97384429D01*
X115302217Y-97384429D01*
X115373116Y-97028000D01*
X115277576Y-96547688D01*
X115005501Y-96140499D01*
X114598312Y-95868424D01*
X114239239Y-95797000D01*
X113996761Y-95797000D01*
X113637688Y-95868424D01*
X113230499Y-96140499D01*
X112958424Y-96547688D01*
X112862884Y-97028000D01*
X110393700Y-97028000D01*
X110393700Y-84328000D01*
X111472599Y-84328000D01*
X111483000Y-84380290D01*
X111483001Y-89624065D01*
X111472599Y-89676360D01*
X111513810Y-89883545D01*
X111601549Y-90014856D01*
X111601551Y-90014858D01*
X111631172Y-90059189D01*
X111675503Y-90088810D01*
X112877951Y-91291258D01*
X112794304Y-91711780D01*
X112889844Y-92192092D01*
X113161919Y-92599281D01*
X113569108Y-92871356D01*
X113928181Y-92942780D01*
X114170659Y-92942780D01*
X114529732Y-92871356D01*
X114936921Y-92599281D01*
X115208996Y-92192092D01*
X115304536Y-91711780D01*
X115208996Y-91231468D01*
X114936921Y-90824279D01*
X114529732Y-90552204D01*
X114170659Y-90480780D01*
X113928181Y-90480780D01*
X113628898Y-90540311D01*
X112545000Y-89456413D01*
X112545000Y-84547947D01*
X113503947Y-83589000D01*
X114755710Y-83589000D01*
X114808000Y-83599401D01*
X114860290Y-83589000D01*
X114860294Y-83589000D01*
X115015186Y-83558190D01*
X115190829Y-83440829D01*
X115220452Y-83396495D01*
X115243043Y-83373904D01*
X115165053Y-83765988D01*
X115192421Y-83903576D01*
X115192420Y-86126661D01*
X114936921Y-85744279D01*
X114529732Y-85472204D01*
X114170659Y-85400780D01*
X113928181Y-85400780D01*
X113569108Y-85472204D01*
X113161919Y-85744279D01*
X112889844Y-86151468D01*
X112794304Y-86631780D01*
X112889844Y-87112092D01*
X113161919Y-87519281D01*
X113569108Y-87791356D01*
X113928181Y-87862780D01*
X114170659Y-87862780D01*
X114529732Y-87791356D01*
X114936921Y-87519281D01*
X115208996Y-87112092D01*
X115234794Y-86982396D01*
X115273476Y-87176861D01*
X115582240Y-87638959D01*
X116044338Y-87947724D01*
X116238804Y-87986406D01*
X116109108Y-88012204D01*
X115701919Y-88284279D01*
X115429844Y-88691468D01*
X115334304Y-89171780D01*
X115429844Y-89652092D01*
X115507145Y-89767781D01*
X115396368Y-89767781D01*
X115311872Y-89683285D01*
X115311870Y-89683282D01*
X115220889Y-89592301D01*
X115304536Y-89171780D01*
X115208996Y-88691468D01*
X114936921Y-88284279D01*
X114529732Y-88012204D01*
X114170659Y-87940780D01*
X113928181Y-87940780D01*
X113569108Y-88012204D01*
X113161919Y-88284279D01*
X112889844Y-88691468D01*
X112794304Y-89171780D01*
X112889844Y-89652092D01*
X113161919Y-90059281D01*
X113569108Y-90331356D01*
X113928181Y-90402780D01*
X114170659Y-90402780D01*
X114469941Y-90343249D01*
X114560922Y-90434230D01*
X114560925Y-90434232D01*
X114763969Y-90637276D01*
X114793592Y-90681610D01*
X114969235Y-90798971D01*
X115124127Y-90829781D01*
X115124131Y-90829781D01*
X115176421Y-90840182D01*
X115228711Y-90829781D01*
X115357321Y-90829781D01*
X115350956Y-90861780D01*
X115350956Y-92561780D01*
X115380526Y-92710439D01*
X115464734Y-92836466D01*
X115590761Y-92920674D01*
X115739420Y-92950244D01*
X117439420Y-92950244D01*
X117588079Y-92920674D01*
X117714106Y-92836466D01*
X117798314Y-92710439D01*
X117827884Y-92561780D01*
X117827884Y-92304429D01*
X133676000Y-92304429D01*
X133676000Y-92607571D01*
X133792008Y-92887638D01*
X134006362Y-93101992D01*
X134286429Y-93218000D01*
X134449053Y-93218000D01*
X136565548Y-95334495D01*
X136595171Y-95378829D01*
X136770814Y-95496190D01*
X136925706Y-95527000D01*
X136925709Y-95527000D01*
X136977999Y-95537401D01*
X137030289Y-95527000D01*
X139407370Y-95527000D01*
X139522362Y-95641992D01*
X139802429Y-95758000D01*
X140105571Y-95758000D01*
X140385638Y-95641992D01*
X140599992Y-95427638D01*
X140716000Y-95147571D01*
X140716000Y-94844429D01*
X140599992Y-94564362D01*
X140385638Y-94350008D01*
X140105571Y-94234000D01*
X139802429Y-94234000D01*
X139522362Y-94350008D01*
X139407370Y-94465000D01*
X137197947Y-94465000D01*
X135200000Y-92467053D01*
X135200000Y-92304429D01*
X135083992Y-92024362D01*
X134869638Y-91810008D01*
X134589571Y-91694000D01*
X134286429Y-91694000D01*
X134006362Y-91810008D01*
X133792008Y-92024362D01*
X133676000Y-92304429D01*
X117827884Y-92304429D01*
X117827884Y-90861780D01*
X117821519Y-90829781D01*
X120976087Y-90829781D01*
X121092008Y-91109638D01*
X121306362Y-91323992D01*
X121586429Y-91440000D01*
X121889571Y-91440000D01*
X122169638Y-91323992D01*
X122383992Y-91109638D01*
X122500000Y-90829571D01*
X122500000Y-90526429D01*
X122383992Y-90246362D01*
X122169638Y-90032008D01*
X121889571Y-89916000D01*
X121741642Y-89916000D01*
X121741610Y-89915952D01*
X121565967Y-89798591D01*
X121411075Y-89767781D01*
X121411071Y-89767781D01*
X121358781Y-89757380D01*
X121306491Y-89767781D01*
X117671695Y-89767781D01*
X117748996Y-89652092D01*
X117844536Y-89171780D01*
X117760889Y-88751258D01*
X119464498Y-87047650D01*
X119508829Y-87018029D01*
X119626190Y-86842386D01*
X119640714Y-86769367D01*
X119667402Y-86635200D01*
X119657000Y-86582906D01*
X119657000Y-84118009D01*
X120396000Y-84118009D01*
X120396000Y-84421151D01*
X120512008Y-84701218D01*
X120627000Y-84816210D01*
X120627001Y-85676905D01*
X120616599Y-85729200D01*
X120657810Y-85936385D01*
X120745549Y-86067696D01*
X120745551Y-86067698D01*
X120775172Y-86112029D01*
X120819503Y-86141650D01*
X124763001Y-90085148D01*
X124763000Y-90893370D01*
X124648008Y-91008362D01*
X124532000Y-91288429D01*
X124532000Y-91591571D01*
X124648008Y-91871638D01*
X124862362Y-92085992D01*
X125142429Y-92202000D01*
X125445571Y-92202000D01*
X125725638Y-92085992D01*
X125939992Y-91871638D01*
X126056000Y-91591571D01*
X126056000Y-91288429D01*
X125939992Y-91008362D01*
X125825000Y-90893370D01*
X125825000Y-89917489D01*
X125835401Y-89865199D01*
X125825000Y-89812909D01*
X125825000Y-89812906D01*
X125794190Y-89658014D01*
X125676829Y-89482371D01*
X125632495Y-89452748D01*
X122896176Y-86716429D01*
X133096000Y-86716429D01*
X133096000Y-87019571D01*
X133212008Y-87299638D01*
X133426362Y-87513992D01*
X133706429Y-87630000D01*
X134009571Y-87630000D01*
X134289638Y-87513992D01*
X134503992Y-87299638D01*
X134568045Y-87145000D01*
X137121370Y-87145000D01*
X137236362Y-87259992D01*
X137516429Y-87376000D01*
X137819571Y-87376000D01*
X138099638Y-87259992D01*
X138313992Y-87045638D01*
X138430000Y-86765571D01*
X138430000Y-86462429D01*
X138313992Y-86182362D01*
X138099638Y-85968008D01*
X137819571Y-85852000D01*
X137516429Y-85852000D01*
X137236362Y-85968008D01*
X137121370Y-86083000D01*
X134164289Y-86083000D01*
X134111999Y-86072599D01*
X134059709Y-86083000D01*
X134059706Y-86083000D01*
X133944077Y-86106000D01*
X133706429Y-86106000D01*
X133426362Y-86222008D01*
X133212008Y-86436362D01*
X133096000Y-86716429D01*
X122896176Y-86716429D01*
X121689000Y-85509253D01*
X121689000Y-84816210D01*
X121803992Y-84701218D01*
X121920000Y-84421151D01*
X121920000Y-84118009D01*
X121803992Y-83837942D01*
X121589638Y-83623588D01*
X121309571Y-83507580D01*
X121006429Y-83507580D01*
X120726362Y-83623588D01*
X120512008Y-83837942D01*
X120396000Y-84118009D01*
X119657000Y-84118009D01*
X119657000Y-77522289D01*
X119667401Y-77469999D01*
X119657000Y-77417707D01*
X119657000Y-77417706D01*
X119626190Y-77262814D01*
X119508829Y-77087171D01*
X119464495Y-77057548D01*
X119030452Y-76623505D01*
X119000829Y-76579171D01*
X118825186Y-76461810D01*
X118670294Y-76431000D01*
X118670290Y-76431000D01*
X118618000Y-76420599D01*
X118565710Y-76431000D01*
X115270109Y-76431000D01*
X115217819Y-76420599D01*
X115165529Y-76431000D01*
X115165526Y-76431000D01*
X115010634Y-76461810D01*
X114834991Y-76579171D01*
X114805368Y-76623505D01*
X114317542Y-77111331D01*
X114018259Y-77051800D01*
X113775781Y-77051800D01*
X113416708Y-77123224D01*
X113009519Y-77395299D01*
X112737444Y-77802488D01*
X112641904Y-78282800D01*
X112737444Y-78763112D01*
X113009519Y-79170301D01*
X113416708Y-79442376D01*
X113775781Y-79513800D01*
X114018259Y-79513800D01*
X114377332Y-79442376D01*
X114784521Y-79170301D01*
X115056596Y-78763112D01*
X115152136Y-78282800D01*
X115068489Y-77862278D01*
X115437767Y-77493000D01*
X116619617Y-77493000D01*
X116446693Y-77751800D01*
X116422613Y-77751800D01*
X116370319Y-77741398D01*
X116318025Y-77751800D01*
X116163133Y-77782610D01*
X115987490Y-77899971D01*
X115957869Y-77944303D01*
X115485505Y-78416667D01*
X115441171Y-78446290D01*
X115323810Y-78621934D01*
X115293000Y-78776826D01*
X115293000Y-78776829D01*
X115282599Y-78829119D01*
X115293000Y-78881409D01*
X115293001Y-81822051D01*
X114588053Y-82527000D01*
X113336289Y-82527000D01*
X113283999Y-82516599D01*
X113231709Y-82527000D01*
X113231706Y-82527000D01*
X113076814Y-82557810D01*
X112901171Y-82675171D01*
X112871549Y-82719504D01*
X111675505Y-83915548D01*
X111631171Y-83945171D01*
X111513810Y-84120815D01*
X111483000Y-84275707D01*
X111483000Y-84275710D01*
X111472599Y-84328000D01*
X110393700Y-84328000D01*
X110393700Y-79972800D01*
X112658556Y-79972800D01*
X112658556Y-81672800D01*
X112688126Y-81821459D01*
X112772334Y-81947486D01*
X112898361Y-82031694D01*
X113047020Y-82061264D01*
X114747020Y-82061264D01*
X114895679Y-82031694D01*
X115021706Y-81947486D01*
X115105914Y-81821459D01*
X115135484Y-81672800D01*
X115135484Y-79972800D01*
X115105914Y-79824141D01*
X115021706Y-79698114D01*
X114895679Y-79613906D01*
X114747020Y-79584336D01*
X113047020Y-79584336D01*
X112898361Y-79613906D01*
X112772334Y-79698114D01*
X112688126Y-79824141D01*
X112658556Y-79972800D01*
X110393700Y-79972800D01*
X110393700Y-64224000D01*
X132669536Y-64224000D01*
X132669536Y-65824000D01*
X132699106Y-65972659D01*
X132783314Y-66098686D01*
X132909341Y-66182894D01*
X133058000Y-66212464D01*
X134658000Y-66212464D01*
X134806659Y-66182894D01*
X134932686Y-66098686D01*
X135016894Y-65972659D01*
X135046464Y-65824000D01*
X135046464Y-64224000D01*
X135016894Y-64075341D01*
X134932686Y-63949314D01*
X134806659Y-63865106D01*
X134658000Y-63835536D01*
X134389000Y-63835536D01*
X134389000Y-55083947D01*
X137379948Y-52093000D01*
X147828000Y-52093000D01*
X147828000Y-71120000D01*
X147886004Y-71411605D01*
X148051185Y-71658815D01*
X148298395Y-71823996D01*
X148590000Y-71882000D01*
X157836429Y-71882000D01*
X157556362Y-71998008D01*
X157441370Y-72113000D01*
X146850630Y-72113000D01*
X146735638Y-71998008D01*
X146455571Y-71882000D01*
X146152429Y-71882000D01*
X145872362Y-71998008D01*
X145658008Y-72212362D01*
X145542000Y-72492429D01*
X145542000Y-72795571D01*
X145658008Y-73075638D01*
X145872362Y-73289992D01*
X146152429Y-73406000D01*
X146455571Y-73406000D01*
X146735638Y-73289992D01*
X146850630Y-73175000D01*
X148015227Y-73175000D01*
X147886004Y-73368395D01*
X147828000Y-73660000D01*
X147828000Y-87742653D01*
X147597000Y-87511653D01*
X147597000Y-82246694D01*
X147607402Y-82194400D01*
X147566190Y-81987214D01*
X147478451Y-81855903D01*
X147478450Y-81855902D01*
X147448829Y-81811571D01*
X147404498Y-81781950D01*
X146081453Y-80458906D01*
X146051830Y-80414572D01*
X145876187Y-80297211D01*
X145721295Y-80266401D01*
X145721291Y-80266401D01*
X145669001Y-80256000D01*
X145616711Y-80266401D01*
X136882089Y-80266401D01*
X136829799Y-80256000D01*
X136777509Y-80266401D01*
X136777505Y-80266401D01*
X136622613Y-80297211D01*
X136446970Y-80414572D01*
X136445749Y-80416400D01*
X136297229Y-80416400D01*
X136017162Y-80532408D01*
X135802808Y-80746762D01*
X135686800Y-81026829D01*
X135686800Y-81329971D01*
X135802808Y-81610038D01*
X136017162Y-81824392D01*
X136297229Y-81940400D01*
X136600371Y-81940400D01*
X136880438Y-81824392D01*
X137094792Y-81610038D01*
X137210800Y-81329971D01*
X137210800Y-81328401D01*
X145449054Y-81328401D01*
X146535000Y-82414348D01*
X146535000Y-82719370D01*
X146481638Y-82666008D01*
X146201571Y-82550000D01*
X145898429Y-82550000D01*
X145618362Y-82666008D01*
X145404008Y-82880362D01*
X145288000Y-83160429D01*
X145288000Y-83463571D01*
X145404008Y-83743638D01*
X145519000Y-83858630D01*
X145519001Y-88085705D01*
X145508599Y-88138000D01*
X145549810Y-88345185D01*
X145637549Y-88476496D01*
X145637551Y-88476498D01*
X145667172Y-88520829D01*
X145711503Y-88550450D01*
X147669550Y-90508498D01*
X147699171Y-90552829D01*
X147743502Y-90582450D01*
X147743503Y-90582451D01*
X147825556Y-90637277D01*
X147828000Y-90638910D01*
X147828000Y-91188400D01*
X147677089Y-91188400D01*
X147624799Y-91177999D01*
X147572509Y-91188400D01*
X147572506Y-91188400D01*
X147417614Y-91219210D01*
X147241971Y-91336571D01*
X147212348Y-91380905D01*
X145880853Y-92712400D01*
X138595630Y-92712400D01*
X138480638Y-92597408D01*
X138200571Y-92481400D01*
X137897429Y-92481400D01*
X137617362Y-92597408D01*
X137403008Y-92811762D01*
X137287000Y-93091829D01*
X137287000Y-93394971D01*
X137403008Y-93675038D01*
X137617362Y-93889392D01*
X137897429Y-94005400D01*
X138200571Y-94005400D01*
X138480638Y-93889392D01*
X138595630Y-93774400D01*
X146048510Y-93774400D01*
X146100800Y-93784801D01*
X146153090Y-93774400D01*
X146153094Y-93774400D01*
X146307986Y-93743590D01*
X146483629Y-93626229D01*
X146513252Y-93581895D01*
X147844747Y-92250400D01*
X148068067Y-92250400D01*
X147953171Y-92327171D01*
X147923548Y-92371505D01*
X146061053Y-94234000D01*
X145898429Y-94234000D01*
X145618362Y-94350008D01*
X145404008Y-94564362D01*
X145288000Y-94844429D01*
X145288000Y-95147571D01*
X145404008Y-95427638D01*
X145618362Y-95641992D01*
X145898429Y-95758000D01*
X146201571Y-95758000D01*
X146481638Y-95641992D01*
X146695992Y-95427638D01*
X146812000Y-95147571D01*
X146812000Y-94984947D01*
X147830745Y-93966202D01*
X147828000Y-93980000D01*
X147828000Y-111760000D01*
X147886004Y-112051605D01*
X148051185Y-112298815D01*
X148298395Y-112463996D01*
X148590000Y-112522000D01*
X189230000Y-112522000D01*
X189521605Y-112463996D01*
X189768815Y-112298815D01*
X189933996Y-112051605D01*
X189992000Y-111760000D01*
X189992000Y-99666600D01*
X200166936Y-99666600D01*
X200166936Y-102466600D01*
X200196506Y-102615259D01*
X200280714Y-102741286D01*
X200406741Y-102825494D01*
X200555400Y-102855064D01*
X203355400Y-102855064D01*
X203504059Y-102825494D01*
X203630086Y-102741286D01*
X203714294Y-102615259D01*
X203743864Y-102466600D01*
X203743864Y-99666600D01*
X203714294Y-99517941D01*
X203630086Y-99391914D01*
X203504059Y-99307706D01*
X203355400Y-99278136D01*
X200555400Y-99278136D01*
X200406741Y-99307706D01*
X200280714Y-99391914D01*
X200196506Y-99517941D01*
X200166936Y-99666600D01*
X189992000Y-99666600D01*
X189992000Y-97556110D01*
X190034814Y-97620186D01*
X190160841Y-97704394D01*
X190309500Y-97733964D01*
X192214500Y-97733964D01*
X192363159Y-97704394D01*
X192489186Y-97620186D01*
X192573394Y-97494159D01*
X192602964Y-97345500D01*
X192602964Y-95712337D01*
X200174400Y-95712337D01*
X200174400Y-96420863D01*
X200445541Y-97075456D01*
X200946544Y-97576459D01*
X201601137Y-97847600D01*
X202309663Y-97847600D01*
X202964256Y-97576459D01*
X203465259Y-97075456D01*
X203736400Y-96420863D01*
X203736400Y-95712337D01*
X203465259Y-95057744D01*
X202964256Y-94556741D01*
X202309663Y-94285600D01*
X201601137Y-94285600D01*
X200946544Y-94556741D01*
X200445541Y-95057744D01*
X200174400Y-95712337D01*
X192602964Y-95712337D01*
X192602964Y-95440500D01*
X192573394Y-95291841D01*
X192489186Y-95165814D01*
X192363159Y-95081606D01*
X192214500Y-95052036D01*
X190309500Y-95052036D01*
X190160841Y-95081606D01*
X190034814Y-95165814D01*
X189992000Y-95229890D01*
X189992000Y-93980000D01*
X189933996Y-93688395D01*
X189768815Y-93441185D01*
X189521605Y-93276004D01*
X189230000Y-93218000D01*
X187767630Y-93218000D01*
X187629638Y-93080008D01*
X187349571Y-92964000D01*
X187186948Y-92964000D01*
X186594452Y-92371505D01*
X186564829Y-92327171D01*
X186389186Y-92209810D01*
X186349923Y-92202000D01*
X189230000Y-92202000D01*
X189521605Y-92143996D01*
X189768815Y-91978815D01*
X189933996Y-91731605D01*
X189992000Y-91440000D01*
X189992000Y-85712337D01*
X200174400Y-85712337D01*
X200174400Y-86420863D01*
X200445541Y-87075456D01*
X200946544Y-87576459D01*
X201601137Y-87847600D01*
X202309663Y-87847600D01*
X202964256Y-87576459D01*
X203465259Y-87075456D01*
X203736400Y-86420863D01*
X203736400Y-85712337D01*
X203465259Y-85057744D01*
X202964256Y-84556741D01*
X202309663Y-84285600D01*
X201601137Y-84285600D01*
X200946544Y-84556741D01*
X200445541Y-85057744D01*
X200174400Y-85712337D01*
X189992000Y-85712337D01*
X189992000Y-82962947D01*
X199728498Y-73226450D01*
X199772829Y-73196829D01*
X199808002Y-73144190D01*
X199886419Y-73026829D01*
X199890190Y-73021186D01*
X199921000Y-72866294D01*
X199921000Y-72866293D01*
X199931402Y-72814000D01*
X199921000Y-72761706D01*
X199921000Y-55932289D01*
X199931401Y-55879999D01*
X199921000Y-55827709D01*
X199921000Y-55827706D01*
X199890190Y-55672814D01*
X199772829Y-55497171D01*
X199728498Y-55467550D01*
X195484452Y-51223505D01*
X195454829Y-51179171D01*
X195279186Y-51061810D01*
X195124294Y-51031000D01*
X195124290Y-51031000D01*
X195072000Y-51020599D01*
X195019710Y-51031000D01*
X137212289Y-51031000D01*
X137159999Y-51020599D01*
X137107709Y-51031000D01*
X137107706Y-51031000D01*
X136952814Y-51061810D01*
X136777171Y-51179171D01*
X136747550Y-51223502D01*
X133519505Y-54451548D01*
X133475171Y-54481171D01*
X133357810Y-54656815D01*
X133327000Y-54811707D01*
X133327000Y-54811710D01*
X133316599Y-54864000D01*
X133327000Y-54916290D01*
X133327001Y-63835536D01*
X133058000Y-63835536D01*
X132909341Y-63865106D01*
X132783314Y-63949314D01*
X132699106Y-64075341D01*
X132669536Y-64224000D01*
X110393700Y-64224000D01*
X110393700Y-50393700D01*
X207606300Y-50393700D01*
X207606301Y-134606300D01*
X207606301Y-134606300D01*
G37*
X207606301Y-134606300D02*
X110393700Y-134606300D01*
X110393700Y-111837029D01*
X144526000Y-111837029D01*
X144526000Y-112140171D01*
X144642008Y-112420238D01*
X144757000Y-112535230D01*
X144757001Y-121131105D01*
X144746599Y-121183400D01*
X144787810Y-121390585D01*
X144875549Y-121521896D01*
X144875551Y-121521898D01*
X144905172Y-121566229D01*
X144949503Y-121595850D01*
X147243800Y-123890147D01*
X147243800Y-124052771D01*
X147359808Y-124332838D01*
X147574162Y-124547192D01*
X147828000Y-124652336D01*
X147828000Y-133350000D01*
X147886004Y-133641605D01*
X148051185Y-133888815D01*
X148298395Y-134053996D01*
X148590000Y-134112000D01*
X189230000Y-134112000D01*
X189521605Y-134053996D01*
X189768815Y-133888815D01*
X189933996Y-133641605D01*
X189992000Y-133350000D01*
X189992000Y-114300000D01*
X189933996Y-114008395D01*
X189768815Y-113761185D01*
X189521605Y-113596004D01*
X189230000Y-113538000D01*
X148590000Y-113538000D01*
X148298395Y-113596004D01*
X148051185Y-113761185D01*
X147886004Y-114008395D01*
X147828000Y-114300000D01*
X147828000Y-122972453D01*
X145819000Y-120963453D01*
X145819000Y-112535230D01*
X145933992Y-112420238D01*
X146050000Y-112140171D01*
X146050000Y-111837029D01*
X145933992Y-111556962D01*
X145719638Y-111342608D01*
X145439571Y-111226600D01*
X145136429Y-111226600D01*
X144856362Y-111342608D01*
X144642008Y-111556962D01*
X144526000Y-111837029D01*
X110393700Y-111837029D01*
X110393700Y-99568000D01*
X112862884Y-99568000D01*
X112958424Y-100048312D01*
X113230499Y-100455501D01*
X113637688Y-100727576D01*
X113996761Y-100799000D01*
X114239239Y-100799000D01*
X114598312Y-100727576D01*
X115005501Y-100455501D01*
X115277576Y-100048312D01*
X115373116Y-99568000D01*
X115277576Y-99087688D01*
X115005501Y-98680499D01*
X114598312Y-98408424D01*
X114239239Y-98337000D01*
X113996761Y-98337000D01*
X113637688Y-98408424D01*
X113230499Y-98680499D01*
X112958424Y-99087688D01*
X112862884Y-99568000D01*
X110393700Y-99568000D01*
X110393700Y-97028000D01*
X112862884Y-97028000D01*
X112958424Y-97508312D01*
X113230499Y-97915501D01*
X113637688Y-98187576D01*
X113996761Y-98259000D01*
X114239239Y-98259000D01*
X114538522Y-98199469D01*
X116055000Y-99715948D01*
X116055001Y-103579705D01*
X116044599Y-103632000D01*
X116085810Y-103839185D01*
X116173549Y-103970496D01*
X116173551Y-103970498D01*
X116203172Y-104014829D01*
X116247503Y-104044450D01*
X120237550Y-108034498D01*
X120267171Y-108078829D01*
X120311502Y-108108450D01*
X120311503Y-108108451D01*
X120442814Y-108196190D01*
X120650000Y-108237402D01*
X120702294Y-108227000D01*
X121373370Y-108227000D01*
X121488362Y-108341992D01*
X121712902Y-108435000D01*
X120045948Y-108435000D01*
X114957411Y-103346464D01*
X114968000Y-103346464D01*
X115116659Y-103316894D01*
X115242686Y-103232686D01*
X115326894Y-103106659D01*
X115356464Y-102958000D01*
X115356464Y-101258000D01*
X115326894Y-101109341D01*
X115242686Y-100983314D01*
X115116659Y-100899106D01*
X114968000Y-100869536D01*
X113268000Y-100869536D01*
X113119341Y-100899106D01*
X112993314Y-100983314D01*
X112909106Y-101109341D01*
X112879536Y-101258000D01*
X112879536Y-102958000D01*
X112909106Y-103106659D01*
X112993314Y-103232686D01*
X113119341Y-103316894D01*
X113268000Y-103346464D01*
X113594195Y-103346464D01*
X113617810Y-103465185D01*
X113705549Y-103596496D01*
X113705551Y-103596498D01*
X113735172Y-103640829D01*
X113779503Y-103670450D01*
X119413550Y-109304498D01*
X119443171Y-109348829D01*
X119487502Y-109378450D01*
X119487503Y-109378451D01*
X119618814Y-109466190D01*
X119773706Y-109497000D01*
X119773709Y-109497000D01*
X119825999Y-109507401D01*
X119878289Y-109497000D01*
X122135370Y-109497000D01*
X122250362Y-109611992D01*
X122530429Y-109728000D01*
X122833571Y-109728000D01*
X123113638Y-109611992D01*
X123327992Y-109397638D01*
X123444000Y-109117571D01*
X123444000Y-108814429D01*
X123327992Y-108534362D01*
X123113638Y-108320008D01*
X122833571Y-108204000D01*
X122530429Y-108204000D01*
X122460781Y-108232849D01*
X122565992Y-108127638D01*
X122682000Y-107847571D01*
X122682000Y-107544429D01*
X122565992Y-107264362D01*
X122351638Y-107050008D01*
X122071571Y-106934000D01*
X121768429Y-106934000D01*
X121488362Y-107050008D01*
X121373370Y-107165000D01*
X120869948Y-107165000D01*
X117185377Y-103480429D01*
X119545980Y-103480429D01*
X119545980Y-103783571D01*
X119661988Y-104063638D01*
X119876342Y-104277992D01*
X120156409Y-104394000D01*
X120459551Y-104394000D01*
X120739618Y-104277992D01*
X120953972Y-104063638D01*
X121069980Y-103783571D01*
X121069980Y-103480429D01*
X120953972Y-103200362D01*
X120739618Y-102986008D01*
X120459551Y-102870000D01*
X120156409Y-102870000D01*
X119876342Y-102986008D01*
X119661988Y-103200362D01*
X119545980Y-103480429D01*
X117185377Y-103480429D01*
X117117000Y-103412053D01*
X117117000Y-99548289D01*
X117127401Y-99495999D01*
X117117000Y-99443707D01*
X117117000Y-99443706D01*
X117086190Y-99288814D01*
X116968829Y-99113171D01*
X116924498Y-99083550D01*
X115289469Y-97448522D01*
X115302217Y-97384429D01*
X119545980Y-97384429D01*
X119545980Y-97687571D01*
X119661988Y-97967638D01*
X119876342Y-98181992D01*
X120156409Y-98298000D01*
X120459551Y-98298000D01*
X120739618Y-98181992D01*
X120854610Y-98067000D01*
X132535710Y-98067000D01*
X132588000Y-98077401D01*
X132640290Y-98067000D01*
X132640294Y-98067000D01*
X132795186Y-98036190D01*
X132970829Y-97918829D01*
X133000452Y-97874495D01*
X134608948Y-96266000D01*
X134771571Y-96266000D01*
X135051638Y-96149992D01*
X135265992Y-95935638D01*
X135382000Y-95655571D01*
X135382000Y-95352429D01*
X135265992Y-95072362D01*
X135051638Y-94858008D01*
X134771571Y-94742000D01*
X134468429Y-94742000D01*
X134188362Y-94858008D01*
X133974008Y-95072362D01*
X133858000Y-95352429D01*
X133858000Y-95515052D01*
X132368053Y-97005000D01*
X120854610Y-97005000D01*
X120739618Y-96890008D01*
X120459551Y-96774000D01*
X120156409Y-96774000D01*
X119876342Y-96890008D01*
X119661988Y-97104362D01*
X119545980Y-97384429D01*
X115302217Y-97384429D01*
X115373116Y-97028000D01*
X115277576Y-96547688D01*
X115005501Y-96140499D01*
X114598312Y-95868424D01*
X114239239Y-95797000D01*
X113996761Y-95797000D01*
X113637688Y-95868424D01*
X113230499Y-96140499D01*
X112958424Y-96547688D01*
X112862884Y-97028000D01*
X110393700Y-97028000D01*
X110393700Y-84328000D01*
X111472599Y-84328000D01*
X111483000Y-84380290D01*
X111483001Y-89624065D01*
X111472599Y-89676360D01*
X111513810Y-89883545D01*
X111601549Y-90014856D01*
X111601551Y-90014858D01*
X111631172Y-90059189D01*
X111675503Y-90088810D01*
X112877951Y-91291258D01*
X112794304Y-91711780D01*
X112889844Y-92192092D01*
X113161919Y-92599281D01*
X113569108Y-92871356D01*
X113928181Y-92942780D01*
X114170659Y-92942780D01*
X114529732Y-92871356D01*
X114936921Y-92599281D01*
X115208996Y-92192092D01*
X115304536Y-91711780D01*
X115208996Y-91231468D01*
X114936921Y-90824279D01*
X114529732Y-90552204D01*
X114170659Y-90480780D01*
X113928181Y-90480780D01*
X113628898Y-90540311D01*
X112545000Y-89456413D01*
X112545000Y-84547947D01*
X113503947Y-83589000D01*
X114755710Y-83589000D01*
X114808000Y-83599401D01*
X114860290Y-83589000D01*
X114860294Y-83589000D01*
X115015186Y-83558190D01*
X115190829Y-83440829D01*
X115220452Y-83396495D01*
X115243043Y-83373904D01*
X115165053Y-83765988D01*
X115192421Y-83903576D01*
X115192420Y-86126661D01*
X114936921Y-85744279D01*
X114529732Y-85472204D01*
X114170659Y-85400780D01*
X113928181Y-85400780D01*
X113569108Y-85472204D01*
X113161919Y-85744279D01*
X112889844Y-86151468D01*
X112794304Y-86631780D01*
X112889844Y-87112092D01*
X113161919Y-87519281D01*
X113569108Y-87791356D01*
X113928181Y-87862780D01*
X114170659Y-87862780D01*
X114529732Y-87791356D01*
X114936921Y-87519281D01*
X115208996Y-87112092D01*
X115234794Y-86982396D01*
X115273476Y-87176861D01*
X115582240Y-87638959D01*
X116044338Y-87947724D01*
X116238804Y-87986406D01*
X116109108Y-88012204D01*
X115701919Y-88284279D01*
X115429844Y-88691468D01*
X115334304Y-89171780D01*
X115429844Y-89652092D01*
X115507145Y-89767781D01*
X115396368Y-89767781D01*
X115311872Y-89683285D01*
X115311870Y-89683282D01*
X115220889Y-89592301D01*
X115304536Y-89171780D01*
X115208996Y-88691468D01*
X114936921Y-88284279D01*
X114529732Y-88012204D01*
X114170659Y-87940780D01*
X113928181Y-87940780D01*
X113569108Y-88012204D01*
X113161919Y-88284279D01*
X112889844Y-88691468D01*
X112794304Y-89171780D01*
X112889844Y-89652092D01*
X113161919Y-90059281D01*
X113569108Y-90331356D01*
X113928181Y-90402780D01*
X114170659Y-90402780D01*
X114469941Y-90343249D01*
X114560922Y-90434230D01*
X114560925Y-90434232D01*
X114763969Y-90637276D01*
X114793592Y-90681610D01*
X114969235Y-90798971D01*
X115124127Y-90829781D01*
X115124131Y-90829781D01*
X115176421Y-90840182D01*
X115228711Y-90829781D01*
X115357321Y-90829781D01*
X115350956Y-90861780D01*
X115350956Y-92561780D01*
X115380526Y-92710439D01*
X115464734Y-92836466D01*
X115590761Y-92920674D01*
X115739420Y-92950244D01*
X117439420Y-92950244D01*
X117588079Y-92920674D01*
X117714106Y-92836466D01*
X117798314Y-92710439D01*
X117827884Y-92561780D01*
X117827884Y-92304429D01*
X133676000Y-92304429D01*
X133676000Y-92607571D01*
X133792008Y-92887638D01*
X134006362Y-93101992D01*
X134286429Y-93218000D01*
X134449053Y-93218000D01*
X136565548Y-95334495D01*
X136595171Y-95378829D01*
X136770814Y-95496190D01*
X136925706Y-95527000D01*
X136925709Y-95527000D01*
X136977999Y-95537401D01*
X137030289Y-95527000D01*
X139407370Y-95527000D01*
X139522362Y-95641992D01*
X139802429Y-95758000D01*
X140105571Y-95758000D01*
X140385638Y-95641992D01*
X140599992Y-95427638D01*
X140716000Y-95147571D01*
X140716000Y-94844429D01*
X140599992Y-94564362D01*
X140385638Y-94350008D01*
X140105571Y-94234000D01*
X139802429Y-94234000D01*
X139522362Y-94350008D01*
X139407370Y-94465000D01*
X137197947Y-94465000D01*
X135200000Y-92467053D01*
X135200000Y-92304429D01*
X135083992Y-92024362D01*
X134869638Y-91810008D01*
X134589571Y-91694000D01*
X134286429Y-91694000D01*
X134006362Y-91810008D01*
X133792008Y-92024362D01*
X133676000Y-92304429D01*
X117827884Y-92304429D01*
X117827884Y-90861780D01*
X117821519Y-90829781D01*
X120976087Y-90829781D01*
X121092008Y-91109638D01*
X121306362Y-91323992D01*
X121586429Y-91440000D01*
X121889571Y-91440000D01*
X122169638Y-91323992D01*
X122383992Y-91109638D01*
X122500000Y-90829571D01*
X122500000Y-90526429D01*
X122383992Y-90246362D01*
X122169638Y-90032008D01*
X121889571Y-89916000D01*
X121741642Y-89916000D01*
X121741610Y-89915952D01*
X121565967Y-89798591D01*
X121411075Y-89767781D01*
X121411071Y-89767781D01*
X121358781Y-89757380D01*
X121306491Y-89767781D01*
X117671695Y-89767781D01*
X117748996Y-89652092D01*
X117844536Y-89171780D01*
X117760889Y-88751258D01*
X119464498Y-87047650D01*
X119508829Y-87018029D01*
X119626190Y-86842386D01*
X119640714Y-86769367D01*
X119667402Y-86635200D01*
X119657000Y-86582906D01*
X119657000Y-84118009D01*
X120396000Y-84118009D01*
X120396000Y-84421151D01*
X120512008Y-84701218D01*
X120627000Y-84816210D01*
X120627001Y-85676905D01*
X120616599Y-85729200D01*
X120657810Y-85936385D01*
X120745549Y-86067696D01*
X120745551Y-86067698D01*
X120775172Y-86112029D01*
X120819503Y-86141650D01*
X124763001Y-90085148D01*
X124763000Y-90893370D01*
X124648008Y-91008362D01*
X124532000Y-91288429D01*
X124532000Y-91591571D01*
X124648008Y-91871638D01*
X124862362Y-92085992D01*
X125142429Y-92202000D01*
X125445571Y-92202000D01*
X125725638Y-92085992D01*
X125939992Y-91871638D01*
X126056000Y-91591571D01*
X126056000Y-91288429D01*
X125939992Y-91008362D01*
X125825000Y-90893370D01*
X125825000Y-89917489D01*
X125835401Y-89865199D01*
X125825000Y-89812909D01*
X125825000Y-89812906D01*
X125794190Y-89658014D01*
X125676829Y-89482371D01*
X125632495Y-89452748D01*
X122896176Y-86716429D01*
X133096000Y-86716429D01*
X133096000Y-87019571D01*
X133212008Y-87299638D01*
X133426362Y-87513992D01*
X133706429Y-87630000D01*
X134009571Y-87630000D01*
X134289638Y-87513992D01*
X134503992Y-87299638D01*
X134568045Y-87145000D01*
X137121370Y-87145000D01*
X137236362Y-87259992D01*
X137516429Y-87376000D01*
X137819571Y-87376000D01*
X138099638Y-87259992D01*
X138313992Y-87045638D01*
X138430000Y-86765571D01*
X138430000Y-86462429D01*
X138313992Y-86182362D01*
X138099638Y-85968008D01*
X137819571Y-85852000D01*
X137516429Y-85852000D01*
X137236362Y-85968008D01*
X137121370Y-86083000D01*
X134164289Y-86083000D01*
X134111999Y-86072599D01*
X134059709Y-86083000D01*
X134059706Y-86083000D01*
X133944077Y-86106000D01*
X133706429Y-86106000D01*
X133426362Y-86222008D01*
X133212008Y-86436362D01*
X133096000Y-86716429D01*
X122896176Y-86716429D01*
X121689000Y-85509253D01*
X121689000Y-84816210D01*
X121803992Y-84701218D01*
X121920000Y-84421151D01*
X121920000Y-84118009D01*
X121803992Y-83837942D01*
X121589638Y-83623588D01*
X121309571Y-83507580D01*
X121006429Y-83507580D01*
X120726362Y-83623588D01*
X120512008Y-83837942D01*
X120396000Y-84118009D01*
X119657000Y-84118009D01*
X119657000Y-77522289D01*
X119667401Y-77469999D01*
X119657000Y-77417707D01*
X119657000Y-77417706D01*
X119626190Y-77262814D01*
X119508829Y-77087171D01*
X119464495Y-77057548D01*
X119030452Y-76623505D01*
X119000829Y-76579171D01*
X118825186Y-76461810D01*
X118670294Y-76431000D01*
X118670290Y-76431000D01*
X118618000Y-76420599D01*
X118565710Y-76431000D01*
X115270109Y-76431000D01*
X115217819Y-76420599D01*
X115165529Y-76431000D01*
X115165526Y-76431000D01*
X115010634Y-76461810D01*
X114834991Y-76579171D01*
X114805368Y-76623505D01*
X114317542Y-77111331D01*
X114018259Y-77051800D01*
X113775781Y-77051800D01*
X113416708Y-77123224D01*
X113009519Y-77395299D01*
X112737444Y-77802488D01*
X112641904Y-78282800D01*
X112737444Y-78763112D01*
X113009519Y-79170301D01*
X113416708Y-79442376D01*
X113775781Y-79513800D01*
X114018259Y-79513800D01*
X114377332Y-79442376D01*
X114784521Y-79170301D01*
X115056596Y-78763112D01*
X115152136Y-78282800D01*
X115068489Y-77862278D01*
X115437767Y-77493000D01*
X116619617Y-77493000D01*
X116446693Y-77751800D01*
X116422613Y-77751800D01*
X116370319Y-77741398D01*
X116318025Y-77751800D01*
X116163133Y-77782610D01*
X115987490Y-77899971D01*
X115957869Y-77944303D01*
X115485505Y-78416667D01*
X115441171Y-78446290D01*
X115323810Y-78621934D01*
X115293000Y-78776826D01*
X115293000Y-78776829D01*
X115282599Y-78829119D01*
X115293000Y-78881409D01*
X115293001Y-81822051D01*
X114588053Y-82527000D01*
X113336289Y-82527000D01*
X113283999Y-82516599D01*
X113231709Y-82527000D01*
X113231706Y-82527000D01*
X113076814Y-82557810D01*
X112901171Y-82675171D01*
X112871549Y-82719504D01*
X111675505Y-83915548D01*
X111631171Y-83945171D01*
X111513810Y-84120815D01*
X111483000Y-84275707D01*
X111483000Y-84275710D01*
X111472599Y-84328000D01*
X110393700Y-84328000D01*
X110393700Y-79972800D01*
X112658556Y-79972800D01*
X112658556Y-81672800D01*
X112688126Y-81821459D01*
X112772334Y-81947486D01*
X112898361Y-82031694D01*
X113047020Y-82061264D01*
X114747020Y-82061264D01*
X114895679Y-82031694D01*
X115021706Y-81947486D01*
X115105914Y-81821459D01*
X115135484Y-81672800D01*
X115135484Y-79972800D01*
X115105914Y-79824141D01*
X115021706Y-79698114D01*
X114895679Y-79613906D01*
X114747020Y-79584336D01*
X113047020Y-79584336D01*
X112898361Y-79613906D01*
X112772334Y-79698114D01*
X112688126Y-79824141D01*
X112658556Y-79972800D01*
X110393700Y-79972800D01*
X110393700Y-64224000D01*
X132669536Y-64224000D01*
X132669536Y-65824000D01*
X132699106Y-65972659D01*
X132783314Y-66098686D01*
X132909341Y-66182894D01*
X133058000Y-66212464D01*
X134658000Y-66212464D01*
X134806659Y-66182894D01*
X134932686Y-66098686D01*
X135016894Y-65972659D01*
X135046464Y-65824000D01*
X135046464Y-64224000D01*
X135016894Y-64075341D01*
X134932686Y-63949314D01*
X134806659Y-63865106D01*
X134658000Y-63835536D01*
X134389000Y-63835536D01*
X134389000Y-55083947D01*
X137379948Y-52093000D01*
X147828000Y-52093000D01*
X147828000Y-71120000D01*
X147886004Y-71411605D01*
X148051185Y-71658815D01*
X148298395Y-71823996D01*
X148590000Y-71882000D01*
X157836429Y-71882000D01*
X157556362Y-71998008D01*
X157441370Y-72113000D01*
X146850630Y-72113000D01*
X146735638Y-71998008D01*
X146455571Y-71882000D01*
X146152429Y-71882000D01*
X145872362Y-71998008D01*
X145658008Y-72212362D01*
X145542000Y-72492429D01*
X145542000Y-72795571D01*
X145658008Y-73075638D01*
X145872362Y-73289992D01*
X146152429Y-73406000D01*
X146455571Y-73406000D01*
X146735638Y-73289992D01*
X146850630Y-73175000D01*
X148015227Y-73175000D01*
X147886004Y-73368395D01*
X147828000Y-73660000D01*
X147828000Y-87742653D01*
X147597000Y-87511653D01*
X147597000Y-82246694D01*
X147607402Y-82194400D01*
X147566190Y-81987214D01*
X147478451Y-81855903D01*
X147478450Y-81855902D01*
X147448829Y-81811571D01*
X147404498Y-81781950D01*
X146081453Y-80458906D01*
X146051830Y-80414572D01*
X145876187Y-80297211D01*
X145721295Y-80266401D01*
X145721291Y-80266401D01*
X145669001Y-80256000D01*
X145616711Y-80266401D01*
X136882089Y-80266401D01*
X136829799Y-80256000D01*
X136777509Y-80266401D01*
X136777505Y-80266401D01*
X136622613Y-80297211D01*
X136446970Y-80414572D01*
X136445749Y-80416400D01*
X136297229Y-80416400D01*
X136017162Y-80532408D01*
X135802808Y-80746762D01*
X135686800Y-81026829D01*
X135686800Y-81329971D01*
X135802808Y-81610038D01*
X136017162Y-81824392D01*
X136297229Y-81940400D01*
X136600371Y-81940400D01*
X136880438Y-81824392D01*
X137094792Y-81610038D01*
X137210800Y-81329971D01*
X137210800Y-81328401D01*
X145449054Y-81328401D01*
X146535000Y-82414348D01*
X146535000Y-82719370D01*
X146481638Y-82666008D01*
X146201571Y-82550000D01*
X145898429Y-82550000D01*
X145618362Y-82666008D01*
X145404008Y-82880362D01*
X145288000Y-83160429D01*
X145288000Y-83463571D01*
X145404008Y-83743638D01*
X145519000Y-83858630D01*
X145519001Y-88085705D01*
X145508599Y-88138000D01*
X145549810Y-88345185D01*
X145637549Y-88476496D01*
X145637551Y-88476498D01*
X145667172Y-88520829D01*
X145711503Y-88550450D01*
X147669550Y-90508498D01*
X147699171Y-90552829D01*
X147743502Y-90582450D01*
X147743503Y-90582451D01*
X147825556Y-90637277D01*
X147828000Y-90638910D01*
X147828000Y-91188400D01*
X147677089Y-91188400D01*
X147624799Y-91177999D01*
X147572509Y-91188400D01*
X147572506Y-91188400D01*
X147417614Y-91219210D01*
X147241971Y-91336571D01*
X147212348Y-91380905D01*
X145880853Y-92712400D01*
X138595630Y-92712400D01*
X138480638Y-92597408D01*
X138200571Y-92481400D01*
X137897429Y-92481400D01*
X137617362Y-92597408D01*
X137403008Y-92811762D01*
X137287000Y-93091829D01*
X137287000Y-93394971D01*
X137403008Y-93675038D01*
X137617362Y-93889392D01*
X137897429Y-94005400D01*
X138200571Y-94005400D01*
X138480638Y-93889392D01*
X138595630Y-93774400D01*
X146048510Y-93774400D01*
X146100800Y-93784801D01*
X146153090Y-93774400D01*
X146153094Y-93774400D01*
X146307986Y-93743590D01*
X146483629Y-93626229D01*
X146513252Y-93581895D01*
X147844747Y-92250400D01*
X148068067Y-92250400D01*
X147953171Y-92327171D01*
X147923548Y-92371505D01*
X146061053Y-94234000D01*
X145898429Y-94234000D01*
X145618362Y-94350008D01*
X145404008Y-94564362D01*
X145288000Y-94844429D01*
X145288000Y-95147571D01*
X145404008Y-95427638D01*
X145618362Y-95641992D01*
X145898429Y-95758000D01*
X146201571Y-95758000D01*
X146481638Y-95641992D01*
X146695992Y-95427638D01*
X146812000Y-95147571D01*
X146812000Y-94984947D01*
X147830745Y-93966202D01*
X147828000Y-93980000D01*
X147828000Y-111760000D01*
X147886004Y-112051605D01*
X148051185Y-112298815D01*
X148298395Y-112463996D01*
X148590000Y-112522000D01*
X189230000Y-112522000D01*
X189521605Y-112463996D01*
X189768815Y-112298815D01*
X189933996Y-112051605D01*
X189992000Y-111760000D01*
X189992000Y-99666600D01*
X200166936Y-99666600D01*
X200166936Y-102466600D01*
X200196506Y-102615259D01*
X200280714Y-102741286D01*
X200406741Y-102825494D01*
X200555400Y-102855064D01*
X203355400Y-102855064D01*
X203504059Y-102825494D01*
X203630086Y-102741286D01*
X203714294Y-102615259D01*
X203743864Y-102466600D01*
X203743864Y-99666600D01*
X203714294Y-99517941D01*
X203630086Y-99391914D01*
X203504059Y-99307706D01*
X203355400Y-99278136D01*
X200555400Y-99278136D01*
X200406741Y-99307706D01*
X200280714Y-99391914D01*
X200196506Y-99517941D01*
X200166936Y-99666600D01*
X189992000Y-99666600D01*
X189992000Y-97556110D01*
X190034814Y-97620186D01*
X190160841Y-97704394D01*
X190309500Y-97733964D01*
X192214500Y-97733964D01*
X192363159Y-97704394D01*
X192489186Y-97620186D01*
X192573394Y-97494159D01*
X192602964Y-97345500D01*
X192602964Y-95712337D01*
X200174400Y-95712337D01*
X200174400Y-96420863D01*
X200445541Y-97075456D01*
X200946544Y-97576459D01*
X201601137Y-97847600D01*
X202309663Y-97847600D01*
X202964256Y-97576459D01*
X203465259Y-97075456D01*
X203736400Y-96420863D01*
X203736400Y-95712337D01*
X203465259Y-95057744D01*
X202964256Y-94556741D01*
X202309663Y-94285600D01*
X201601137Y-94285600D01*
X200946544Y-94556741D01*
X200445541Y-95057744D01*
X200174400Y-95712337D01*
X192602964Y-95712337D01*
X192602964Y-95440500D01*
X192573394Y-95291841D01*
X192489186Y-95165814D01*
X192363159Y-95081606D01*
X192214500Y-95052036D01*
X190309500Y-95052036D01*
X190160841Y-95081606D01*
X190034814Y-95165814D01*
X189992000Y-95229890D01*
X189992000Y-93980000D01*
X189933996Y-93688395D01*
X189768815Y-93441185D01*
X189521605Y-93276004D01*
X189230000Y-93218000D01*
X187767630Y-93218000D01*
X187629638Y-93080008D01*
X187349571Y-92964000D01*
X187186948Y-92964000D01*
X186594452Y-92371505D01*
X186564829Y-92327171D01*
X186389186Y-92209810D01*
X186349923Y-92202000D01*
X189230000Y-92202000D01*
X189521605Y-92143996D01*
X189768815Y-91978815D01*
X189933996Y-91731605D01*
X189992000Y-91440000D01*
X189992000Y-85712337D01*
X200174400Y-85712337D01*
X200174400Y-86420863D01*
X200445541Y-87075456D01*
X200946544Y-87576459D01*
X201601137Y-87847600D01*
X202309663Y-87847600D01*
X202964256Y-87576459D01*
X203465259Y-87075456D01*
X203736400Y-86420863D01*
X203736400Y-85712337D01*
X203465259Y-85057744D01*
X202964256Y-84556741D01*
X202309663Y-84285600D01*
X201601137Y-84285600D01*
X200946544Y-84556741D01*
X200445541Y-85057744D01*
X200174400Y-85712337D01*
X189992000Y-85712337D01*
X189992000Y-82962947D01*
X199728498Y-73226450D01*
X199772829Y-73196829D01*
X199808002Y-73144190D01*
X199886419Y-73026829D01*
X199890190Y-73021186D01*
X199921000Y-72866294D01*
X199921000Y-72866293D01*
X199931402Y-72814000D01*
X199921000Y-72761706D01*
X199921000Y-55932289D01*
X199931401Y-55879999D01*
X199921000Y-55827709D01*
X199921000Y-55827706D01*
X199890190Y-55672814D01*
X199772829Y-55497171D01*
X199728498Y-55467550D01*
X195484452Y-51223505D01*
X195454829Y-51179171D01*
X195279186Y-51061810D01*
X195124294Y-51031000D01*
X195124290Y-51031000D01*
X195072000Y-51020599D01*
X195019710Y-51031000D01*
X137212289Y-51031000D01*
X137159999Y-51020599D01*
X137107709Y-51031000D01*
X137107706Y-51031000D01*
X136952814Y-51061810D01*
X136777171Y-51179171D01*
X136747550Y-51223502D01*
X133519505Y-54451548D01*
X133475171Y-54481171D01*
X133357810Y-54656815D01*
X133327000Y-54811707D01*
X133327000Y-54811710D01*
X133316599Y-54864000D01*
X133327000Y-54916290D01*
X133327001Y-63835536D01*
X133058000Y-63835536D01*
X132909341Y-63865106D01*
X132783314Y-63949314D01*
X132699106Y-64075341D01*
X132669536Y-64224000D01*
X110393700Y-64224000D01*
X110393700Y-50393700D01*
X207606300Y-50393700D01*
X207606301Y-134606300D01*
G04 #@! TD*
M02*
