G04 #@! TF.GenerationSoftware,KiCad,Pcbnew,(5.0.1)-4*
G04 #@! TF.CreationDate,2019-02-26T19:28:48-05:00*
G04 #@! TF.ProjectId,Capstone,43617073746F6E652E6B696361645F70,v01*
G04 #@! TF.SameCoordinates,Original*
G04 #@! TF.FileFunction,Soldermask,Bot*
G04 #@! TF.FilePolarity,Negative*
%FSLAX46Y46*%
G04 Gerber Fmt 4.6, Leading zero omitted, Abs format (unit mm)*
G04 Created by KiCad (PCBNEW (5.0.1)-4) date 26/02/2019 7:28:48 PM*
%MOMM*%
%LPD*%
G01*
G04 APERTURE LIST*
%ADD10C,0.100000*%
G04 APERTURE END LIST*
D10*
G36*
X203746409Y-126793017D02*
X204016963Y-126846833D01*
X204228092Y-126934285D01*
X204526675Y-127057962D01*
X204526676Y-127057963D01*
X204985406Y-127364476D01*
X205375524Y-127754594D01*
X205605409Y-128098642D01*
X205682038Y-128213325D01*
X205728989Y-128326675D01*
X205893167Y-128723037D01*
X205946983Y-128993591D01*
X206000800Y-129264144D01*
X206000800Y-129815856D01*
X205893167Y-130356962D01*
X205682038Y-130866675D01*
X205682037Y-130866676D01*
X205375524Y-131325406D01*
X204985406Y-131715524D01*
X204641358Y-131945409D01*
X204526675Y-132022038D01*
X204228092Y-132145715D01*
X204016963Y-132233167D01*
X203746409Y-132286983D01*
X203475856Y-132340800D01*
X202924144Y-132340800D01*
X202653591Y-132286983D01*
X202383037Y-132233167D01*
X202171908Y-132145715D01*
X201873325Y-132022038D01*
X201758642Y-131945409D01*
X201414594Y-131715524D01*
X201024476Y-131325406D01*
X200717963Y-130866676D01*
X200717962Y-130866675D01*
X200506833Y-130356962D01*
X200399200Y-129815856D01*
X200399200Y-129264144D01*
X200453017Y-128993591D01*
X200506833Y-128723037D01*
X200671011Y-128326675D01*
X200717962Y-128213325D01*
X200794591Y-128098641D01*
X201024476Y-127754594D01*
X201414594Y-127364476D01*
X201873324Y-127057963D01*
X201873325Y-127057962D01*
X202171908Y-126934285D01*
X202383037Y-126846833D01*
X202653591Y-126793017D01*
X202924144Y-126739200D01*
X203475856Y-126739200D01*
X203746409Y-126793017D01*
X203746409Y-126793017D01*
G37*
G36*
X117386409Y-124253017D02*
X117656963Y-124306833D01*
X117868092Y-124394285D01*
X118166675Y-124517962D01*
X118166676Y-124517963D01*
X118625406Y-124824476D01*
X119015524Y-125214594D01*
X119245409Y-125558641D01*
X119322038Y-125673325D01*
X119445715Y-125971908D01*
X119533167Y-126183037D01*
X119640800Y-126724145D01*
X119640800Y-127275855D01*
X119545574Y-127754591D01*
X119533167Y-127816962D01*
X119322038Y-128326675D01*
X119322037Y-128326676D01*
X119015524Y-128785406D01*
X118625406Y-129175524D01*
X118281359Y-129405409D01*
X118166675Y-129482038D01*
X117868092Y-129605715D01*
X117656963Y-129693167D01*
X117386409Y-129746984D01*
X117115856Y-129800800D01*
X116564144Y-129800800D01*
X116293591Y-129746984D01*
X116023037Y-129693167D01*
X115811908Y-129605715D01*
X115513325Y-129482038D01*
X115398641Y-129405409D01*
X115054594Y-129175524D01*
X114664476Y-128785406D01*
X114357963Y-128326676D01*
X114357962Y-128326675D01*
X114146833Y-127816962D01*
X114134427Y-127754591D01*
X114039200Y-127275855D01*
X114039200Y-126724145D01*
X114146833Y-126183037D01*
X114234285Y-125971908D01*
X114357962Y-125673325D01*
X114434591Y-125558641D01*
X114664476Y-125214594D01*
X115054594Y-124824476D01*
X115513324Y-124517963D01*
X115513325Y-124517962D01*
X115811908Y-124394285D01*
X116023037Y-124306833D01*
X116293591Y-124253017D01*
X116564144Y-124199200D01*
X117115856Y-124199200D01*
X117386409Y-124253017D01*
X117386409Y-124253017D01*
G37*
G36*
X115018800Y-103008800D02*
X113217200Y-103008800D01*
X113217200Y-101207200D01*
X115018800Y-101207200D01*
X115018800Y-103008800D01*
X115018800Y-103008800D01*
G37*
G36*
X203406200Y-102517400D02*
X200504600Y-102517400D01*
X200504600Y-99615800D01*
X203406200Y-99615800D01*
X203406200Y-102517400D01*
X203406200Y-102517400D01*
G37*
G36*
X114206362Y-98671545D02*
X114294588Y-98680234D01*
X114407789Y-98714573D01*
X114464390Y-98731743D01*
X114602980Y-98805822D01*
X114620879Y-98815389D01*
X114656609Y-98844712D01*
X114758044Y-98927956D01*
X114841288Y-99029391D01*
X114870611Y-99065121D01*
X114870612Y-99065123D01*
X114954257Y-99221610D01*
X114954257Y-99221611D01*
X115005766Y-99391412D01*
X115023158Y-99568000D01*
X115005766Y-99744588D01*
X114971427Y-99857789D01*
X114954257Y-99914390D01*
X114880178Y-100052980D01*
X114870611Y-100070879D01*
X114841288Y-100106609D01*
X114758044Y-100208044D01*
X114656609Y-100291288D01*
X114620879Y-100320611D01*
X114620877Y-100320612D01*
X114464390Y-100404257D01*
X114407789Y-100421427D01*
X114294588Y-100455766D01*
X114206362Y-100464455D01*
X114162250Y-100468800D01*
X114073750Y-100468800D01*
X114029638Y-100464455D01*
X113941412Y-100455766D01*
X113828211Y-100421427D01*
X113771610Y-100404257D01*
X113615123Y-100320612D01*
X113615121Y-100320611D01*
X113579391Y-100291288D01*
X113477956Y-100208044D01*
X113394712Y-100106609D01*
X113365389Y-100070879D01*
X113355822Y-100052980D01*
X113281743Y-99914390D01*
X113264573Y-99857789D01*
X113230234Y-99744588D01*
X113212842Y-99568000D01*
X113230234Y-99391412D01*
X113281743Y-99221611D01*
X113281743Y-99221610D01*
X113365388Y-99065123D01*
X113365389Y-99065121D01*
X113394712Y-99029391D01*
X113477956Y-98927956D01*
X113579391Y-98844712D01*
X113615121Y-98815389D01*
X113633020Y-98805822D01*
X113771610Y-98731743D01*
X113828211Y-98714573D01*
X113941412Y-98680234D01*
X114029638Y-98671545D01*
X114073750Y-98667200D01*
X114162250Y-98667200D01*
X114206362Y-98671545D01*
X114206362Y-98671545D01*
G37*
G36*
X114206362Y-96131545D02*
X114294588Y-96140234D01*
X114407789Y-96174573D01*
X114464390Y-96191743D01*
X114602980Y-96265822D01*
X114620879Y-96275389D01*
X114656609Y-96304712D01*
X114758044Y-96387956D01*
X114841288Y-96489391D01*
X114870611Y-96525121D01*
X114870612Y-96525123D01*
X114954257Y-96681610D01*
X114954257Y-96681611D01*
X115005766Y-96851412D01*
X115023158Y-97028000D01*
X115005766Y-97204588D01*
X114982249Y-97282112D01*
X114954257Y-97374390D01*
X114880178Y-97512980D01*
X114870611Y-97530879D01*
X114841288Y-97566609D01*
X114758044Y-97668044D01*
X114656609Y-97751288D01*
X114620879Y-97780611D01*
X114620877Y-97780612D01*
X114464390Y-97864257D01*
X114407789Y-97881427D01*
X114294588Y-97915766D01*
X114206362Y-97924455D01*
X114162250Y-97928800D01*
X114073750Y-97928800D01*
X114029638Y-97924455D01*
X113941412Y-97915766D01*
X113828211Y-97881427D01*
X113771610Y-97864257D01*
X113615123Y-97780612D01*
X113615121Y-97780611D01*
X113579391Y-97751288D01*
X113477956Y-97668044D01*
X113394712Y-97566609D01*
X113365389Y-97530879D01*
X113355822Y-97512980D01*
X113281743Y-97374390D01*
X113253751Y-97282112D01*
X113230234Y-97204588D01*
X113212842Y-97028000D01*
X113230234Y-96851412D01*
X113281743Y-96681611D01*
X113281743Y-96681610D01*
X113365388Y-96525123D01*
X113365389Y-96525121D01*
X113394712Y-96489391D01*
X113477956Y-96387956D01*
X113579391Y-96304712D01*
X113615121Y-96275389D01*
X113633020Y-96265822D01*
X113771610Y-96191743D01*
X113828211Y-96174573D01*
X113941412Y-96140234D01*
X114029638Y-96131545D01*
X114073750Y-96127200D01*
X114162250Y-96127200D01*
X114206362Y-96131545D01*
X114206362Y-96131545D01*
G37*
G36*
X202285152Y-94652969D02*
X202378583Y-94671553D01*
X202642612Y-94780918D01*
X202877072Y-94937579D01*
X202880234Y-94939692D01*
X203082308Y-95141766D01*
X203241083Y-95379390D01*
X203261324Y-95428256D01*
X203338133Y-95613688D01*
X203350447Y-95643418D01*
X203406200Y-95923707D01*
X203406200Y-96209493D01*
X203393092Y-96275389D01*
X203350447Y-96489783D01*
X203273114Y-96676480D01*
X203241083Y-96753810D01*
X203082308Y-96991434D01*
X202880234Y-97193508D01*
X202880231Y-97193510D01*
X202642612Y-97352282D01*
X202378583Y-97461647D01*
X202285152Y-97480231D01*
X202098293Y-97517400D01*
X201812507Y-97517400D01*
X201625648Y-97480231D01*
X201532217Y-97461647D01*
X201268188Y-97352282D01*
X201030569Y-97193510D01*
X201030566Y-97193508D01*
X200828492Y-96991434D01*
X200669717Y-96753810D01*
X200637686Y-96676480D01*
X200560353Y-96489783D01*
X200517708Y-96275389D01*
X200504600Y-96209493D01*
X200504600Y-95923707D01*
X200560353Y-95643418D01*
X200572668Y-95613688D01*
X200649476Y-95428256D01*
X200669717Y-95379390D01*
X200828492Y-95141766D01*
X201030566Y-94939692D01*
X201033728Y-94937579D01*
X201268188Y-94780918D01*
X201532217Y-94671553D01*
X201625648Y-94652969D01*
X201812507Y-94615800D01*
X202098293Y-94615800D01*
X202285152Y-94652969D01*
X202285152Y-94652969D01*
G37*
G36*
X192265300Y-97396300D02*
X190258700Y-97396300D01*
X190258700Y-95389700D01*
X192265300Y-95389700D01*
X192265300Y-97396300D01*
X192265300Y-97396300D01*
G37*
G36*
X180516350Y-95405122D02*
X180632652Y-95428256D01*
X180815241Y-95503887D01*
X180979567Y-95613686D01*
X181119314Y-95753433D01*
X181229113Y-95917759D01*
X181304744Y-96100348D01*
X181322923Y-96191743D01*
X181343300Y-96294182D01*
X181343300Y-96491818D01*
X181336675Y-96525123D01*
X181304744Y-96685652D01*
X181229113Y-96868241D01*
X181119314Y-97032567D01*
X180979567Y-97172314D01*
X180815241Y-97282113D01*
X180632652Y-97357744D01*
X180516350Y-97380878D01*
X180438818Y-97396300D01*
X180241182Y-97396300D01*
X180163650Y-97380878D01*
X180047348Y-97357744D01*
X179864759Y-97282113D01*
X179700433Y-97172314D01*
X179560686Y-97032567D01*
X179450887Y-96868241D01*
X179375256Y-96685652D01*
X179343325Y-96525123D01*
X179336700Y-96491818D01*
X179336700Y-96294182D01*
X179357077Y-96191743D01*
X179375256Y-96100348D01*
X179450887Y-95917759D01*
X179560686Y-95753433D01*
X179700433Y-95613686D01*
X179864759Y-95503887D01*
X180047348Y-95428256D01*
X180163650Y-95405122D01*
X180241182Y-95389700D01*
X180438818Y-95389700D01*
X180516350Y-95405122D01*
X180516350Y-95405122D01*
G37*
G36*
X117490220Y-92612580D02*
X115688620Y-92612580D01*
X115688620Y-90810980D01*
X117490220Y-90810980D01*
X117490220Y-92612580D01*
X117490220Y-92612580D01*
G37*
G36*
X114137782Y-90815325D02*
X114226008Y-90824014D01*
X114339209Y-90858353D01*
X114395810Y-90875523D01*
X114534400Y-90949602D01*
X114552299Y-90959169D01*
X114588029Y-90988492D01*
X114689464Y-91071736D01*
X114772708Y-91173171D01*
X114802031Y-91208901D01*
X114802032Y-91208903D01*
X114885677Y-91365390D01*
X114885677Y-91365391D01*
X114937186Y-91535192D01*
X114954578Y-91711780D01*
X114937186Y-91888368D01*
X114905922Y-91991431D01*
X114885677Y-92058170D01*
X114813335Y-92193510D01*
X114802031Y-92214659D01*
X114772708Y-92250389D01*
X114689464Y-92351824D01*
X114588029Y-92435068D01*
X114552299Y-92464391D01*
X114552297Y-92464392D01*
X114395810Y-92548037D01*
X114339209Y-92565207D01*
X114226008Y-92599546D01*
X114137782Y-92608235D01*
X114093670Y-92612580D01*
X114005170Y-92612580D01*
X113961058Y-92608235D01*
X113872832Y-92599546D01*
X113759631Y-92565207D01*
X113703030Y-92548037D01*
X113546543Y-92464392D01*
X113546541Y-92464391D01*
X113510811Y-92435068D01*
X113409376Y-92351824D01*
X113326132Y-92250389D01*
X113296809Y-92214659D01*
X113285505Y-92193510D01*
X113213163Y-92058170D01*
X113192918Y-91991431D01*
X113161654Y-91888368D01*
X113144262Y-91711780D01*
X113161654Y-91535192D01*
X113213163Y-91365391D01*
X113213163Y-91365390D01*
X113296808Y-91208903D01*
X113296809Y-91208901D01*
X113326132Y-91173171D01*
X113409376Y-91071736D01*
X113510811Y-90988492D01*
X113546541Y-90959169D01*
X113564440Y-90949602D01*
X113703030Y-90875523D01*
X113759631Y-90858353D01*
X113872832Y-90824014D01*
X113961058Y-90815325D01*
X114005170Y-90810980D01*
X114093670Y-90810980D01*
X114137782Y-90815325D01*
X114137782Y-90815325D01*
G37*
G36*
X202285152Y-89652969D02*
X202378583Y-89671553D01*
X202642612Y-89780918D01*
X202832756Y-89907968D01*
X202880234Y-89939692D01*
X203082308Y-90141766D01*
X203241083Y-90379390D01*
X203350447Y-90643418D01*
X203396616Y-90875523D01*
X203406200Y-90923709D01*
X203406200Y-91209491D01*
X203350447Y-91489783D01*
X203241082Y-91753812D01*
X203084421Y-91988272D01*
X203082308Y-91991434D01*
X202880234Y-92193508D01*
X202880231Y-92193510D01*
X202642612Y-92352282D01*
X202378583Y-92461647D01*
X202285152Y-92480231D01*
X202098293Y-92517400D01*
X201812507Y-92517400D01*
X201625648Y-92480231D01*
X201532217Y-92461647D01*
X201268188Y-92352282D01*
X201030569Y-92193510D01*
X201030566Y-92193508D01*
X200828492Y-91991434D01*
X200826379Y-91988272D01*
X200669718Y-91753812D01*
X200560353Y-91489783D01*
X200504600Y-91209491D01*
X200504600Y-90923709D01*
X200514185Y-90875523D01*
X200560353Y-90643418D01*
X200669717Y-90379390D01*
X200828492Y-90141766D01*
X201030566Y-89939692D01*
X201078044Y-89907968D01*
X201268188Y-89780918D01*
X201532217Y-89671553D01*
X201625648Y-89652969D01*
X201812507Y-89615800D01*
X202098293Y-89615800D01*
X202285152Y-89652969D01*
X202285152Y-89652969D01*
G37*
G36*
X116677782Y-88275325D02*
X116766008Y-88284014D01*
X116879209Y-88318353D01*
X116935810Y-88335523D01*
X117056496Y-88400032D01*
X117092299Y-88419169D01*
X117128029Y-88448492D01*
X117229464Y-88531736D01*
X117295043Y-88611646D01*
X117342031Y-88668901D01*
X117342032Y-88668903D01*
X117425677Y-88825390D01*
X117425677Y-88825391D01*
X117477186Y-88995192D01*
X117494578Y-89171780D01*
X117477186Y-89348368D01*
X117442847Y-89461569D01*
X117425677Y-89518170D01*
X117404919Y-89557005D01*
X117342031Y-89674659D01*
X117312708Y-89710389D01*
X117229464Y-89811824D01*
X117128029Y-89895068D01*
X117092299Y-89924391D01*
X117092297Y-89924392D01*
X116935810Y-90008037D01*
X116879209Y-90025207D01*
X116766008Y-90059546D01*
X116677782Y-90068235D01*
X116633670Y-90072580D01*
X116545170Y-90072580D01*
X116501058Y-90068235D01*
X116412832Y-90059546D01*
X116299631Y-90025207D01*
X116243030Y-90008037D01*
X116086543Y-89924392D01*
X116086541Y-89924391D01*
X116050811Y-89895068D01*
X115949376Y-89811824D01*
X115866132Y-89710389D01*
X115836809Y-89674659D01*
X115773921Y-89557005D01*
X115753163Y-89518170D01*
X115735993Y-89461569D01*
X115701654Y-89348368D01*
X115684262Y-89171780D01*
X115701654Y-88995192D01*
X115753163Y-88825391D01*
X115753163Y-88825390D01*
X115836808Y-88668903D01*
X115836809Y-88668901D01*
X115883797Y-88611646D01*
X115949376Y-88531736D01*
X116050811Y-88448492D01*
X116086541Y-88419169D01*
X116122344Y-88400032D01*
X116243030Y-88335523D01*
X116299631Y-88318353D01*
X116412832Y-88284014D01*
X116501058Y-88275325D01*
X116545170Y-88270980D01*
X116633670Y-88270980D01*
X116677782Y-88275325D01*
X116677782Y-88275325D01*
G37*
G36*
X114137782Y-88275325D02*
X114226008Y-88284014D01*
X114339209Y-88318353D01*
X114395810Y-88335523D01*
X114516496Y-88400032D01*
X114552299Y-88419169D01*
X114588029Y-88448492D01*
X114689464Y-88531736D01*
X114755043Y-88611646D01*
X114802031Y-88668901D01*
X114802032Y-88668903D01*
X114885677Y-88825390D01*
X114885677Y-88825391D01*
X114937186Y-88995192D01*
X114954578Y-89171780D01*
X114937186Y-89348368D01*
X114902847Y-89461569D01*
X114885677Y-89518170D01*
X114864919Y-89557005D01*
X114802031Y-89674659D01*
X114772708Y-89710389D01*
X114689464Y-89811824D01*
X114588029Y-89895068D01*
X114552299Y-89924391D01*
X114552297Y-89924392D01*
X114395810Y-90008037D01*
X114339209Y-90025207D01*
X114226008Y-90059546D01*
X114137782Y-90068235D01*
X114093670Y-90072580D01*
X114005170Y-90072580D01*
X113961058Y-90068235D01*
X113872832Y-90059546D01*
X113759631Y-90025207D01*
X113703030Y-90008037D01*
X113546543Y-89924392D01*
X113546541Y-89924391D01*
X113510811Y-89895068D01*
X113409376Y-89811824D01*
X113326132Y-89710389D01*
X113296809Y-89674659D01*
X113233921Y-89557005D01*
X113213163Y-89518170D01*
X113195993Y-89461569D01*
X113161654Y-89348368D01*
X113144262Y-89171780D01*
X113161654Y-88995192D01*
X113213163Y-88825391D01*
X113213163Y-88825390D01*
X113296808Y-88668903D01*
X113296809Y-88668901D01*
X113343797Y-88611646D01*
X113409376Y-88531736D01*
X113510811Y-88448492D01*
X113546541Y-88419169D01*
X113582344Y-88400032D01*
X113703030Y-88335523D01*
X113759631Y-88318353D01*
X113872832Y-88284014D01*
X113961058Y-88275325D01*
X114005170Y-88270980D01*
X114093670Y-88270980D01*
X114137782Y-88275325D01*
X114137782Y-88275325D01*
G37*
G36*
X186898169Y-88335895D02*
X187053005Y-88400031D01*
X187192354Y-88493140D01*
X187310860Y-88611646D01*
X187403969Y-88750995D01*
X187468105Y-88905831D01*
X187500800Y-89070203D01*
X187500800Y-89237797D01*
X187468105Y-89402169D01*
X187403969Y-89557005D01*
X187310860Y-89696354D01*
X187192354Y-89814860D01*
X187053005Y-89907969D01*
X186898169Y-89972105D01*
X186733797Y-90004800D01*
X186566203Y-90004800D01*
X186401831Y-89972105D01*
X186246995Y-89907969D01*
X186107646Y-89814860D01*
X185989140Y-89696354D01*
X185896031Y-89557005D01*
X185831895Y-89402169D01*
X185799200Y-89237797D01*
X185799200Y-89070203D01*
X185831895Y-88905831D01*
X185896031Y-88750995D01*
X185989140Y-88611646D01*
X186107646Y-88493140D01*
X186246995Y-88400031D01*
X186401831Y-88335895D01*
X186566203Y-88303200D01*
X186733797Y-88303200D01*
X186898169Y-88335895D01*
X186898169Y-88335895D01*
G37*
G36*
X185000800Y-90004800D02*
X183299200Y-90004800D01*
X183299200Y-88303200D01*
X185000800Y-88303200D01*
X185000800Y-90004800D01*
X185000800Y-90004800D01*
G37*
G36*
X116677782Y-85735325D02*
X116766008Y-85744014D01*
X116879209Y-85778353D01*
X116935810Y-85795523D01*
X117074400Y-85869602D01*
X117092299Y-85879169D01*
X117128029Y-85908492D01*
X117229464Y-85991736D01*
X117312708Y-86093171D01*
X117342031Y-86128901D01*
X117342032Y-86128903D01*
X117425677Y-86285390D01*
X117425677Y-86285391D01*
X117477186Y-86455192D01*
X117494578Y-86631780D01*
X117477186Y-86808368D01*
X117442847Y-86921569D01*
X117425677Y-86978170D01*
X117418587Y-86991434D01*
X117342031Y-87134659D01*
X117312708Y-87170389D01*
X117229464Y-87271824D01*
X117131424Y-87352282D01*
X117092299Y-87384391D01*
X117092297Y-87384392D01*
X116935810Y-87468037D01*
X116879209Y-87485207D01*
X116766008Y-87519546D01*
X116677782Y-87528235D01*
X116633670Y-87532580D01*
X116545170Y-87532580D01*
X116501058Y-87528235D01*
X116412832Y-87519546D01*
X116299631Y-87485207D01*
X116243030Y-87468037D01*
X116086543Y-87384392D01*
X116086541Y-87384391D01*
X116047416Y-87352282D01*
X115949376Y-87271824D01*
X115866132Y-87170389D01*
X115836809Y-87134659D01*
X115760253Y-86991434D01*
X115753163Y-86978170D01*
X115735993Y-86921569D01*
X115701654Y-86808368D01*
X115684262Y-86631780D01*
X115701654Y-86455192D01*
X115753163Y-86285391D01*
X115753163Y-86285390D01*
X115836808Y-86128903D01*
X115836809Y-86128901D01*
X115866132Y-86093171D01*
X115949376Y-85991736D01*
X116050811Y-85908492D01*
X116086541Y-85879169D01*
X116104440Y-85869602D01*
X116243030Y-85795523D01*
X116299631Y-85778353D01*
X116412832Y-85744014D01*
X116501058Y-85735325D01*
X116545170Y-85730980D01*
X116633670Y-85730980D01*
X116677782Y-85735325D01*
X116677782Y-85735325D01*
G37*
G36*
X114137782Y-85735325D02*
X114226008Y-85744014D01*
X114339209Y-85778353D01*
X114395810Y-85795523D01*
X114534400Y-85869602D01*
X114552299Y-85879169D01*
X114588029Y-85908492D01*
X114689464Y-85991736D01*
X114772708Y-86093171D01*
X114802031Y-86128901D01*
X114802032Y-86128903D01*
X114885677Y-86285390D01*
X114885677Y-86285391D01*
X114937186Y-86455192D01*
X114954578Y-86631780D01*
X114937186Y-86808368D01*
X114902847Y-86921569D01*
X114885677Y-86978170D01*
X114878587Y-86991434D01*
X114802031Y-87134659D01*
X114772708Y-87170389D01*
X114689464Y-87271824D01*
X114591424Y-87352282D01*
X114552299Y-87384391D01*
X114552297Y-87384392D01*
X114395810Y-87468037D01*
X114339209Y-87485207D01*
X114226008Y-87519546D01*
X114137782Y-87528235D01*
X114093670Y-87532580D01*
X114005170Y-87532580D01*
X113961058Y-87528235D01*
X113872832Y-87519546D01*
X113759631Y-87485207D01*
X113703030Y-87468037D01*
X113546543Y-87384392D01*
X113546541Y-87384391D01*
X113507416Y-87352282D01*
X113409376Y-87271824D01*
X113326132Y-87170389D01*
X113296809Y-87134659D01*
X113220253Y-86991434D01*
X113213163Y-86978170D01*
X113195993Y-86921569D01*
X113161654Y-86808368D01*
X113144262Y-86631780D01*
X113161654Y-86455192D01*
X113213163Y-86285391D01*
X113213163Y-86285390D01*
X113296808Y-86128903D01*
X113296809Y-86128901D01*
X113326132Y-86093171D01*
X113409376Y-85991736D01*
X113510811Y-85908492D01*
X113546541Y-85879169D01*
X113564440Y-85869602D01*
X113703030Y-85795523D01*
X113759631Y-85778353D01*
X113872832Y-85744014D01*
X113961058Y-85735325D01*
X114005170Y-85730980D01*
X114093670Y-85730980D01*
X114137782Y-85735325D01*
X114137782Y-85735325D01*
G37*
G36*
X202285152Y-84652969D02*
X202378583Y-84671553D01*
X202642612Y-84780918D01*
X202877072Y-84937579D01*
X202880234Y-84939692D01*
X203082308Y-85141766D01*
X203241083Y-85379390D01*
X203350447Y-85643418D01*
X203397341Y-85879168D01*
X203406200Y-85923709D01*
X203406200Y-86209491D01*
X203350447Y-86489783D01*
X203273114Y-86676480D01*
X203241083Y-86753810D01*
X203082308Y-86991434D01*
X202880234Y-87193508D01*
X202880231Y-87193510D01*
X202642612Y-87352282D01*
X202378583Y-87461647D01*
X202285152Y-87480231D01*
X202098293Y-87517400D01*
X201812507Y-87517400D01*
X201625648Y-87480231D01*
X201532217Y-87461647D01*
X201268188Y-87352282D01*
X201030569Y-87193510D01*
X201030566Y-87193508D01*
X200828492Y-86991434D01*
X200669717Y-86753810D01*
X200637686Y-86676480D01*
X200560353Y-86489783D01*
X200504600Y-86209491D01*
X200504600Y-85923709D01*
X200513460Y-85879168D01*
X200560353Y-85643418D01*
X200669717Y-85379390D01*
X200828492Y-85141766D01*
X201030566Y-84939692D01*
X201033728Y-84937579D01*
X201268188Y-84780918D01*
X201532217Y-84671553D01*
X201625648Y-84652969D01*
X201812507Y-84615800D01*
X202098293Y-84615800D01*
X202285152Y-84652969D01*
X202285152Y-84652969D01*
G37*
G36*
X114797820Y-81723600D02*
X112996220Y-81723600D01*
X112996220Y-79922000D01*
X114797820Y-79922000D01*
X114797820Y-81723600D01*
X114797820Y-81723600D01*
G37*
G36*
X118473200Y-81723600D02*
X116671600Y-81723600D01*
X116671600Y-79922000D01*
X118473200Y-79922000D01*
X118473200Y-81723600D01*
X118473200Y-81723600D01*
G37*
G36*
X117660762Y-77386345D02*
X117748988Y-77395034D01*
X117862189Y-77429373D01*
X117918790Y-77446543D01*
X118057380Y-77520622D01*
X118075279Y-77530189D01*
X118111009Y-77559512D01*
X118212444Y-77642756D01*
X118295688Y-77744191D01*
X118325011Y-77779921D01*
X118325012Y-77779923D01*
X118408657Y-77936410D01*
X118408657Y-77936411D01*
X118460166Y-78106212D01*
X118477558Y-78282800D01*
X118460166Y-78459388D01*
X118425827Y-78572589D01*
X118408657Y-78629190D01*
X118334578Y-78767780D01*
X118325011Y-78785679D01*
X118295688Y-78821409D01*
X118212444Y-78922844D01*
X118111009Y-79006088D01*
X118075279Y-79035411D01*
X118075277Y-79035412D01*
X117918790Y-79119057D01*
X117862189Y-79136227D01*
X117748988Y-79170566D01*
X117660762Y-79179255D01*
X117616650Y-79183600D01*
X117528150Y-79183600D01*
X117484038Y-79179255D01*
X117395812Y-79170566D01*
X117282611Y-79136227D01*
X117226010Y-79119057D01*
X117069523Y-79035412D01*
X117069521Y-79035411D01*
X117033791Y-79006088D01*
X116932356Y-78922844D01*
X116849112Y-78821409D01*
X116819789Y-78785679D01*
X116810222Y-78767780D01*
X116736143Y-78629190D01*
X116718973Y-78572589D01*
X116684634Y-78459388D01*
X116667242Y-78282800D01*
X116684634Y-78106212D01*
X116736143Y-77936411D01*
X116736143Y-77936410D01*
X116819788Y-77779923D01*
X116819789Y-77779921D01*
X116849112Y-77744191D01*
X116932356Y-77642756D01*
X117033791Y-77559512D01*
X117069521Y-77530189D01*
X117087420Y-77520622D01*
X117226010Y-77446543D01*
X117282611Y-77429373D01*
X117395812Y-77395034D01*
X117484038Y-77386345D01*
X117528150Y-77382000D01*
X117616650Y-77382000D01*
X117660762Y-77386345D01*
X117660762Y-77386345D01*
G37*
G36*
X113985382Y-77386345D02*
X114073608Y-77395034D01*
X114186809Y-77429373D01*
X114243410Y-77446543D01*
X114382000Y-77520622D01*
X114399899Y-77530189D01*
X114435629Y-77559512D01*
X114537064Y-77642756D01*
X114620308Y-77744191D01*
X114649631Y-77779921D01*
X114649632Y-77779923D01*
X114733277Y-77936410D01*
X114733277Y-77936411D01*
X114784786Y-78106212D01*
X114802178Y-78282800D01*
X114784786Y-78459388D01*
X114750447Y-78572589D01*
X114733277Y-78629190D01*
X114659198Y-78767780D01*
X114649631Y-78785679D01*
X114620308Y-78821409D01*
X114537064Y-78922844D01*
X114435629Y-79006088D01*
X114399899Y-79035411D01*
X114399897Y-79035412D01*
X114243410Y-79119057D01*
X114186809Y-79136227D01*
X114073608Y-79170566D01*
X113985382Y-79179255D01*
X113941270Y-79183600D01*
X113852770Y-79183600D01*
X113808658Y-79179255D01*
X113720432Y-79170566D01*
X113607231Y-79136227D01*
X113550630Y-79119057D01*
X113394143Y-79035412D01*
X113394141Y-79035411D01*
X113358411Y-79006088D01*
X113256976Y-78922844D01*
X113173732Y-78821409D01*
X113144409Y-78785679D01*
X113134842Y-78767780D01*
X113060763Y-78629190D01*
X113043593Y-78572589D01*
X113009254Y-78459388D01*
X112991862Y-78282800D01*
X113009254Y-78106212D01*
X113060763Y-77936411D01*
X113060763Y-77936410D01*
X113144408Y-77779923D01*
X113144409Y-77779921D01*
X113173732Y-77744191D01*
X113256976Y-77642756D01*
X113358411Y-77559512D01*
X113394141Y-77530189D01*
X113412040Y-77520622D01*
X113550630Y-77446543D01*
X113607231Y-77429373D01*
X113720432Y-77395034D01*
X113808658Y-77386345D01*
X113852770Y-77382000D01*
X113941270Y-77382000D01*
X113985382Y-77386345D01*
X113985382Y-77386345D01*
G37*
G36*
X117660762Y-74846345D02*
X117748988Y-74855034D01*
X117862189Y-74889373D01*
X117918790Y-74906543D01*
X118057380Y-74980622D01*
X118075279Y-74990189D01*
X118111009Y-75019512D01*
X118212444Y-75102756D01*
X118295688Y-75204191D01*
X118325011Y-75239921D01*
X118325012Y-75239923D01*
X118408657Y-75396410D01*
X118408657Y-75396411D01*
X118460166Y-75566212D01*
X118477558Y-75742800D01*
X118460166Y-75919388D01*
X118425827Y-76032589D01*
X118408657Y-76089190D01*
X118334578Y-76227780D01*
X118325011Y-76245679D01*
X118295688Y-76281409D01*
X118212444Y-76382844D01*
X118111009Y-76466088D01*
X118075279Y-76495411D01*
X118075277Y-76495412D01*
X117918790Y-76579057D01*
X117862189Y-76596227D01*
X117748988Y-76630566D01*
X117660762Y-76639255D01*
X117616650Y-76643600D01*
X117528150Y-76643600D01*
X117484038Y-76639255D01*
X117395812Y-76630566D01*
X117282611Y-76596227D01*
X117226010Y-76579057D01*
X117069523Y-76495412D01*
X117069521Y-76495411D01*
X117033791Y-76466088D01*
X116932356Y-76382844D01*
X116849112Y-76281409D01*
X116819789Y-76245679D01*
X116810222Y-76227780D01*
X116736143Y-76089190D01*
X116718973Y-76032589D01*
X116684634Y-75919388D01*
X116667242Y-75742800D01*
X116684634Y-75566212D01*
X116736143Y-75396411D01*
X116736143Y-75396410D01*
X116819788Y-75239923D01*
X116819789Y-75239921D01*
X116849112Y-75204191D01*
X116932356Y-75102756D01*
X117033791Y-75019512D01*
X117069521Y-74990189D01*
X117087420Y-74980622D01*
X117226010Y-74906543D01*
X117282611Y-74889373D01*
X117395812Y-74855034D01*
X117484038Y-74846345D01*
X117528150Y-74842000D01*
X117616650Y-74842000D01*
X117660762Y-74846345D01*
X117660762Y-74846345D01*
G37*
G36*
X113985382Y-74846345D02*
X114073608Y-74855034D01*
X114186809Y-74889373D01*
X114243410Y-74906543D01*
X114382000Y-74980622D01*
X114399899Y-74990189D01*
X114435629Y-75019512D01*
X114537064Y-75102756D01*
X114620308Y-75204191D01*
X114649631Y-75239921D01*
X114649632Y-75239923D01*
X114733277Y-75396410D01*
X114733277Y-75396411D01*
X114784786Y-75566212D01*
X114802178Y-75742800D01*
X114784786Y-75919388D01*
X114750447Y-76032589D01*
X114733277Y-76089190D01*
X114659198Y-76227780D01*
X114649631Y-76245679D01*
X114620308Y-76281409D01*
X114537064Y-76382844D01*
X114435629Y-76466088D01*
X114399899Y-76495411D01*
X114399897Y-76495412D01*
X114243410Y-76579057D01*
X114186809Y-76596227D01*
X114073608Y-76630566D01*
X113985382Y-76639255D01*
X113941270Y-76643600D01*
X113852770Y-76643600D01*
X113808658Y-76639255D01*
X113720432Y-76630566D01*
X113607231Y-76596227D01*
X113550630Y-76579057D01*
X113394143Y-76495412D01*
X113394141Y-76495411D01*
X113358411Y-76466088D01*
X113256976Y-76382844D01*
X113173732Y-76281409D01*
X113144409Y-76245679D01*
X113134842Y-76227780D01*
X113060763Y-76089190D01*
X113043593Y-76032589D01*
X113009254Y-75919388D01*
X112991862Y-75742800D01*
X113009254Y-75566212D01*
X113060763Y-75396411D01*
X113060763Y-75396410D01*
X113144408Y-75239923D01*
X113144409Y-75239921D01*
X113173732Y-75204191D01*
X113256976Y-75102756D01*
X113358411Y-75019512D01*
X113394141Y-74990189D01*
X113412040Y-74980622D01*
X113550630Y-74906543D01*
X113607231Y-74889373D01*
X113720432Y-74855034D01*
X113808658Y-74846345D01*
X113852770Y-74842000D01*
X113941270Y-74842000D01*
X113985382Y-74846345D01*
X113985382Y-74846345D01*
G37*
G36*
X134708800Y-65874800D02*
X133007200Y-65874800D01*
X133007200Y-64173200D01*
X134708800Y-64173200D01*
X134708800Y-65874800D01*
X134708800Y-65874800D01*
G37*
G36*
X136606169Y-64205895D02*
X136761005Y-64270031D01*
X136900354Y-64363140D01*
X137018860Y-64481646D01*
X137111969Y-64620995D01*
X137176105Y-64775831D01*
X137208800Y-64940203D01*
X137208800Y-65107797D01*
X137176105Y-65272169D01*
X137111969Y-65427005D01*
X137018860Y-65566354D01*
X136900354Y-65684860D01*
X136761005Y-65777969D01*
X136606169Y-65842105D01*
X136441797Y-65874800D01*
X136274203Y-65874800D01*
X136109831Y-65842105D01*
X135954995Y-65777969D01*
X135815646Y-65684860D01*
X135697140Y-65566354D01*
X135604031Y-65427005D01*
X135539895Y-65272169D01*
X135507200Y-65107797D01*
X135507200Y-64940203D01*
X135539895Y-64775831D01*
X135604031Y-64620995D01*
X135697140Y-64481646D01*
X135815646Y-64363140D01*
X135954995Y-64270031D01*
X136109831Y-64205895D01*
X136274203Y-64173200D01*
X136441797Y-64173200D01*
X136606169Y-64205895D01*
X136606169Y-64205895D01*
G37*
G36*
X117386409Y-55673016D02*
X117656963Y-55726833D01*
X117868092Y-55814285D01*
X118166675Y-55937962D01*
X118166676Y-55937963D01*
X118625406Y-56244476D01*
X119015524Y-56634594D01*
X119245409Y-56978641D01*
X119322038Y-57093325D01*
X119368989Y-57206675D01*
X119533167Y-57603037D01*
X119586983Y-57873591D01*
X119640800Y-58144144D01*
X119640800Y-58695856D01*
X119533167Y-59236962D01*
X119322038Y-59746675D01*
X119322037Y-59746676D01*
X119015524Y-60205406D01*
X118625406Y-60595524D01*
X118281358Y-60825409D01*
X118166675Y-60902038D01*
X117868092Y-61025715D01*
X117656963Y-61113167D01*
X117386409Y-61166984D01*
X117115856Y-61220800D01*
X116564144Y-61220800D01*
X116293591Y-61166984D01*
X116023037Y-61113167D01*
X115811908Y-61025715D01*
X115513325Y-60902038D01*
X115398642Y-60825409D01*
X115054594Y-60595524D01*
X114664476Y-60205406D01*
X114357963Y-59746676D01*
X114357962Y-59746675D01*
X114146833Y-59236962D01*
X114039200Y-58695856D01*
X114039200Y-58144144D01*
X114093017Y-57873591D01*
X114146833Y-57603037D01*
X114311011Y-57206675D01*
X114357962Y-57093325D01*
X114434591Y-56978641D01*
X114664476Y-56634594D01*
X115054594Y-56244476D01*
X115513324Y-55937963D01*
X115513325Y-55937962D01*
X115811908Y-55814285D01*
X116023037Y-55726833D01*
X116293591Y-55673016D01*
X116564144Y-55619200D01*
X117115856Y-55619200D01*
X117386409Y-55673016D01*
X117386409Y-55673016D01*
G37*
G36*
X203746409Y-53133017D02*
X204016963Y-53186833D01*
X204228092Y-53274285D01*
X204526675Y-53397962D01*
X204526676Y-53397963D01*
X204985406Y-53704476D01*
X205375524Y-54094594D01*
X205605409Y-54438641D01*
X205682038Y-54553325D01*
X205805715Y-54851908D01*
X205893167Y-55063037D01*
X206000800Y-55604145D01*
X206000800Y-56155855D01*
X205905574Y-56634591D01*
X205893167Y-56696962D01*
X205682038Y-57206675D01*
X205682037Y-57206676D01*
X205375524Y-57665406D01*
X204985406Y-58055524D01*
X204641358Y-58285409D01*
X204526675Y-58362038D01*
X204228092Y-58485715D01*
X204016963Y-58573167D01*
X203746409Y-58626984D01*
X203475856Y-58680800D01*
X202924144Y-58680800D01*
X202653591Y-58626984D01*
X202383037Y-58573167D01*
X202171908Y-58485715D01*
X201873325Y-58362038D01*
X201758641Y-58285409D01*
X201414594Y-58055524D01*
X201024476Y-57665406D01*
X200717963Y-57206676D01*
X200717962Y-57206675D01*
X200506833Y-56696962D01*
X200494427Y-56634591D01*
X200399200Y-56155855D01*
X200399200Y-55604145D01*
X200506833Y-55063037D01*
X200594285Y-54851908D01*
X200717962Y-54553325D01*
X200794591Y-54438641D01*
X201024476Y-54094594D01*
X201414594Y-53704476D01*
X201873324Y-53397963D01*
X201873325Y-53397962D01*
X202171908Y-53274285D01*
X202383037Y-53186833D01*
X202653591Y-53133017D01*
X202924144Y-53079200D01*
X203475856Y-53079200D01*
X203746409Y-53133017D01*
X203746409Y-53133017D01*
G37*
M02*
